%TF.GenerationSoftware,KiCad,Pcbnew,8.0.5*%
%TF.CreationDate,2024-11-11T11:01:58-06:00*%
%TF.ProjectId,dac_test_board,6461635f-7465-4737-945f-626f6172642e,rev?*%
%TF.SameCoordinates,Original*%
%TF.FileFunction,Copper,L2,Bot*%
%TF.FilePolarity,Positive*%
%FSLAX46Y46*%
G04 Gerber Fmt 4.6, Leading zero omitted, Abs format (unit mm)*
G04 Created by KiCad (PCBNEW 8.0.5) date 2024-11-11 11:01:58*
%MOMM*%
%LPD*%
G01*
G04 APERTURE LIST*
%TA.AperFunction,ComponentPad*%
%ADD10R,1.700000X1.700000*%
%TD*%
%TA.AperFunction,ComponentPad*%
%ADD11O,1.700000X1.700000*%
%TD*%
%TA.AperFunction,ViaPad*%
%ADD12C,0.800000*%
%TD*%
%TA.AperFunction,Conductor*%
%ADD13C,0.250000*%
%TD*%
G04 APERTURE END LIST*
D10*
%TO.P,J4,1,Pin_1*%
%TO.N,+3V3*%
X170180000Y-111760000D03*
D11*
%TO.P,J4,2,Pin_2*%
%TO.N,GND*%
X170180000Y-114300000D03*
%TO.P,J4,3,Pin_3*%
%TO.N,/I2C1_SCL*%
X170180000Y-116840000D03*
%TO.P,J4,4,Pin_4*%
%TO.N,GND*%
X170180000Y-119380000D03*
%TO.P,J4,5,Pin_5*%
%TO.N,/I2C1_SDA*%
X170180000Y-121920000D03*
%TD*%
D10*
%TO.P,J2,1,Pin_1*%
%TO.N,+5V*%
X149860000Y-111760000D03*
D11*
%TO.P,J2,2,Pin_2*%
%TO.N,GND*%
X149860000Y-114300000D03*
%TO.P,J2,3,Pin_3*%
%TO.N,/Vdac_half*%
X149860000Y-116840000D03*
%TO.P,J2,4,Pin_4*%
%TO.N,GND*%
X149860000Y-119380000D03*
%TO.P,J2,5,Pin_5*%
%TO.N,Vdac_out*%
X149860000Y-121920000D03*
%TD*%
D12*
%TO.N,GND*%
X164998400Y-115011200D03*
X163017200Y-115519200D03*
X162435001Y-121412075D03*
X157632400Y-107340400D03*
X163017200Y-114452400D03*
X157226000Y-121539000D03*
X162407600Y-107340400D03*
X164642800Y-120446800D03*
X154838400Y-108204000D03*
X154051000Y-122555000D03*
X165303200Y-108254800D03*
X163677600Y-119786400D03*
X155194000Y-112166400D03*
X157632400Y-108813600D03*
X162407600Y-108813600D03*
%TO.N,+5V*%
X160274000Y-123444000D03*
X158902400Y-123444000D03*
X162306000Y-122428000D03*
%TO.N,/I2C1_SDA*%
X160015347Y-116327347D03*
X163580653Y-123245000D03*
%TD*%
D13*
%TO.N,/I2C1_SDA*%
X160528000Y-122428000D02*
X160528000Y-116840000D01*
X160528000Y-116840000D02*
X160015347Y-116327347D01*
X161345000Y-123245000D02*
X160528000Y-122428000D01*
X163580653Y-123245000D02*
X161345000Y-123245000D01*
%TD*%
%TA.AperFunction,Conductor*%
%TO.N,+5V*%
G36*
X152119138Y-106825093D02*
G01*
X152144858Y-106869642D01*
X152146000Y-106882700D01*
X152146000Y-112827800D01*
X152128407Y-112876138D01*
X152083858Y-112901858D01*
X152070800Y-112903000D01*
X150781686Y-112903000D01*
X150733348Y-112885407D01*
X150707628Y-112840858D01*
X150716561Y-112790200D01*
X150755966Y-112757135D01*
X150767015Y-112754045D01*
X150769462Y-112753558D01*
X150769464Y-112753557D01*
X150819873Y-112719873D01*
X150853557Y-112669464D01*
X150853558Y-112669462D01*
X150862400Y-112625012D01*
X150862400Y-112610000D01*
X148857600Y-112610000D01*
X148857600Y-112625012D01*
X148866441Y-112669462D01*
X148866442Y-112669464D01*
X148900126Y-112719873D01*
X148950535Y-112753557D01*
X148950537Y-112753558D01*
X148952985Y-112754045D01*
X148955720Y-112755705D01*
X148957379Y-112756392D01*
X148957273Y-112756647D01*
X148996961Y-112780730D01*
X149013496Y-112829440D01*
X148994853Y-112877383D01*
X148949754Y-112902125D01*
X148938314Y-112903000D01*
X148844000Y-112903000D01*
X148844000Y-114019286D01*
X148840762Y-114041114D01*
X148824700Y-114094064D01*
X148824699Y-114094067D01*
X148804417Y-114300000D01*
X148824699Y-114505932D01*
X148840762Y-114558883D01*
X148844000Y-114580712D01*
X148844000Y-116559286D01*
X148840762Y-116581114D01*
X148824700Y-116634064D01*
X148824699Y-116634067D01*
X148804417Y-116840000D01*
X148824699Y-117045932D01*
X148840762Y-117098883D01*
X148844000Y-117120712D01*
X148844000Y-119099286D01*
X148840762Y-119121114D01*
X148824700Y-119174064D01*
X148824699Y-119174067D01*
X148804417Y-119380000D01*
X148824699Y-119585932D01*
X148840762Y-119638883D01*
X148844000Y-119660712D01*
X148844000Y-121639286D01*
X148840762Y-121661114D01*
X148824700Y-121714064D01*
X148824699Y-121714067D01*
X148804417Y-121920000D01*
X148824699Y-122125932D01*
X148840762Y-122178883D01*
X148844000Y-122200712D01*
X148844000Y-123444000D01*
X158115000Y-123444000D01*
X158115000Y-121995200D01*
X158132593Y-121946862D01*
X158177142Y-121921142D01*
X158190200Y-121920000D01*
X160127300Y-121920000D01*
X160175638Y-121937593D01*
X160201358Y-121982142D01*
X160202500Y-121995200D01*
X160202500Y-122385147D01*
X160202500Y-122470853D01*
X160224682Y-122553638D01*
X160224685Y-122553646D01*
X160267534Y-122627862D01*
X160684811Y-123045138D01*
X161084534Y-123444861D01*
X161084535Y-123444862D01*
X161145138Y-123505465D01*
X161177864Y-123524359D01*
X161219359Y-123548317D01*
X161219361Y-123548317D01*
X161219362Y-123548318D01*
X161302147Y-123570500D01*
X161302150Y-123570500D01*
X162484800Y-123570500D01*
X162533138Y-123588093D01*
X162558858Y-123632642D01*
X162560000Y-123645700D01*
X162560000Y-124257300D01*
X162542407Y-124305638D01*
X162497858Y-124331358D01*
X162484800Y-124332500D01*
X148157700Y-124332500D01*
X148109362Y-124314907D01*
X148083642Y-124270358D01*
X148082500Y-124257300D01*
X148082500Y-111694174D01*
X149360000Y-111694174D01*
X149360000Y-111825826D01*
X149394075Y-111952993D01*
X149459901Y-112067007D01*
X149552993Y-112160099D01*
X149667007Y-112225925D01*
X149794174Y-112260000D01*
X149925826Y-112260000D01*
X150052993Y-112225925D01*
X150167007Y-112160099D01*
X150260099Y-112067007D01*
X150325925Y-111952993D01*
X150360000Y-111825826D01*
X150360000Y-111694174D01*
X150325925Y-111567007D01*
X150260099Y-111452993D01*
X150167007Y-111359901D01*
X150052993Y-111294075D01*
X149925826Y-111260000D01*
X149794174Y-111260000D01*
X149667007Y-111294075D01*
X149552993Y-111359901D01*
X149459901Y-111452993D01*
X149394075Y-111567007D01*
X149360000Y-111694174D01*
X148082500Y-111694174D01*
X148082500Y-110894987D01*
X148857600Y-110894987D01*
X148857600Y-110910000D01*
X149010000Y-110910000D01*
X150710000Y-110910000D01*
X150862400Y-110910000D01*
X150862400Y-110894987D01*
X150853558Y-110850537D01*
X150853557Y-110850535D01*
X150819873Y-110800126D01*
X150769464Y-110766442D01*
X150769462Y-110766441D01*
X150725013Y-110757600D01*
X150710000Y-110757600D01*
X150710000Y-110910000D01*
X149010000Y-110910000D01*
X149010000Y-110757600D01*
X148994987Y-110757600D01*
X148950537Y-110766441D01*
X148950535Y-110766442D01*
X148900126Y-110800126D01*
X148866442Y-110850535D01*
X148866441Y-110850537D01*
X148857600Y-110894987D01*
X148082500Y-110894987D01*
X148082500Y-106882700D01*
X148100093Y-106834362D01*
X148144642Y-106808642D01*
X148157700Y-106807500D01*
X152070800Y-106807500D01*
X152119138Y-106825093D01*
G37*
%TD.AperFunction*%
%TA.AperFunction,Conductor*%
G36*
X162127691Y-121934496D02*
G01*
X162127893Y-121934147D01*
X162129650Y-121935161D01*
X162130762Y-121935539D01*
X162132154Y-121936607D01*
X162132157Y-121936608D01*
X162132160Y-121936611D01*
X162278239Y-121997119D01*
X162435001Y-122017757D01*
X162435002Y-122017756D01*
X162435004Y-122017757D01*
X162457803Y-122014754D01*
X162474983Y-122012493D01*
X162525204Y-122023625D01*
X162556519Y-122064435D01*
X162560000Y-122087049D01*
X162560000Y-122844300D01*
X162542407Y-122892638D01*
X162497858Y-122918358D01*
X162484800Y-122919500D01*
X161510975Y-122919500D01*
X161462637Y-122901907D01*
X161457801Y-122897474D01*
X160875526Y-122315199D01*
X160853786Y-122268579D01*
X160853500Y-122262025D01*
X160853500Y-121995200D01*
X160871093Y-121946862D01*
X160915642Y-121921142D01*
X160928700Y-121920000D01*
X162084985Y-121920000D01*
X162127691Y-121934496D01*
G37*
%TD.AperFunction*%
%TD*%
%TA.AperFunction,Conductor*%
%TO.N,GND*%
G36*
X171930638Y-106825093D02*
G01*
X171956358Y-106869642D01*
X171957500Y-106882700D01*
X171957500Y-124257300D01*
X171939907Y-124305638D01*
X171895358Y-124331358D01*
X171882300Y-124332500D01*
X162840700Y-124332500D01*
X162792362Y-124314907D01*
X162766642Y-124270358D01*
X162765500Y-124257300D01*
X162765500Y-123645700D01*
X162783093Y-123597362D01*
X162827642Y-123571642D01*
X162840700Y-123570500D01*
X163036419Y-123570500D01*
X163084757Y-123588093D01*
X163096079Y-123599921D01*
X163152370Y-123673282D01*
X163230454Y-123733197D01*
X163277812Y-123769536D01*
X163423891Y-123830044D01*
X163580653Y-123850682D01*
X163737415Y-123830044D01*
X163883494Y-123769536D01*
X164008935Y-123673282D01*
X164105189Y-123547841D01*
X164165697Y-123401762D01*
X164186335Y-123245000D01*
X164165697Y-123088238D01*
X164105189Y-122942159D01*
X164040119Y-122857358D01*
X164008935Y-122816717D01*
X163897020Y-122730843D01*
X163883494Y-122720464D01*
X163869528Y-122714679D01*
X163737416Y-122659956D01*
X163580653Y-122639318D01*
X163423889Y-122659956D01*
X163277813Y-122720463D01*
X163277810Y-122720465D01*
X163152370Y-122816717D01*
X163096079Y-122890079D01*
X163052695Y-122917717D01*
X163036419Y-122919500D01*
X162840700Y-122919500D01*
X162792362Y-122901907D01*
X162766642Y-122857358D01*
X162765500Y-122844300D01*
X162765500Y-122841124D01*
X162781040Y-122795345D01*
X162830536Y-122730841D01*
X162891044Y-122584762D01*
X162911682Y-122428000D01*
X162891044Y-122271238D01*
X162830536Y-122125159D01*
X162769909Y-122046149D01*
X162759790Y-122026691D01*
X162759655Y-122026753D01*
X162758403Y-122024025D01*
X162757833Y-122022928D01*
X162757686Y-122022461D01*
X162745180Y-121995200D01*
X162719552Y-121939334D01*
X162704716Y-121920000D01*
X169124417Y-121920000D01*
X169144699Y-122125932D01*
X169204765Y-122323947D01*
X169204770Y-122323959D01*
X169260382Y-122428000D01*
X169302315Y-122506450D01*
X169433590Y-122666410D01*
X169593550Y-122797685D01*
X169776046Y-122895232D01*
X169776050Y-122895233D01*
X169776052Y-122895234D01*
X169839838Y-122914583D01*
X169974066Y-122955300D01*
X170180000Y-122975583D01*
X170385934Y-122955300D01*
X170583954Y-122895232D01*
X170766450Y-122797685D01*
X170926410Y-122666410D01*
X171057685Y-122506450D01*
X171155232Y-122323954D01*
X171215300Y-122125934D01*
X171235583Y-121920000D01*
X171215300Y-121714066D01*
X171155232Y-121516046D01*
X171057685Y-121333550D01*
X170926410Y-121173590D01*
X170766450Y-121042315D01*
X170766445Y-121042312D01*
X170583959Y-120944770D01*
X170583947Y-120944765D01*
X170385932Y-120884699D01*
X170180000Y-120864417D01*
X169974067Y-120884699D01*
X169776052Y-120944765D01*
X169776040Y-120944770D01*
X169593554Y-121042312D01*
X169593549Y-121042315D01*
X169433590Y-121173590D01*
X169302315Y-121333549D01*
X169302312Y-121333554D01*
X169204770Y-121516040D01*
X169204765Y-121516052D01*
X169144699Y-121714067D01*
X169124417Y-121920000D01*
X162704716Y-121920000D01*
X162688237Y-121898524D01*
X162652322Y-121862159D01*
X162652321Y-121862158D01*
X162610999Y-121842577D01*
X162569676Y-121822995D01*
X162569673Y-121822994D01*
X162569670Y-121822993D01*
X162519460Y-121811864D01*
X162519458Y-121811863D01*
X162519455Y-121811863D01*
X162519450Y-121811862D01*
X162519444Y-121811862D01*
X162448177Y-121808749D01*
X162448159Y-121808750D01*
X162444811Y-121809191D01*
X162425186Y-121809191D01*
X162341700Y-121798200D01*
X162322737Y-121793119D01*
X162219836Y-121750496D01*
X162216837Y-121747748D01*
X162199824Y-121741967D01*
X162199762Y-121741943D01*
X162199762Y-121741945D01*
X162198855Y-121741636D01*
X162194331Y-121739931D01*
X162190206Y-121738222D01*
X162188072Y-121737692D01*
X162182022Y-121735915D01*
X162166848Y-121730757D01*
X162166329Y-121730595D01*
X162151042Y-121725406D01*
X162151039Y-121725405D01*
X162151038Y-121725405D01*
X162084985Y-121714500D01*
X160928700Y-121714500D01*
X160880362Y-121696907D01*
X160854642Y-121652358D01*
X160853500Y-121639300D01*
X160853500Y-119314174D01*
X169680000Y-119314174D01*
X169680000Y-119445826D01*
X169714075Y-119572993D01*
X169779901Y-119687007D01*
X169872993Y-119780099D01*
X169987007Y-119845925D01*
X170114174Y-119880000D01*
X170245826Y-119880000D01*
X170372993Y-119845925D01*
X170487007Y-119780099D01*
X170580099Y-119687007D01*
X170645925Y-119572993D01*
X170680000Y-119445826D01*
X170680000Y-119314174D01*
X170645925Y-119187007D01*
X170580099Y-119072993D01*
X170487007Y-118979901D01*
X170372993Y-118914075D01*
X170245826Y-118880000D01*
X170114174Y-118880000D01*
X169987007Y-118914075D01*
X169872993Y-118979901D01*
X169779901Y-119072993D01*
X169714075Y-119187007D01*
X169680000Y-119314174D01*
X160853500Y-119314174D01*
X160853500Y-116840000D01*
X169124417Y-116840000D01*
X169144699Y-117045932D01*
X169204765Y-117243947D01*
X169204770Y-117243959D01*
X169302312Y-117426445D01*
X169302315Y-117426450D01*
X169433590Y-117586410D01*
X169593550Y-117717685D01*
X169776046Y-117815232D01*
X169776050Y-117815233D01*
X169776052Y-117815234D01*
X169849778Y-117837598D01*
X169974066Y-117875300D01*
X170180000Y-117895583D01*
X170385934Y-117875300D01*
X170583954Y-117815232D01*
X170766450Y-117717685D01*
X170926410Y-117586410D01*
X171057685Y-117426450D01*
X171155232Y-117243954D01*
X171215300Y-117045934D01*
X171235583Y-116840000D01*
X171215300Y-116634066D01*
X171155232Y-116436046D01*
X171057685Y-116253550D01*
X170926410Y-116093590D01*
X170766450Y-115962315D01*
X170766445Y-115962312D01*
X170583959Y-115864770D01*
X170583947Y-115864765D01*
X170385932Y-115804699D01*
X170180000Y-115784417D01*
X169974067Y-115804699D01*
X169776052Y-115864765D01*
X169776040Y-115864770D01*
X169593554Y-115962312D01*
X169593549Y-115962315D01*
X169433590Y-116093590D01*
X169302315Y-116253549D01*
X169302312Y-116253554D01*
X169204770Y-116436040D01*
X169204765Y-116436052D01*
X169144699Y-116634067D01*
X169124417Y-116840000D01*
X160853500Y-116840000D01*
X160853500Y-116797147D01*
X160846496Y-116771006D01*
X160846496Y-116771007D01*
X160831318Y-116714361D01*
X160808215Y-116674347D01*
X160788465Y-116640138D01*
X160788463Y-116640136D01*
X160788461Y-116640133D01*
X160725247Y-116576919D01*
X160725224Y-116576898D01*
X160630341Y-116482015D01*
X160608601Y-116435395D01*
X160608957Y-116419031D01*
X160621029Y-116327347D01*
X160600391Y-116170585D01*
X160539883Y-116024506D01*
X160492160Y-115962312D01*
X160443629Y-115899064D01*
X160318189Y-115802812D01*
X160318188Y-115802811D01*
X160318186Y-115802810D01*
X160172110Y-115742303D01*
X160015347Y-115721665D01*
X159858583Y-115742303D01*
X159712507Y-115802810D01*
X159712504Y-115802812D01*
X159587064Y-115899064D01*
X159490812Y-116024504D01*
X159490810Y-116024507D01*
X159430303Y-116170583D01*
X159409665Y-116327347D01*
X159430303Y-116484110D01*
X159468746Y-116576919D01*
X159490811Y-116630188D01*
X159498442Y-116640133D01*
X159587064Y-116755629D01*
X159641172Y-116797147D01*
X159712506Y-116851883D01*
X159858585Y-116912391D01*
X160015347Y-116933029D01*
X160107027Y-116920958D01*
X160157245Y-116932092D01*
X160170015Y-116942341D01*
X160180474Y-116952800D01*
X160202214Y-116999420D01*
X160202500Y-117005974D01*
X160202500Y-121639300D01*
X160184907Y-121687638D01*
X160140358Y-121713358D01*
X160127300Y-121714500D01*
X158190200Y-121714500D01*
X158180776Y-121714911D01*
X158172287Y-121715281D01*
X158160543Y-121716308D01*
X158159238Y-121716423D01*
X158074393Y-121743173D01*
X158074390Y-121743174D01*
X158074389Y-121743175D01*
X158029837Y-121768896D01*
X157989103Y-121799753D01*
X157939485Y-121876578D01*
X157939483Y-121876582D01*
X157921891Y-121924916D01*
X157909500Y-121995200D01*
X157909500Y-123163300D01*
X157891907Y-123211638D01*
X157847358Y-123237358D01*
X157834300Y-123238500D01*
X149124700Y-123238500D01*
X149076362Y-123220907D01*
X149050642Y-123176358D01*
X149049500Y-123163300D01*
X149049500Y-122772809D01*
X149067093Y-122724471D01*
X149111642Y-122698751D01*
X149162300Y-122707684D01*
X149172406Y-122714679D01*
X149273542Y-122797679D01*
X149273545Y-122797681D01*
X149273550Y-122797685D01*
X149456046Y-122895232D01*
X149456050Y-122895233D01*
X149456052Y-122895234D01*
X149519838Y-122914583D01*
X149654066Y-122955300D01*
X149860000Y-122975583D01*
X150065934Y-122955300D01*
X150263954Y-122895232D01*
X150446450Y-122797685D01*
X150606410Y-122666410D01*
X150737685Y-122506450D01*
X150835232Y-122323954D01*
X150895300Y-122125934D01*
X150915583Y-121920000D01*
X150895300Y-121714066D01*
X150835232Y-121516046D01*
X150737685Y-121333550D01*
X150606410Y-121173590D01*
X150446450Y-121042315D01*
X150446445Y-121042312D01*
X150263959Y-120944770D01*
X150263947Y-120944765D01*
X150065932Y-120884699D01*
X149860000Y-120864417D01*
X149654067Y-120884699D01*
X149456052Y-120944765D01*
X149456040Y-120944770D01*
X149273554Y-121042312D01*
X149273549Y-121042315D01*
X149172406Y-121125321D01*
X149123879Y-121142386D01*
X149075737Y-121124266D01*
X149050504Y-121079439D01*
X149049500Y-121067190D01*
X149049500Y-119660714D01*
X149049500Y-119660712D01*
X149047276Y-119630559D01*
X149044038Y-119608730D01*
X149037413Y-119579228D01*
X149029375Y-119552731D01*
X149026500Y-119538284D01*
X149011636Y-119387360D01*
X149011636Y-119372637D01*
X149017394Y-119314174D01*
X149360000Y-119314174D01*
X149360000Y-119445826D01*
X149394075Y-119572993D01*
X149459901Y-119687007D01*
X149552993Y-119780099D01*
X149667007Y-119845925D01*
X149794174Y-119880000D01*
X149925826Y-119880000D01*
X150052993Y-119845925D01*
X150167007Y-119780099D01*
X150260099Y-119687007D01*
X150325925Y-119572993D01*
X150360000Y-119445826D01*
X150360000Y-119314174D01*
X150325925Y-119187007D01*
X150260099Y-119072993D01*
X150167007Y-118979901D01*
X150052993Y-118914075D01*
X149925826Y-118880000D01*
X149794174Y-118880000D01*
X149667007Y-118914075D01*
X149552993Y-118979901D01*
X149459901Y-119072993D01*
X149394075Y-119187007D01*
X149360000Y-119314174D01*
X149017394Y-119314174D01*
X149026500Y-119221709D01*
X149029376Y-119207259D01*
X149037413Y-119180767D01*
X149044038Y-119151268D01*
X149047276Y-119129440D01*
X149049500Y-119099286D01*
X149049500Y-117692809D01*
X149067093Y-117644471D01*
X149111642Y-117618751D01*
X149162300Y-117627684D01*
X149172406Y-117634679D01*
X149273542Y-117717679D01*
X149273545Y-117717681D01*
X149273550Y-117717685D01*
X149456046Y-117815232D01*
X149456050Y-117815233D01*
X149456052Y-117815234D01*
X149529778Y-117837598D01*
X149654066Y-117875300D01*
X149860000Y-117895583D01*
X150065934Y-117875300D01*
X150263954Y-117815232D01*
X150446450Y-117717685D01*
X150606410Y-117586410D01*
X150737685Y-117426450D01*
X150835232Y-117243954D01*
X150895300Y-117045934D01*
X150915583Y-116840000D01*
X150895300Y-116634066D01*
X150835232Y-116436046D01*
X150737685Y-116253550D01*
X150606410Y-116093590D01*
X150446450Y-115962315D01*
X150446445Y-115962312D01*
X150263959Y-115864770D01*
X150263947Y-115864765D01*
X150065932Y-115804699D01*
X149860000Y-115784417D01*
X149654067Y-115804699D01*
X149456052Y-115864765D01*
X149456040Y-115864770D01*
X149273554Y-115962312D01*
X149273549Y-115962315D01*
X149172406Y-116045321D01*
X149123879Y-116062386D01*
X149075737Y-116044266D01*
X149050504Y-115999439D01*
X149049500Y-115987190D01*
X149049500Y-114580714D01*
X149049500Y-114580712D01*
X149047276Y-114550559D01*
X149044038Y-114528730D01*
X149037413Y-114499228D01*
X149029375Y-114472731D01*
X149026500Y-114458284D01*
X149011636Y-114307360D01*
X149011636Y-114292637D01*
X149017394Y-114234174D01*
X149360000Y-114234174D01*
X149360000Y-114365826D01*
X149394075Y-114492993D01*
X149459901Y-114607007D01*
X149552993Y-114700099D01*
X149667007Y-114765925D01*
X149794174Y-114800000D01*
X149925826Y-114800000D01*
X150052993Y-114765925D01*
X150167007Y-114700099D01*
X150260099Y-114607007D01*
X150325925Y-114492993D01*
X150360000Y-114365826D01*
X150360000Y-114234174D01*
X169680000Y-114234174D01*
X169680000Y-114365826D01*
X169714075Y-114492993D01*
X169779901Y-114607007D01*
X169872993Y-114700099D01*
X169987007Y-114765925D01*
X170114174Y-114800000D01*
X170245826Y-114800000D01*
X170372993Y-114765925D01*
X170487007Y-114700099D01*
X170580099Y-114607007D01*
X170645925Y-114492993D01*
X170680000Y-114365826D01*
X170680000Y-114234174D01*
X170645925Y-114107007D01*
X170580099Y-113992993D01*
X170487007Y-113899901D01*
X170372993Y-113834075D01*
X170245826Y-113800000D01*
X170114174Y-113800000D01*
X169987007Y-113834075D01*
X169872993Y-113899901D01*
X169779901Y-113992993D01*
X169714075Y-114107007D01*
X169680000Y-114234174D01*
X150360000Y-114234174D01*
X150325925Y-114107007D01*
X150260099Y-113992993D01*
X150167007Y-113899901D01*
X150052993Y-113834075D01*
X149925826Y-113800000D01*
X149794174Y-113800000D01*
X149667007Y-113834075D01*
X149552993Y-113899901D01*
X149459901Y-113992993D01*
X149394075Y-114107007D01*
X149360000Y-114234174D01*
X149017394Y-114234174D01*
X149026500Y-114141709D01*
X149029376Y-114127259D01*
X149037413Y-114100767D01*
X149044038Y-114071268D01*
X149047276Y-114049440D01*
X149049500Y-114019286D01*
X149049500Y-113126314D01*
X149067093Y-113077976D01*
X149088535Y-113060382D01*
X149093696Y-113057551D01*
X149098461Y-113054103D01*
X149135096Y-113027589D01*
X149135096Y-113027588D01*
X149135100Y-113027586D01*
X149186382Y-112951861D01*
X149205025Y-112903918D01*
X149212953Y-112872372D01*
X149241797Y-112829780D01*
X149285885Y-112815500D01*
X150434644Y-112815500D01*
X150482982Y-112833093D01*
X150506503Y-112868535D01*
X150529657Y-112943603D01*
X150529658Y-112943606D01*
X150555382Y-112988162D01*
X150581959Y-113023246D01*
X150586239Y-113028896D01*
X150663065Y-113078515D01*
X150663068Y-113078516D01*
X150711402Y-113096108D01*
X150781686Y-113108500D01*
X152070790Y-113108500D01*
X152070800Y-113108500D01*
X152088704Y-113107719D01*
X152101762Y-113106577D01*
X152186607Y-113079827D01*
X152231156Y-113054107D01*
X152231158Y-113054104D01*
X152231162Y-113054103D01*
X152245529Y-113043219D01*
X152271896Y-113023247D01*
X152321515Y-112946421D01*
X152339108Y-112898083D01*
X152351500Y-112827800D01*
X152351500Y-110890251D01*
X169129500Y-110890251D01*
X169129500Y-112629748D01*
X169141132Y-112688229D01*
X169141133Y-112688231D01*
X169185448Y-112754552D01*
X169251769Y-112798867D01*
X169281010Y-112804683D01*
X169310251Y-112810500D01*
X169310252Y-112810500D01*
X171049749Y-112810500D01*
X171069242Y-112806622D01*
X171108231Y-112798867D01*
X171174552Y-112754552D01*
X171218867Y-112688231D01*
X171230500Y-112629748D01*
X171230500Y-110890252D01*
X171218867Y-110831769D01*
X171174552Y-110765448D01*
X171108231Y-110721133D01*
X171108229Y-110721132D01*
X171049749Y-110709500D01*
X171049748Y-110709500D01*
X169310252Y-110709500D01*
X169310251Y-110709500D01*
X169251770Y-110721132D01*
X169251768Y-110721133D01*
X169185448Y-110765448D01*
X169141133Y-110831768D01*
X169141132Y-110831770D01*
X169129500Y-110890251D01*
X152351500Y-110890251D01*
X152351500Y-106882700D01*
X152369093Y-106834362D01*
X152413642Y-106808642D01*
X152426700Y-106807500D01*
X171882300Y-106807500D01*
X171930638Y-106825093D01*
G37*
%TD.AperFunction*%
%TD*%
M02*
