%TF.GenerationSoftware,KiCad,Pcbnew,8.0.5*%
%TF.CreationDate,2024-11-11T11:01:58-06:00*%
%TF.ProjectId,dac_test_board,6461635f-7465-4737-945f-626f6172642e,rev?*%
%TF.SameCoordinates,Original*%
%TF.FileFunction,Legend,Bot*%
%TF.FilePolarity,Positive*%
%FSLAX46Y46*%
G04 Gerber Fmt 4.6, Leading zero omitted, Abs format (unit mm)*
G04 Created by KiCad (PCBNEW 8.0.5) date 2024-11-11 11:01:58*
%MOMM*%
%LPD*%
G01*
G04 APERTURE LIST*
%ADD10C,0.150000*%
%ADD11C,0.000000*%
G04 APERTURE END LIST*
D10*
X147980400Y-113284000D02*
X151638000Y-113284000D01*
X151638000Y-115316000D01*
X147980400Y-115316000D01*
X147980400Y-113284000D01*
G36*
X147980400Y-113284000D02*
G01*
X151638000Y-113284000D01*
X151638000Y-115316000D01*
X147980400Y-115316000D01*
X147980400Y-113284000D01*
G37*
X147980400Y-118364000D02*
X151638000Y-118364000D01*
X151638000Y-120396000D01*
X147980400Y-120396000D01*
X147980400Y-118364000D01*
G36*
X147980400Y-118364000D02*
G01*
X151638000Y-118364000D01*
X151638000Y-120396000D01*
X147980400Y-120396000D01*
X147980400Y-118364000D01*
G37*
X168300400Y-118313200D02*
X171958000Y-118313200D01*
X171958000Y-120345200D01*
X168300400Y-120345200D01*
X168300400Y-118313200D01*
G36*
X168300400Y-118313200D02*
G01*
X171958000Y-118313200D01*
X171958000Y-120345200D01*
X168300400Y-120345200D01*
X168300400Y-118313200D01*
G37*
X168351200Y-113284000D02*
X172008800Y-113284000D01*
X172008800Y-115316000D01*
X168351200Y-115316000D01*
X168351200Y-113284000D01*
G36*
X168351200Y-113284000D02*
G01*
X172008800Y-113284000D01*
X172008800Y-115316000D01*
X168351200Y-115316000D01*
X168351200Y-113284000D01*
G37*
D11*
%TO.C,kibuzzard-67311944*%
G36*
X155169048Y-117413229D02*
G01*
X154816867Y-117413229D01*
X154896027Y-117353455D01*
X154984072Y-117292874D01*
X155076964Y-117235523D01*
X155169048Y-117187058D01*
X155169048Y-117413229D01*
G37*
G36*
X153096350Y-115896266D02*
G01*
X153037384Y-115888189D01*
X152986496Y-115862341D01*
X152950147Y-115817106D01*
X152936415Y-115749255D01*
X152949339Y-115682211D01*
X152984880Y-115635362D01*
X153036576Y-115606282D01*
X153096350Y-115592551D01*
X153096350Y-115896266D01*
G37*
G36*
X155115736Y-111857494D02*
G01*
X155056770Y-111849416D01*
X155005882Y-111823568D01*
X154969533Y-111778334D01*
X154955801Y-111710483D01*
X154968725Y-111643439D01*
X155004266Y-111596589D01*
X155055963Y-111567510D01*
X155115736Y-111553778D01*
X155115736Y-111857494D01*
G37*
G36*
X157135122Y-115088512D02*
G01*
X157076156Y-115080434D01*
X157025268Y-115054586D01*
X156988919Y-115009352D01*
X156975187Y-114941500D01*
X156988111Y-114874457D01*
X157023652Y-114827607D01*
X157075349Y-114798528D01*
X157135122Y-114784796D01*
X157135122Y-115088512D01*
G37*
G36*
X157135122Y-119127284D02*
G01*
X157076156Y-119119206D01*
X157025268Y-119093358D01*
X156988919Y-119048124D01*
X156975187Y-118980273D01*
X156988111Y-118913229D01*
X157023652Y-118866379D01*
X157075349Y-118837300D01*
X157135122Y-118823568D01*
X157135122Y-119127284D01*
G37*
G36*
X157135122Y-119935038D02*
G01*
X157076156Y-119926961D01*
X157025268Y-119901113D01*
X156988919Y-119855879D01*
X156975187Y-119788027D01*
X156988111Y-119720984D01*
X157023652Y-119674134D01*
X157075349Y-119645055D01*
X157135122Y-119631323D01*
X157135122Y-119935038D01*
G37*
G36*
X153384719Y-111603859D02*
G01*
X153406528Y-111704021D01*
X153405720Y-111767026D01*
X153401681Y-111820337D01*
X153227206Y-111820337D01*
X153221552Y-111773488D01*
X153219129Y-111723407D01*
X153223168Y-111663633D01*
X153236900Y-111612744D01*
X153264363Y-111578011D01*
X153311213Y-111565087D01*
X153384719Y-111603859D01*
G37*
G36*
X153384719Y-116450386D02*
G01*
X153406528Y-116550547D01*
X153405720Y-116613552D01*
X153401681Y-116666864D01*
X153227206Y-116666864D01*
X153221552Y-116620014D01*
X153219129Y-116569933D01*
X153223168Y-116510160D01*
X153236900Y-116459271D01*
X153264363Y-116424538D01*
X153311213Y-116411614D01*
X153384719Y-116450386D01*
G37*
G36*
X157266181Y-116408786D02*
G01*
X157326560Y-116434231D01*
X157375833Y-116540854D01*
X157367756Y-116601436D01*
X157346754Y-116652324D01*
X156981649Y-116652324D01*
X156975187Y-116611937D01*
X156973572Y-116574780D01*
X156996907Y-116477849D01*
X157066912Y-116419691D01*
X157183588Y-116400305D01*
X157266181Y-116408786D01*
G37*
G36*
X157423491Y-112411614D02*
G01*
X157445300Y-112511775D01*
X157444492Y-112574780D01*
X157440454Y-112628092D01*
X157265979Y-112628092D01*
X157260324Y-112581242D01*
X157257901Y-112531161D01*
X157261940Y-112471387D01*
X157275672Y-112420499D01*
X157303135Y-112385765D01*
X157349985Y-112372841D01*
X157423491Y-112411614D01*
G37*
G36*
X157251439Y-110932615D02*
G01*
X157309597Y-110947963D01*
X157352408Y-110979465D01*
X157369371Y-111031969D01*
X157364525Y-111077203D01*
X157041423Y-111077203D01*
X157036576Y-111052971D01*
X157034961Y-111030353D01*
X157048693Y-110980273D01*
X157084234Y-110949578D01*
X157133507Y-110933423D01*
X157188434Y-110928576D01*
X157251439Y-110932615D01*
G37*
G36*
X153256689Y-110747437D02*
G01*
X153330599Y-110775911D01*
X153379064Y-110825386D01*
X153395219Y-110897882D01*
X153393604Y-110943116D01*
X153388757Y-110986735D01*
X152975187Y-110986735D01*
X152953378Y-110935038D01*
X152944492Y-110873649D01*
X152958628Y-110812260D01*
X153001035Y-110770257D01*
X153070098Y-110746024D01*
X153164202Y-110737946D01*
X153256689Y-110747437D01*
G37*
G36*
X153393604Y-114068318D02*
G01*
X153395219Y-114111129D01*
X153382093Y-114180596D01*
X153342715Y-114233908D01*
X153271835Y-114267833D01*
X153164202Y-114279142D01*
X153070098Y-114270458D01*
X153001035Y-114244408D01*
X152958628Y-114200588D01*
X152944492Y-114138593D01*
X152953378Y-114074780D01*
X152975187Y-114020660D01*
X153387142Y-114020660D01*
X153393604Y-114068318D01*
G37*
G36*
X157432376Y-111645055D02*
G01*
X157433992Y-111687866D01*
X157420866Y-111757332D01*
X157381488Y-111810644D01*
X157310607Y-111844570D01*
X157202974Y-111855879D01*
X157108870Y-111847195D01*
X157039807Y-111821145D01*
X156997400Y-111777324D01*
X156983265Y-111715329D01*
X156992150Y-111651517D01*
X157013959Y-111597397D01*
X157425914Y-111597397D01*
X157432376Y-111645055D01*
G37*
G36*
X157295462Y-113978455D02*
G01*
X157369371Y-114006929D01*
X157417837Y-114056404D01*
X157433992Y-114128900D01*
X157432376Y-114174134D01*
X157427530Y-114217753D01*
X157013959Y-114217753D01*
X156992150Y-114166056D01*
X156983265Y-114104667D01*
X156997400Y-114043278D01*
X157039807Y-114001274D01*
X157108870Y-113977042D01*
X157202974Y-113968964D01*
X157295462Y-113978455D01*
G37*
G36*
X153261132Y-118018439D02*
G01*
X153333830Y-118045701D01*
X153381084Y-118093156D01*
X153396835Y-118162825D01*
X153381084Y-118230879D01*
X153333830Y-118279950D01*
X153261132Y-118309635D01*
X153169048Y-118319530D01*
X153077166Y-118310442D01*
X153005074Y-118283181D01*
X152958426Y-118235725D01*
X152942877Y-118166056D01*
X152958426Y-118098003D01*
X153005074Y-118048932D01*
X153077166Y-118019247D01*
X153169048Y-118009352D01*
X153261132Y-118018439D01*
G37*
G36*
X155395421Y-115813673D02*
G01*
X155328176Y-115866379D01*
X155259158Y-115890163D01*
X155171651Y-115904434D01*
X155065656Y-115909190D01*
X154960558Y-115904434D01*
X154873590Y-115890163D01*
X154804751Y-115866379D01*
X154737505Y-115813673D01*
X154715590Y-115742793D01*
X154941261Y-115742793D01*
X154973572Y-115806605D01*
X155049500Y-115831646D01*
X155124622Y-115806605D01*
X155156124Y-115742793D01*
X155124622Y-115676557D01*
X155049500Y-115652324D01*
X154973572Y-115676557D01*
X154941261Y-115742793D01*
X154715590Y-115742793D01*
X154715090Y-115741177D01*
X154737505Y-115669691D01*
X154804751Y-115616783D01*
X154873590Y-115592551D01*
X154960558Y-115578011D01*
X155065656Y-115573164D01*
X155171651Y-115578011D01*
X155259158Y-115592551D01*
X155328176Y-115616783D01*
X155395421Y-115669691D01*
X155417837Y-115741177D01*
X155417337Y-115742793D01*
X155395421Y-115813673D01*
G37*
G36*
X155395421Y-122275709D02*
G01*
X155328176Y-122328415D01*
X155259158Y-122352199D01*
X155171651Y-122366469D01*
X155065656Y-122371226D01*
X154960558Y-122366469D01*
X154873590Y-122352199D01*
X154804751Y-122328415D01*
X154737505Y-122275709D01*
X154715589Y-122204828D01*
X154941261Y-122204828D01*
X154973572Y-122268641D01*
X155049500Y-122293681D01*
X155124622Y-122268641D01*
X155156124Y-122204828D01*
X155124622Y-122138593D01*
X155049500Y-122114360D01*
X154973572Y-122138593D01*
X154941261Y-122204828D01*
X154715589Y-122204828D01*
X154715090Y-122203213D01*
X154737505Y-122131727D01*
X154804751Y-122078819D01*
X154873590Y-122054586D01*
X154960558Y-122040047D01*
X155065656Y-122035200D01*
X155171651Y-122040047D01*
X155259158Y-122054586D01*
X155328176Y-122078819D01*
X155395421Y-122131727D01*
X155417837Y-122203213D01*
X155417337Y-122204828D01*
X155395421Y-122275709D01*
G37*
G36*
X158531999Y-111692712D02*
G01*
X158531999Y-112497236D01*
X158531999Y-113445539D01*
X158531999Y-114127284D01*
X158531999Y-114996428D01*
X158531999Y-116049740D01*
X158531999Y-116474618D01*
X158531999Y-116891420D01*
X158531999Y-117492389D01*
X158531999Y-117739562D01*
X158531999Y-118473003D01*
X158531999Y-119035200D01*
X158531999Y-119842954D01*
X158531999Y-120527930D01*
X158531999Y-121733100D01*
X158531999Y-122203213D01*
X158531999Y-122550547D01*
X158531999Y-123223676D01*
X151754401Y-123223676D01*
X151754401Y-122550547D01*
X151754401Y-122203213D01*
X154545462Y-122203213D01*
X154559732Y-122307323D01*
X154602543Y-122393484D01*
X154673895Y-122461694D01*
X154746542Y-122500568D01*
X154836051Y-122528334D01*
X154942423Y-122544994D01*
X155065656Y-122550547D01*
X155189646Y-122544994D01*
X155296673Y-122528334D01*
X155386738Y-122500568D01*
X155459840Y-122461694D01*
X155531640Y-122393484D01*
X155574720Y-122307323D01*
X155589080Y-122203213D01*
X155574720Y-122099102D01*
X155531640Y-122012942D01*
X155459840Y-121944732D01*
X155386738Y-121905858D01*
X155296673Y-121878092D01*
X155189646Y-121861432D01*
X155065656Y-121855879D01*
X154943079Y-121861533D01*
X154837061Y-121878496D01*
X154747602Y-121906767D01*
X154674702Y-121946347D01*
X154602902Y-122015096D01*
X154559822Y-122100718D01*
X154545462Y-122203213D01*
X151754401Y-122203213D01*
X151754401Y-121398689D01*
X154568079Y-121398689D01*
X154568079Y-121534392D01*
X155403297Y-121534392D01*
X155403297Y-121733100D01*
X155568079Y-121733100D01*
X155568079Y-121125668D01*
X155403297Y-121125668D01*
X155403297Y-121335685D01*
X154844331Y-121335685D01*
X154901681Y-121232292D01*
X154941261Y-121133746D01*
X154776479Y-121069126D01*
X154739323Y-121153132D01*
X154689242Y-121243601D01*
X154631084Y-121329223D01*
X154568079Y-121398689D01*
X151754401Y-121398689D01*
X151754401Y-120366379D01*
X155055963Y-120366379D01*
X155055963Y-120809029D01*
X155251439Y-120809029D01*
X155251439Y-120684635D01*
X156813636Y-120684635D01*
X156815252Y-120730677D01*
X156820906Y-120794489D01*
X156822959Y-120809029D01*
X156830599Y-120863148D01*
X156845946Y-120925345D01*
X157030114Y-120889804D01*
X157020421Y-120843762D01*
X157011536Y-120789643D01*
X157005882Y-120736331D01*
X157004266Y-120692712D01*
X157008305Y-120610321D01*
X157023652Y-120527930D01*
X157587465Y-120527930D01*
X157587465Y-120327607D01*
X156878257Y-120327607D01*
X156852005Y-120407777D01*
X156831407Y-120489966D01*
X156818079Y-120580232D01*
X156813636Y-120684635D01*
X155251439Y-120684635D01*
X155251439Y-120366379D01*
X155055963Y-120366379D01*
X151754401Y-120366379D01*
X151754401Y-119805798D01*
X152566463Y-119805798D01*
X152789404Y-119805798D01*
X152789404Y-120124053D01*
X152954185Y-120124053D01*
X152954185Y-119805798D01*
X153261132Y-119805798D01*
X153328984Y-119813875D01*
X153369371Y-119836492D01*
X153388757Y-119872034D01*
X153393604Y-119918883D01*
X153391988Y-119969772D01*
X153386334Y-120015006D01*
X153374218Y-120060240D01*
X153353216Y-120111129D01*
X153524460Y-120138593D01*
X153556770Y-120019853D01*
X153564689Y-119918883D01*
X154568079Y-119918883D01*
X155403297Y-119918883D01*
X155403297Y-120117591D01*
X155568079Y-120117591D01*
X155568079Y-119784796D01*
X156808790Y-119784796D01*
X156819829Y-119887830D01*
X156852947Y-119972913D01*
X156908143Y-120040047D01*
X156984521Y-120088512D01*
X157081182Y-120117591D01*
X157198127Y-120127284D01*
X157238515Y-120126476D01*
X157272441Y-120124053D01*
X157272441Y-119631323D01*
X157338879Y-119646670D01*
X157389565Y-119692712D01*
X157421673Y-119762987D01*
X157432376Y-119851032D01*
X157419452Y-119964925D01*
X157393604Y-120056202D01*
X157563232Y-120083665D01*
X157593119Y-119973811D01*
X157605236Y-119842954D01*
X157598975Y-119751072D01*
X157580195Y-119669287D01*
X157549097Y-119598205D01*
X157505882Y-119538431D01*
X157450753Y-119490572D01*
X157383911Y-119455232D01*
X157305155Y-119433423D01*
X157214282Y-119426153D01*
X157120179Y-119433827D01*
X157038192Y-119456848D01*
X156968523Y-119492389D01*
X156911374Y-119537623D01*
X156866746Y-119591339D01*
X156834638Y-119652324D01*
X156815252Y-119717753D01*
X156808790Y-119784796D01*
X155568079Y-119784796D01*
X155568079Y-119510160D01*
X155403297Y-119510160D01*
X155403297Y-119720176D01*
X154844331Y-119720176D01*
X154901681Y-119616783D01*
X154941261Y-119518237D01*
X154776479Y-119453617D01*
X154739323Y-119537623D01*
X154689242Y-119628092D01*
X154631084Y-119713714D01*
X154568079Y-119783181D01*
X154568079Y-119896266D01*
X154568079Y-119918883D01*
X153564689Y-119918883D01*
X153566463Y-119896266D01*
X153555155Y-119773488D01*
X153511536Y-119683019D01*
X153420260Y-119626476D01*
X153352206Y-119611937D01*
X153265979Y-119607090D01*
X152954185Y-119607090D01*
X152954185Y-119434231D01*
X152789404Y-119434231D01*
X152789404Y-119607090D01*
X152598774Y-119607090D01*
X152566463Y-119805798D01*
X151754401Y-119805798D01*
X151754401Y-118663633D01*
X152789404Y-118663633D01*
X152789404Y-118862341D01*
X153186819Y-118862341D01*
X153278297Y-118868601D01*
X153342715Y-118887381D01*
X153393604Y-118985119D01*
X153385526Y-119075588D01*
X152789404Y-119075588D01*
X152789404Y-119275911D01*
X153522845Y-119275911D01*
X153537384Y-119215127D01*
X153551924Y-119142631D01*
X153562828Y-119060846D01*
X153566331Y-118975426D01*
X154568079Y-118975426D01*
X154568079Y-119111129D01*
X155403297Y-119111129D01*
X155403297Y-119309837D01*
X155568079Y-119309837D01*
X155568079Y-118977042D01*
X156808790Y-118977042D01*
X156819829Y-119080075D01*
X156852947Y-119165159D01*
X156908143Y-119232292D01*
X156984521Y-119280757D01*
X157081182Y-119309837D01*
X157198127Y-119319530D01*
X157238515Y-119318722D01*
X157272441Y-119316299D01*
X157272441Y-118823568D01*
X157338879Y-118838916D01*
X157389565Y-118884958D01*
X157421673Y-118955232D01*
X157432376Y-119043278D01*
X157419452Y-119157171D01*
X157393604Y-119248447D01*
X157563232Y-119275911D01*
X157593119Y-119166056D01*
X157605236Y-119035200D01*
X157598975Y-118943318D01*
X157580195Y-118861533D01*
X157549097Y-118790450D01*
X157505882Y-118730677D01*
X157450753Y-118682817D01*
X157383911Y-118647478D01*
X157305155Y-118625668D01*
X157214282Y-118618399D01*
X157120179Y-118626072D01*
X157038192Y-118649093D01*
X156968523Y-118684635D01*
X156911374Y-118729869D01*
X156866746Y-118783584D01*
X156834638Y-118844570D01*
X156815252Y-118909998D01*
X156808790Y-118977042D01*
X155568079Y-118977042D01*
X155568079Y-118702405D01*
X155403297Y-118702405D01*
X155403297Y-118912421D01*
X154844331Y-118912421D01*
X154901681Y-118809029D01*
X154941261Y-118710483D01*
X154776479Y-118645862D01*
X154739323Y-118729869D01*
X154689242Y-118820337D01*
X154631084Y-118905959D01*
X154571009Y-118972195D01*
X154568079Y-118975426D01*
X153566331Y-118975426D01*
X153566463Y-118972195D01*
X153560001Y-118886977D01*
X153540615Y-118818722D01*
X153467110Y-118724215D01*
X153354832Y-118676557D01*
X153286980Y-118666864D01*
X153212667Y-118663633D01*
X152789404Y-118663633D01*
X151754401Y-118663633D01*
X151754401Y-118166056D01*
X152770017Y-118166056D01*
X152777085Y-118241783D01*
X152798289Y-118310644D01*
X152832618Y-118371630D01*
X152879064Y-118423730D01*
X152936819Y-118465935D01*
X153005074Y-118497236D01*
X153082416Y-118516622D01*
X153167433Y-118523084D01*
X153253660Y-118516622D01*
X153331407Y-118497236D01*
X153399864Y-118466137D01*
X153458224Y-118424538D01*
X153493804Y-118385765D01*
X155055963Y-118385765D01*
X155251439Y-118385765D01*
X155251439Y-118164441D01*
X156812021Y-118164441D01*
X156818281Y-118247236D01*
X156837061Y-118314683D01*
X156890525Y-118385765D01*
X156908143Y-118409190D01*
X157017998Y-118458463D01*
X157085244Y-118469368D01*
X157159355Y-118473003D01*
X157587465Y-118473003D01*
X157587465Y-118274295D01*
X157185203Y-118274295D01*
X157093523Y-118268237D01*
X157031730Y-118250063D01*
X156984880Y-118151517D01*
X156986496Y-118107090D01*
X156991342Y-118061048D01*
X157587465Y-118061048D01*
X157587465Y-117862341D01*
X156852408Y-117862341D01*
X156838273Y-117921912D01*
X156824945Y-117994005D01*
X156815252Y-118075790D01*
X156812021Y-118164441D01*
X155251439Y-118164441D01*
X155251439Y-117943116D01*
X155055963Y-117943116D01*
X155055963Y-118166056D01*
X155055963Y-118385765D01*
X153493804Y-118385765D01*
X153505478Y-118373043D01*
X153540615Y-118312260D01*
X153562425Y-118242995D01*
X153569694Y-118166056D01*
X153562425Y-118089118D01*
X153540615Y-118019853D01*
X153505478Y-117958867D01*
X153458224Y-117906767D01*
X153399864Y-117864562D01*
X153331407Y-117833261D01*
X153253660Y-117813875D01*
X153167433Y-117807413D01*
X153082416Y-117814077D01*
X153005074Y-117834069D01*
X152936819Y-117865975D01*
X152879064Y-117908383D01*
X152832618Y-117960685D01*
X152798289Y-118022276D01*
X152777085Y-118091339D01*
X152770017Y-118166056D01*
X151754401Y-118166056D01*
X151754401Y-117254909D01*
X152427530Y-117254909D01*
X153089888Y-117254909D01*
X153017998Y-117313875D01*
X152939646Y-117372034D01*
X152861294Y-117426153D01*
X152789404Y-117471387D01*
X152789404Y-117710483D01*
X152870179Y-117644247D01*
X152959032Y-117567510D01*
X153046269Y-117488350D01*
X153123814Y-117416460D01*
X153216706Y-117503698D01*
X153271835Y-117550143D01*
X153328984Y-117595782D01*
X153387142Y-117639198D01*
X153445300Y-117678980D01*
X153548693Y-117739562D01*
X153548693Y-117511775D01*
X153457416Y-117460887D01*
X153417593Y-117434231D01*
X154568079Y-117434231D01*
X154568079Y-117611937D01*
X155169048Y-117611937D01*
X155169048Y-117720176D01*
X155332215Y-117720176D01*
X155332215Y-117611937D01*
X155568079Y-117611937D01*
X155568079Y-117419691D01*
X156828176Y-117419691D01*
X157298289Y-117419691D01*
X157399258Y-117444732D01*
X157432376Y-117527930D01*
X157425106Y-117594166D01*
X157419018Y-117611937D01*
X157395219Y-117681404D01*
X157555155Y-117707252D01*
X157594735Y-117591743D01*
X157605236Y-117492389D01*
X157599581Y-117421105D01*
X157582618Y-117362341D01*
X157517190Y-117278334D01*
X157412990Y-117233908D01*
X157347158Y-117224215D01*
X157272441Y-117220984D01*
X156992958Y-117220984D01*
X156992958Y-117010967D01*
X156828176Y-117010967D01*
X156828176Y-117285604D01*
X156828176Y-117419691D01*
X155568079Y-117419691D01*
X155568079Y-117413229D01*
X155332215Y-117413229D01*
X155332215Y-117285604D01*
X156482457Y-117285604D01*
X156516383Y-117374457D01*
X156610082Y-117411614D01*
X156702166Y-117374457D01*
X156736092Y-117285604D01*
X156702166Y-117197559D01*
X156610082Y-117161210D01*
X156516383Y-117197559D01*
X156482457Y-117285604D01*
X155332215Y-117285604D01*
X155332215Y-116996428D01*
X155186819Y-116996428D01*
X155119573Y-117031565D01*
X155043846Y-117075588D01*
X154962869Y-117126476D01*
X154879872Y-117182211D01*
X154796471Y-117241985D01*
X154714282Y-117304990D01*
X154636940Y-117369610D01*
X154568079Y-117434231D01*
X153417593Y-117434231D01*
X153357255Y-117393843D01*
X153263555Y-117321953D01*
X153190050Y-117254909D01*
X153548693Y-117254909D01*
X153548693Y-117054586D01*
X152461455Y-117054586D01*
X152427530Y-117254909D01*
X151754401Y-117254909D01*
X151754401Y-116532777D01*
X152770017Y-116532777D01*
X152775470Y-116618601D01*
X152791827Y-116688673D01*
X152853216Y-116788027D01*
X152950147Y-116841339D01*
X153078580Y-116857494D01*
X153530922Y-116857494D01*
X153553539Y-116728253D01*
X153563232Y-116637381D01*
X153566463Y-116536008D01*
X153566146Y-116532777D01*
X154545462Y-116532777D01*
X154545949Y-116536008D01*
X154563232Y-116650709D01*
X154616544Y-116750870D01*
X154706205Y-116820337D01*
X154831407Y-116846185D01*
X154930761Y-116826799D01*
X155023652Y-116775103D01*
X155110890Y-116702405D01*
X155191665Y-116620014D01*
X155237707Y-116571549D01*
X155292635Y-116519853D01*
X155349985Y-116478657D01*
X155403297Y-116461694D01*
X155403297Y-116891420D01*
X155568079Y-116891420D01*
X155568079Y-116582858D01*
X156812021Y-116582858D01*
X156816508Y-116668120D01*
X156829971Y-116758050D01*
X156852408Y-116852647D01*
X157495381Y-116852647D01*
X157608467Y-116842685D01*
X157700012Y-116812798D01*
X157770017Y-116762987D01*
X157819380Y-116691097D01*
X157848998Y-116594974D01*
X157858870Y-116474618D01*
X157855236Y-116404950D01*
X157844331Y-116338108D01*
X157810405Y-116212906D01*
X157642392Y-116250063D01*
X157675510Y-116348609D01*
X157690858Y-116477849D01*
X157678741Y-116563471D01*
X157645623Y-116616783D01*
X157596350Y-116644247D01*
X157535769Y-116652324D01*
X157505074Y-116652324D01*
X157529307Y-116575588D01*
X157537384Y-116500467D01*
X157526973Y-116409370D01*
X157495740Y-116334249D01*
X157443685Y-116275103D01*
X157373141Y-116232472D01*
X157286442Y-116206893D01*
X157183588Y-116198366D01*
X157069246Y-116209854D01*
X156976085Y-116244319D01*
X156904105Y-116301759D01*
X156852947Y-116378944D01*
X156822252Y-116472644D01*
X156812021Y-116582858D01*
X155568079Y-116582858D01*
X155568079Y-116238754D01*
X155527691Y-116234715D01*
X155493765Y-116235523D01*
X155416221Y-116242995D01*
X155345139Y-116265410D01*
X155279912Y-116299336D01*
X155219937Y-116341339D01*
X155164605Y-116388996D01*
X155113313Y-116439885D01*
X155065050Y-116490774D01*
X155018806Y-116538431D01*
X154931568Y-116614360D01*
X154845946Y-116644247D01*
X154751439Y-116607090D01*
X154718321Y-116513391D01*
X154740938Y-116414845D01*
X154816867Y-116313068D01*
X154677933Y-116214521D01*
X154618967Y-116284190D01*
X154577772Y-116363956D01*
X154553539Y-116448568D01*
X154545462Y-116532777D01*
X153566146Y-116532777D01*
X153553539Y-116404344D01*
X153510728Y-116303374D01*
X153433184Y-116238754D01*
X153316059Y-116216137D01*
X153204589Y-116241985D01*
X153131891Y-116311452D01*
X153092311Y-116411614D01*
X153080195Y-116529546D01*
X153083426Y-116602647D01*
X153093119Y-116666864D01*
X153068887Y-116666864D01*
X152974379Y-116631323D01*
X152945906Y-116582858D01*
X152936415Y-116508544D01*
X152944492Y-116399497D01*
X152963879Y-116314683D01*
X152803943Y-116287219D01*
X152780518Y-116392227D01*
X152772643Y-116461290D01*
X152770017Y-116532777D01*
X151754401Y-116532777D01*
X151754401Y-115746024D01*
X152770017Y-115746024D01*
X152781057Y-115849057D01*
X152814175Y-115934141D01*
X152869371Y-116001274D01*
X152945749Y-116049740D01*
X153042410Y-116078819D01*
X153159355Y-116088512D01*
X153199743Y-116087704D01*
X153233668Y-116085281D01*
X153233668Y-115592551D01*
X153300106Y-115607898D01*
X153350793Y-115653940D01*
X153382901Y-115724215D01*
X153393604Y-115812260D01*
X153380680Y-115926153D01*
X153354832Y-116017429D01*
X153524460Y-116044893D01*
X153554347Y-115935038D01*
X153566463Y-115804182D01*
X153562170Y-115741177D01*
X154545462Y-115741177D01*
X154554098Y-115804182D01*
X154559732Y-115845288D01*
X154602543Y-115931448D01*
X154673895Y-115999659D01*
X154746542Y-116038532D01*
X154836051Y-116066299D01*
X154942423Y-116082958D01*
X155065656Y-116088512D01*
X155189646Y-116082958D01*
X155296673Y-116066299D01*
X155386738Y-116038532D01*
X155459840Y-115999659D01*
X155531640Y-115931448D01*
X155574720Y-115845288D01*
X155589080Y-115741177D01*
X156812021Y-115741177D01*
X156818281Y-115823972D01*
X156837061Y-115891420D01*
X156908143Y-115985927D01*
X157017998Y-116035200D01*
X157085244Y-116046105D01*
X157159355Y-116049740D01*
X157587465Y-116049740D01*
X157587465Y-115851032D01*
X157185203Y-115851032D01*
X157093523Y-115844974D01*
X157031730Y-115826799D01*
X156984880Y-115728253D01*
X156986496Y-115683827D01*
X156991342Y-115637785D01*
X157587465Y-115637785D01*
X157587465Y-115439077D01*
X156852408Y-115439077D01*
X156838273Y-115498649D01*
X156824945Y-115570741D01*
X156815252Y-115652526D01*
X156812021Y-115741177D01*
X155589080Y-115741177D01*
X155574720Y-115637067D01*
X155531640Y-115550906D01*
X155459840Y-115482696D01*
X155386738Y-115443823D01*
X155296673Y-115416056D01*
X155189646Y-115399396D01*
X155065656Y-115393843D01*
X154943079Y-115399497D01*
X154837061Y-115416460D01*
X154747602Y-115444732D01*
X154674702Y-115484311D01*
X154602902Y-115553060D01*
X154559822Y-115638682D01*
X154545462Y-115741177D01*
X153562170Y-115741177D01*
X153560203Y-115712300D01*
X153541423Y-115630515D01*
X153510324Y-115559433D01*
X153467110Y-115499659D01*
X153411980Y-115451799D01*
X153345139Y-115416460D01*
X153266383Y-115394651D01*
X153175510Y-115387381D01*
X153081407Y-115395055D01*
X152999420Y-115418076D01*
X152929751Y-115453617D01*
X152872602Y-115498851D01*
X152827974Y-115552567D01*
X152795866Y-115613552D01*
X152776479Y-115678980D01*
X152770017Y-115746024D01*
X151754401Y-115746024D01*
X151754401Y-115030353D01*
X152774864Y-115030353D01*
X152776479Y-115076395D01*
X152782134Y-115140208D01*
X152791827Y-115208867D01*
X152807174Y-115271064D01*
X152991342Y-115235523D01*
X152981649Y-115189481D01*
X152972764Y-115135362D01*
X152967110Y-115082050D01*
X152965494Y-115038431D01*
X152969533Y-114956040D01*
X152976755Y-114917268D01*
X154545462Y-114917268D01*
X154563232Y-115035200D01*
X154616544Y-115135362D01*
X154706205Y-115204828D01*
X154831407Y-115230677D01*
X154930761Y-115211290D01*
X155023652Y-115159594D01*
X155110890Y-115086896D01*
X155191665Y-115004505D01*
X155237707Y-114956040D01*
X155292635Y-114904344D01*
X155349985Y-114863148D01*
X155403297Y-114846185D01*
X155403297Y-115275911D01*
X155568079Y-115275911D01*
X155568079Y-114938269D01*
X156808790Y-114938269D01*
X156819829Y-115041303D01*
X156852947Y-115126387D01*
X156908143Y-115193520D01*
X156984521Y-115241985D01*
X157081182Y-115271064D01*
X157139655Y-115275911D01*
X157198127Y-115280757D01*
X157238515Y-115279950D01*
X157272441Y-115277526D01*
X157272441Y-114784796D01*
X157338879Y-114800143D01*
X157389565Y-114846185D01*
X157421673Y-114916460D01*
X157432376Y-115004505D01*
X157419452Y-115118399D01*
X157393604Y-115209675D01*
X157563232Y-115237139D01*
X157593119Y-115127284D01*
X157605236Y-114996428D01*
X157598975Y-114904546D01*
X157580195Y-114822761D01*
X157549097Y-114751678D01*
X157505882Y-114691904D01*
X157450753Y-114644045D01*
X157383911Y-114608706D01*
X157305155Y-114586896D01*
X157214282Y-114579626D01*
X157120179Y-114587300D01*
X157038192Y-114610321D01*
X156968523Y-114645862D01*
X156911374Y-114691097D01*
X156866746Y-114744812D01*
X156834638Y-114805798D01*
X156815252Y-114871226D01*
X156808790Y-114938269D01*
X155568079Y-114938269D01*
X155568079Y-114623245D01*
X155527691Y-114619206D01*
X155493765Y-114620014D01*
X155416221Y-114627486D01*
X155345139Y-114649901D01*
X155279912Y-114683827D01*
X155219937Y-114725830D01*
X155164605Y-114773488D01*
X155113313Y-114824376D01*
X155065050Y-114875265D01*
X155018806Y-114922922D01*
X154931568Y-114998851D01*
X154845946Y-115028738D01*
X154751439Y-114991581D01*
X154718321Y-114897882D01*
X154740938Y-114799336D01*
X154816867Y-114697559D01*
X154677933Y-114599013D01*
X154618967Y-114668681D01*
X154577772Y-114748447D01*
X154553539Y-114833059D01*
X154549646Y-114873649D01*
X154545462Y-114917268D01*
X152976755Y-114917268D01*
X152984880Y-114873649D01*
X153548693Y-114873649D01*
X153548693Y-114673326D01*
X152839484Y-114673326D01*
X152813232Y-114753496D01*
X152792635Y-114835685D01*
X152779307Y-114925951D01*
X152774864Y-115030353D01*
X151754401Y-115030353D01*
X151754401Y-114020660D01*
X152427530Y-114020660D01*
X152807174Y-114020660D01*
X152780518Y-114101436D01*
X152773248Y-114178980D01*
X152780316Y-114248851D01*
X152801520Y-114309837D01*
X152882295Y-114404344D01*
X152939848Y-114437664D01*
X153007497Y-114461694D01*
X153084234Y-114476234D01*
X153169048Y-114481080D01*
X153255276Y-114475022D01*
X153333022Y-114456848D01*
X153401076Y-114426961D01*
X153415643Y-114416460D01*
X156466302Y-114416460D01*
X157564848Y-114416460D01*
X157581003Y-114355475D01*
X157593927Y-114282373D01*
X157602408Y-114204021D01*
X157605236Y-114127284D01*
X157593568Y-114018417D01*
X157558565Y-113928756D01*
X157500227Y-113858302D01*
X157421606Y-113807593D01*
X157325753Y-113777167D01*
X157212667Y-113767026D01*
X157097517Y-113775552D01*
X156999779Y-113801131D01*
X156919452Y-113843762D01*
X156859768Y-113903087D01*
X156823957Y-113978747D01*
X156812021Y-114070741D01*
X156817098Y-114115975D01*
X156820906Y-114149901D01*
X156845946Y-114217753D01*
X156500227Y-114217753D01*
X156466302Y-114416460D01*
X153415643Y-114416460D01*
X153458224Y-114385765D01*
X153504064Y-114333665D01*
X153538192Y-114271064D01*
X153559395Y-114198366D01*
X153566463Y-114115975D01*
X153563636Y-114037623D01*
X153555155Y-113957656D01*
X153542231Y-113883342D01*
X153526076Y-113821953D01*
X152461455Y-113821953D01*
X152427530Y-114020660D01*
X151754401Y-114020660D01*
X151754401Y-113321145D01*
X154568079Y-113321145D01*
X154568079Y-113456848D01*
X155403297Y-113456848D01*
X155403297Y-113655555D01*
X155568079Y-113655555D01*
X155568079Y-113048124D01*
X155403297Y-113048124D01*
X155403297Y-113258140D01*
X154844331Y-113258140D01*
X154901681Y-113154748D01*
X154941261Y-113056202D01*
X154776479Y-112991581D01*
X154739323Y-113075588D01*
X154689242Y-113166056D01*
X154631084Y-113251678D01*
X154568079Y-113321145D01*
X151754401Y-113321145D01*
X151754401Y-112972195D01*
X156475995Y-112972195D01*
X156475995Y-113380919D01*
X157299904Y-113380919D01*
X157404912Y-113411614D01*
X157432376Y-113489158D01*
X157416221Y-113589320D01*
X157395219Y-113642631D01*
X157475187Y-113655555D01*
X157555155Y-113668479D01*
X157566463Y-113646670D01*
X157583426Y-113602244D01*
X157598774Y-113535200D01*
X157605236Y-113445539D01*
X157584840Y-113326799D01*
X157523652Y-113245216D01*
X157423289Y-113197963D01*
X157285365Y-113182211D01*
X156640777Y-113182211D01*
X156640777Y-112972195D01*
X156475995Y-112972195D01*
X151754401Y-112972195D01*
X151754401Y-112611937D01*
X152770017Y-112611937D01*
X152779711Y-112734715D01*
X152812021Y-112846185D01*
X152971956Y-112802567D01*
X152951762Y-112730677D01*
X152942877Y-112629707D01*
X152959840Y-112510967D01*
X153006689Y-112434231D01*
X153078580Y-112392227D01*
X153169048Y-112379303D01*
X153262748Y-112394045D01*
X153333830Y-112438269D01*
X153378660Y-112518035D01*
X153393604Y-112639400D01*
X153387142Y-112737139D01*
X153366140Y-112830030D01*
X153529307Y-112859110D01*
X153555963Y-112757332D01*
X153563838Y-112692308D01*
X153563936Y-112689481D01*
X154808790Y-112689481D01*
X154808790Y-112891420D01*
X154921219Y-112856585D01*
X155029105Y-112819933D01*
X155132447Y-112781464D01*
X155231245Y-112741177D01*
X155354473Y-112687327D01*
X155466751Y-112635631D01*
X155568079Y-112586089D01*
X155568079Y-112494005D01*
X156808790Y-112494005D01*
X156814242Y-112579828D01*
X156830599Y-112649901D01*
X156891988Y-112749255D01*
X156988919Y-112802567D01*
X157117352Y-112818722D01*
X157569694Y-112818722D01*
X157592311Y-112689481D01*
X157602005Y-112598609D01*
X157605236Y-112497236D01*
X157592311Y-112365572D01*
X157549500Y-112264602D01*
X157471956Y-112199982D01*
X157354832Y-112177365D01*
X157243362Y-112203213D01*
X157170664Y-112272680D01*
X157131084Y-112372841D01*
X157118967Y-112490774D01*
X157122198Y-112563875D01*
X157131891Y-112628092D01*
X157107659Y-112628092D01*
X157013152Y-112592551D01*
X156984678Y-112544085D01*
X156975187Y-112469772D01*
X156983265Y-112360725D01*
X157002651Y-112275911D01*
X156842715Y-112248447D01*
X156819290Y-112353455D01*
X156811737Y-112419691D01*
X156811415Y-112422518D01*
X156808790Y-112494005D01*
X155568079Y-112494005D01*
X155568079Y-112419691D01*
X155466751Y-112370957D01*
X155354473Y-112321684D01*
X155231245Y-112271872D01*
X155132447Y-112234766D01*
X155029105Y-112198568D01*
X154921219Y-112163280D01*
X154808790Y-112128900D01*
X154808790Y-112337300D01*
X154872198Y-112353253D01*
X154939646Y-112372034D01*
X155009315Y-112392833D01*
X155079387Y-112414845D01*
X155148652Y-112437664D01*
X155215898Y-112460887D01*
X155337061Y-112505313D01*
X155215898Y-112552163D01*
X155148652Y-112577809D01*
X155079387Y-112603051D01*
X155040330Y-112616783D01*
X155009315Y-112627688D01*
X154939646Y-112651517D01*
X154872198Y-112672720D01*
X154808790Y-112689481D01*
X153563936Y-112689481D01*
X153566463Y-112616783D01*
X153558790Y-112508746D01*
X153535769Y-112417268D01*
X153499420Y-112341541D01*
X153451762Y-112280757D01*
X153393604Y-112234513D01*
X153325753Y-112202405D01*
X153250227Y-112183625D01*
X153169048Y-112177365D01*
X153089080Y-112183827D01*
X153013959Y-112203213D01*
X152945906Y-112235927D01*
X152887142Y-112282373D01*
X152838677Y-112342753D01*
X152801520Y-112417268D01*
X152777893Y-112506727D01*
X152770017Y-112611937D01*
X151754401Y-112611937D01*
X151754401Y-111686250D01*
X152770017Y-111686250D01*
X152775470Y-111772074D01*
X152791827Y-111842147D01*
X152853216Y-111941500D01*
X152950147Y-111994812D01*
X153078580Y-112010967D01*
X153530922Y-112010967D01*
X153553539Y-111881727D01*
X153563232Y-111790854D01*
X153565897Y-111707252D01*
X154789404Y-111707252D01*
X154800443Y-111810285D01*
X154833561Y-111895369D01*
X154888757Y-111962502D01*
X154965135Y-112010967D01*
X155061796Y-112040047D01*
X155178741Y-112049740D01*
X155219129Y-112048932D01*
X155253055Y-112046509D01*
X155253055Y-111553778D01*
X155319492Y-111569126D01*
X155370179Y-111615168D01*
X155402287Y-111685442D01*
X155412990Y-111773488D01*
X155400066Y-111887381D01*
X155374218Y-111978657D01*
X155543846Y-112006121D01*
X155573733Y-111896266D01*
X155585849Y-111765410D01*
X155579589Y-111673528D01*
X155562107Y-111597397D01*
X156466302Y-111597397D01*
X156845946Y-111597397D01*
X156819290Y-111678173D01*
X156812021Y-111755717D01*
X156813001Y-111765410D01*
X156819089Y-111825588D01*
X156840292Y-111886573D01*
X156921068Y-111981080D01*
X156978620Y-112014400D01*
X157046269Y-112038431D01*
X157123006Y-112052971D01*
X157207820Y-112057817D01*
X157294048Y-112051759D01*
X157371795Y-112033584D01*
X157439848Y-112003698D01*
X157496996Y-111962502D01*
X157542837Y-111910402D01*
X157576964Y-111847801D01*
X157598168Y-111775103D01*
X157605236Y-111692712D01*
X157602408Y-111614360D01*
X157593927Y-111534392D01*
X157581003Y-111460079D01*
X157564848Y-111398689D01*
X156500227Y-111398689D01*
X156466302Y-111597397D01*
X155562107Y-111597397D01*
X155560809Y-111591743D01*
X155529711Y-111520660D01*
X155486496Y-111460887D01*
X155431366Y-111413027D01*
X155364525Y-111377688D01*
X155285769Y-111355879D01*
X155194896Y-111348609D01*
X155100793Y-111356282D01*
X155018806Y-111379303D01*
X154949137Y-111414845D01*
X154891988Y-111460079D01*
X154847360Y-111513795D01*
X154815252Y-111574780D01*
X154795866Y-111640208D01*
X154791116Y-111689481D01*
X154789404Y-111707252D01*
X153565897Y-111707252D01*
X153566463Y-111689481D01*
X153553539Y-111557817D01*
X153510728Y-111456848D01*
X153433184Y-111392227D01*
X153316059Y-111369610D01*
X153204589Y-111395458D01*
X153131891Y-111464925D01*
X153092311Y-111565087D01*
X153080195Y-111683019D01*
X153083426Y-111756121D01*
X153093119Y-111820337D01*
X153068887Y-111820337D01*
X152974379Y-111784796D01*
X152945906Y-111736331D01*
X152936415Y-111662017D01*
X152944492Y-111552971D01*
X152963879Y-111468156D01*
X152803943Y-111440693D01*
X152780518Y-111545701D01*
X152772643Y-111614764D01*
X152770017Y-111686250D01*
X151754401Y-111686250D01*
X151754401Y-111185442D01*
X152427530Y-111185442D01*
X153526076Y-111185442D01*
X153542231Y-111124457D01*
X153555155Y-111051355D01*
X153561625Y-110991581D01*
X154794250Y-110991581D01*
X154795866Y-111037623D01*
X154801520Y-111101436D01*
X154811213Y-111170095D01*
X154826560Y-111232292D01*
X155010728Y-111196751D01*
X155001035Y-111150709D01*
X154992150Y-111096589D01*
X154986496Y-111043278D01*
X154984880Y-110999659D01*
X154988523Y-110925345D01*
X156564848Y-110925345D01*
X156585042Y-111049740D01*
X156648854Y-111151517D01*
X156699137Y-111190693D01*
X156762748Y-111220984D01*
X156840494Y-111240370D01*
X156933184Y-111246832D01*
X157498612Y-111246832D01*
X157525268Y-111145862D01*
X157534153Y-111046509D01*
X157515575Y-110932615D01*
X157457416Y-110841339D01*
X157354024Y-110780757D01*
X157283143Y-110764400D01*
X157198127Y-110758948D01*
X157070502Y-110771064D01*
X156966302Y-110812260D01*
X156896027Y-110887381D01*
X156870179Y-111001274D01*
X156878257Y-111077203D01*
X156852408Y-111077203D01*
X156748208Y-111038431D01*
X156705397Y-110925345D01*
X156728014Y-110824376D01*
X156807174Y-110741985D01*
X156873208Y-110710887D01*
X156958224Y-110687058D01*
X157065050Y-110671912D01*
X157196512Y-110666864D01*
X157303135Y-110671105D01*
X157396835Y-110683827D01*
X157477005Y-110706848D01*
X157543038Y-110741985D01*
X157594937Y-110790047D01*
X157632699Y-110851840D01*
X157655720Y-110928778D01*
X157663394Y-111022276D01*
X157655316Y-111141824D01*
X157642392Y-111198366D01*
X157782942Y-111216137D01*
X157793442Y-111166056D01*
X157799904Y-111120822D01*
X157803943Y-111074780D01*
X157805559Y-111022276D01*
X157798289Y-110919287D01*
X157776479Y-110823568D01*
X157736698Y-110737744D01*
X157675510Y-110664441D01*
X157591908Y-110604465D01*
X157484880Y-110558625D01*
X157398989Y-110537085D01*
X157299635Y-110524161D01*
X157186819Y-110519853D01*
X157076695Y-110523532D01*
X156978957Y-110534572D01*
X156893604Y-110552971D01*
X156786173Y-110591945D01*
X156701358Y-110642631D01*
X156638353Y-110703213D01*
X156596350Y-110771872D01*
X156576427Y-110834877D01*
X156572723Y-110846589D01*
X156564848Y-110925345D01*
X154988523Y-110925345D01*
X154988919Y-110917268D01*
X155004266Y-110834877D01*
X155568079Y-110834877D01*
X155568079Y-110634554D01*
X154858870Y-110634554D01*
X154832618Y-110714723D01*
X154812021Y-110796912D01*
X154798693Y-110887179D01*
X154798306Y-110896266D01*
X154794250Y-110991581D01*
X153561625Y-110991581D01*
X153563636Y-110973003D01*
X153566463Y-110896266D01*
X153554796Y-110787399D01*
X153519793Y-110697738D01*
X153461455Y-110627284D01*
X153382834Y-110576575D01*
X153286980Y-110546150D01*
X153173895Y-110536008D01*
X153058745Y-110544534D01*
X152961006Y-110570113D01*
X152880680Y-110612744D01*
X152820996Y-110672070D01*
X152785185Y-110747729D01*
X152773248Y-110839723D01*
X152782134Y-110918883D01*
X152807174Y-110986735D01*
X152461455Y-110986735D01*
X152427530Y-111185442D01*
X151754401Y-111185442D01*
X151754401Y-110519853D01*
X151754401Y-109846724D01*
X158531999Y-109846724D01*
X158531999Y-110519853D01*
X158531999Y-111022276D01*
X158531999Y-111692712D01*
G37*
%TD*%
M02*
