%TF.GenerationSoftware,KiCad,Pcbnew,8.0.5*%
%TF.CreationDate,2024-11-11T11:01:58-06:00*%
%TF.ProjectId,dac_test_board,6461635f-7465-4737-945f-626f6172642e,rev?*%
%TF.SameCoordinates,Original*%
%TF.FileFunction,Soldermask,Top*%
%TF.FilePolarity,Negative*%
%FSLAX46Y46*%
G04 Gerber Fmt 4.6, Leading zero omitted, Abs format (unit mm)*
G04 Created by KiCad (PCBNEW 8.0.5) date 2024-11-11 11:01:58*
%MOMM*%
%LPD*%
G01*
G04 APERTURE LIST*
G04 Aperture macros list*
%AMRoundRect*
0 Rectangle with rounded corners*
0 $1 Rounding radius*
0 $2 $3 $4 $5 $6 $7 $8 $9 X,Y pos of 4 corners*
0 Add a 4 corners polygon primitive as box body*
4,1,4,$2,$3,$4,$5,$6,$7,$8,$9,$2,$3,0*
0 Add four circle primitives for the rounded corners*
1,1,$1+$1,$2,$3*
1,1,$1+$1,$4,$5*
1,1,$1+$1,$6,$7*
1,1,$1+$1,$8,$9*
0 Add four rect primitives between the rounded corners*
20,1,$1+$1,$2,$3,$4,$5,0*
20,1,$1+$1,$4,$5,$6,$7,0*
20,1,$1+$1,$6,$7,$8,$9,0*
20,1,$1+$1,$8,$9,$2,$3,0*%
G04 Aperture macros list end*
%ADD10RoundRect,0.262900X-0.275400X-0.262900X0.275400X-0.262900X0.275400X0.262900X-0.275400X0.262900X0*%
%ADD11RoundRect,0.262900X0.325400X0.262900X-0.325400X0.262900X-0.325400X-0.262900X0.325400X-0.262900X0*%
%ADD12RoundRect,0.262900X-0.262900X0.325400X-0.262900X-0.325400X0.262900X-0.325400X0.262900X0.325400X0*%
%ADD13RoundRect,0.050800X-0.925000X1.725000X-0.925000X-1.725000X0.925000X-1.725000X0.925000X1.725000X0*%
%ADD14RoundRect,0.225400X0.225400X0.300400X-0.225400X0.300400X-0.225400X-0.300400X0.225400X-0.300400X0*%
%ADD15RoundRect,0.225400X-0.300400X0.225400X-0.300400X-0.225400X0.300400X-0.225400X0.300400X0.225400X0*%
%ADD16RoundRect,0.175400X-0.537900X-0.175400X0.537900X-0.175400X0.537900X0.175400X-0.537900X0.175400X0*%
%ADD17RoundRect,0.050800X0.925000X-1.725000X0.925000X1.725000X-0.925000X1.725000X-0.925000X-1.725000X0*%
%ADD18RoundRect,0.050800X-0.850000X-0.850000X0.850000X-0.850000X0.850000X0.850000X-0.850000X0.850000X0*%
%ADD19O,1.801600X1.801600*%
%ADD20RoundRect,0.050800X-1.725000X-0.925000X1.725000X-0.925000X1.725000X0.925000X-1.725000X0.925000X0*%
%ADD21RoundRect,0.267825X0.495475X0.657975X-0.495475X0.657975X-0.495475X-0.657975X0.495475X-0.657975X0*%
%ADD22RoundRect,0.267825X-0.495475X-0.657975X0.495475X-0.657975X0.495475X0.657975X-0.495475X0.657975X0*%
%ADD23RoundRect,0.175400X0.175400X0.650400X-0.175400X0.650400X-0.175400X-0.650400X0.175400X-0.650400X0*%
%ADD24RoundRect,0.271166X0.379634X0.679634X-0.379634X0.679634X-0.379634X-0.679634X0.379634X-0.679634X0*%
%ADD25RoundRect,0.050800X1.725000X0.925000X-1.725000X0.925000X-1.725000X-0.925000X1.725000X-0.925000X0*%
%ADD26RoundRect,0.262900X0.275400X0.262900X-0.275400X0.262900X-0.275400X-0.262900X0.275400X-0.262900X0*%
%ADD27RoundRect,0.225400X-0.225400X-0.300400X0.225400X-0.300400X0.225400X0.300400X-0.225400X0.300400X0*%
G04 APERTURE END LIST*
D10*
%TO.C,R14*%
X154586300Y-110490000D03*
X156411300Y-110490000D03*
%TD*%
D11*
%TO.C,C1*%
X158850500Y-122428000D03*
X157125500Y-122428000D03*
%TD*%
D12*
%TO.C,C2*%
X155194000Y-121057500D03*
X155194000Y-122782500D03*
%TD*%
D13*
%TO.C,TP12*%
X166624000Y-121920000D03*
%TD*%
D14*
%TO.C,R1*%
X158813000Y-120396000D03*
X157163000Y-120396000D03*
%TD*%
D15*
%TO.C,R3*%
X155194000Y-112967000D03*
X155194000Y-114617000D03*
%TD*%
D16*
%TO.C,U1*%
X161422500Y-120462000D03*
X161422500Y-121412000D03*
X161422500Y-122362000D03*
X163697500Y-122362000D03*
X163697500Y-121412000D03*
X163697500Y-120462000D03*
%TD*%
D17*
%TO.C,TP5*%
X152908000Y-117856000D03*
%TD*%
D18*
%TO.C,J4*%
X170180000Y-111760000D03*
D19*
X170180000Y-114300000D03*
X170180000Y-116840000D03*
X170180000Y-119380000D03*
X170180000Y-121920000D03*
%TD*%
D14*
%TO.C,R12*%
X158813000Y-112268000D03*
X157163000Y-112268000D03*
%TD*%
D18*
%TO.C,J2*%
X149860000Y-111760000D03*
D19*
X149860000Y-114300000D03*
X149860000Y-116840000D03*
X149860000Y-119380000D03*
X149860000Y-121920000D03*
%TD*%
D20*
%TO.C,TP7*%
X169926000Y-107950000D03*
%TD*%
D21*
%TO.C,D1*%
X156173500Y-108204000D03*
X153198500Y-108204000D03*
%TD*%
D20*
%TO.C,TP6*%
X150114000Y-107950000D03*
%TD*%
D22*
%TO.C,D2*%
X163866500Y-108204000D03*
X166841500Y-108204000D03*
%TD*%
D23*
%TO.C,J8*%
X162028000Y-115007000D03*
X161028000Y-115007000D03*
X160028000Y-115007000D03*
X159028000Y-115007000D03*
D24*
X163328000Y-117532000D03*
X157728000Y-117532000D03*
%TD*%
D13*
%TO.C,TP2*%
X166624000Y-113792000D03*
%TD*%
D25*
%TO.C,TP4*%
X160032500Y-107950000D03*
%TD*%
D17*
%TO.C,TP8*%
X152908000Y-113538000D03*
%TD*%
D15*
%TO.C,R2*%
X155194000Y-116777000D03*
X155194000Y-118427000D03*
%TD*%
D26*
%TO.C,R15*%
X165504500Y-110490000D03*
X163679500Y-110490000D03*
%TD*%
D27*
%TO.C,R13*%
X162243000Y-112268000D03*
X163893000Y-112268000D03*
%TD*%
D12*
%TO.C,C4*%
X152908000Y-121057500D03*
X152908000Y-122782500D03*
%TD*%
D17*
%TO.C,TP11*%
X166624000Y-117856000D03*
%TD*%
M02*
