%TF.GenerationSoftware,KiCad,Pcbnew,7.0.7*%
%TF.CreationDate,2023-10-22T12:37:57-05:00*%
%TF.ProjectId,state mode logic analyzer,73746174-6520-46d6-9f64-65206c6f6769,1*%
%TF.SameCoordinates,Original*%
%TF.FileFunction,Copper,L1,Top*%
%TF.FilePolarity,Positive*%
%FSLAX46Y46*%
G04 Gerber Fmt 4.6, Leading zero omitted, Abs format (unit mm)*
G04 Created by KiCad (PCBNEW 7.0.7) date 2023-10-22 12:37:57*
%MOMM*%
%LPD*%
G01*
G04 APERTURE LIST*
G04 Aperture macros list*
%AMRoundRect*
0 Rectangle with rounded corners*
0 $1 Rounding radius*
0 $2 $3 $4 $5 $6 $7 $8 $9 X,Y pos of 4 corners*
0 Add a 4 corners polygon primitive as box body*
4,1,4,$2,$3,$4,$5,$6,$7,$8,$9,$2,$3,0*
0 Add four circle primitives for the rounded corners*
1,1,$1+$1,$2,$3*
1,1,$1+$1,$4,$5*
1,1,$1+$1,$6,$7*
1,1,$1+$1,$8,$9*
0 Add four rect primitives between the rounded corners*
20,1,$1+$1,$2,$3,$4,$5,0*
20,1,$1+$1,$4,$5,$6,$7,0*
20,1,$1+$1,$6,$7,$8,$9,0*
20,1,$1+$1,$8,$9,$2,$3,0*%
%AMRotRect*
0 Rectangle, with rotation*
0 The origin of the aperture is its center*
0 $1 length*
0 $2 width*
0 $3 Rotation angle, in degrees counterclockwise*
0 Add horizontal line*
21,1,$1,$2,0,0,$3*%
G04 Aperture macros list end*
%TA.AperFunction,EtchedComponent*%
%ADD10C,0.095901*%
%TD*%
%TA.AperFunction,EtchedComponent*%
%ADD11C,0.134262*%
%TD*%
%TA.AperFunction,SMDPad,CuDef*%
%ADD12RoundRect,0.237500X0.237500X-0.250000X0.237500X0.250000X-0.237500X0.250000X-0.237500X-0.250000X0*%
%TD*%
%TA.AperFunction,SMDPad,CuDef*%
%ADD13RoundRect,0.237500X-0.344715X0.008839X0.008839X-0.344715X0.344715X-0.008839X-0.008839X0.344715X0*%
%TD*%
%TA.AperFunction,SMDPad,CuDef*%
%ADD14RoundRect,0.250001X0.624999X-0.462499X0.624999X0.462499X-0.624999X0.462499X-0.624999X-0.462499X0*%
%TD*%
%TA.AperFunction,SMDPad,CuDef*%
%ADD15RotRect,1.400000X1.200000X315.000000*%
%TD*%
%TA.AperFunction,SMDPad,CuDef*%
%ADD16RoundRect,0.225000X-0.335876X-0.017678X-0.017678X-0.335876X0.335876X0.017678X0.017678X0.335876X0*%
%TD*%
%TA.AperFunction,SMDPad,CuDef*%
%ADD17R,1.850000X3.450000*%
%TD*%
%TA.AperFunction,SMDPad,CuDef*%
%ADD18R,1.000000X1.500000*%
%TD*%
%TA.AperFunction,SMDPad,CuDef*%
%ADD19RoundRect,0.237500X-0.237500X0.250000X-0.237500X-0.250000X0.237500X-0.250000X0.237500X0.250000X0*%
%TD*%
%TA.AperFunction,SMDPad,CuDef*%
%ADD20R,0.650000X1.050000*%
%TD*%
%TA.AperFunction,ComponentPad*%
%ADD21R,1.700000X1.700000*%
%TD*%
%TA.AperFunction,ComponentPad*%
%ADD22O,1.700000X1.700000*%
%TD*%
%TA.AperFunction,SMDPad,CuDef*%
%ADD23R,3.450000X1.850000*%
%TD*%
%TA.AperFunction,SMDPad,CuDef*%
%ADD24R,1.150000X0.600000*%
%TD*%
%TA.AperFunction,SMDPad,CuDef*%
%ADD25R,1.150000X0.300000*%
%TD*%
%TA.AperFunction,ComponentPad*%
%ADD26O,2.100000X1.000000*%
%TD*%
%TA.AperFunction,ComponentPad*%
%ADD27O,1.800000X1.000000*%
%TD*%
%TA.AperFunction,SMDPad,CuDef*%
%ADD28RoundRect,0.200000X0.200000X0.275000X-0.200000X0.275000X-0.200000X-0.275000X0.200000X-0.275000X0*%
%TD*%
%TA.AperFunction,SMDPad,CuDef*%
%ADD29RoundRect,0.237500X-0.237500X0.300000X-0.237500X-0.300000X0.237500X-0.300000X0.237500X0.300000X0*%
%TD*%
%TA.AperFunction,SMDPad,CuDef*%
%ADD30RoundRect,0.237500X0.300000X0.237500X-0.300000X0.237500X-0.300000X-0.237500X0.300000X-0.237500X0*%
%TD*%
%TA.AperFunction,SMDPad,CuDef*%
%ADD31RoundRect,0.150000X-0.150000X0.512500X-0.150000X-0.512500X0.150000X-0.512500X0.150000X0.512500X0*%
%TD*%
%TA.AperFunction,SMDPad,CuDef*%
%ADD32RoundRect,0.150000X0.565685X-0.353553X-0.353553X0.565685X-0.565685X0.353553X0.353553X-0.565685X0*%
%TD*%
%TA.AperFunction,SMDPad,CuDef*%
%ADD33R,0.650000X0.400000*%
%TD*%
%TA.AperFunction,SMDPad,CuDef*%
%ADD34RoundRect,0.150000X-0.512500X-0.150000X0.512500X-0.150000X0.512500X0.150000X-0.512500X0.150000X0*%
%TD*%
%TA.AperFunction,SMDPad,CuDef*%
%ADD35RoundRect,0.237500X0.250000X0.237500X-0.250000X0.237500X-0.250000X-0.237500X0.250000X-0.237500X0*%
%TD*%
%TA.AperFunction,SMDPad,CuDef*%
%ADD36RoundRect,0.250000X-0.475000X0.250000X-0.475000X-0.250000X0.475000X-0.250000X0.475000X0.250000X0*%
%TD*%
%TA.AperFunction,SMDPad,CuDef*%
%ADD37R,1.500000X1.000000*%
%TD*%
%TA.AperFunction,SMDPad,CuDef*%
%ADD38R,2.000000X1.500000*%
%TD*%
%TA.AperFunction,SMDPad,CuDef*%
%ADD39R,2.000000X3.800000*%
%TD*%
%TA.AperFunction,SMDPad,CuDef*%
%ADD40R,0.740000X2.790000*%
%TD*%
%TA.AperFunction,SMDPad,CuDef*%
%ADD41RoundRect,0.237500X-0.250000X-0.237500X0.250000X-0.237500X0.250000X0.237500X-0.250000X0.237500X0*%
%TD*%
%TA.AperFunction,SMDPad,CuDef*%
%ADD42RoundRect,0.237500X0.237500X-0.300000X0.237500X0.300000X-0.237500X0.300000X-0.237500X-0.300000X0*%
%TD*%
%TA.AperFunction,SMDPad,CuDef*%
%ADD43RoundRect,0.237500X-0.380070X0.044194X0.044194X-0.380070X0.380070X-0.044194X-0.044194X0.380070X0*%
%TD*%
%TA.AperFunction,SMDPad,CuDef*%
%ADD44RoundRect,0.237500X0.008839X0.344715X-0.344715X-0.008839X-0.008839X-0.344715X0.344715X0.008839X0*%
%TD*%
%TA.AperFunction,SMDPad,CuDef*%
%ADD45RoundRect,0.100000X0.637500X0.100000X-0.637500X0.100000X-0.637500X-0.100000X0.637500X-0.100000X0*%
%TD*%
%TA.AperFunction,SMDPad,CuDef*%
%ADD46RoundRect,0.050000X-0.238649X-0.309359X0.309359X0.238649X0.238649X0.309359X-0.309359X-0.238649X0*%
%TD*%
%TA.AperFunction,SMDPad,CuDef*%
%ADD47RoundRect,0.050000X0.238649X-0.309359X0.309359X-0.238649X-0.238649X0.309359X-0.309359X0.238649X0*%
%TD*%
%TA.AperFunction,SMDPad,CuDef*%
%ADD48RotRect,3.200000X3.200000X45.000000*%
%TD*%
%TA.AperFunction,SMDPad,CuDef*%
%ADD49RoundRect,0.225000X-0.017678X0.335876X-0.335876X0.017678X0.017678X-0.335876X0.335876X-0.017678X0*%
%TD*%
%TA.AperFunction,SMDPad,CuDef*%
%ADD50RoundRect,0.250000X0.475000X-0.250000X0.475000X0.250000X-0.475000X0.250000X-0.475000X-0.250000X0*%
%TD*%
%TA.AperFunction,SMDPad,CuDef*%
%ADD51RoundRect,0.237500X-0.300000X-0.237500X0.300000X-0.237500X0.300000X0.237500X-0.300000X0.237500X0*%
%TD*%
%TA.AperFunction,SMDPad,CuDef*%
%ADD52RoundRect,0.150000X0.150000X-0.825000X0.150000X0.825000X-0.150000X0.825000X-0.150000X-0.825000X0*%
%TD*%
%TA.AperFunction,ViaPad*%
%ADD53C,0.508000*%
%TD*%
%TA.AperFunction,Conductor*%
%ADD54C,0.152400*%
%TD*%
%TA.AperFunction,Conductor*%
%ADD55C,0.250000*%
%TD*%
%TA.AperFunction,Conductor*%
%ADD56C,0.254000*%
%TD*%
%TA.AperFunction,Conductor*%
%ADD57C,0.304800*%
%TD*%
%TA.AperFunction,Conductor*%
%ADD58C,0.203200*%
%TD*%
G04 APERTURE END LIST*
%TA.AperFunction,EtchedComponent*%
%TO.C,JP1*%
G36*
X101800000Y-41900000D02*
G01*
X101300000Y-41900000D01*
X101300000Y-41500000D01*
X101800000Y-41500000D01*
X101800000Y-41900000D01*
G37*
%TD.AperFunction*%
%TA.AperFunction,EtchedComponent*%
G36*
X101800000Y-42700000D02*
G01*
X101300000Y-42700000D01*
X101300000Y-42300000D01*
X101800000Y-42300000D01*
X101800000Y-42700000D01*
G37*
%TD.AperFunction*%
%TO.C,svg2mod*%
D10*
X125636250Y-61318561D02*
X125523750Y-61318561D01*
X125523750Y-60820235D01*
X125636250Y-60820235D01*
X125636250Y-61318561D01*
%TA.AperFunction,EtchedComponent*%
G36*
X125636250Y-61318561D02*
G01*
X125523750Y-61318561D01*
X125523750Y-60820235D01*
X125636250Y-60820235D01*
X125636250Y-61318561D01*
G37*
%TD.AperFunction*%
D11*
X127157500Y-57330666D02*
X125840000Y-57330666D01*
X125840000Y-56719025D01*
X127157500Y-56719025D01*
X127157500Y-57330666D01*
%TA.AperFunction,EtchedComponent*%
G36*
X127157500Y-57330666D02*
G01*
X125840000Y-57330666D01*
X125840000Y-56719025D01*
X127157500Y-56719025D01*
X127157500Y-57330666D01*
G37*
%TD.AperFunction*%
X127157500Y-58730357D02*
X125840000Y-58730357D01*
X125840000Y-58118716D01*
X127157500Y-58118716D01*
X127157500Y-58730357D01*
%TA.AperFunction,EtchedComponent*%
G36*
X127157500Y-58730357D02*
G01*
X125840000Y-58730357D01*
X125840000Y-58118716D01*
X127157500Y-58118716D01*
X127157500Y-58730357D01*
G37*
%TD.AperFunction*%
X127157500Y-60133910D02*
X125840000Y-60133910D01*
X125840000Y-59522270D01*
X127157500Y-59522270D01*
X127157500Y-60133910D01*
%TA.AperFunction,EtchedComponent*%
G36*
X127157500Y-60133910D02*
G01*
X125840000Y-60133910D01*
X125840000Y-59522270D01*
X127157500Y-59522270D01*
X127157500Y-60133910D01*
G37*
%TD.AperFunction*%
D10*
X124520000Y-60914235D02*
X124290000Y-60914235D01*
X124290000Y-61015960D01*
X124471250Y-61015960D01*
X124471250Y-61109960D01*
X124290000Y-61109960D01*
X124290000Y-61218123D01*
X124520000Y-61218123D01*
X124520000Y-61317274D01*
X124175000Y-61317274D01*
X124175000Y-60818948D01*
X124520000Y-60818948D01*
X124520000Y-60914235D01*
%TA.AperFunction,EtchedComponent*%
G36*
X124520000Y-60914235D02*
G01*
X124290000Y-60914235D01*
X124290000Y-61015960D01*
X124471250Y-61015960D01*
X124471250Y-61109960D01*
X124290000Y-61109960D01*
X124290000Y-61218123D01*
X124520000Y-61218123D01*
X124520000Y-61317274D01*
X124175000Y-61317274D01*
X124175000Y-60818948D01*
X124520000Y-60818948D01*
X124520000Y-60914235D01*
G37*
%TD.AperFunction*%
X126548750Y-60914235D02*
X126318750Y-60914235D01*
X126318750Y-61015960D01*
X126500000Y-61015960D01*
X126500000Y-61109960D01*
X126318750Y-61109960D01*
X126318750Y-61218123D01*
X126548750Y-61218123D01*
X126548750Y-61317274D01*
X126203750Y-61317274D01*
X126203750Y-60818948D01*
X126548750Y-60818948D01*
X126548750Y-60914235D01*
%TA.AperFunction,EtchedComponent*%
G36*
X126548750Y-60914235D02*
G01*
X126318750Y-60914235D01*
X126318750Y-61015960D01*
X126500000Y-61015960D01*
X126500000Y-61109960D01*
X126318750Y-61109960D01*
X126318750Y-61218123D01*
X126548750Y-61218123D01*
X126548750Y-61317274D01*
X126203750Y-61317274D01*
X126203750Y-60818948D01*
X126548750Y-60818948D01*
X126548750Y-60914235D01*
G37*
%TD.AperFunction*%
X126962500Y-60914235D02*
X126732500Y-60914235D01*
X126732500Y-61015960D01*
X126912500Y-61015960D01*
X126912500Y-61109960D01*
X126731250Y-61109960D01*
X126731250Y-61218123D01*
X126962500Y-61218123D01*
X126962500Y-61317274D01*
X126617500Y-61317274D01*
X126617500Y-60818948D01*
X126962500Y-60818948D01*
X126962500Y-60914235D01*
%TA.AperFunction,EtchedComponent*%
G36*
X126962500Y-60914235D02*
G01*
X126732500Y-60914235D01*
X126732500Y-61015960D01*
X126912500Y-61015960D01*
X126912500Y-61109960D01*
X126731250Y-61109960D01*
X126731250Y-61218123D01*
X126962500Y-61218123D01*
X126962500Y-61317274D01*
X126617500Y-61317274D01*
X126617500Y-60818948D01*
X126962500Y-60818948D01*
X126962500Y-60914235D01*
G37*
%TD.AperFunction*%
X124876237Y-61113823D02*
X124873737Y-61080343D01*
X124873737Y-60820235D01*
X124960000Y-60820235D01*
X124960000Y-61318561D01*
X124863750Y-61318561D01*
X124675000Y-60981193D01*
X124676243Y-60997933D01*
X124677487Y-61019823D01*
X124677487Y-61318561D01*
X124588737Y-61318561D01*
X124588737Y-60820235D01*
X124711237Y-60820235D01*
X124876237Y-61113823D01*
%TA.AperFunction,EtchedComponent*%
G36*
X124876237Y-61113823D02*
G01*
X124873737Y-61080343D01*
X124873737Y-60820235D01*
X124960000Y-60820235D01*
X124960000Y-61318561D01*
X124863750Y-61318561D01*
X124675000Y-60981193D01*
X124676243Y-60997933D01*
X124677487Y-61019823D01*
X124677487Y-61318561D01*
X124588737Y-61318561D01*
X124588737Y-60820235D01*
X124711237Y-60820235D01*
X124876237Y-61113823D01*
G37*
%TD.AperFunction*%
X126106250Y-61318561D02*
X126010000Y-61318561D01*
X125821250Y-60982481D01*
X125822493Y-60999221D01*
X125823737Y-61021111D01*
X125823737Y-61319849D01*
X125734987Y-61319849D01*
X125734987Y-60821523D01*
X125857487Y-60821523D01*
X126022487Y-61115110D01*
X126019987Y-61081631D01*
X126019987Y-60821523D01*
X126106237Y-60821523D01*
X126106250Y-60820235D01*
X126106250Y-61318561D01*
%TA.AperFunction,EtchedComponent*%
G36*
X126106250Y-61318561D02*
G01*
X126010000Y-61318561D01*
X125821250Y-60982481D01*
X125822493Y-60999221D01*
X125823737Y-61021111D01*
X125823737Y-61319849D01*
X125734987Y-61319849D01*
X125734987Y-60821523D01*
X125857487Y-60821523D01*
X126022487Y-61115110D01*
X126019987Y-61081631D01*
X126019987Y-60821523D01*
X126106237Y-60821523D01*
X126106250Y-60820235D01*
X126106250Y-61318561D01*
G37*
%TD.AperFunction*%
X127337500Y-60833112D02*
X127396250Y-60884618D01*
X127420000Y-60968317D01*
X127399219Y-61045255D01*
X127336250Y-61097083D01*
X127425000Y-61317274D01*
X127300000Y-61317274D01*
X127226250Y-61120261D01*
X127143750Y-61120261D01*
X127143750Y-61317274D01*
X127030000Y-61317274D01*
X127030000Y-60909084D01*
X127143750Y-60909084D01*
X127143750Y-61036563D01*
X127213750Y-61036563D01*
X127263750Y-61031413D01*
X127291250Y-61009522D01*
X127303750Y-60970892D01*
X127291250Y-60933550D01*
X127265000Y-60912948D01*
X127211250Y-60909085D01*
X127143750Y-60909084D01*
X127030000Y-60909084D01*
X127030000Y-60818948D01*
X127242500Y-60818948D01*
X127337500Y-60833112D01*
%TA.AperFunction,EtchedComponent*%
G36*
X127337500Y-60833112D02*
G01*
X127396250Y-60884618D01*
X127420000Y-60968317D01*
X127399219Y-61045255D01*
X127336250Y-61097083D01*
X127425000Y-61317274D01*
X127300000Y-61317274D01*
X127226250Y-61120261D01*
X127143750Y-61120261D01*
X127143750Y-61317274D01*
X127030000Y-61317274D01*
X127030000Y-60909084D01*
X127143750Y-60909084D01*
X127143750Y-61036563D01*
X127213750Y-61036563D01*
X127263750Y-61031413D01*
X127291250Y-61009522D01*
X127303750Y-60970892D01*
X127291250Y-60933550D01*
X127265000Y-60912948D01*
X127211250Y-60909085D01*
X127143750Y-60909084D01*
X127030000Y-60909084D01*
X127030000Y-60818948D01*
X127242500Y-60818948D01*
X127337500Y-60833112D01*
G37*
%TD.AperFunction*%
X125373750Y-60857577D02*
X125433750Y-60982481D01*
X125326250Y-60996645D01*
X125242500Y-60906509D01*
X125172500Y-60949002D01*
X125148750Y-61071330D01*
X125173750Y-61188507D01*
X125246250Y-61228425D01*
X125300000Y-61207822D01*
X125323750Y-61142151D01*
X125232500Y-61142151D01*
X125232500Y-61049439D01*
X125435000Y-61049439D01*
X125435000Y-61052015D01*
X125435000Y-61318561D01*
X125383750Y-61318561D01*
X125367500Y-61260616D01*
X125235000Y-61325000D01*
X125150937Y-61307616D01*
X125087500Y-61255466D01*
X125048125Y-61175470D01*
X125035000Y-61075193D01*
X125049062Y-60967673D01*
X125091250Y-60883331D01*
X125157656Y-60829410D01*
X125243750Y-60811222D01*
X125373750Y-60857577D01*
%TA.AperFunction,EtchedComponent*%
G36*
X125373750Y-60857577D02*
G01*
X125433750Y-60982481D01*
X125326250Y-60996645D01*
X125242500Y-60906509D01*
X125172500Y-60949002D01*
X125148750Y-61071330D01*
X125173750Y-61188507D01*
X125246250Y-61228425D01*
X125300000Y-61207822D01*
X125323750Y-61142151D01*
X125232500Y-61142151D01*
X125232500Y-61049439D01*
X125435000Y-61049439D01*
X125435000Y-61052015D01*
X125435000Y-61318561D01*
X125383750Y-61318561D01*
X125367500Y-61260616D01*
X125235000Y-61325000D01*
X125150937Y-61307616D01*
X125087500Y-61255466D01*
X125048125Y-61175470D01*
X125035000Y-61075193D01*
X125049062Y-60967673D01*
X125091250Y-60883331D01*
X125157656Y-60829410D01*
X125243750Y-60811222D01*
X125373750Y-60857577D01*
G37*
%TD.AperFunction*%
D11*
X124171348Y-57189231D02*
X124298287Y-57244344D01*
X124405781Y-57329861D01*
X124488796Y-57440594D01*
X124542297Y-57571358D01*
X124561250Y-57716965D01*
X124542297Y-57862572D01*
X124488796Y-57993336D01*
X124405781Y-58104069D01*
X124298287Y-58189585D01*
X124171348Y-58244699D01*
X124030000Y-58264222D01*
X123891620Y-58245670D01*
X123767130Y-58193067D01*
X123661250Y-58110990D01*
X122693750Y-58110990D01*
X122693750Y-57716965D01*
X123746250Y-57716965D01*
X123768437Y-57830541D01*
X123829062Y-57923474D01*
X123919219Y-57986228D01*
X124030000Y-58009265D01*
X124140781Y-57986228D01*
X124230937Y-57923474D01*
X124291562Y-57830541D01*
X124313750Y-57716965D01*
X124291562Y-57602644D01*
X124230937Y-57509329D01*
X124140781Y-57446435D01*
X124030000Y-57423377D01*
X123919746Y-57446435D01*
X123829531Y-57509329D01*
X123768613Y-57602644D01*
X123746250Y-57716965D01*
X122693750Y-57716965D01*
X122693750Y-57322940D01*
X123661250Y-57322940D01*
X123767685Y-57241435D01*
X123891898Y-57188546D01*
X124030000Y-57169708D01*
X124171348Y-57189231D01*
%TA.AperFunction,EtchedComponent*%
G36*
X124171348Y-57189231D02*
G01*
X124298287Y-57244344D01*
X124405781Y-57329861D01*
X124488796Y-57440594D01*
X124542297Y-57571358D01*
X124561250Y-57716965D01*
X124542297Y-57862572D01*
X124488796Y-57993336D01*
X124405781Y-58104069D01*
X124298287Y-58189585D01*
X124171348Y-58244699D01*
X124030000Y-58264222D01*
X123891620Y-58245670D01*
X123767130Y-58193067D01*
X123661250Y-58110990D01*
X122693750Y-58110990D01*
X122693750Y-57716965D01*
X123746250Y-57716965D01*
X123768437Y-57830541D01*
X123829062Y-57923474D01*
X123919219Y-57986228D01*
X124030000Y-58009265D01*
X124140781Y-57986228D01*
X124230937Y-57923474D01*
X124291562Y-57830541D01*
X124313750Y-57716965D01*
X124291562Y-57602644D01*
X124230937Y-57509329D01*
X124140781Y-57446435D01*
X124030000Y-57423377D01*
X123919746Y-57446435D01*
X123829531Y-57509329D01*
X123768613Y-57602644D01*
X123746250Y-57716965D01*
X122693750Y-57716965D01*
X122693750Y-57322940D01*
X123661250Y-57322940D01*
X123767685Y-57241435D01*
X123891898Y-57188546D01*
X124030000Y-57169708D01*
X124171348Y-57189231D01*
G37*
%TD.AperFunction*%
X124171348Y-58586347D02*
X124298287Y-58641460D01*
X124405781Y-58726976D01*
X124488796Y-58837710D01*
X124542297Y-58968473D01*
X124561250Y-59114080D01*
X124542297Y-59259688D01*
X124488796Y-59390451D01*
X124405781Y-59501185D01*
X124298287Y-59586701D01*
X124171348Y-59641814D01*
X124030000Y-59661338D01*
X123891620Y-59642786D01*
X123767130Y-59590182D01*
X123661250Y-59508106D01*
X122693750Y-59508106D01*
X122693750Y-59114080D01*
X123746250Y-59114080D01*
X123768437Y-59228401D01*
X123829062Y-59321716D01*
X123919219Y-59384611D01*
X124030000Y-59407668D01*
X124140781Y-59384611D01*
X124230937Y-59321716D01*
X124291562Y-59228401D01*
X124313750Y-59114080D01*
X124291562Y-59000505D01*
X124230937Y-58907571D01*
X124140781Y-58844818D01*
X124030000Y-58821781D01*
X123919746Y-58844637D01*
X123829531Y-58907088D01*
X123768613Y-58999961D01*
X123746250Y-59114080D01*
X122693750Y-59114080D01*
X122693750Y-58720055D01*
X123661250Y-58720055D01*
X123767685Y-58638551D01*
X123891898Y-58585661D01*
X124030000Y-58566823D01*
X124171348Y-58586347D01*
%TA.AperFunction,EtchedComponent*%
G36*
X124171348Y-58586347D02*
G01*
X124298287Y-58641460D01*
X124405781Y-58726976D01*
X124488796Y-58837710D01*
X124542297Y-58968473D01*
X124561250Y-59114080D01*
X124542297Y-59259688D01*
X124488796Y-59390451D01*
X124405781Y-59501185D01*
X124298287Y-59586701D01*
X124171348Y-59641814D01*
X124030000Y-59661338D01*
X123891620Y-59642786D01*
X123767130Y-59590182D01*
X123661250Y-59508106D01*
X122693750Y-59508106D01*
X122693750Y-59114080D01*
X123746250Y-59114080D01*
X123768437Y-59228401D01*
X123829062Y-59321716D01*
X123919219Y-59384611D01*
X124030000Y-59407668D01*
X124140781Y-59384611D01*
X124230937Y-59321716D01*
X124291562Y-59228401D01*
X124313750Y-59114080D01*
X124291562Y-59000505D01*
X124230937Y-58907571D01*
X124140781Y-58844818D01*
X124030000Y-58821781D01*
X123919746Y-58844637D01*
X123829531Y-58907088D01*
X123768613Y-58999961D01*
X123746250Y-59114080D01*
X122693750Y-59114080D01*
X122693750Y-58720055D01*
X123661250Y-58720055D01*
X123767685Y-58638551D01*
X123891898Y-58585661D01*
X124030000Y-58566823D01*
X124171348Y-58586347D01*
G37*
%TD.AperFunction*%
%TA.AperFunction,EtchedComponent*%
%TO.C,JP3*%
G36*
X110400000Y-52200000D02*
G01*
X110000000Y-52200000D01*
X110000000Y-51700000D01*
X110400000Y-51700000D01*
X110400000Y-52200000D01*
G37*
%TD.AperFunction*%
%TA.AperFunction,EtchedComponent*%
G36*
X109600000Y-52200000D02*
G01*
X109200000Y-52200000D01*
X109200000Y-51700000D01*
X109600000Y-51700000D01*
X109600000Y-52200000D01*
G37*
%TD.AperFunction*%
%TA.AperFunction,EtchedComponent*%
%TO.C,JP5*%
G36*
X104450000Y-45825000D02*
G01*
X104050000Y-45825000D01*
X104050000Y-45325000D01*
X104450000Y-45325000D01*
X104450000Y-45825000D01*
G37*
%TD.AperFunction*%
%TA.AperFunction,EtchedComponent*%
G36*
X105250000Y-45825000D02*
G01*
X104850000Y-45825000D01*
X104850000Y-45325000D01*
X105250000Y-45325000D01*
X105250000Y-45825000D01*
G37*
%TD.AperFunction*%
%TA.AperFunction,EtchedComponent*%
%TO.C,JP4*%
G36*
X108625000Y-45825000D02*
G01*
X108225000Y-45825000D01*
X108225000Y-45325000D01*
X108625000Y-45325000D01*
X108625000Y-45825000D01*
G37*
%TD.AperFunction*%
%TA.AperFunction,EtchedComponent*%
G36*
X109425000Y-45825000D02*
G01*
X109025000Y-45825000D01*
X109025000Y-45325000D01*
X109425000Y-45325000D01*
X109425000Y-45825000D01*
G37*
%TD.AperFunction*%
%TA.AperFunction,EtchedComponent*%
%TO.C,JP2*%
G36*
X101775000Y-39175000D02*
G01*
X101275000Y-39175000D01*
X101275000Y-38775000D01*
X101775000Y-38775000D01*
X101775000Y-39175000D01*
G37*
%TD.AperFunction*%
%TA.AperFunction,EtchedComponent*%
G36*
X101775000Y-39975000D02*
G01*
X101275000Y-39975000D01*
X101275000Y-39575000D01*
X101775000Y-39575000D01*
X101775000Y-39975000D01*
G37*
%TD.AperFunction*%
%TD*%
D12*
%TO.P,R11,1*%
%TO.N,Net-(U3A-Reset)*%
X106025000Y-70287500D03*
%TO.P,R11,2*%
%TO.N,/CNT_RESET*%
X106025000Y-68462500D03*
%TD*%
D13*
%TO.P,R12,1*%
%TO.N,/XOUT*%
X91979765Y-64579765D03*
%TO.P,R12,2*%
%TO.N,Net-(C2-Pad1)*%
X93270235Y-65870235D03*
%TD*%
D14*
%TO.P,D3,1,K*%
%TO.N,GND*%
X77375000Y-85387500D03*
%TO.P,D3,2,A*%
%TO.N,Net-(D3-A)*%
X77375000Y-82412500D03*
%TD*%
D15*
%TO.P,Y1,1,1*%
%TO.N,/XIN*%
X89346142Y-66823223D03*
%TO.P,Y1,2,2*%
%TO.N,GND*%
X90901777Y-68378858D03*
%TO.P,Y1,3,3*%
%TO.N,Net-(C2-Pad1)*%
X92103858Y-67176777D03*
%TO.P,Y1,4,4*%
%TO.N,GND*%
X90548223Y-65621142D03*
%TD*%
D16*
%TO.P,C1,1*%
%TO.N,/XIN*%
X88326992Y-68201992D03*
%TO.P,C1,2*%
%TO.N,GND*%
X89423008Y-69298008D03*
%TD*%
D17*
%TO.P,TP7,1,1*%
%TO.N,/TS7*%
X92125000Y-77300000D03*
%TD*%
%TO.P,TP3,1,1*%
%TO.N,/TS3*%
X102275000Y-77300000D03*
%TD*%
D18*
%TO.P,JP1,1,A*%
%TO.N,/AD0*%
X100900000Y-42100000D03*
%TO.P,JP1,2,C*%
%TO.N,GND*%
X102200000Y-42100000D03*
%TO.P,JP1,3,B*%
%TO.N,+3V3*%
X103500000Y-42100000D03*
%TD*%
D19*
%TO.P,R1,1*%
%TO.N,+3V3*%
X86350000Y-81537500D03*
%TO.P,R1,2*%
%TO.N,/SDA*%
X86350000Y-83362500D03*
%TD*%
D20*
%TO.P,SW1,1,1*%
%TO.N,/Run*%
X67225000Y-73750000D03*
X67225000Y-77900000D03*
%TO.P,SW1,2,2*%
%TO.N,GND*%
X65075000Y-73750000D03*
X65075000Y-77900000D03*
%TD*%
D21*
%TO.P,J6,1,Pin_1*%
%TO.N,+5V*%
X143000000Y-82100000D03*
D22*
%TO.P,J6,2,Pin_2*%
%TO.N,GND*%
X143000000Y-79560000D03*
%TO.P,J6,3,Pin_3*%
%TO.N,+3V3*%
X143000000Y-77020000D03*
%TD*%
D14*
%TO.P,D5,1,K*%
%TO.N,GND*%
X73350000Y-35437500D03*
%TO.P,D5,2,A*%
%TO.N,Net-(D5-A)*%
X73350000Y-32462500D03*
%TD*%
D23*
%TO.P,TP12,1,1*%
%TO.N,Net-(JP4-A)*%
X112050000Y-46725000D03*
%TD*%
%TO.P,TP105,1,1*%
%TO.N,/BUF05*%
X117625000Y-49739999D03*
%TD*%
%TO.P,TP110,1,1*%
%TO.N,/BUF10*%
X117625000Y-69125000D03*
%TD*%
D24*
%TO.P,J1,A1,GND*%
%TO.N,GND*%
X70955000Y-54950000D03*
%TO.P,J1,A4,VBUS*%
%TO.N,/VBUS*%
X70955000Y-55750000D03*
D25*
%TO.P,J1,A5,CC1*%
%TO.N,Net-(J1-CC1)*%
X70955000Y-56900000D03*
%TO.P,J1,A6,D+*%
%TO.N,/USB_DP*%
X70955000Y-57900000D03*
%TO.P,J1,A7,D-*%
%TO.N,/USB_DN*%
X70955000Y-58400000D03*
%TO.P,J1,A8,SBU1*%
%TO.N,unconnected-(J1-SBU1-PadA8)*%
X70955000Y-59400000D03*
D24*
%TO.P,J1,A9,VBUS*%
%TO.N,/VBUS*%
X70955000Y-60550000D03*
%TO.P,J1,A12,GND*%
%TO.N,GND*%
X70955000Y-61350000D03*
%TO.P,J1,B1,GND*%
X70955000Y-61350000D03*
%TO.P,J1,B4,VBUS*%
%TO.N,/VBUS*%
X70955000Y-60550000D03*
D25*
%TO.P,J1,B5,CC2*%
%TO.N,Net-(J1-CC2)*%
X70955000Y-59900000D03*
%TO.P,J1,B6,D+*%
%TO.N,/USB_DP*%
X70955000Y-58900000D03*
%TO.P,J1,B7,D-*%
%TO.N,/USB_DN*%
X70955000Y-57400000D03*
%TO.P,J1,B8,SBU2*%
%TO.N,unconnected-(J1-SBU2-PadB8)*%
X70955000Y-56400000D03*
D24*
%TO.P,J1,B9,VBUS*%
%TO.N,/VBUS*%
X70955000Y-55750000D03*
%TO.P,J1,B12,GND*%
%TO.N,GND*%
X70955000Y-54950000D03*
D26*
%TO.P,J1,S1,SHIELD*%
X70380000Y-53830000D03*
D27*
X66200000Y-53830000D03*
D26*
X70380000Y-62470000D03*
D27*
X66200000Y-62470000D03*
%TD*%
D28*
%TO.P,R35,1*%
%TO.N,/IN10*%
X132995000Y-68810714D03*
%TO.P,R35,2*%
%TO.N,/A10*%
X131345000Y-68810714D03*
%TD*%
%TO.P,R31,1*%
%TO.N,/IN06*%
X132900000Y-51014284D03*
%TO.P,R31,2*%
%TO.N,/A6*%
X131250000Y-51014284D03*
%TD*%
D29*
%TO.P,C19,1*%
%TO.N,+3V3*%
X103750000Y-49112500D03*
%TO.P,C19,2*%
%TO.N,GND*%
X103750000Y-50837500D03*
%TD*%
D28*
%TO.P,R34,1*%
%TO.N,/IN09*%
X132995000Y-66267857D03*
%TO.P,R34,2*%
%TO.N,/A9*%
X131345000Y-66267857D03*
%TD*%
D30*
%TO.P,C24,1*%
%TO.N,+5V*%
X139612500Y-82100000D03*
%TO.P,C24,2*%
%TO.N,GND*%
X137887500Y-82100000D03*
%TD*%
D31*
%TO.P,U5,1,VOUT*%
%TO.N,Net-(JP4-A)*%
X107425000Y-48837500D03*
%TO.P,U5,2,VSS*%
%TO.N,GND*%
X106475000Y-48837500D03*
%TO.P,U5,3,VDD*%
%TO.N,+3V3*%
X105525000Y-48837500D03*
%TO.P,U5,4,SDA*%
%TO.N,Net-(U5-SDA)*%
X105525000Y-51112500D03*
%TO.P,U5,5,SCL*%
%TO.N,Net-(U5-SCL)*%
X106475000Y-51112500D03*
%TO.P,U5,6,A0*%
%TO.N,Net-(JP3-A)*%
X107425000Y-51112500D03*
%TD*%
D23*
%TO.P,TP102,1,1*%
%TO.N,/BUF02*%
X117625000Y-41750000D03*
%TD*%
D28*
%TO.P,R39,1*%
%TO.N,/IN14*%
X132995000Y-78982142D03*
%TO.P,R39,2*%
%TO.N,/A14*%
X131345000Y-78982142D03*
%TD*%
D19*
%TO.P,R18,1*%
%TO.N,Net-(U5-SCL)*%
X107445000Y-53087500D03*
%TO.P,R18,2*%
%TO.N,/SCL*%
X107445000Y-54912500D03*
%TD*%
D32*
%TO.P,U7,1,~{CS}*%
%TO.N,/~{CS}*%
X78738666Y-68832743D03*
%TO.P,U7,2,DO(IO1)*%
%TO.N,Net-(U1-QSPI_SD1)*%
X79636692Y-67934717D03*
%TO.P,U7,3,IO2*%
%TO.N,Net-(U1-QSPI_SD2)*%
X80534717Y-67036692D03*
%TO.P,U7,4,GND*%
%TO.N,GND*%
X81432743Y-66138666D03*
%TO.P,U7,5,DI(IO0)*%
%TO.N,Net-(U1-QSPI_SD0)*%
X76341574Y-61047497D03*
%TO.P,U7,6,CLK*%
%TO.N,Net-(U1-QSPI_SCLK)*%
X75443548Y-61945523D03*
%TO.P,U7,7,IO3*%
%TO.N,Net-(U1-QSPI_SD3)*%
X74545523Y-62843548D03*
%TO.P,U7,8,VCC*%
%TO.N,+3V3*%
X73647497Y-63741574D03*
%TD*%
D28*
%TO.P,R25,1*%
%TO.N,/IN00*%
X132900000Y-35800000D03*
%TO.P,R25,2*%
%TO.N,/A0*%
X131250000Y-35800000D03*
%TD*%
D19*
%TO.P,R20,1*%
%TO.N,/Vset*%
X106750000Y-44662500D03*
%TO.P,R20,2*%
%TO.N,GND*%
X106750000Y-46487500D03*
%TD*%
D33*
%TO.P,D7,1,K*%
%TO.N,unconnected-(D7-K-Pad1)*%
X73025000Y-53725000D03*
%TO.P,D7,2,A*%
%TO.N,GND*%
X73025000Y-54375000D03*
%TO.P,D7,3,K*%
%TO.N,/VBUS*%
X73025000Y-55025000D03*
%TO.P,D7,4,K*%
%TO.N,/USB_DP*%
X74925000Y-55025000D03*
%TO.P,D7,5,K*%
%TO.N,/USB_DN*%
X74925000Y-53725000D03*
%TD*%
D23*
%TO.P,TP18,1,1*%
%TO.N,GND*%
X126025000Y-82400000D03*
%TD*%
D30*
%TO.P,C21,1*%
%TO.N,+3V3*%
X95437500Y-48050000D03*
%TO.P,C21,2*%
%TO.N,GND*%
X93712500Y-48050000D03*
%TD*%
D28*
%TO.P,R28,1*%
%TO.N,/IN03*%
X132900000Y-43407142D03*
%TO.P,R28,2*%
%TO.N,/A3*%
X131250000Y-43407142D03*
%TD*%
D23*
%TO.P,TP100,1,1*%
%TO.N,/BUF00*%
X117625000Y-36423334D03*
%TD*%
%TO.P,TP111,1,1*%
%TO.N,/BUF11*%
X117625000Y-71788333D03*
%TD*%
D19*
%TO.P,R19,1*%
%TO.N,Net-(U5-SDA)*%
X105505000Y-53087500D03*
%TO.P,R19,2*%
%TO.N,/SDA*%
X105505000Y-54912500D03*
%TD*%
D17*
%TO.P,TP0,1,1*%
%TO.N,/TS0*%
X109900000Y-77315000D03*
%TD*%
D23*
%TO.P,TP106,1,1*%
%TO.N,/BUF06*%
X117625000Y-52403332D03*
%TD*%
D14*
%TO.P,D4,1,K*%
%TO.N,GND*%
X78825000Y-35437500D03*
%TO.P,D4,2,A*%
%TO.N,Net-(D4-A)*%
X78825000Y-32462500D03*
%TD*%
D17*
%TO.P,TP8,1,1*%
%TO.N,/SDA*%
X89575000Y-77325000D03*
%TD*%
D34*
%TO.P,U4,1,IN*%
%TO.N,/IN_CLK*%
X105712500Y-40425000D03*
%TO.P,U4,2,GND*%
%TO.N,GND*%
X105712500Y-41375000D03*
%TO.P,U4,3,SET*%
%TO.N,/Vset*%
X105712500Y-42325000D03*
%TO.P,U4,4,DIV*%
%TO.N,/DIV*%
X107987500Y-42325000D03*
%TO.P,U4,5,V+*%
%TO.N,+3V3*%
X107987500Y-41375000D03*
%TO.P,U4,6,OUT*%
%TO.N,/CLK*%
X107987500Y-40425000D03*
%TD*%
D14*
%TO.P,D1,1,K*%
%TO.N,GND*%
X67395000Y-85387500D03*
%TO.P,D1,2,A*%
%TO.N,Net-(D1-A)*%
X67395000Y-82412500D03*
%TD*%
%TO.P,D6,1,K*%
%TO.N,GND*%
X67850000Y-35437500D03*
%TO.P,D6,2,A*%
%TO.N,Net-(D6-A)*%
X67850000Y-32462500D03*
%TD*%
D28*
%TO.P,R30,1*%
%TO.N,/IN05*%
X132900000Y-48478570D03*
%TO.P,R30,2*%
%TO.N,/A5*%
X131250000Y-48478570D03*
%TD*%
D19*
%TO.P,R2,1*%
%TO.N,+3V3*%
X84075000Y-34237500D03*
%TO.P,R2,2*%
%TO.N,/SCL*%
X84075000Y-36062500D03*
%TD*%
D30*
%TO.P,C3,1*%
%TO.N,+3V3*%
X123937500Y-50300000D03*
%TO.P,C3,2*%
%TO.N,GND*%
X122212500Y-50300000D03*
%TD*%
D35*
%TO.P,R21,1*%
%TO.N,+3V3*%
X112762500Y-44650000D03*
%TO.P,R21,2*%
%TO.N,/DIV*%
X110937500Y-44650000D03*
%TD*%
D36*
%TO.P,C6,1*%
%TO.N,+3V3*%
X84325000Y-72550000D03*
%TO.P,C6,2*%
%TO.N,GND*%
X84325000Y-74450000D03*
%TD*%
D18*
%TO.P,JP6,1,A*%
%TO.N,/CLK*%
X107500000Y-38325000D03*
%TO.P,JP6,2,B*%
%TO.N,/IN_CLK*%
X106200000Y-38325000D03*
%TD*%
D28*
%TO.P,R40,1*%
%TO.N,/IN15*%
X132995000Y-81525000D03*
%TO.P,R40,2*%
%TO.N,/A15*%
X131345000Y-81525000D03*
%TD*%
D23*
%TO.P,TP109,1,1*%
%TO.N,/BUF09*%
X117625000Y-66461667D03*
%TD*%
D12*
%TO.P,R6,1*%
%TO.N,+3V3*%
X69890000Y-84835000D03*
%TO.P,R6,2*%
%TO.N,Net-(D2-A)*%
X69890000Y-83010000D03*
%TD*%
D37*
%TO.P,JP3,1,A*%
%TO.N,Net-(JP3-A)*%
X109800000Y-51300000D03*
%TO.P,JP3,2,C*%
%TO.N,GND*%
X109800000Y-52600000D03*
%TO.P,JP3,3,B*%
%TO.N,+3V3*%
X109800000Y-53900000D03*
%TD*%
D23*
%TO.P,TP101,1,1*%
%TO.N,/BUF01*%
X117625000Y-39086667D03*
%TD*%
%TO.P,TP113,1,1*%
%TO.N,/BUF13*%
X117625000Y-77114999D03*
%TD*%
D38*
%TO.P,U9,1,VI*%
%TO.N,+5V*%
X81300000Y-77700000D03*
%TO.P,U9,2,GND*%
%TO.N,GND*%
X81300000Y-75400000D03*
%TO.P,U9,3,VO*%
%TO.N,+3V3*%
X81300000Y-73100000D03*
D39*
%TO.P,U9,4,GND*%
%TO.N,GND*%
X75000000Y-75400000D03*
%TD*%
D17*
%TO.P,TP6,1,1*%
%TO.N,/TS6*%
X94650000Y-77300000D03*
%TD*%
D40*
%TO.P,J7,01,VD*%
%TO.N,+3V3*%
X95810000Y-63785000D03*
%TO.P,J7,02,D*%
%TO.N,/SWD*%
X95810000Y-59715000D03*
%TO.P,J7,03,03*%
%TO.N,GND*%
X97080000Y-63785000D03*
%TO.P,J7,04,CLK*%
%TO.N,/SWCLK*%
X97080000Y-59715000D03*
%TO.P,J7,05,05*%
%TO.N,GND*%
X98350000Y-63785000D03*
%TO.P,J7,06,06*%
%TO.N,unconnected-(J7-Pad06)*%
X98350000Y-59715000D03*
%TO.P,J7,07,07*%
%TO.N,unconnected-(J7-Pad07)*%
X99620000Y-63785000D03*
%TO.P,J7,08,08*%
%TO.N,unconnected-(J7-Pad08)*%
X99620000Y-59715000D03*
%TO.P,J7,09,09*%
%TO.N,GND*%
X100890000Y-63785000D03*
%TO.P,J7,10,10*%
%TO.N,/Run*%
X100890000Y-59715000D03*
%TD*%
D28*
%TO.P,R36,1*%
%TO.N,/IN11*%
X132995000Y-71353571D03*
%TO.P,R36,2*%
%TO.N,/A11*%
X131345000Y-71353571D03*
%TD*%
D37*
%TO.P,JP5,1,A*%
%TO.N,/W*%
X104650000Y-46225000D03*
%TO.P,JP5,2,B*%
%TO.N,/Vset*%
X104650000Y-44925000D03*
%TD*%
D17*
%TO.P,TP4,1,1*%
%TO.N,/TS4*%
X99725000Y-77300000D03*
%TD*%
D41*
%TO.P,R22,1*%
%TO.N,/DIV*%
X110937500Y-43000000D03*
%TO.P,R22,2*%
%TO.N,GND*%
X112762500Y-43000000D03*
%TD*%
D21*
%TO.P,J5,1,Pin_1*%
%TO.N,GND*%
X140550000Y-43450000D03*
D22*
%TO.P,J5,2,Pin_2*%
%TO.N,/IN_CLK*%
X143090000Y-43450000D03*
%TO.P,J5,3,Pin_3*%
%TO.N,/IN01*%
X140550000Y-45990000D03*
%TO.P,J5,4,Pin_4*%
%TO.N,/IN00*%
X143090000Y-45990000D03*
%TO.P,J5,5,Pin_5*%
%TO.N,/IN03*%
X140550000Y-48530000D03*
%TO.P,J5,6,Pin_6*%
%TO.N,/IN02*%
X143090000Y-48530000D03*
%TO.P,J5,7,Pin_7*%
%TO.N,GND*%
X140550000Y-51070000D03*
%TO.P,J5,8,Pin_8*%
X143090000Y-51070000D03*
%TO.P,J5,9,Pin_9*%
%TO.N,/IN05*%
X140550000Y-53610000D03*
%TO.P,J5,10,Pin_10*%
%TO.N,/IN04*%
X143090000Y-53610000D03*
%TO.P,J5,11,Pin_11*%
%TO.N,/IN07*%
X140550000Y-56150000D03*
%TO.P,J5,12,Pin_12*%
%TO.N,/IN06*%
X143090000Y-56150000D03*
%TO.P,J5,13,Pin_13*%
%TO.N,GND*%
X140550000Y-58690000D03*
%TO.P,J5,14,Pin_14*%
X143090000Y-58690000D03*
%TO.P,J5,15,Pin_15*%
%TO.N,/IN09*%
X140550000Y-61230000D03*
%TO.P,J5,16,Pin_16*%
%TO.N,/IN08*%
X143090000Y-61230000D03*
%TO.P,J5,17,Pin_17*%
%TO.N,/IN11*%
X140550000Y-63770000D03*
%TO.P,J5,18,Pin_18*%
%TO.N,/IN10*%
X143090000Y-63770000D03*
%TO.P,J5,19,Pin_19*%
%TO.N,GND*%
X140550000Y-66310000D03*
%TO.P,J5,20,Pin_20*%
X143090000Y-66310000D03*
%TO.P,J5,21,Pin_21*%
%TO.N,/IN13*%
X140550000Y-68850000D03*
%TO.P,J5,22,Pin_22*%
%TO.N,/IN12*%
X143090000Y-68850000D03*
%TO.P,J5,23,Pin_23*%
%TO.N,/IN15*%
X140550000Y-71390000D03*
%TO.P,J5,24,Pin_24*%
%TO.N,/IN14*%
X143090000Y-71390000D03*
%TD*%
D42*
%TO.P,C22,1*%
%TO.N,+3V3*%
X95475000Y-72887500D03*
%TO.P,C22,2*%
%TO.N,GND*%
X95475000Y-71162500D03*
%TD*%
D30*
%TO.P,C23,1*%
%TO.N,+3V3*%
X139637500Y-77050000D03*
%TO.P,C23,2*%
%TO.N,GND*%
X137912500Y-77050000D03*
%TD*%
D17*
%TO.P,TP5,1,1*%
%TO.N,/TS5*%
X97225000Y-77300000D03*
%TD*%
%TO.P,TP19,1,1*%
%TO.N,GND*%
X65550000Y-48675000D03*
%TD*%
D12*
%TO.P,R5,1*%
%TO.N,+5V*%
X64900000Y-84835000D03*
%TO.P,R5,2*%
%TO.N,Net-(D1-A)*%
X64900000Y-83010000D03*
%TD*%
%TO.P,R4,1*%
%TO.N,Net-(U6-O1)*%
X75600000Y-34885000D03*
%TO.P,R4,2*%
%TO.N,Net-(D5-A)*%
X75600000Y-33060000D03*
%TD*%
D19*
%TO.P,R15,1*%
%TO.N,Net-(U6-SDA)*%
X98950000Y-48012500D03*
%TO.P,R15,2*%
%TO.N,/SDA*%
X98950000Y-49837500D03*
%TD*%
D23*
%TO.P,TP10,1,1*%
%TO.N,Net-(U3A-CK)*%
X108150000Y-72550000D03*
%TD*%
D28*
%TO.P,R29,1*%
%TO.N,/IN04*%
X132900000Y-45942856D03*
%TO.P,R29,2*%
%TO.N,/A4*%
X131250000Y-45942856D03*
%TD*%
D17*
%TO.P,TP13,1,1*%
%TO.N,/A*%
X88175000Y-41375000D03*
%TD*%
%TO.P,TP9,1,1*%
%TO.N,/SCL*%
X86275000Y-35125000D03*
%TD*%
D43*
%TO.P,C31,1*%
%TO.N,+3V3*%
X74205240Y-67205240D03*
%TO.P,C31,2*%
%TO.N,GND*%
X75425000Y-68425000D03*
%TD*%
D35*
%TO.P,R16,1*%
%TO.N,/DN*%
X79562500Y-53650000D03*
%TO.P,R16,2*%
%TO.N,/USB_DN*%
X77737500Y-53650000D03*
%TD*%
D44*
%TO.P,R10,1*%
%TO.N,/~{CS}*%
X81410355Y-69082385D03*
%TO.P,R10,2*%
%TO.N,Net-(R10-Pad2)*%
X80119885Y-70372855D03*
%TD*%
D17*
%TO.P,TP15,1,1*%
%TO.N,+3V3*%
X65575000Y-42100000D03*
%TD*%
D23*
%TO.P,TP108,1,1*%
%TO.N,/BUF08*%
X117625000Y-63798334D03*
%TD*%
D21*
%TO.P,J3,1,Pin_1*%
%TO.N,/CLK*%
X112450000Y-81725000D03*
D22*
%TO.P,J3,2,Pin_2*%
%TO.N,GND*%
X112450000Y-84265000D03*
%TO.P,J3,3,Pin_3*%
%TO.N,/TS0*%
X109910000Y-81725000D03*
%TO.P,J3,4,Pin_4*%
%TO.N,/LA_Enable*%
X109910000Y-84265000D03*
%TO.P,J3,5,Pin_5*%
%TO.N,/TS1*%
X107370000Y-81725000D03*
%TO.P,J3,6,Pin_6*%
%TO.N,GND*%
X107370000Y-84265000D03*
%TO.P,J3,7,Pin_7*%
%TO.N,/TS2*%
X104830000Y-81725000D03*
%TO.P,J3,8,Pin_8*%
%TO.N,GND*%
X104830000Y-84265000D03*
%TO.P,J3,9,Pin_9*%
%TO.N,/TS3*%
X102290000Y-81725000D03*
%TO.P,J3,10,Pin_10*%
%TO.N,GND*%
X102290000Y-84265000D03*
%TO.P,J3,11,Pin_11*%
%TO.N,/TS4*%
X99750000Y-81725000D03*
%TO.P,J3,12,Pin_12*%
%TO.N,GND*%
X99750000Y-84265000D03*
%TO.P,J3,13,Pin_13*%
%TO.N,/TS5*%
X97210000Y-81725000D03*
%TO.P,J3,14,Pin_14*%
%TO.N,GND*%
X97210000Y-84265000D03*
%TO.P,J3,15,Pin_15*%
%TO.N,/TS6*%
X94670000Y-81725000D03*
%TO.P,J3,16,Pin_16*%
%TO.N,GND*%
X94670000Y-84265000D03*
%TO.P,J3,17,Pin_17*%
%TO.N,/TS7*%
X92130000Y-81725000D03*
%TO.P,J3,18,Pin_18*%
%TO.N,GND*%
X92130000Y-84265000D03*
%TO.P,J3,19,Pin_19*%
%TO.N,/SCL*%
X89590000Y-81725000D03*
%TO.P,J3,20,Pin_20*%
%TO.N,/SDA*%
X89590000Y-84265000D03*
%TD*%
D21*
%TO.P,J2,1,Pin_1*%
%TO.N,+5V*%
X70975000Y-74325000D03*
D22*
%TO.P,J2,2,Pin_2*%
%TO.N,/VBUS*%
X70975000Y-71785000D03*
%TO.P,J2,3,Pin_3*%
%TO.N,GND*%
X70975000Y-69245000D03*
%TD*%
D12*
%TO.P,R7,1*%
%TO.N,+1V1*%
X74880000Y-84835000D03*
%TO.P,R7,2*%
%TO.N,Net-(D3-A)*%
X74880000Y-83010000D03*
%TD*%
D23*
%TO.P,TP115,1,1*%
%TO.N,/BUF15*%
X117625000Y-82441670D03*
%TD*%
%TO.P,TP107,1,1*%
%TO.N,/BUF07*%
X117625000Y-55066665D03*
%TD*%
D17*
%TO.P,TP133,1,1*%
%TO.N,/CLK*%
X112475000Y-77300000D03*
%TD*%
%TO.P,TP14,1,1*%
%TO.N,/W*%
X88175000Y-45450000D03*
%TD*%
D45*
%TO.P,U10,1,A->B*%
%TO.N,+3V3*%
X127900000Y-48737500D03*
%TO.P,U10,2,A0*%
%TO.N,/A7*%
X127900000Y-48087500D03*
%TO.P,U10,3,A1*%
%TO.N,/A6*%
X127900000Y-47437500D03*
%TO.P,U10,4,A2*%
%TO.N,/A5*%
X127900000Y-46787500D03*
%TO.P,U10,5,A3*%
%TO.N,/A4*%
X127900000Y-46137500D03*
%TO.P,U10,6,A4*%
%TO.N,/A3*%
X127900000Y-45487500D03*
%TO.P,U10,7,A5*%
%TO.N,/A2*%
X127900000Y-44837500D03*
%TO.P,U10,8,A6*%
%TO.N,/A1*%
X127900000Y-44187500D03*
%TO.P,U10,9,A7*%
%TO.N,/A0*%
X127900000Y-43537500D03*
%TO.P,U10,10,GND*%
%TO.N,GND*%
X127900000Y-42887500D03*
%TO.P,U10,11,B7*%
%TO.N,/BUF00*%
X122175000Y-42887500D03*
%TO.P,U10,12,B6*%
%TO.N,/BUF01*%
X122175000Y-43537500D03*
%TO.P,U10,13,B5*%
%TO.N,/BUF02*%
X122175000Y-44187500D03*
%TO.P,U10,14,B4*%
%TO.N,/BUF03*%
X122175000Y-44837500D03*
%TO.P,U10,15,B3*%
%TO.N,/BUF04*%
X122175000Y-45487500D03*
%TO.P,U10,16,B2*%
%TO.N,/BUF05*%
X122175000Y-46137500D03*
%TO.P,U10,17,B1*%
%TO.N,/BUF06*%
X122175000Y-46787500D03*
%TO.P,U10,18,B0*%
%TO.N,/BUF07*%
X122175000Y-47437500D03*
%TO.P,U10,19,CE*%
%TO.N,GND*%
X122175000Y-48087500D03*
%TO.P,U10,20,VCC*%
%TO.N,+3V3*%
X122175000Y-48737500D03*
%TD*%
D23*
%TO.P,TP104,1,1*%
%TO.N,/BUF04*%
X117625000Y-47076666D03*
%TD*%
D12*
%TO.P,R3,1*%
%TO.N,Net-(U6-O2)*%
X81025000Y-34885000D03*
%TO.P,R3,2*%
%TO.N,Net-(D4-A)*%
X81025000Y-33060000D03*
%TD*%
D37*
%TO.P,JP4,1,A*%
%TO.N,Net-(JP4-A)*%
X108825000Y-46225000D03*
%TO.P,JP4,2,B*%
%TO.N,/DIV*%
X108825000Y-44925000D03*
%TD*%
D17*
%TO.P,TP2,1,1*%
%TO.N,/TS2*%
X104825000Y-77300000D03*
%TD*%
D28*
%TO.P,R38,1*%
%TO.N,/IN13*%
X132995000Y-76439285D03*
%TO.P,R38,2*%
%TO.N,/A13*%
X131345000Y-76439285D03*
%TD*%
D23*
%TO.P,TP114,1,1*%
%TO.N,/BUF14*%
X117625000Y-79778332D03*
%TD*%
D21*
%TO.P,J4,1,Pin_1*%
%TO.N,/CLK*%
X112475000Y-35250000D03*
D22*
%TO.P,J4,2,Pin_2*%
%TO.N,GND*%
X112475000Y-32710000D03*
%TO.P,J4,3,Pin_3*%
%TO.N,/TS0*%
X109935000Y-35250000D03*
%TO.P,J4,4,Pin_4*%
%TO.N,/LA_Enable*%
X109935000Y-32710000D03*
%TO.P,J4,5,Pin_5*%
%TO.N,/TS1*%
X107395000Y-35250000D03*
%TO.P,J4,6,Pin_6*%
%TO.N,GND*%
X107395000Y-32710000D03*
%TO.P,J4,7,Pin_7*%
%TO.N,/TS2*%
X104855000Y-35250000D03*
%TO.P,J4,8,Pin_8*%
%TO.N,GND*%
X104855000Y-32710000D03*
%TO.P,J4,9,Pin_9*%
%TO.N,/TS3*%
X102315000Y-35250000D03*
%TO.P,J4,10,Pin_10*%
%TO.N,GND*%
X102315000Y-32710000D03*
%TO.P,J4,11,Pin_11*%
%TO.N,/TS4*%
X99775000Y-35250000D03*
%TO.P,J4,12,Pin_12*%
%TO.N,GND*%
X99775000Y-32710000D03*
%TO.P,J4,13,Pin_13*%
%TO.N,/TS5*%
X97235000Y-35250000D03*
%TO.P,J4,14,Pin_14*%
%TO.N,GND*%
X97235000Y-32710000D03*
%TO.P,J4,15,Pin_15*%
%TO.N,/TS6*%
X94695000Y-35250000D03*
%TO.P,J4,16,Pin_16*%
%TO.N,GND*%
X94695000Y-32710000D03*
%TO.P,J4,17,Pin_17*%
%TO.N,/TS7*%
X92155000Y-35250000D03*
%TO.P,J4,18,Pin_18*%
%TO.N,GND*%
X92155000Y-32710000D03*
%TO.P,J4,19,Pin_19*%
%TO.N,/SCL*%
X89615000Y-35250000D03*
%TO.P,J4,20,Pin_20*%
%TO.N,/SDA*%
X89615000Y-32710000D03*
%TD*%
D30*
%TO.P,C4,1*%
%TO.N,+3V3*%
X123937500Y-77675000D03*
%TO.P,C4,2*%
%TO.N,GND*%
X122212500Y-77675000D03*
%TD*%
D19*
%TO.P,R13,1*%
%TO.N,Net-(U6-SCL)*%
X97200000Y-48012500D03*
%TO.P,R13,2*%
%TO.N,/SCL*%
X97200000Y-49837500D03*
%TD*%
D46*
%TO.P,U1,1,IOVDD*%
%TO.N,+3V3*%
X80549472Y-59842202D03*
%TO.P,U1,2,GPIO0*%
%TO.N,/SDA*%
X80832315Y-60125045D03*
%TO.P,U1,3,GPIO1*%
%TO.N,/SCL*%
X81115157Y-60407887D03*
%TO.P,U1,4,GPIO2*%
%TO.N,/CNT_CLK*%
X81398000Y-60690730D03*
%TO.P,U1,5,GPIO3*%
%TO.N,/CNT_RESET*%
X81680843Y-60973573D03*
%TO.P,U1,6,GPIO4*%
%TO.N,/LA_Enable*%
X81963685Y-61256415D03*
%TO.P,U1,7,GPIO5*%
%TO.N,/CLK*%
X82246528Y-61539258D03*
%TO.P,U1,8,GPIO6*%
%TO.N,/BUF15*%
X82529371Y-61822101D03*
%TO.P,U1,9,GPIO7*%
%TO.N,/BUF14*%
X82812214Y-62104944D03*
%TO.P,U1,10,IOVDD*%
%TO.N,+3V3*%
X83095056Y-62387786D03*
%TO.P,U1,11,GPIO8*%
%TO.N,/BUF13*%
X83377899Y-62670629D03*
%TO.P,U1,12,GPIO9*%
%TO.N,/BUF12*%
X83660742Y-62953472D03*
%TO.P,U1,13,GPIO10*%
%TO.N,/BUF11*%
X83943584Y-63236314D03*
%TO.P,U1,14,GPIO11*%
%TO.N,/BUF10*%
X84226427Y-63519157D03*
D47*
%TO.P,U1,15,GPIO12*%
%TO.N,/BUF09*%
X85410831Y-63519157D03*
%TO.P,U1,16,GPIO13*%
%TO.N,/BUF08*%
X85693674Y-63236314D03*
%TO.P,U1,17,GPIO14*%
%TO.N,/BUF07*%
X85976516Y-62953472D03*
%TO.P,U1,18,GPIO15*%
%TO.N,/BUF06*%
X86259359Y-62670629D03*
%TO.P,U1,19,TESTEN*%
%TO.N,GND*%
X86542202Y-62387786D03*
%TO.P,U1,20,XIN*%
%TO.N,/XIN*%
X86825044Y-62104944D03*
%TO.P,U1,21,XOUT*%
%TO.N,/XOUT*%
X87107887Y-61822101D03*
%TO.P,U1,22,IOVDD*%
%TO.N,+3V3*%
X87390730Y-61539258D03*
%TO.P,U1,23,DVDD*%
%TO.N,+1V1*%
X87673573Y-61256415D03*
%TO.P,U1,24,SWCLK*%
%TO.N,/SWCLK*%
X87956415Y-60973573D03*
%TO.P,U1,25,SWD*%
%TO.N,/SWD*%
X88239258Y-60690730D03*
%TO.P,U1,26,RUN*%
%TO.N,/Run*%
X88522101Y-60407887D03*
%TO.P,U1,27,GPIO16*%
%TO.N,/BUF05*%
X88804943Y-60125045D03*
%TO.P,U1,28,GPIO17*%
%TO.N,/BUF04*%
X89087786Y-59842202D03*
D46*
%TO.P,U1,29,GPIO18*%
%TO.N,/BUF03*%
X89087786Y-58657798D03*
%TO.P,U1,30,GPIO19*%
%TO.N,/BUF02*%
X88804943Y-58374955D03*
%TO.P,U1,31,GPIO20*%
%TO.N,/BUF01*%
X88522101Y-58092113D03*
%TO.P,U1,32,GPIO21*%
%TO.N,/BUF00*%
X88239258Y-57809270D03*
%TO.P,U1,33,IOVDD*%
%TO.N,+3V3*%
X87956415Y-57526427D03*
%TO.P,U1,34,GPIO22*%
%TO.N,/TS0*%
X87673573Y-57243585D03*
%TO.P,U1,35,GPIO23*%
%TO.N,/TS1*%
X87390730Y-56960742D03*
%TO.P,U1,36,GPIO24*%
%TO.N,/TS2*%
X87107887Y-56677899D03*
%TO.P,U1,37,GPIO25*%
%TO.N,/TS3*%
X86825044Y-56395056D03*
%TO.P,U1,38,GPIO26_ADC0*%
%TO.N,/TS4*%
X86542202Y-56112214D03*
%TO.P,U1,39,GPIO27_ADC1*%
%TO.N,/TS5*%
X86259359Y-55829371D03*
%TO.P,U1,40,GPIO28_ADC2*%
%TO.N,/TS6*%
X85976516Y-55546528D03*
%TO.P,U1,41,GPIO29_ADC3*%
%TO.N,/TS7*%
X85693674Y-55263686D03*
%TO.P,U1,42,IOVDD*%
%TO.N,+3V3*%
X85410831Y-54980843D03*
D47*
%TO.P,U1,43,ADC_AVDD*%
X84226427Y-54980843D03*
%TO.P,U1,44,VREG_IN*%
X83943584Y-55263686D03*
%TO.P,U1,45,VREG_VOUT*%
%TO.N,+1V1*%
X83660742Y-55546528D03*
%TO.P,U1,46,USB_DM*%
%TO.N,/DN*%
X83377899Y-55829371D03*
%TO.P,U1,47,USB_DP*%
%TO.N,/DP*%
X83095056Y-56112214D03*
%TO.P,U1,48,USB_VDD*%
%TO.N,+3V3*%
X82812214Y-56395056D03*
%TO.P,U1,49,IOVDD*%
X82529371Y-56677899D03*
%TO.P,U1,50,DVDD*%
%TO.N,+1V1*%
X82246528Y-56960742D03*
%TO.P,U1,51,QSPI_SD3*%
%TO.N,Net-(U1-QSPI_SD3)*%
X81963685Y-57243585D03*
%TO.P,U1,52,QSPI_SCLK*%
%TO.N,Net-(U1-QSPI_SCLK)*%
X81680843Y-57526427D03*
%TO.P,U1,53,QSPI_SD0*%
%TO.N,Net-(U1-QSPI_SD0)*%
X81398000Y-57809270D03*
%TO.P,U1,54,QSPI_SD2*%
%TO.N,Net-(U1-QSPI_SD2)*%
X81115157Y-58092113D03*
%TO.P,U1,55,QSPI_SD1*%
%TO.N,Net-(U1-QSPI_SD1)*%
X80832315Y-58374955D03*
%TO.P,U1,56,QSPI_SS*%
%TO.N,/~{CS}*%
X80549472Y-58657798D03*
D48*
%TO.P,U1,57,GND*%
%TO.N,GND*%
X84818629Y-59250000D03*
%TD*%
D35*
%TO.P,R17,1*%
%TO.N,/DP*%
X79562500Y-55200000D03*
%TO.P,R17,2*%
%TO.N,/USB_DP*%
X77737500Y-55200000D03*
%TD*%
D28*
%TO.P,R33,1*%
%TO.N,/IN08*%
X132995000Y-63725000D03*
%TO.P,R33,2*%
%TO.N,/A8*%
X131345000Y-63725000D03*
%TD*%
D45*
%TO.P,U11,1,A->B*%
%TO.N,+3V3*%
X127925000Y-76112500D03*
%TO.P,U11,2,A0*%
%TO.N,/A15*%
X127925000Y-75462500D03*
%TO.P,U11,3,A1*%
%TO.N,/A14*%
X127925000Y-74812500D03*
%TO.P,U11,4,A2*%
%TO.N,/A13*%
X127925000Y-74162500D03*
%TO.P,U11,5,A3*%
%TO.N,/A12*%
X127925000Y-73512500D03*
%TO.P,U11,6,A4*%
%TO.N,/A11*%
X127925000Y-72862500D03*
%TO.P,U11,7,A5*%
%TO.N,/A10*%
X127925000Y-72212500D03*
%TO.P,U11,8,A6*%
%TO.N,/A9*%
X127925000Y-71562500D03*
%TO.P,U11,9,A7*%
%TO.N,/A8*%
X127925000Y-70912500D03*
%TO.P,U11,10,GND*%
%TO.N,GND*%
X127925000Y-70262500D03*
%TO.P,U11,11,B7*%
%TO.N,/BUF08*%
X122200000Y-70262500D03*
%TO.P,U11,12,B6*%
%TO.N,/BUF09*%
X122200000Y-70912500D03*
%TO.P,U11,13,B5*%
%TO.N,/BUF10*%
X122200000Y-71562500D03*
%TO.P,U11,14,B4*%
%TO.N,/BUF11*%
X122200000Y-72212500D03*
%TO.P,U11,15,B3*%
%TO.N,/BUF12*%
X122200000Y-72862500D03*
%TO.P,U11,16,B2*%
%TO.N,/BUF13*%
X122200000Y-73512500D03*
%TO.P,U11,17,B1*%
%TO.N,/BUF14*%
X122200000Y-74162500D03*
%TO.P,U11,18,B0*%
%TO.N,/BUF15*%
X122200000Y-74812500D03*
%TO.P,U11,19,CE*%
%TO.N,GND*%
X122200000Y-75462500D03*
%TO.P,U11,20,VCC*%
%TO.N,+3V3*%
X122200000Y-76112500D03*
%TD*%
D49*
%TO.P,C2,1*%
%TO.N,Net-(C2-Pad1)*%
X93348008Y-68626992D03*
%TO.P,C2,2*%
%TO.N,GND*%
X92251992Y-69723008D03*
%TD*%
D23*
%TO.P,TP103,1,1*%
%TO.N,/BUF03*%
X117625000Y-44413333D03*
%TD*%
D12*
%TO.P,R8,1*%
%TO.N,+3V3*%
X103550000Y-61562500D03*
%TO.P,R8,2*%
%TO.N,/Run*%
X103550000Y-59737500D03*
%TD*%
%TO.P,R9,1*%
%TO.N,Net-(U3A-CK)*%
X107850000Y-70287500D03*
%TO.P,R9,2*%
%TO.N,/CNT_CLK*%
X107850000Y-68462500D03*
%TD*%
D17*
%TO.P,TP11,1,1*%
%TO.N,Net-(U3A-Reset)*%
X110250000Y-69375000D03*
%TD*%
D12*
%TO.P,R14,1*%
%TO.N,/CNT_RESET*%
X70125000Y-34862500D03*
%TO.P,R14,2*%
%TO.N,Net-(D6-A)*%
X70125000Y-33037500D03*
%TD*%
D14*
%TO.P,D2,1,K*%
%TO.N,GND*%
X72385000Y-85387500D03*
%TO.P,D2,2,A*%
%TO.N,Net-(D2-A)*%
X72385000Y-82412500D03*
%TD*%
D50*
%TO.P,C5,1*%
%TO.N,+5V*%
X84325000Y-78275000D03*
%TO.P,C5,2*%
%TO.N,GND*%
X84325000Y-76375000D03*
%TD*%
D28*
%TO.P,R27,1*%
%TO.N,/IN02*%
X132900000Y-40871428D03*
%TO.P,R27,2*%
%TO.N,/A2*%
X131250000Y-40871428D03*
%TD*%
%TO.P,R26,1*%
%TO.N,/IN01*%
X132900000Y-38335714D03*
%TO.P,R26,2*%
%TO.N,/A1*%
X131250000Y-38335714D03*
%TD*%
D51*
%TO.P,C20,1*%
%TO.N,+3V3*%
X110987500Y-41350000D03*
%TO.P,C20,2*%
%TO.N,GND*%
X112712500Y-41350000D03*
%TD*%
D18*
%TO.P,JP2,1,A*%
%TO.N,/AD1*%
X100875000Y-39375000D03*
%TO.P,JP2,2,C*%
%TO.N,GND*%
X102175000Y-39375000D03*
%TO.P,JP2,3,B*%
%TO.N,+3V3*%
X103475000Y-39375000D03*
%TD*%
D52*
%TO.P,U6,1,A*%
%TO.N,/A*%
X91065000Y-45925000D03*
%TO.P,U6,2,W*%
%TO.N,/W*%
X92335000Y-45925000D03*
%TO.P,U6,3,B*%
%TO.N,GND*%
X93605000Y-45925000D03*
%TO.P,U6,4,VDD*%
%TO.N,+3V3*%
X94875000Y-45925000D03*
%TO.P,U6,5,~{SHDN}*%
X96145000Y-45925000D03*
%TO.P,U6,6,SCL*%
%TO.N,Net-(U6-SCL)*%
X97415000Y-45925000D03*
%TO.P,U6,7,SDA*%
%TO.N,Net-(U6-SDA)*%
X98685000Y-45925000D03*
%TO.P,U6,8,AD0*%
%TO.N,/AD0*%
X98685000Y-40975000D03*
%TO.P,U6,9,AD1*%
%TO.N,/AD1*%
X97415000Y-40975000D03*
%TO.P,U6,10,GND*%
%TO.N,GND*%
X96145000Y-40975000D03*
%TO.P,U6,11,VSS*%
X94875000Y-40975000D03*
%TO.P,U6,12,O2*%
%TO.N,Net-(U6-O2)*%
X93605000Y-40975000D03*
%TO.P,U6,13,NC*%
%TO.N,unconnected-(U6-NC-Pad13)*%
X92335000Y-40975000D03*
%TO.P,U6,14,O1*%
%TO.N,Net-(U6-O1)*%
X91065000Y-40975000D03*
%TD*%
D28*
%TO.P,R37,1*%
%TO.N,/IN12*%
X132995000Y-73896428D03*
%TO.P,R37,2*%
%TO.N,/A12*%
X131345000Y-73896428D03*
%TD*%
D45*
%TO.P,U3,1,CK*%
%TO.N,Net-(U3A-CK)*%
X103837500Y-73200000D03*
%TO.P,U3,2,Enable*%
%TO.N,+3V3*%
X103837500Y-72550000D03*
%TO.P,U3,3,Q1*%
%TO.N,/TS0*%
X103837500Y-71900000D03*
%TO.P,U3,4,Q2*%
%TO.N,/TS1*%
X103837500Y-71250000D03*
%TO.P,U3,5,Q3*%
%TO.N,/TS2*%
X103837500Y-70600000D03*
%TO.P,U3,6,Q4*%
%TO.N,/TS3*%
X103837500Y-69950000D03*
%TO.P,U3,7,Reset*%
%TO.N,Net-(U3A-Reset)*%
X103837500Y-69300000D03*
%TO.P,U3,8,VSS*%
%TO.N,GND*%
X103837500Y-68650000D03*
%TO.P,U3,9,CK*%
%TO.N,/TS3*%
X98112500Y-68650000D03*
%TO.P,U3,10,Enable*%
%TO.N,+3V3*%
X98112500Y-69300000D03*
%TO.P,U3,11,Q1*%
%TO.N,/TS4*%
X98112500Y-69950000D03*
%TO.P,U3,12,Q2*%
%TO.N,/TS5*%
X98112500Y-70600000D03*
%TO.P,U3,13,Q3*%
%TO.N,/TS6*%
X98112500Y-71250000D03*
%TO.P,U3,14,Q4*%
%TO.N,/TS7*%
X98112500Y-71900000D03*
%TO.P,U3,15,Reset*%
%TO.N,Net-(U3A-Reset)*%
X98112500Y-72550000D03*
%TO.P,U3,16,VDD*%
%TO.N,+3V3*%
X98112500Y-73200000D03*
%TD*%
D23*
%TO.P,TP16,1,1*%
%TO.N,GND*%
X82025000Y-84925000D03*
%TD*%
D28*
%TO.P,R32,1*%
%TO.N,/IN07*%
X132900000Y-53550000D03*
%TO.P,R32,2*%
%TO.N,/A7*%
X131250000Y-53550000D03*
%TD*%
D17*
%TO.P,TP1,1,1*%
%TO.N,/TS1*%
X107350000Y-77315000D03*
%TD*%
D20*
%TO.P,SW2,1,1*%
%TO.N,Net-(R10-Pad2)*%
X67225000Y-66075000D03*
X67225000Y-70225000D03*
%TO.P,SW2,2,2*%
%TO.N,GND*%
X65075000Y-66075000D03*
X65075000Y-70225000D03*
%TD*%
D23*
%TO.P,TP112,1,1*%
%TO.N,/BUF12*%
X117625000Y-74451666D03*
%TD*%
%TO.P,TP17,1,1*%
%TO.N,GND*%
X125100000Y-37100000D03*
%TD*%
D53*
%TO.N,GND*%
X81375000Y-53300000D03*
X76625000Y-74475000D03*
X78825000Y-36750000D03*
X76250000Y-69250000D03*
X95450000Y-70050000D03*
X114250000Y-41500000D03*
X127900000Y-41925000D03*
X76625000Y-76325000D03*
X73950000Y-72875000D03*
X67400000Y-84100000D03*
X86250000Y-59250000D03*
X84825000Y-60650000D03*
X126025000Y-83950000D03*
X64750000Y-79925000D03*
X75800000Y-77925000D03*
X137900000Y-78075000D03*
X75800000Y-72850000D03*
X76625000Y-77250000D03*
X91525000Y-70700000D03*
X122225000Y-78800000D03*
X123675000Y-82400000D03*
X67825000Y-36800000D03*
X126025000Y-80925000D03*
X72425000Y-84100000D03*
X128325000Y-82375000D03*
X125100000Y-38500000D03*
X85900000Y-74500000D03*
X85875000Y-75600000D03*
X65100000Y-75850000D03*
X127925000Y-69575000D03*
X95525000Y-41950000D03*
X103825000Y-67825000D03*
X101200000Y-44175000D03*
X74875000Y-77925000D03*
X77400000Y-84100000D03*
X125100000Y-35400000D03*
X76625000Y-73550000D03*
X98350000Y-61650000D03*
X127350000Y-37100000D03*
X84825000Y-57850000D03*
X65050000Y-68150000D03*
X78375000Y-59475000D03*
X122800000Y-37075000D03*
X86075000Y-57175000D03*
X103775000Y-52325000D03*
X106475000Y-47675000D03*
X73950000Y-77925000D03*
X73375000Y-36825000D03*
X76625000Y-75400000D03*
X104450000Y-40825000D03*
X74875000Y-72850000D03*
X83425000Y-59250000D03*
X93625000Y-49425000D03*
X122225000Y-51350000D03*
X137900000Y-81125000D03*
X90250000Y-64550000D03*
X71850000Y-54900000D03*
X100900000Y-61650000D03*
X82325000Y-68200000D03*
X72000000Y-62125000D03*
X111375000Y-52600000D03*
X90250000Y-70050000D03*
%TO.N,+5V*%
X65775000Y-84075000D03*
%TO.N,+3V3*%
X69175000Y-81650000D03*
X87575000Y-81550000D03*
X83208521Y-57058896D03*
X106743000Y-43426943D03*
X64700000Y-44700000D03*
X83375000Y-71250000D03*
X105550000Y-72550000D03*
X95675000Y-49675000D03*
X89075000Y-56575000D03*
X123950000Y-49200000D03*
X95800000Y-65900000D03*
X99200000Y-69325000D03*
X73350000Y-66100000D03*
X103750000Y-47850000D03*
X83550000Y-61300000D03*
X79225000Y-58750000D03*
X64700000Y-39750000D03*
X79575000Y-72025000D03*
X84075000Y-33075000D03*
X111350000Y-53900000D03*
X85750000Y-72975000D03*
X86175000Y-61175000D03*
X103550000Y-62700000D03*
X79575000Y-72950000D03*
X103075000Y-44200000D03*
X82950000Y-72975000D03*
X66350000Y-44700000D03*
X96575000Y-73200000D03*
X85775000Y-72025000D03*
X84300000Y-71250000D03*
X125025000Y-77675000D03*
X66350000Y-39725000D03*
X82950000Y-72050000D03*
X84825000Y-53275000D03*
X85250000Y-71250000D03*
%TO.N,+1V1*%
X81650000Y-56100000D03*
X66200000Y-80950000D03*
X86838622Y-60138622D03*
%TO.N,Net-(J1-CC1)*%
X70025000Y-56925000D03*
%TO.N,Net-(J1-CC2)*%
X69600000Y-59300000D03*
%TO.N,/SDA*%
X90875000Y-50974996D03*
X81525000Y-59475000D03*
%TO.N,/SCL*%
X79825000Y-60700000D03*
X89600000Y-50275000D03*
%TO.N,Net-(R10-Pad2)*%
X67200000Y-65075000D03*
X78975000Y-70925000D03*
%TO.N,/CNT_RESET*%
X114625000Y-85725000D03*
X106000000Y-66975000D03*
X70175000Y-36150000D03*
X113550000Y-62825000D03*
X78357900Y-63175000D03*
%TO.N,/TS0*%
X109935000Y-56875000D03*
%TO.N,/TS1*%
X107395000Y-56900000D03*
%TO.N,/TS2*%
X104855000Y-56108200D03*
%TO.N,/TS3*%
X102315000Y-53950006D03*
%TO.N,/TS4*%
X99774990Y-53400000D03*
%TO.N,/TS5*%
X97100000Y-52800000D03*
%TO.N,/TS6*%
X94695000Y-52125000D03*
%TO.N,/TS7*%
X92155000Y-51575004D03*
%TO.N,/CNT_CLK*%
X108050000Y-66950000D03*
X113100000Y-64400000D03*
X79150000Y-61600000D03*
X113950000Y-85025000D03*
%TO.N,/CLK*%
X81150000Y-64050000D03*
X112500000Y-40000000D03*
%TO.N,/LA_Enable*%
X78525000Y-64700000D03*
%TO.N,Net-(U1-QSPI_SD2)*%
X79938114Y-66440089D03*
X82600000Y-60425000D03*
%TO.N,/BUF00*%
X119925000Y-36475000D03*
X92950000Y-57100000D03*
%TO.N,/BUF01*%
X93750000Y-57700000D03*
X119925000Y-39150000D03*
%TO.N,/BUF02*%
X115350000Y-41775000D03*
X92949996Y-58275000D03*
%TO.N,/BUF03*%
X115350000Y-44425000D03*
X93750000Y-59025000D03*
%TO.N,/BUF04*%
X92925000Y-59675000D03*
X115350000Y-47100000D03*
%TO.N,/BUF05*%
X93750000Y-60250000D03*
X115350000Y-49750000D03*
%TO.N,/BUF06*%
X87350000Y-63875000D03*
X115350000Y-52425000D03*
%TO.N,/BUF07*%
X115350000Y-55075000D03*
X87950000Y-64875000D03*
%TO.N,/BUF08*%
X115350000Y-63800000D03*
X87500004Y-65750000D03*
%TO.N,/BUF09*%
X115350000Y-66450000D03*
X86375000Y-65625000D03*
%TO.N,/BUF10*%
X86450000Y-66575000D03*
X115350000Y-69100000D03*
%TO.N,/BUF11*%
X85750000Y-67175000D03*
X115350000Y-71775000D03*
%TO.N,/BUF12*%
X85050000Y-66550000D03*
X115350000Y-74475000D03*
%TO.N,/BUF13*%
X115350000Y-77100000D03*
X84325000Y-67125000D03*
%TO.N,/BUF14*%
X83600000Y-66550000D03*
X119825000Y-79800000D03*
%TO.N,/BUF15*%
X119800000Y-82400000D03*
X82875000Y-67125000D03*
%TO.N,/Run*%
X75550000Y-66125000D03*
X67325000Y-72550000D03*
%TO.N,/~{CS}*%
X79791692Y-58170658D03*
X77125000Y-60225000D03*
%TD*%
D54*
%TO.N,GND*%
X67400000Y-84100000D02*
X67400000Y-85382500D01*
D55*
X103750000Y-52300000D02*
X103775000Y-52325000D01*
X103750000Y-50837500D02*
X103750000Y-52300000D01*
X94875000Y-40975000D02*
X96145000Y-40975000D01*
D54*
X100890000Y-61660000D02*
X100890000Y-63785000D01*
D55*
X102175000Y-39500000D02*
X102175000Y-42075000D01*
D56*
X93712500Y-48050000D02*
X93712500Y-49337500D01*
D54*
X122212500Y-77675000D02*
X122212500Y-78787500D01*
X77400000Y-84100000D02*
X77400000Y-85362500D01*
X125100000Y-37100000D02*
X127350000Y-37100000D01*
X121337500Y-75462500D02*
X121200000Y-75600000D01*
D55*
X93605000Y-45925000D02*
X93605000Y-47942500D01*
D54*
X122212500Y-78787500D02*
X122225000Y-78800000D01*
X97080000Y-63785000D02*
X98350000Y-63785000D01*
X121208900Y-48266100D02*
X121387500Y-48087500D01*
D56*
X122212500Y-51337500D02*
X122225000Y-51350000D01*
D54*
X82325000Y-68200000D02*
X81850000Y-67725000D01*
X70955000Y-54950000D02*
X71800000Y-54950000D01*
D56*
X75425000Y-68425000D02*
X76250000Y-69250000D01*
D54*
X85550000Y-62082670D02*
X86237086Y-62082670D01*
X128300000Y-82400000D02*
X128325000Y-82375000D01*
X103837500Y-67837500D02*
X103825000Y-67825000D01*
X137912500Y-78062500D02*
X137900000Y-78075000D01*
X103837500Y-68650000D02*
X103837500Y-67837500D01*
X121950000Y-50300000D02*
X121208900Y-49558900D01*
D56*
X122212500Y-50300000D02*
X122212500Y-51337500D01*
D54*
X126025000Y-82400000D02*
X123675000Y-82400000D01*
X126025000Y-83887500D02*
X126025000Y-82412500D01*
D56*
X73350000Y-36800000D02*
X73375000Y-36825000D01*
D54*
X126025000Y-82400000D02*
X126025000Y-80925000D01*
X125100000Y-37100000D02*
X125100000Y-35400000D01*
X127925000Y-70262500D02*
X127925000Y-69575000D01*
X125100000Y-37100000D02*
X122800000Y-37075000D01*
D56*
X73350000Y-35437500D02*
X73350000Y-36800000D01*
D54*
X85550000Y-62082670D02*
X84818629Y-61351299D01*
D56*
X114100000Y-41350000D02*
X114250000Y-41500000D01*
D54*
X137912500Y-77050000D02*
X137912500Y-78062500D01*
X90548223Y-64848223D02*
X90250000Y-64550000D01*
X121200000Y-77150000D02*
X121725000Y-77675000D01*
X121200000Y-75600000D02*
X121200000Y-77150000D01*
X81850000Y-67725000D02*
X81850000Y-66555923D01*
X121387500Y-48087500D02*
X122175000Y-48087500D01*
X71800000Y-54950000D02*
X71850000Y-54900000D01*
X95475000Y-71162500D02*
X95475000Y-70075000D01*
D56*
X67850000Y-36775000D02*
X67825000Y-36800000D01*
D55*
X109800000Y-52600000D02*
X111375000Y-52600000D01*
X96145000Y-41330000D02*
X95525000Y-41950000D01*
D54*
X95475000Y-70075000D02*
X95450000Y-70050000D01*
D55*
X106475000Y-48837500D02*
X106475000Y-47675000D01*
X94875000Y-41300000D02*
X95525000Y-41950000D01*
X112712500Y-41350000D02*
X112712500Y-42950000D01*
D54*
X105000000Y-41375000D02*
X104450000Y-40825000D01*
D56*
X67850000Y-35437500D02*
X67850000Y-36775000D01*
D54*
X105712500Y-41375000D02*
X105000000Y-41375000D01*
X72425000Y-84100000D02*
X72425000Y-85347500D01*
X137887500Y-81137500D02*
X137900000Y-81125000D01*
X100900000Y-61650000D02*
X100890000Y-61660000D01*
X127900000Y-42887500D02*
X127900000Y-41925000D01*
D55*
X102200000Y-42100000D02*
X102200000Y-43175000D01*
X102200000Y-43175000D02*
X101200000Y-44175000D01*
D54*
X86237086Y-62082670D02*
X86542202Y-62387786D01*
X126025000Y-82400000D02*
X128300000Y-82400000D01*
D55*
X106750000Y-47400000D02*
X106475000Y-47675000D01*
X106750000Y-46487500D02*
X106750000Y-47400000D01*
D54*
X71225000Y-61350000D02*
X72000000Y-62125000D01*
X98350000Y-63785000D02*
X98350000Y-61650000D01*
X121725000Y-77675000D02*
X122212500Y-77675000D01*
D56*
X93712500Y-49337500D02*
X93625000Y-49425000D01*
D54*
X137887500Y-82100000D02*
X137887500Y-81137500D01*
X122200000Y-75462500D02*
X121337500Y-75462500D01*
D56*
X78825000Y-35437500D02*
X78825000Y-36750000D01*
D54*
X121208900Y-49558900D02*
X121208900Y-48266100D01*
X90548223Y-65621142D02*
X90548223Y-64848223D01*
D56*
X112712500Y-41350000D02*
X114100000Y-41350000D01*
%TO.N,Net-(C2-Pad1)*%
X93270235Y-66010400D02*
X92103858Y-67176777D01*
X93348008Y-68420927D02*
X92103858Y-67176777D01*
D57*
%TO.N,+5V*%
X84325000Y-82075000D02*
X84800000Y-82550000D01*
X88059600Y-86559600D02*
X137565400Y-86559600D01*
X84800000Y-83300000D02*
X88059600Y-86559600D01*
X137565400Y-86559600D02*
X139612500Y-84512500D01*
D54*
X65775000Y-84075000D02*
X65660000Y-84075000D01*
D57*
X84800000Y-82550000D02*
X84800000Y-83300000D01*
X84325000Y-78275000D02*
X84325000Y-82075000D01*
X139612500Y-82100000D02*
X143000000Y-82100000D01*
D54*
X65660000Y-84075000D02*
X64900000Y-84835000D01*
D57*
X139612500Y-84512500D02*
X139612500Y-82100000D01*
D54*
%TO.N,+3V3*%
X123937500Y-77675000D02*
X122375000Y-76112500D01*
D55*
X82812214Y-56395056D02*
X82812214Y-56662589D01*
D54*
X96150000Y-47400000D02*
X96145000Y-47395000D01*
X95500000Y-48050000D02*
X96150000Y-47400000D01*
X68800000Y-84550000D02*
X68800000Y-84475000D01*
X85410831Y-54980843D02*
X85469157Y-54980843D01*
X139667500Y-77020000D02*
X143000000Y-77020000D01*
X98112500Y-73200000D02*
X96575000Y-73200000D01*
D55*
X103500000Y-42100000D02*
X103500000Y-43775000D01*
D54*
X84304898Y-55625000D02*
X83943584Y-55263686D01*
D55*
X103750000Y-47850000D02*
X104779000Y-47850000D01*
D54*
X96262500Y-72887500D02*
X96575000Y-73200000D01*
X73350000Y-66350000D02*
X74205240Y-67205240D01*
D55*
X82812214Y-56662589D02*
X83208521Y-57058896D01*
X105850000Y-46779000D02*
X105850000Y-45900000D01*
D54*
X123950000Y-49200000D02*
X123487500Y-48737500D01*
D55*
X105850000Y-45900000D02*
X106200000Y-45550000D01*
X111825000Y-44225000D02*
X112250000Y-44650000D01*
X103475000Y-39500000D02*
X103475000Y-42075000D01*
D54*
X84226427Y-54980843D02*
X83725000Y-54479416D01*
X123937500Y-50300000D02*
X123937500Y-49212500D01*
D55*
X94875000Y-45925000D02*
X94875000Y-47487500D01*
X110987500Y-41350000D02*
X111825000Y-42187500D01*
D54*
X87956415Y-57526427D02*
X88907842Y-56575000D01*
X87026472Y-61175000D02*
X86175000Y-61175000D01*
X88907842Y-56575000D02*
X89075000Y-56575000D01*
X123487500Y-48737500D02*
X122175000Y-48737500D01*
X87562500Y-81537500D02*
X87575000Y-81550000D01*
D55*
X111825000Y-42187500D02*
X111825000Y-44225000D01*
D54*
X84226427Y-54980843D02*
X84825000Y-54382270D01*
X84800000Y-55625000D02*
X84304898Y-55625000D01*
D55*
X105525000Y-48837500D02*
X104025000Y-48837500D01*
X95437500Y-49437500D02*
X95675000Y-49675000D01*
D54*
X83400000Y-54720102D02*
X83400000Y-54675000D01*
D55*
X104779000Y-47850000D02*
X105850000Y-46779000D01*
X103500000Y-43775000D02*
X103075000Y-44200000D01*
D54*
X98112500Y-69300000D02*
X99175000Y-69300000D01*
X123937500Y-76937500D02*
X124750000Y-76125000D01*
X123937500Y-77675000D02*
X123937500Y-76937500D01*
D55*
X107375000Y-45550000D02*
X107600000Y-45325000D01*
D54*
X73647497Y-65802503D02*
X73350000Y-66100000D01*
D55*
X109800000Y-53900000D02*
X111350000Y-53900000D01*
X106943514Y-41375000D02*
X106743000Y-41575514D01*
X107600000Y-45325000D02*
X107600000Y-44283943D01*
D54*
X123950000Y-49200000D02*
X124412500Y-48737500D01*
X123937500Y-49212500D02*
X123950000Y-49200000D01*
X84800000Y-55554416D02*
X84226427Y-54980843D01*
X95810000Y-65890000D02*
X95800000Y-65900000D01*
X103550000Y-61562500D02*
X103550000Y-62700000D01*
X83943584Y-55263686D02*
X83400000Y-54720102D01*
D56*
X84075000Y-34237500D02*
X84075000Y-33075000D01*
D54*
X85469157Y-54980843D02*
X86150000Y-54300000D01*
X124750000Y-76125000D02*
X127912500Y-76125000D01*
X83725000Y-54479416D02*
X83725000Y-54450000D01*
X103837500Y-72550000D02*
X105550000Y-72550000D01*
X95810000Y-63785000D02*
X95810000Y-65890000D01*
X84800000Y-55625000D02*
X84800000Y-55554416D01*
X68800000Y-82025000D02*
X69175000Y-81650000D01*
X69825000Y-84900000D02*
X69150000Y-84900000D01*
X96145000Y-45925000D02*
X94875000Y-45925000D01*
X83095056Y-62387786D02*
X83550000Y-61932842D01*
D55*
X107987500Y-41375000D02*
X106943514Y-41375000D01*
D54*
X86350000Y-81537500D02*
X87562500Y-81537500D01*
X99175000Y-69300000D02*
X99200000Y-69325000D01*
D55*
X106200000Y-45550000D02*
X107375000Y-45550000D01*
D54*
X124412500Y-48737500D02*
X127900000Y-48737500D01*
X85410831Y-55014169D02*
X84800000Y-55625000D01*
X73350000Y-66100000D02*
X73350000Y-66350000D01*
D55*
X107987500Y-41375000D02*
X110962500Y-41375000D01*
D54*
X87390730Y-61539258D02*
X87026472Y-61175000D01*
X96145000Y-47395000D02*
X96145000Y-45925000D01*
X84825000Y-54382270D02*
X84825000Y-53275000D01*
X83550000Y-61932842D02*
X83550000Y-61300000D01*
X69150000Y-84900000D02*
X68800000Y-84550000D01*
D55*
X107600000Y-44283943D02*
X106743000Y-43426943D01*
D54*
X68800000Y-84475000D02*
X68800000Y-82025000D01*
X79457270Y-58750000D02*
X80549472Y-59842202D01*
X95475000Y-72887500D02*
X96262500Y-72887500D01*
X85410831Y-54968101D02*
X84825000Y-54382270D01*
X123937500Y-77675000D02*
X125025000Y-77675000D01*
X79225000Y-58750000D02*
X79457270Y-58750000D01*
D55*
X112250000Y-44650000D02*
X112762500Y-44650000D01*
D54*
X139637500Y-77050000D02*
X139667500Y-77020000D01*
D55*
X94875000Y-47487500D02*
X95437500Y-48050000D01*
X106743000Y-41575514D02*
X106743000Y-43426943D01*
X95437500Y-48050000D02*
X95437500Y-49437500D01*
X103750000Y-49112500D02*
X103750000Y-47850000D01*
D54*
X73647497Y-63741574D02*
X73647497Y-65802503D01*
%TO.N,+1V1*%
X84913319Y-56758658D02*
X87325000Y-59170339D01*
D58*
X84325000Y-56932946D02*
X84325000Y-56210786D01*
D54*
X86838622Y-60421464D02*
X86838622Y-60138622D01*
D58*
X83557946Y-57700000D02*
X84325000Y-56932946D01*
D54*
X81650000Y-56364214D02*
X82246528Y-56960742D01*
X87325000Y-59652244D02*
X86838622Y-60138622D01*
X87325000Y-59170339D02*
X87325000Y-59652244D01*
X84499288Y-56758658D02*
X84913319Y-56758658D01*
D58*
X82246528Y-56960742D02*
X82985786Y-57700000D01*
X84325000Y-56210786D02*
X83660742Y-55546528D01*
D54*
X73800000Y-83755000D02*
X74880000Y-84835000D01*
X73475000Y-80950000D02*
X73800000Y-81275000D01*
X84325000Y-56932946D02*
X84499288Y-56758658D01*
X87673573Y-61256415D02*
X86838622Y-60421464D01*
X66200000Y-80950000D02*
X73475000Y-80950000D01*
X81650000Y-56100000D02*
X81650000Y-56364214D01*
X73800000Y-81275000D02*
X73800000Y-83755000D01*
D58*
X82985786Y-57700000D02*
X83557946Y-57700000D01*
D54*
%TO.N,Net-(D1-A)*%
X64900000Y-83010000D02*
X66797500Y-83010000D01*
%TO.N,Net-(D2-A)*%
X69890000Y-83010000D02*
X71787500Y-83010000D01*
%TO.N,Net-(D3-A)*%
X74880000Y-83010000D02*
X76777500Y-83010000D01*
D55*
%TO.N,Net-(D4-A)*%
X78825000Y-32462500D02*
X80427500Y-32462500D01*
X80427500Y-32462500D02*
X81025000Y-33060000D01*
%TO.N,Net-(D5-A)*%
X73350000Y-32462500D02*
X75002500Y-32462500D01*
X75002500Y-32462500D02*
X75600000Y-33060000D01*
D54*
%TO.N,Net-(D6-A)*%
X69550000Y-32462500D02*
X70125000Y-33037500D01*
X67850000Y-32462500D02*
X69550000Y-32462500D01*
%TO.N,Net-(J1-CC1)*%
X70050000Y-56900000D02*
X70025000Y-56925000D01*
X70955000Y-56900000D02*
X70050000Y-56900000D01*
%TO.N,Net-(J1-CC2)*%
X70200000Y-59900000D02*
X70955000Y-59900000D01*
X69600000Y-59300000D02*
X70200000Y-59900000D01*
D55*
%TO.N,/IN_CLK*%
X106200000Y-37475000D02*
X106200000Y-38325000D01*
X141825000Y-40225000D02*
X139725000Y-40225000D01*
X143090000Y-43450000D02*
X143090000Y-41490000D01*
X106200000Y-40000000D02*
X106200000Y-38325000D01*
X115625000Y-33225000D02*
X114375000Y-34475000D01*
X106650000Y-37025000D02*
X106200000Y-37475000D01*
X139725000Y-40225000D02*
X132725000Y-33225000D01*
X113450000Y-37025000D02*
X106650000Y-37025000D01*
X132725000Y-33225000D02*
X115625000Y-33225000D01*
X114375000Y-36100000D02*
X113450000Y-37025000D01*
X114375000Y-34475000D02*
X114375000Y-36100000D01*
X143090000Y-41490000D02*
X141825000Y-40225000D01*
X105775000Y-40425000D02*
X106200000Y-40000000D01*
D54*
%TO.N,/IN00*%
X143090000Y-45990000D02*
X141850000Y-44750000D01*
X132900000Y-35875000D02*
X132900000Y-35800000D01*
X141850000Y-44750000D02*
X141850000Y-41675000D01*
X138225000Y-41200000D02*
X132900000Y-35875000D01*
X141375000Y-41200000D02*
X138225000Y-41200000D01*
X141850000Y-41675000D02*
X141375000Y-41200000D01*
%TO.N,/IN01*%
X132900000Y-38335714D02*
X132900000Y-38340000D01*
X132900000Y-38340000D02*
X140550000Y-45990000D01*
%TO.N,/IN02*%
X132900000Y-40871428D02*
X139278572Y-47250000D01*
X141810000Y-47250000D02*
X143090000Y-48530000D01*
X139278572Y-47250000D02*
X141810000Y-47250000D01*
%TO.N,/IN03*%
X132900000Y-43407142D02*
X132957142Y-43407142D01*
X138080000Y-48530000D02*
X140550000Y-48530000D01*
X132957142Y-43407142D02*
X138080000Y-48530000D01*
%TO.N,/IN04*%
X139307144Y-52350000D02*
X141830000Y-52350000D01*
X141830000Y-52350000D02*
X143090000Y-53610000D01*
X132900000Y-45942856D02*
X139307144Y-52350000D01*
%TO.N,/IN05*%
X132900000Y-48478570D02*
X138031430Y-53610000D01*
X138031430Y-53610000D02*
X140550000Y-53610000D01*
%TO.N,/IN06*%
X137800000Y-54900000D02*
X141840000Y-54900000D01*
X132900000Y-51014284D02*
X133914284Y-51014284D01*
X133914284Y-51014284D02*
X137800000Y-54900000D01*
X141840000Y-54900000D02*
X143090000Y-56150000D01*
%TO.N,/IN07*%
X132900000Y-53550000D02*
X134150000Y-53550000D01*
X134150000Y-53550000D02*
X136750000Y-56150000D01*
X136750000Y-56150000D02*
X140550000Y-56150000D01*
%TO.N,/IN08*%
X134275000Y-63725000D02*
X138050000Y-59950000D01*
X138050000Y-59950000D02*
X141810000Y-59950000D01*
X141810000Y-59950000D02*
X143090000Y-61230000D01*
X132995000Y-63725000D02*
X134275000Y-63725000D01*
%TO.N,/IN09*%
X133775000Y-66300000D02*
X135100000Y-64975000D01*
X138305000Y-61230000D02*
X140550000Y-61230000D01*
X138300000Y-61225000D02*
X138305000Y-61230000D01*
X135100000Y-64975000D02*
X135100000Y-64425000D01*
X133742857Y-66267857D02*
X133775000Y-66300000D01*
X132995000Y-66267857D02*
X133742857Y-66267857D01*
X135100000Y-64425000D02*
X138300000Y-61225000D01*
%TO.N,/IN10*%
X136125000Y-66450000D02*
X136125000Y-65325000D01*
X136125000Y-65325000D02*
X138975000Y-62475000D01*
X142300000Y-62475000D02*
X143090000Y-63265000D01*
X132995000Y-68810714D02*
X133764286Y-68810714D01*
X138975000Y-62475000D02*
X142300000Y-62475000D01*
X133764286Y-68810714D02*
X136125000Y-66450000D01*
X143090000Y-63265000D02*
X143090000Y-63770000D01*
%TO.N,/IN11*%
X137700000Y-66620000D02*
X132995000Y-71325000D01*
X139330000Y-63770000D02*
X137700000Y-65400000D01*
X132995000Y-71325000D02*
X132995000Y-71353571D01*
X140550000Y-63770000D02*
X139330000Y-63770000D01*
X137700000Y-65400000D02*
X137700000Y-66620000D01*
%TO.N,/IN12*%
X132995000Y-73896428D02*
X132995000Y-73530000D01*
X132995000Y-73530000D02*
X138950000Y-67575000D01*
X141815000Y-67575000D02*
X143090000Y-68850000D01*
X138950000Y-67575000D02*
X141815000Y-67575000D01*
%TO.N,/IN13*%
X132995000Y-76439285D02*
X134525000Y-74909285D01*
X139175000Y-68850000D02*
X140550000Y-68850000D01*
X134525000Y-74909285D02*
X134525000Y-73500000D01*
X134525000Y-73500000D02*
X139175000Y-68850000D01*
%TO.N,/IN14*%
X141825000Y-70125000D02*
X143090000Y-71390000D01*
X139750000Y-70125000D02*
X141825000Y-70125000D01*
X135625000Y-74250000D02*
X139750000Y-70125000D01*
X135625000Y-76352142D02*
X135625000Y-74250000D01*
X132995000Y-78982142D02*
X135625000Y-76352142D01*
%TO.N,/IN15*%
X136400000Y-78120000D02*
X132995000Y-81525000D01*
X136400000Y-75540000D02*
X136400000Y-78120000D01*
X140550000Y-71390000D02*
X136400000Y-75540000D01*
%TO.N,Net-(U3A-CK)*%
X103837500Y-73200000D02*
X108750000Y-73200000D01*
X108150000Y-70587500D02*
X107850000Y-70287500D01*
X108150000Y-72550000D02*
X108150000Y-70587500D01*
%TO.N,Net-(U3A-Reset)*%
X96525000Y-68775000D02*
X96525000Y-71925000D01*
X105012500Y-69300000D02*
X106025000Y-70312500D01*
X97300000Y-68000000D02*
X96525000Y-68775000D01*
X96525000Y-71925000D02*
X97150000Y-72550000D01*
X107000000Y-69375000D02*
X110250000Y-69375000D01*
X97150000Y-72550000D02*
X98112500Y-72550000D01*
X103837500Y-69300000D02*
X105012500Y-69300000D01*
X101625000Y-69300000D02*
X100325000Y-68000000D01*
X106062500Y-70312500D02*
X107000000Y-69375000D01*
X100325000Y-68000000D02*
X97300000Y-68000000D01*
X103837500Y-69300000D02*
X101625000Y-69300000D01*
D55*
%TO.N,Net-(U6-SCL)*%
X97415000Y-47285000D02*
X97415000Y-45925000D01*
X97200000Y-48012500D02*
X97200000Y-47500000D01*
X97200000Y-47500000D02*
X97415000Y-47285000D01*
%TO.N,Net-(U6-SDA)*%
X98950000Y-47600000D02*
X98775000Y-47425000D01*
X98950000Y-48012500D02*
X98950000Y-47600000D01*
X98775000Y-47425000D02*
X98775000Y-46015000D01*
%TO.N,Net-(U5-SCL)*%
X107445000Y-53087500D02*
X106475000Y-52117500D01*
X106475000Y-52117500D02*
X106475000Y-51112500D01*
%TO.N,Net-(U5-SDA)*%
X105505000Y-53087500D02*
X105505000Y-51132500D01*
%TO.N,/AD0*%
X98950000Y-42100000D02*
X98685000Y-41835000D01*
X98685000Y-41835000D02*
X98685000Y-40975000D01*
X100900000Y-42100000D02*
X98950000Y-42100000D01*
%TO.N,/AD1*%
X100050000Y-38800000D02*
X100750000Y-39500000D01*
X97975000Y-38800000D02*
X100050000Y-38800000D01*
X97415000Y-39360000D02*
X97975000Y-38800000D01*
X97415000Y-40975000D02*
X97415000Y-39360000D01*
%TO.N,Net-(JP3-A)*%
X107612500Y-51300000D02*
X107425000Y-51112500D01*
X109800000Y-51300000D02*
X107612500Y-51300000D01*
%TO.N,Net-(JP4-A)*%
X108387500Y-48837500D02*
X108850000Y-48375000D01*
X108825000Y-46225000D02*
X111550000Y-46225000D01*
X108850000Y-48375000D02*
X108825000Y-48350000D01*
X108825000Y-48350000D02*
X108825000Y-46225000D01*
X107425000Y-48837500D02*
X108387500Y-48837500D01*
%TO.N,/DIV*%
X110937500Y-44650000D02*
X109100000Y-44650000D01*
X110937500Y-44650000D02*
X110937500Y-43000000D01*
X107987500Y-42325000D02*
X109575000Y-42325000D01*
X110250000Y-43000000D02*
X110937500Y-43000000D01*
X109575000Y-42325000D02*
X110250000Y-43000000D01*
%TO.N,/Vset*%
X106750000Y-44662500D02*
X104912500Y-44662500D01*
X105275000Y-42762500D02*
X105275000Y-44925000D01*
X105712500Y-42325000D02*
X105275000Y-42762500D01*
D54*
%TO.N,/SDA*%
X101175000Y-51450000D02*
X104637500Y-54912500D01*
X87575000Y-84300000D02*
X87610000Y-84265000D01*
X90668600Y-78418600D02*
X90668600Y-83186400D01*
X81137432Y-59819928D02*
X80832315Y-60125045D01*
X81525000Y-59475000D02*
X81180072Y-59819928D01*
X90668600Y-83186400D02*
X89590000Y-84265000D01*
X81180072Y-59819928D02*
X81137432Y-59819928D01*
X98950000Y-49837500D02*
X100037500Y-49837500D01*
X86637500Y-83362500D02*
X87575000Y-84300000D01*
X87610000Y-84265000D02*
X89590000Y-84265000D01*
X98950000Y-49837500D02*
X97812500Y-50975000D01*
X89575000Y-77325000D02*
X90668600Y-78418600D01*
X104637500Y-54912500D02*
X105505000Y-54912500D01*
X101175000Y-50975000D02*
X101175000Y-51450000D01*
X100037500Y-49837500D02*
X101175000Y-50975000D01*
X90875004Y-50975000D02*
X90875000Y-50974996D01*
X97812500Y-50975000D02*
X90875004Y-50975000D01*
%TO.N,/SCL*%
X98037500Y-49000000D02*
X100075000Y-49000000D01*
D55*
X85325000Y-36075000D02*
X86275000Y-35125000D01*
D54*
X106582500Y-54050000D02*
X107445000Y-54912500D01*
X101900000Y-51600000D02*
X104350000Y-54050000D01*
D55*
X84087500Y-36075000D02*
X85325000Y-36075000D01*
D54*
X80788083Y-60734961D02*
X81115157Y-60407887D01*
X101900000Y-50825000D02*
X101900000Y-51600000D01*
X89600000Y-50275000D02*
X89733400Y-50291600D01*
X104350000Y-54050000D02*
X106582500Y-54050000D01*
X100075000Y-49000000D02*
X101900000Y-50825000D01*
X79859961Y-60734961D02*
X80788083Y-60734961D01*
X96745900Y-50291600D02*
X97200000Y-49837500D01*
X97200000Y-49837500D02*
X98037500Y-49000000D01*
X79859961Y-60734961D02*
X79825000Y-60700000D01*
X89615000Y-35250000D02*
X86400000Y-35250000D01*
X89733400Y-50291600D02*
X96745900Y-50291600D01*
D55*
%TO.N,Net-(U6-O2)*%
X81025000Y-36150000D02*
X81025000Y-34885000D01*
X82500000Y-37625000D02*
X81025000Y-36150000D01*
X93605000Y-38255000D02*
X92975000Y-37625000D01*
X92975000Y-37625000D02*
X82500000Y-37625000D01*
X93605000Y-40975000D02*
X93605000Y-38255000D01*
%TO.N,Net-(U6-O1)*%
X91065000Y-39315000D02*
X90275000Y-38525000D01*
X77800000Y-38525000D02*
X75600000Y-36325000D01*
X90275000Y-38525000D02*
X77800000Y-38525000D01*
X75600000Y-36325000D02*
X75600000Y-34885000D01*
X91065000Y-40975000D02*
X91065000Y-39315000D01*
D54*
%TO.N,Net-(R10-Pad2)*%
X67225000Y-66075000D02*
X67225000Y-65100000D01*
X79527145Y-70372855D02*
X78975000Y-70925000D01*
X67225000Y-65100000D02*
X67200000Y-65075000D01*
X80119885Y-70372855D02*
X79527145Y-70372855D01*
X67225000Y-70225000D02*
X67225000Y-66075000D01*
%TO.N,/CNT_RESET*%
X78357900Y-63175000D02*
X79504342Y-63175000D01*
X79504342Y-63175000D02*
X81680843Y-60998499D01*
X70175000Y-36150000D02*
X70175000Y-34912500D01*
X106000000Y-66975000D02*
X106000000Y-68437500D01*
%TO.N,/TS0*%
X109900000Y-74225000D02*
X109900000Y-77315000D01*
X109935000Y-56875000D02*
X109107550Y-57702450D01*
X109900000Y-77315000D02*
X109900000Y-81715000D01*
X89062358Y-55854800D02*
X87673573Y-57243585D01*
X109600000Y-73925000D02*
X109900000Y-74225000D01*
X103000000Y-73925000D02*
X109600000Y-73925000D01*
X102575000Y-72250000D02*
X102575000Y-73500000D01*
X102575000Y-73500000D02*
X103000000Y-73925000D01*
X109107550Y-57702450D02*
X105027450Y-57702450D01*
X105027450Y-57702450D02*
X103179800Y-55854800D01*
X103179800Y-55854800D02*
X89062358Y-55854800D01*
X102925000Y-71900000D02*
X102575000Y-72250000D01*
X103837500Y-71900000D02*
X102925000Y-71900000D01*
%TO.N,/TS1*%
X104800000Y-56900000D02*
X107395000Y-56900000D01*
X102700000Y-71250000D02*
X102125000Y-71825000D01*
X103837500Y-71250000D02*
X102700000Y-71250000D01*
X105185000Y-74350000D02*
X107350000Y-76515000D01*
X102125000Y-71825000D02*
X102125000Y-73725000D01*
X102125000Y-73725000D02*
X102750000Y-74350000D01*
X89076472Y-55275000D02*
X103175000Y-55275000D01*
X87390730Y-56960742D02*
X89076472Y-55275000D01*
X102750000Y-74350000D02*
X105185000Y-74350000D01*
X107350000Y-77315000D02*
X107350000Y-81705000D01*
X103175000Y-55275000D02*
X104800000Y-56900000D01*
%TO.N,/TS2*%
X102450000Y-70600000D02*
X101675000Y-71375000D01*
X103837500Y-70600000D02*
X102450000Y-70600000D01*
X103446800Y-54700000D02*
X104855000Y-56108200D01*
X101675000Y-71375000D02*
X101675000Y-74250000D01*
X102225000Y-74800000D02*
X104375000Y-74800000D01*
X87107887Y-56677899D02*
X89085786Y-54700000D01*
X89085786Y-54700000D02*
X103446800Y-54700000D01*
X104825000Y-77300000D02*
X104825000Y-81720000D01*
X101675000Y-74250000D02*
X102225000Y-74800000D01*
X104375000Y-74800000D02*
X104825000Y-75250000D01*
X104825000Y-75250000D02*
X104825000Y-77300000D01*
%TO.N,/TS3*%
X103837500Y-69950000D02*
X102325000Y-69950000D01*
X101200000Y-74500000D02*
X102275000Y-75575000D01*
X102314990Y-53949996D02*
X102315000Y-53950006D01*
X102325000Y-69950000D02*
X101500000Y-69950000D01*
X102275000Y-75575000D02*
X102275000Y-77300000D01*
X98112500Y-68650000D02*
X100200000Y-68650000D01*
X86825044Y-56395056D02*
X89270104Y-53949996D01*
X102275000Y-77300000D02*
X102275000Y-81710000D01*
X102325000Y-69950000D02*
X101525000Y-69950000D01*
X89270104Y-53949996D02*
X102314990Y-53949996D01*
X101525000Y-69950000D02*
X101200000Y-70275000D01*
X100200000Y-68650000D02*
X101500000Y-69950000D01*
X101200000Y-70275000D02*
X101200000Y-74500000D01*
%TO.N,/TS4*%
X99725000Y-77300000D02*
X99725000Y-81700000D01*
X98112500Y-69950000D02*
X99975000Y-69950000D01*
X99975000Y-69950000D02*
X100475000Y-70450000D01*
X100475000Y-70450000D02*
X100475000Y-76550000D01*
X89304422Y-53349994D02*
X99724984Y-53349994D01*
X86542202Y-56112214D02*
X89304422Y-53349994D01*
X99724984Y-53349994D02*
X99774990Y-53400000D01*
%TO.N,/TS5*%
X98112500Y-70600000D02*
X99750000Y-70600000D01*
X86259359Y-55829371D02*
X89288730Y-52800000D01*
X100075000Y-74425000D02*
X99475000Y-75025000D01*
X97225000Y-77300000D02*
X97225000Y-81710000D01*
X89288730Y-52800000D02*
X97100000Y-52800000D01*
X99475000Y-75025000D02*
X97625000Y-75025000D01*
X97625000Y-75025000D02*
X97225000Y-75425000D01*
X99750000Y-70600000D02*
X100075000Y-70925000D01*
X97225000Y-75425000D02*
X97225000Y-77300000D01*
X100075000Y-70925000D02*
X100075000Y-74425000D01*
%TO.N,/TS6*%
X99325000Y-71250000D02*
X99625000Y-71550000D01*
X89398044Y-52125000D02*
X94695000Y-52125000D01*
X94650000Y-77300000D02*
X94650000Y-81705000D01*
X98112500Y-71250000D02*
X99325000Y-71250000D01*
X94650000Y-75325000D02*
X94650000Y-77300000D01*
X99100000Y-74500000D02*
X95475000Y-74500000D01*
X99625000Y-71550000D02*
X99625000Y-73975000D01*
X95475000Y-74500000D02*
X94650000Y-75325000D01*
X85976516Y-55546528D02*
X89398044Y-52125000D01*
X99625000Y-73975000D02*
X99100000Y-74500000D01*
%TO.N,/TS7*%
X99150000Y-71900000D02*
X99300000Y-72050000D01*
X98112500Y-71900000D02*
X99150000Y-71900000D01*
X92125000Y-75175000D02*
X92125000Y-77300000D01*
X93275000Y-74025000D02*
X92125000Y-75175000D01*
X99300000Y-72050000D02*
X99300000Y-73525000D01*
X92125000Y-77300000D02*
X92125000Y-81720000D01*
X99300000Y-73525000D02*
X98800000Y-74025000D01*
X85693674Y-55263686D02*
X89382356Y-51575004D01*
X89382356Y-51575004D02*
X92155000Y-51575004D01*
X98800000Y-74025000D02*
X93275000Y-74025000D01*
%TO.N,/CNT_CLK*%
X108050000Y-68262500D02*
X108050000Y-66950000D01*
X79150000Y-61600000D02*
X80488730Y-61600000D01*
X80488730Y-61600000D02*
X81398000Y-60690730D01*
D55*
%TO.N,/A*%
X91065000Y-43585000D02*
X91065000Y-45925000D01*
X88875000Y-41375000D02*
X91075000Y-43575000D01*
X91075000Y-43575000D02*
X91065000Y-43585000D01*
%TO.N,/CLK*%
X107987500Y-40362500D02*
X107500000Y-39875000D01*
X107987500Y-40425000D02*
X109812500Y-40425000D01*
D54*
X81150000Y-64050000D02*
X81150000Y-62635786D01*
X81150000Y-62635786D02*
X82246528Y-61539258D01*
X112475000Y-77300000D02*
X112475000Y-81700000D01*
D55*
X107500000Y-39875000D02*
X107500000Y-38325000D01*
X109812500Y-40425000D02*
X110237500Y-40000000D01*
X110237500Y-40000000D02*
X112500000Y-40000000D01*
D54*
%TO.N,/LA_Enable*%
X80225000Y-63000000D02*
X78525000Y-64700000D01*
X81963685Y-61256415D02*
X80225000Y-62995100D01*
X80225000Y-62995100D02*
X80225000Y-63000000D01*
%TO.N,Net-(U1-QSPI_SD3)*%
X81010100Y-56290000D02*
X81963685Y-57243585D01*
X78185000Y-56290000D02*
X81010100Y-56290000D01*
X74475863Y-59999137D02*
X78185000Y-56290000D01*
X74475863Y-62773888D02*
X74475863Y-59999137D01*
%TO.N,Net-(U1-QSPI_SCLK)*%
X75373889Y-61875864D02*
X75373889Y-59601111D01*
X80821416Y-56667000D02*
X81680843Y-57526427D01*
X75373889Y-59601111D02*
X78308000Y-56667000D01*
X78308000Y-56667000D02*
X80821416Y-56667000D01*
%TO.N,Net-(U1-QSPI_SD0)*%
X80632730Y-57044000D02*
X78556000Y-57044000D01*
X78556000Y-57044000D02*
X76341574Y-59258426D01*
X81398000Y-57809270D02*
X80632730Y-57044000D01*
X76341574Y-59258426D02*
X76341574Y-61047497D01*
D55*
%TO.N,Net-(U1-QSPI_SD2)*%
X80534717Y-67036692D02*
X79938114Y-66440089D01*
D54*
X82600000Y-60421513D02*
X82600000Y-59975000D01*
X82275000Y-59650000D02*
X82275000Y-59255443D01*
X82600000Y-59975000D02*
X82275000Y-59650000D01*
X82275000Y-59255443D02*
X81111670Y-58092113D01*
%TO.N,Net-(U1-QSPI_SD1)*%
X79964830Y-57421000D02*
X80404000Y-57860170D01*
X78804000Y-57421000D02*
X79964830Y-57421000D01*
X79636692Y-67934717D02*
X77825000Y-66123025D01*
X80404000Y-57946640D02*
X80832315Y-58374955D01*
X77825000Y-66123025D02*
X77825000Y-58400000D01*
X80404000Y-57860170D02*
X80404000Y-57946640D01*
X77825000Y-58400000D02*
X78804000Y-57421000D01*
%TO.N,/BUF00*%
X120975000Y-42700000D02*
X120975000Y-37525000D01*
X88973528Y-57075000D02*
X88239258Y-57809270D01*
X122162500Y-42900000D02*
X121175000Y-42900000D01*
X92925000Y-57075000D02*
X88973528Y-57075000D01*
X119873334Y-36423334D02*
X119925000Y-36475000D01*
X92950000Y-57100000D02*
X92925000Y-57075000D01*
X120975000Y-37525000D02*
X119925000Y-36475000D01*
X121175000Y-42900000D02*
X120975000Y-42700000D01*
X117625000Y-36423334D02*
X119873334Y-36423334D01*
%TO.N,/BUF01*%
X120450000Y-39675000D02*
X120450000Y-43100000D01*
X120887500Y-43537500D02*
X122175000Y-43537500D01*
X88964214Y-57650000D02*
X93700000Y-57650000D01*
X93700000Y-57650000D02*
X93750000Y-57700000D01*
X119925000Y-39150000D02*
X120450000Y-39675000D01*
X117625000Y-39086667D02*
X119861667Y-39086667D01*
X88522101Y-58092113D02*
X88964214Y-57650000D01*
X120450000Y-43100000D02*
X120887500Y-43537500D01*
X119861667Y-39086667D02*
X119925000Y-39150000D01*
%TO.N,/BUF02*%
X119950000Y-43525000D02*
X120612500Y-44187500D01*
X89441835Y-58069839D02*
X89471996Y-58100000D01*
X89110059Y-58069839D02*
X89441835Y-58069839D01*
X89471996Y-58100000D02*
X92774996Y-58100000D01*
X92774996Y-58100000D02*
X92949996Y-58275000D01*
X117625000Y-41750000D02*
X119625000Y-41750000D01*
X115350000Y-41750000D02*
X115325000Y-41775000D01*
X119625000Y-41750000D02*
X119950000Y-42075000D01*
X88804943Y-58374955D02*
X89110059Y-58069839D01*
X120612500Y-44187500D02*
X122175000Y-44187500D01*
X119950000Y-42075000D02*
X119950000Y-43525000D01*
X117625000Y-41750000D02*
X115350000Y-41750000D01*
%TO.N,/BUF03*%
X120187500Y-44837500D02*
X119763333Y-44413333D01*
X90700000Y-58975000D02*
X93700000Y-58975000D01*
X122175000Y-44837500D02*
X120187500Y-44837500D01*
X89087786Y-58657798D02*
X90382798Y-58657798D01*
X93700000Y-58975000D02*
X93750000Y-59025000D01*
X117625000Y-44413333D02*
X115361667Y-44413333D01*
X117625000Y-44413333D02*
X119763333Y-44413333D01*
X90382798Y-58657798D02*
X90700000Y-58975000D01*
X115361667Y-44413333D02*
X115350000Y-44425000D01*
%TO.N,/BUF04*%
X121187500Y-45487500D02*
X122175000Y-45487500D01*
X92757798Y-59842202D02*
X92925000Y-59675000D01*
X115373334Y-47076666D02*
X115350000Y-47100000D01*
X119598334Y-47076666D02*
X121187500Y-45487500D01*
X89087786Y-59842202D02*
X92757798Y-59842202D01*
X117625000Y-47076666D02*
X115373334Y-47076666D01*
X117625000Y-47076666D02*
X119598334Y-47076666D01*
%TO.N,/BUF05*%
X89110059Y-60430161D02*
X93569839Y-60430161D01*
X88804943Y-60125045D02*
X89110059Y-60430161D01*
X121212500Y-46137500D02*
X122175000Y-46137500D01*
X119975000Y-47819767D02*
X119975000Y-47375000D01*
X117625000Y-49739999D02*
X115335001Y-49739999D01*
X93569839Y-60430161D02*
X93750000Y-60250000D01*
X118054768Y-49739999D02*
X119975000Y-47819767D01*
X119975000Y-47375000D02*
X121212500Y-46137500D01*
%TO.N,/BUF06*%
X120305653Y-47896659D02*
X121414812Y-46787500D01*
X117625000Y-52403332D02*
X115371668Y-52403332D01*
X115371668Y-52403332D02*
X115350000Y-52425000D01*
X86259359Y-62670629D02*
X87350000Y-63761270D01*
X121414812Y-46787500D02*
X122175000Y-46787500D01*
X87350000Y-63761270D02*
X87350000Y-63875000D01*
X118425000Y-52403332D02*
X120305653Y-50522679D01*
X120305653Y-50522679D02*
X120305653Y-47896659D01*
%TO.N,/BUF07*%
X87300000Y-64875000D02*
X87950000Y-64875000D01*
X115408335Y-55066665D02*
X115400000Y-55075000D01*
X120610453Y-48022911D02*
X121195864Y-47437500D01*
X120610453Y-52881212D02*
X120610453Y-48022911D01*
X85976516Y-62953472D02*
X86329800Y-63306756D01*
X118425000Y-55066665D02*
X120610453Y-52881212D01*
X86329800Y-63904800D02*
X87300000Y-64875000D01*
X86329800Y-63306756D02*
X86329800Y-63904800D01*
X121195864Y-47437500D02*
X122175000Y-47437500D01*
X117625000Y-55066665D02*
X115408335Y-55066665D01*
%TO.N,/BUF08*%
X120675000Y-65325000D02*
X120675000Y-69475000D01*
X86025000Y-63567640D02*
X86025000Y-64274996D01*
X85693674Y-63236314D02*
X86025000Y-63567640D01*
X119148334Y-63798334D02*
X120675000Y-65325000D01*
X115401666Y-63798334D02*
X115400000Y-63800000D01*
X86025000Y-64274996D02*
X87500004Y-65750000D01*
X121462500Y-70262500D02*
X122200000Y-70262500D01*
X120675000Y-69475000D02*
X121462500Y-70262500D01*
X117625000Y-63798334D02*
X115401666Y-63798334D01*
%TO.N,/BUF09*%
X119711667Y-66461667D02*
X120075000Y-66825000D01*
X117625000Y-66461667D02*
X115411667Y-66461667D01*
X120075000Y-69825000D02*
X121162500Y-70912500D01*
X121162500Y-70912500D02*
X122200000Y-70912500D01*
X120075000Y-66825000D02*
X120075000Y-69825000D01*
X85410831Y-63589169D02*
X84925000Y-64075000D01*
X115411667Y-66461667D02*
X115400000Y-66450000D01*
X86375000Y-65625000D02*
X84925000Y-64175000D01*
X85410831Y-63519157D02*
X85410831Y-63589169D01*
X117625000Y-66461667D02*
X119711667Y-66461667D01*
X84925000Y-64175000D02*
X84925000Y-64075000D01*
%TO.N,/BUF10*%
X83925000Y-64050000D02*
X86450000Y-66575000D01*
X120987500Y-71562500D02*
X122200000Y-71562500D01*
X83925000Y-63820584D02*
X83925000Y-64050000D01*
X84226427Y-63519157D02*
X83925000Y-63820584D01*
X118550000Y-69125000D02*
X120987500Y-71562500D01*
X117625000Y-69125000D02*
X115400000Y-69125000D01*
X115400000Y-69125000D02*
X115375000Y-69100000D01*
%TO.N,/BUF11*%
X117625000Y-71788333D02*
X115338333Y-71788333D01*
X83475000Y-63704898D02*
X83475000Y-64175000D01*
X83943584Y-63236314D02*
X83475000Y-63704898D01*
X83475000Y-64175000D02*
X85750000Y-66450000D01*
X118049167Y-72212500D02*
X122200000Y-72212500D01*
X85750000Y-66450000D02*
X85750000Y-67175000D01*
%TO.N,/BUF12*%
X115373334Y-74451666D02*
X115350000Y-74475000D01*
X83660742Y-62953472D02*
X83125000Y-63489214D01*
X117625000Y-74451666D02*
X115373334Y-74451666D01*
X120014166Y-72862500D02*
X122200000Y-72862500D01*
X83125000Y-63489214D02*
X83125000Y-64625000D01*
X83125000Y-64625000D02*
X85050000Y-66550000D01*
X118425000Y-74451666D02*
X120014166Y-72862500D01*
%TO.N,/BUF13*%
X117625000Y-77114999D02*
X119285001Y-77114999D01*
X119800000Y-74525000D02*
X120812500Y-73512500D01*
X82775000Y-64950000D02*
X84325000Y-66500000D01*
X83377899Y-62670629D02*
X82775000Y-63273528D01*
X119285001Y-77114999D02*
X119800000Y-76600000D01*
X82775000Y-63273528D02*
X82775000Y-64950000D01*
X117625000Y-77114999D02*
X115339999Y-77114999D01*
X120812500Y-73512500D02*
X122200000Y-73512500D01*
X119800000Y-76600000D02*
X119800000Y-74525000D01*
X84325000Y-66500000D02*
X84325000Y-67125000D01*
%TO.N,/BUF14*%
X119803332Y-79778332D02*
X119825000Y-79800000D01*
X120937500Y-74162500D02*
X122200000Y-74162500D01*
X117625000Y-79778332D02*
X119803332Y-79778332D01*
X82812214Y-62104944D02*
X82275000Y-62642158D01*
X119396668Y-79778332D02*
X120300000Y-78875000D01*
X120300000Y-78875000D02*
X120300000Y-74800000D01*
X120300000Y-74800000D02*
X120937500Y-74162500D01*
X117625000Y-79778332D02*
X119396668Y-79778332D01*
X82275000Y-62642158D02*
X82275000Y-65225000D01*
X82275000Y-65225000D02*
X83600000Y-66550000D01*
%TO.N,/BUF15*%
X119408330Y-82441670D02*
X117625000Y-82441670D01*
X81850000Y-62501472D02*
X81850000Y-65600000D01*
X119800000Y-82400000D02*
X120850000Y-81000000D01*
X82875000Y-66625000D02*
X82875000Y-67125000D01*
X82529371Y-61822101D02*
X81850000Y-62501472D01*
X81850000Y-65600000D02*
X82875000Y-66625000D01*
X120850000Y-75100000D02*
X121150000Y-74800000D01*
X121150000Y-74800000D02*
X121162500Y-74812500D01*
X120850000Y-81000000D02*
X120850000Y-75100000D01*
X119800000Y-82400000D02*
X119408330Y-82441670D01*
X121162500Y-74812500D02*
X122200000Y-74812500D01*
D57*
%TO.N,/VBUS*%
X73025000Y-54975000D02*
X72250000Y-55750000D01*
X72250000Y-55750000D02*
X70955000Y-55750000D01*
D54*
%TO.N,/A0*%
X128637500Y-43537500D02*
X127900000Y-43537500D01*
X129200000Y-37850000D02*
X129200000Y-42975000D01*
X129200000Y-42975000D02*
X128637500Y-43537500D01*
X131250000Y-35800000D02*
X129200000Y-37850000D01*
%TO.N,/A1*%
X129975000Y-38625000D02*
X129975000Y-43000000D01*
X129975000Y-43000000D02*
X128787500Y-44187500D01*
X131250000Y-38335714D02*
X130264286Y-38335714D01*
X128787500Y-44187500D02*
X127900000Y-44187500D01*
X130264286Y-38335714D02*
X129975000Y-38625000D01*
%TO.N,/A2*%
X130325000Y-41796428D02*
X130325000Y-43400000D01*
X131250000Y-40871428D02*
X130325000Y-41796428D01*
X128887500Y-44837500D02*
X127900000Y-44837500D01*
X130325000Y-43400000D02*
X128887500Y-44837500D01*
%TO.N,/A3*%
X131250000Y-43407142D02*
X129169642Y-45487500D01*
X129169642Y-45487500D02*
X127900000Y-45487500D01*
%TO.N,/A4*%
X129900000Y-46175000D02*
X129862500Y-46137500D01*
X129862500Y-46137500D02*
X127900000Y-46137500D01*
X131250000Y-45942856D02*
X130132144Y-45942856D01*
X130132144Y-45942856D02*
X129900000Y-46175000D01*
%TO.N,/A5*%
X131250000Y-48350000D02*
X129687500Y-46787500D01*
X129687500Y-46787500D02*
X127900000Y-46787500D01*
%TO.N,/A6*%
X130175000Y-49550000D02*
X130175000Y-48100000D01*
X131250000Y-50625000D02*
X130175000Y-49550000D01*
X129512500Y-47437500D02*
X127900000Y-47437500D01*
X130175000Y-48100000D02*
X129512500Y-47437500D01*
%TO.N,/A7*%
X131250000Y-53550000D02*
X131250000Y-52975000D01*
X129125000Y-48075000D02*
X129112500Y-48087500D01*
X129575000Y-51300000D02*
X129575000Y-48525000D01*
X129575000Y-48525000D02*
X129125000Y-48075000D01*
X131250000Y-52975000D02*
X129575000Y-51300000D01*
X129112500Y-48087500D02*
X127900000Y-48087500D01*
%TO.N,/A8*%
X131345000Y-63725000D02*
X130225000Y-63725000D01*
X129475000Y-70125000D02*
X128687500Y-70912500D01*
X129475000Y-64475000D02*
X129475000Y-70125000D01*
X130225000Y-63725000D02*
X129475000Y-64475000D01*
X128687500Y-70912500D02*
X127925000Y-70912500D01*
%TO.N,/A9*%
X130125000Y-66725000D02*
X130125000Y-69975000D01*
X130582143Y-66267857D02*
X130125000Y-66725000D01*
X130125000Y-69975000D02*
X128537500Y-71562500D01*
X131345000Y-66267857D02*
X130582143Y-66267857D01*
%TO.N,/A10*%
X131345000Y-68810714D02*
X131345000Y-69555000D01*
X128687500Y-72212500D02*
X127925000Y-72212500D01*
X131345000Y-69555000D02*
X128687500Y-72212500D01*
%TO.N,/A11*%
X129836071Y-72862500D02*
X127925000Y-72862500D01*
X131345000Y-71353571D02*
X129836071Y-72862500D01*
%TO.N,/A12*%
X131345000Y-73896428D02*
X130961072Y-73512500D01*
X130961072Y-73512500D02*
X127925000Y-73512500D01*
%TO.N,/A13*%
X131345000Y-76439285D02*
X129068215Y-74162500D01*
X129068215Y-74162500D02*
X127925000Y-74162500D01*
%TO.N,/A14*%
X129187500Y-74812500D02*
X127925000Y-74812500D01*
X131345000Y-78982142D02*
X130425000Y-78062142D01*
X130425000Y-76050000D02*
X129187500Y-74812500D01*
X130425000Y-78062142D02*
X130425000Y-76050000D01*
%TO.N,/A15*%
X129312500Y-75462500D02*
X127925000Y-75462500D01*
X130025000Y-80205000D02*
X130025000Y-76175000D01*
X131345000Y-81525000D02*
X130025000Y-80205000D01*
X130025000Y-76175000D02*
X129312500Y-75462500D01*
D55*
%TO.N,/W*%
X91525000Y-48300000D02*
X92335000Y-47490000D01*
X88175000Y-45450000D02*
X88175000Y-47700000D01*
X99300000Y-44000000D02*
X92800000Y-44000000D01*
X92335000Y-47490000D02*
X92335000Y-45925000D01*
X88175000Y-47700000D02*
X88775000Y-48300000D01*
X104650000Y-46225000D02*
X101525000Y-46225000D01*
X88775000Y-48300000D02*
X91525000Y-48300000D01*
X92800000Y-44000000D02*
X92335000Y-44465000D01*
X92335000Y-44465000D02*
X92335000Y-45925000D01*
X101525000Y-46225000D02*
X99300000Y-44000000D01*
D58*
%TO.N,/XIN*%
X88725000Y-64004900D02*
X88725000Y-65250000D01*
X89346142Y-65871142D02*
X89346142Y-66823223D01*
X86825044Y-62104944D02*
X88725000Y-64004900D01*
X88725000Y-65250000D02*
X89346142Y-65871142D01*
D56*
X89346142Y-67182842D02*
X88326992Y-68201992D01*
D54*
%TO.N,/USB_DP*%
X74002400Y-54888128D02*
X74002400Y-56538128D01*
X70955000Y-58900000D02*
X71637200Y-58900000D01*
X71637200Y-58900000D02*
X71775000Y-58762200D01*
X77102400Y-54577400D02*
X75497600Y-54577400D01*
X71915101Y-57802400D02*
X71817501Y-57900000D01*
X72738128Y-57802400D02*
X71915101Y-57802400D01*
X74002400Y-56538128D02*
X72738128Y-57802400D01*
X77737500Y-55200000D02*
X77725000Y-55200000D01*
X71775000Y-58762200D02*
X71775000Y-57975000D01*
X75497600Y-54577400D02*
X75050000Y-55025000D01*
X71817501Y-57900000D02*
X70955000Y-57900000D01*
X71775000Y-57975000D02*
X71700000Y-57900000D01*
X77725000Y-55200000D02*
X77102400Y-54577400D01*
X74925000Y-55025000D02*
X74427400Y-54527400D01*
X74363128Y-54527400D02*
X74002400Y-54888128D01*
X75050000Y-55025000D02*
X74925000Y-55025000D01*
X74427400Y-54527400D02*
X74363128Y-54527400D01*
X71700000Y-57900000D02*
X71525000Y-57900000D01*
%TO.N,/SWD*%
X95500000Y-61425000D02*
X95810000Y-61115000D01*
X88973528Y-61425000D02*
X95500000Y-61425000D01*
X95810000Y-61115000D02*
X95810000Y-59715000D01*
X88239258Y-60690730D02*
X88973528Y-61425000D01*
%TO.N,/SWCLK*%
X97080000Y-61395000D02*
X97080000Y-59715000D01*
X96600000Y-61875000D02*
X97080000Y-61395000D01*
X87956415Y-60973573D02*
X88857842Y-61875000D01*
X88857842Y-61875000D02*
X96600000Y-61875000D01*
%TO.N,/Run*%
X94050000Y-61000000D02*
X94575000Y-60475000D01*
X89114214Y-61000000D02*
X94050000Y-61000000D01*
X77794381Y-68369381D02*
X75550000Y-66125000D01*
X67225000Y-77900000D02*
X67225000Y-73750000D01*
X81012500Y-69987500D02*
X80575000Y-69550000D01*
X78119381Y-70375000D02*
X77794381Y-70050000D01*
X105975000Y-62600000D02*
X102175000Y-66400000D01*
X91750000Y-73100000D02*
X89700000Y-73100000D01*
X103712500Y-59900000D02*
X105275000Y-59900000D01*
X67325000Y-72550000D02*
X67325000Y-73650000D01*
X94250000Y-69375000D02*
X94250000Y-70600000D01*
X88522101Y-60407887D02*
X89114214Y-61000000D01*
X94575000Y-58525000D02*
X95225000Y-57875000D01*
X102175000Y-66400000D02*
X97225000Y-66400000D01*
X79476069Y-69550000D02*
X78651069Y-70375000D01*
X100050000Y-57875000D02*
X100890000Y-58715000D01*
X103550000Y-59737500D02*
X103527500Y-59715000D01*
X105925000Y-62550000D02*
X105975000Y-62600000D01*
X105925000Y-60550000D02*
X105925000Y-62550000D01*
X78651069Y-70375000D02*
X78119381Y-70375000D01*
X103550000Y-59737500D02*
X103712500Y-59900000D01*
X89700000Y-73100000D02*
X86100000Y-69500000D01*
X97225000Y-66400000D02*
X94250000Y-69375000D01*
X103527500Y-59715000D02*
X100890000Y-59715000D01*
X82612500Y-69987500D02*
X81012500Y-69987500D01*
X67325000Y-73650000D02*
X67225000Y-73750000D01*
X105275000Y-59900000D02*
X105925000Y-60550000D01*
X94250000Y-70600000D02*
X91750000Y-73100000D01*
X80575000Y-69550000D02*
X79476069Y-69550000D01*
X77794381Y-70050000D02*
X77794381Y-68369381D01*
X94575000Y-60475000D02*
X94575000Y-58525000D01*
X95225000Y-57875000D02*
X100050000Y-57875000D01*
X83100000Y-69500000D02*
X82612500Y-69987500D01*
X86100000Y-69500000D02*
X83100000Y-69500000D01*
%TO.N,/~{CS}*%
X77300000Y-60400000D02*
X77300000Y-67394077D01*
X77125000Y-60225000D02*
X77300000Y-60400000D01*
X77300000Y-67394077D02*
X78738666Y-68832743D01*
D55*
X80062332Y-58170658D02*
X80549472Y-58657798D01*
X79791692Y-58170658D02*
X80062332Y-58170658D01*
D54*
X78988308Y-69082385D02*
X81410355Y-69082385D01*
D58*
%TO.N,/XOUT*%
X87107887Y-61822101D02*
X88960786Y-63675000D01*
X88960786Y-63675000D02*
X90650000Y-63675000D01*
X90650000Y-63675000D02*
X91554765Y-64579765D01*
D54*
%TO.N,/DP*%
X79562500Y-55200000D02*
X80293751Y-55200000D01*
X81560242Y-54577400D02*
X83095056Y-56112214D01*
X80916351Y-54577400D02*
X81560242Y-54577400D01*
X80293751Y-55200000D02*
X80916351Y-54577400D01*
%TO.N,/USB_DN*%
X70151400Y-57523600D02*
X70275000Y-57400000D01*
X74925000Y-53725000D02*
X74427400Y-54222600D01*
X73697600Y-54761872D02*
X73697600Y-56411872D01*
X70275000Y-57400000D02*
X70955000Y-57400000D01*
X77152400Y-54222600D02*
X75547600Y-54222600D01*
X70955000Y-58400000D02*
X70272800Y-58400000D01*
X73697600Y-56411872D02*
X72611872Y-57497600D01*
X71915101Y-57497600D02*
X71817501Y-57400000D01*
X77725000Y-53650000D02*
X77152400Y-54222600D01*
X74236872Y-54222600D02*
X73697600Y-54761872D01*
X75050000Y-53725000D02*
X74925000Y-53725000D01*
X74427400Y-54222600D02*
X74236872Y-54222600D01*
X70272800Y-58400000D02*
X70151400Y-58278600D01*
X70151400Y-58278600D02*
X70151400Y-57523600D01*
X72611872Y-57497600D02*
X71915101Y-57497600D01*
X75547600Y-54222600D02*
X75050000Y-53725000D01*
X77737500Y-53650000D02*
X77725000Y-53650000D01*
X71817501Y-57400000D02*
X70955000Y-57400000D01*
%TO.N,/DN*%
X80916351Y-54272600D02*
X81821128Y-54272600D01*
X80293751Y-53650000D02*
X80916351Y-54272600D01*
X81821128Y-54272600D02*
X83377899Y-55829371D01*
X79562500Y-53650000D02*
X80293751Y-53650000D01*
%TD*%
%TA.AperFunction,Conductor*%
%TO.N,+3V3*%
G36*
X86208531Y-70769213D02*
G01*
X86245076Y-70819513D01*
X86250000Y-70850600D01*
X86250000Y-73324400D01*
X86230787Y-73383531D01*
X86180487Y-73420076D01*
X86149400Y-73425000D01*
X82850000Y-73425000D01*
X82850000Y-74174400D01*
X82830787Y-74233531D01*
X82780487Y-74270076D01*
X82749400Y-74275000D01*
X79075600Y-74275000D01*
X79016469Y-74255787D01*
X78979924Y-74205487D01*
X78975000Y-74174400D01*
X78975000Y-73354000D01*
X80147600Y-73354000D01*
X80147600Y-73865011D01*
X80156441Y-73909463D01*
X80156443Y-73909466D01*
X80190124Y-73959872D01*
X80190127Y-73959875D01*
X80240533Y-73993556D01*
X80240536Y-73993558D01*
X80284989Y-74002400D01*
X81046000Y-74002400D01*
X81046000Y-73354000D01*
X81554000Y-73354000D01*
X81554000Y-74002400D01*
X82315011Y-74002400D01*
X82359463Y-73993558D01*
X82359466Y-73993556D01*
X82409872Y-73959875D01*
X82409875Y-73959872D01*
X82443556Y-73909466D01*
X82443558Y-73909463D01*
X82452400Y-73865011D01*
X82452400Y-73354000D01*
X81554000Y-73354000D01*
X81046000Y-73354000D01*
X80147600Y-73354000D01*
X78975000Y-73354000D01*
X78975000Y-72846000D01*
X80147600Y-72846000D01*
X81046000Y-72846000D01*
X81046000Y-72197600D01*
X81554000Y-72197600D01*
X81554000Y-72846000D01*
X82452400Y-72846000D01*
X82452399Y-72845999D01*
X82452399Y-72804000D01*
X83447600Y-72804000D01*
X83447600Y-72831676D01*
X83462523Y-72925895D01*
X83462524Y-72925898D01*
X83520393Y-73039472D01*
X83610527Y-73129606D01*
X83724101Y-73187475D01*
X83724104Y-73187476D01*
X83818323Y-73202399D01*
X83818328Y-73202400D01*
X84071000Y-73202400D01*
X84071000Y-72804000D01*
X84579000Y-72804000D01*
X84579000Y-73202400D01*
X84831672Y-73202400D01*
X84831676Y-73202399D01*
X84925895Y-73187476D01*
X84925898Y-73187475D01*
X85039472Y-73129606D01*
X85129606Y-73039472D01*
X85187475Y-72925898D01*
X85187476Y-72925895D01*
X85202399Y-72831676D01*
X85202400Y-72831672D01*
X85202400Y-72804000D01*
X84579000Y-72804000D01*
X84071000Y-72804000D01*
X83447600Y-72804000D01*
X82452399Y-72804000D01*
X82452400Y-72334988D01*
X82444645Y-72296000D01*
X83447600Y-72296000D01*
X84071000Y-72296000D01*
X84071000Y-71897600D01*
X84579000Y-71897600D01*
X84579000Y-72296000D01*
X85202400Y-72296000D01*
X85202400Y-72268328D01*
X85202399Y-72268323D01*
X85187476Y-72174104D01*
X85187475Y-72174101D01*
X85129606Y-72060527D01*
X85039472Y-71970393D01*
X84925898Y-71912524D01*
X84925895Y-71912523D01*
X84831676Y-71897600D01*
X84579000Y-71897600D01*
X84071000Y-71897600D01*
X83818323Y-71897600D01*
X83724104Y-71912523D01*
X83724101Y-71912524D01*
X83610527Y-71970393D01*
X83520393Y-72060527D01*
X83462524Y-72174101D01*
X83462523Y-72174104D01*
X83447600Y-72268323D01*
X83447600Y-72296000D01*
X82444645Y-72296000D01*
X82443558Y-72290536D01*
X82443556Y-72290533D01*
X82409875Y-72240127D01*
X82409872Y-72240124D01*
X82359466Y-72206443D01*
X82359463Y-72206441D01*
X82315011Y-72197600D01*
X81554000Y-72197600D01*
X81046000Y-72197600D01*
X80284989Y-72197600D01*
X80240536Y-72206441D01*
X80240533Y-72206443D01*
X80190127Y-72240124D01*
X80190124Y-72240127D01*
X80156443Y-72290533D01*
X80156441Y-72290536D01*
X80147600Y-72334988D01*
X80147600Y-72846000D01*
X78975000Y-72846000D01*
X78975000Y-71675600D01*
X78994213Y-71616469D01*
X79044513Y-71579924D01*
X79075600Y-71575000D01*
X82350000Y-71575000D01*
X82350000Y-70850600D01*
X82369213Y-70791469D01*
X82419513Y-70754924D01*
X82450600Y-70750000D01*
X86149400Y-70750000D01*
X86208531Y-70769213D01*
G37*
%TD.AperFunction*%
%TD*%
%TA.AperFunction,Conductor*%
%TO.N,/VBUS*%
G36*
X69274964Y-55344213D02*
G01*
X69311509Y-55394513D01*
X69314697Y-55408599D01*
X69315414Y-55411278D01*
X69373805Y-55552245D01*
X69373806Y-55552247D01*
X69373807Y-55552249D01*
X69373808Y-55552250D01*
X69466696Y-55673304D01*
X69587750Y-55766192D01*
X69587751Y-55766192D01*
X69587752Y-55766193D01*
X69587754Y-55766194D01*
X69728720Y-55824584D01*
X69842018Y-55839500D01*
X69842020Y-55839500D01*
X69917982Y-55839500D01*
X69993513Y-55829556D01*
X70031280Y-55824584D01*
X70172250Y-55766192D01*
X70293304Y-55673304D01*
X70353650Y-55594657D01*
X70404889Y-55559442D01*
X70433462Y-55555299D01*
X71575572Y-55555299D01*
X71575578Y-55555299D01*
X71601109Y-55552338D01*
X71601111Y-55552337D01*
X71601320Y-55552245D01*
X71654418Y-55528800D01*
X71709290Y-55504572D01*
X71728727Y-55500471D01*
X71739873Y-55489326D01*
X71795270Y-55461099D01*
X71824136Y-55460721D01*
X71850000Y-55464126D01*
X71850000Y-55464125D01*
X71850001Y-55464126D01*
X71850003Y-55464126D01*
X71996003Y-55444905D01*
X71996005Y-55444904D01*
X71996007Y-55444904D01*
X72132063Y-55388547D01*
X72187787Y-55345788D01*
X72246393Y-55325034D01*
X72249027Y-55325000D01*
X72468659Y-55325000D01*
X72527790Y-55344213D01*
X72552303Y-55369707D01*
X72553499Y-55371497D01*
X72553501Y-55371499D01*
X72620715Y-55416410D01*
X72679987Y-55428200D01*
X72899400Y-55428200D01*
X72958531Y-55447413D01*
X72995076Y-55497713D01*
X73000000Y-55528800D01*
X73000000Y-56528279D01*
X72980787Y-56587410D01*
X72970535Y-56599414D01*
X72483314Y-57086635D01*
X72427916Y-57114861D01*
X72412179Y-57116100D01*
X72108642Y-57116100D01*
X72050191Y-57097377D01*
X72045600Y-57094099D01*
X72001586Y-57059842D01*
X72001585Y-57059841D01*
X72001583Y-57059840D01*
X71994565Y-57056042D01*
X71987369Y-57052524D01*
X71956574Y-57043356D01*
X71933914Y-57036610D01*
X71924106Y-57033242D01*
X71903232Y-57026076D01*
X71853544Y-56988703D01*
X71835299Y-56930928D01*
X71835299Y-56704428D01*
X71835298Y-56704413D01*
X71835173Y-56703342D01*
X71832338Y-56678891D01*
X71832335Y-56678885D01*
X71831662Y-56676407D01*
X71831662Y-56673066D01*
X71831466Y-56671375D01*
X71831662Y-56671352D01*
X71831664Y-56628648D01*
X71831466Y-56628625D01*
X71831664Y-56626911D01*
X71831665Y-56623578D01*
X71832333Y-56621120D01*
X71832338Y-56621109D01*
X71835300Y-56595579D01*
X71835299Y-56204422D01*
X71832338Y-56178891D01*
X71786234Y-56074475D01*
X71762665Y-56050906D01*
X71744547Y-56015347D01*
X71728728Y-55999528D01*
X71709290Y-55995428D01*
X71601110Y-55947662D01*
X71575579Y-55944700D01*
X70334428Y-55944700D01*
X70334413Y-55944701D01*
X70308891Y-55947662D01*
X70308888Y-55947662D01*
X70200710Y-55995428D01*
X70181271Y-55999528D01*
X70165138Y-56015661D01*
X70157587Y-56038902D01*
X70147335Y-56050906D01*
X70123765Y-56074475D01*
X70077662Y-56178888D01*
X70077662Y-56178889D01*
X70074700Y-56204417D01*
X70074700Y-56266106D01*
X70055487Y-56325237D01*
X70005187Y-56361782D01*
X69987231Y-56365845D01*
X69878997Y-56380094D01*
X69878993Y-56380095D01*
X69742941Y-56436450D01*
X69742934Y-56436454D01*
X69626105Y-56526100D01*
X69626100Y-56526105D01*
X69536454Y-56642934D01*
X69536450Y-56642941D01*
X69480095Y-56778993D01*
X69480094Y-56778996D01*
X69460874Y-56924996D01*
X69460874Y-56925003D01*
X69480094Y-57071003D01*
X69480095Y-57071006D01*
X69536450Y-57207058D01*
X69536454Y-57207065D01*
X69626100Y-57323894D01*
X69626105Y-57323899D01*
X69728416Y-57402405D01*
X69763632Y-57453644D01*
X69767689Y-57478056D01*
X69769900Y-57531483D01*
X69769900Y-58228599D01*
X69767759Y-58249245D01*
X69764954Y-58262618D01*
X69769513Y-58299181D01*
X69769900Y-58305410D01*
X69769900Y-58310212D01*
X69773803Y-58333604D01*
X69780703Y-58388957D01*
X69782986Y-58396626D01*
X69785581Y-58404186D01*
X69812129Y-58453241D01*
X69836624Y-58503346D01*
X69841267Y-58509849D01*
X69846178Y-58516159D01*
X69846180Y-58516162D01*
X69887216Y-58553938D01*
X69967683Y-58634407D01*
X69980771Y-58650524D01*
X69983478Y-58654668D01*
X69999731Y-58714680D01*
X69977606Y-58772784D01*
X69925553Y-58806787D01*
X69863456Y-58803700D01*
X69860757Y-58802627D01*
X69746006Y-58755095D01*
X69746003Y-58755094D01*
X69600003Y-58735874D01*
X69599997Y-58735874D01*
X69453996Y-58755094D01*
X69453993Y-58755095D01*
X69317941Y-58811450D01*
X69317934Y-58811454D01*
X69201105Y-58901100D01*
X69201100Y-58901105D01*
X69111454Y-59017934D01*
X69111450Y-59017941D01*
X69055095Y-59153993D01*
X69055094Y-59153996D01*
X69035874Y-59299996D01*
X69035874Y-59300003D01*
X69055094Y-59446003D01*
X69055095Y-59446006D01*
X69111450Y-59582058D01*
X69111454Y-59582065D01*
X69201100Y-59698894D01*
X69201105Y-59698899D01*
X69317934Y-59788545D01*
X69317941Y-59788549D01*
X69453993Y-59844904D01*
X69453997Y-59844905D01*
X69594476Y-59863399D01*
X69650594Y-59890165D01*
X69652481Y-59892003D01*
X69894881Y-60134403D01*
X69907963Y-60150512D01*
X69915440Y-60161956D01*
X69944531Y-60184598D01*
X69949201Y-60188723D01*
X69952591Y-60192113D01*
X69971889Y-60205891D01*
X69997115Y-60225525D01*
X70015915Y-60240158D01*
X70022937Y-60243959D01*
X70030132Y-60247476D01*
X70083589Y-60263390D01*
X70144225Y-60284208D01*
X70143766Y-60285543D01*
X70166864Y-60297432D01*
X70200710Y-60304572D01*
X70284601Y-60341613D01*
X70308891Y-60352338D01*
X70334421Y-60355300D01*
X71575578Y-60355299D01*
X71601109Y-60352338D01*
X71601111Y-60352337D01*
X71709290Y-60304572D01*
X71728728Y-60300471D01*
X71744861Y-60284338D01*
X71752413Y-60261098D01*
X71762665Y-60249094D01*
X71771601Y-60240158D01*
X71786234Y-60225525D01*
X71832338Y-60121109D01*
X71835300Y-60095579D01*
X71835299Y-59704422D01*
X71832338Y-59678891D01*
X71832335Y-59678885D01*
X71831662Y-59676407D01*
X71831662Y-59673066D01*
X71831466Y-59671375D01*
X71831662Y-59671352D01*
X71831664Y-59628648D01*
X71831466Y-59628625D01*
X71831664Y-59626911D01*
X71831665Y-59623578D01*
X71832333Y-59621120D01*
X71832338Y-59621109D01*
X71835300Y-59595579D01*
X71835299Y-59285114D01*
X71854512Y-59225984D01*
X71874118Y-59205720D01*
X71874754Y-59205224D01*
X71874762Y-59205220D01*
X71912538Y-59164183D01*
X72009409Y-59067311D01*
X72025516Y-59054233D01*
X72036956Y-59046760D01*
X72059595Y-59017670D01*
X72063718Y-59013003D01*
X72067114Y-59009609D01*
X72080898Y-58990301D01*
X72115158Y-58946285D01*
X72115158Y-58946282D01*
X72118944Y-58939287D01*
X72122470Y-58932075D01*
X72122475Y-58932069D01*
X72138388Y-58878617D01*
X72156500Y-58825861D01*
X72157816Y-58817976D01*
X72158805Y-58810038D01*
X72156500Y-58754306D01*
X72156500Y-58284500D01*
X72175713Y-58225369D01*
X72226013Y-58188824D01*
X72257100Y-58183900D01*
X72688127Y-58183900D01*
X72708771Y-58186040D01*
X72722145Y-58188845D01*
X72758710Y-58184286D01*
X72764939Y-58183900D01*
X72769737Y-58183900D01*
X72769739Y-58183900D01*
X72769741Y-58183899D01*
X72769748Y-58183899D01*
X72787296Y-58180969D01*
X72793132Y-58179996D01*
X72848488Y-58173096D01*
X72848494Y-58173092D01*
X72856130Y-58170819D01*
X72863703Y-58168219D01*
X72863714Y-58168218D01*
X72863723Y-58168212D01*
X72866733Y-58167180D01*
X72870280Y-58167121D01*
X72871997Y-58166836D01*
X72872039Y-58167092D01*
X72928899Y-58166151D01*
X72979797Y-58201859D01*
X72999986Y-58260664D01*
X73000000Y-58262329D01*
X73000000Y-62784271D01*
X72980787Y-62843402D01*
X72970535Y-62855406D01*
X72721086Y-63104854D01*
X72701374Y-63128645D01*
X72701373Y-63128646D01*
X72641824Y-63252299D01*
X72621369Y-63388024D01*
X72641823Y-63523736D01*
X72641824Y-63523739D01*
X72701373Y-63647394D01*
X72701374Y-63647395D01*
X72701375Y-63647397D01*
X72721084Y-63671184D01*
X72721086Y-63671186D01*
X72970535Y-63920635D01*
X72998761Y-63976033D01*
X73000000Y-63991770D01*
X73000000Y-65613972D01*
X72980787Y-65673103D01*
X72960643Y-65693782D01*
X72951104Y-65701101D01*
X72951103Y-65701102D01*
X72861451Y-65817939D01*
X72861450Y-65817941D01*
X72805095Y-65953993D01*
X72805094Y-65953996D01*
X72785874Y-66099996D01*
X72785874Y-66100003D01*
X72805094Y-66246003D01*
X72805095Y-66246006D01*
X72861450Y-66382058D01*
X72861454Y-66382065D01*
X72951100Y-66498894D01*
X72951104Y-66498898D01*
X72960640Y-66506215D01*
X72995857Y-66557453D01*
X73000000Y-66586027D01*
X73000000Y-71358303D01*
X72980787Y-71417434D01*
X72968537Y-71431381D01*
X72953669Y-71445446D01*
X72953668Y-71445447D01*
X72899098Y-71545583D01*
X72879888Y-71604705D01*
X72879885Y-71604717D01*
X72864700Y-71700593D01*
X72864700Y-72639100D01*
X72845487Y-72698231D01*
X72795187Y-72734776D01*
X72764100Y-72739700D01*
X71753021Y-72739700D01*
X71693890Y-72720487D01*
X71657345Y-72670187D01*
X71657345Y-72608013D01*
X71689200Y-72561336D01*
X71723326Y-72533328D01*
X71723332Y-72533322D01*
X71854936Y-72372964D01*
X71854945Y-72372951D01*
X71952737Y-72189994D01*
X71952739Y-72189989D01*
X71998541Y-72039000D01*
X71555913Y-72039000D01*
X71496782Y-72019787D01*
X71460237Y-71969487D01*
X71459388Y-71910058D01*
X71475000Y-71856889D01*
X71475000Y-71713111D01*
X71459388Y-71659941D01*
X71461163Y-71597794D01*
X71499130Y-71548558D01*
X71555913Y-71531000D01*
X71998541Y-71531000D01*
X71952739Y-71380010D01*
X71952737Y-71380005D01*
X71854945Y-71197048D01*
X71854936Y-71197035D01*
X71723332Y-71036677D01*
X71723322Y-71036667D01*
X71562964Y-70905063D01*
X71562951Y-70905054D01*
X71379994Y-70807262D01*
X71379989Y-70807260D01*
X71229000Y-70761458D01*
X71229000Y-71200279D01*
X71209787Y-71259410D01*
X71159487Y-71295955D01*
X71114084Y-71299855D01*
X71035855Y-71288607D01*
X71010763Y-71285000D01*
X70939237Y-71285000D01*
X70914144Y-71288607D01*
X70835916Y-71299855D01*
X70774653Y-71289253D01*
X70731322Y-71244665D01*
X70721000Y-71200279D01*
X70721000Y-70761458D01*
X70570010Y-70807260D01*
X70570005Y-70807262D01*
X70387048Y-70905054D01*
X70387035Y-70905063D01*
X70226677Y-71036667D01*
X70226667Y-71036677D01*
X70095063Y-71197035D01*
X70095054Y-71197048D01*
X69997262Y-71380005D01*
X69997260Y-71380010D01*
X69951459Y-71531000D01*
X70394087Y-71531000D01*
X70453218Y-71550213D01*
X70489763Y-71600513D01*
X70490611Y-71659941D01*
X70475000Y-71713111D01*
X70475000Y-71856889D01*
X70490611Y-71910058D01*
X70488837Y-71972206D01*
X70450870Y-72021442D01*
X70394087Y-72039000D01*
X69951459Y-72039000D01*
X69997260Y-72189989D01*
X69997262Y-72189994D01*
X70095054Y-72372951D01*
X70095063Y-72372964D01*
X70226667Y-72533322D01*
X70226673Y-72533328D01*
X70260800Y-72561336D01*
X70294320Y-72613700D01*
X70290659Y-72675767D01*
X70251215Y-72723828D01*
X70196979Y-72739700D01*
X68500600Y-72739700D01*
X68441469Y-72720487D01*
X68404924Y-72670187D01*
X68400000Y-72639100D01*
X68400000Y-69245000D01*
X69814751Y-69245000D01*
X69834505Y-69458190D01*
X69834505Y-69458191D01*
X69893100Y-69664131D01*
X69893103Y-69664138D01*
X69988531Y-69855783D01*
X69988532Y-69855785D01*
X69988536Y-69855792D01*
X70117566Y-70026655D01*
X70275792Y-70170898D01*
X70275794Y-70170899D01*
X70457833Y-70283612D01*
X70657483Y-70360957D01*
X70789257Y-70385590D01*
X70867944Y-70400300D01*
X70867946Y-70400300D01*
X71082056Y-70400300D01*
X71148349Y-70387907D01*
X71292517Y-70360957D01*
X71492167Y-70283612D01*
X71674206Y-70170899D01*
X71832434Y-70026655D01*
X71961464Y-69855792D01*
X72056900Y-69664130D01*
X72115494Y-69458195D01*
X72135249Y-69245000D01*
X72115494Y-69031805D01*
X72056900Y-68825870D01*
X71961464Y-68634208D01*
X71832434Y-68463345D01*
X71832433Y-68463344D01*
X71674207Y-68319101D01*
X71492167Y-68206388D01*
X71492163Y-68206386D01*
X71292518Y-68129043D01*
X71082056Y-68089700D01*
X71082054Y-68089700D01*
X70867946Y-68089700D01*
X70867944Y-68089700D01*
X70657481Y-68129043D01*
X70457836Y-68206386D01*
X70457832Y-68206388D01*
X70275792Y-68319101D01*
X70117566Y-68463344D01*
X70062695Y-68536005D01*
X69988536Y-68634208D01*
X69988534Y-68634211D01*
X69988534Y-68634212D01*
X69988531Y-68634216D01*
X69893103Y-68825861D01*
X69893100Y-68825868D01*
X69834505Y-69031808D01*
X69834505Y-69031809D01*
X69814751Y-69245000D01*
X68400000Y-69245000D01*
X68400000Y-62470004D01*
X69019604Y-62470004D01*
X69039920Y-62650325D01*
X69039921Y-62650328D01*
X69099858Y-62821619D01*
X69196401Y-62975266D01*
X69196406Y-62975272D01*
X69196407Y-62975274D01*
X69324726Y-63103593D01*
X69324728Y-63103594D01*
X69324733Y-63103598D01*
X69364597Y-63128646D01*
X69478382Y-63200142D01*
X69649670Y-63260078D01*
X69784771Y-63275300D01*
X69784779Y-63275300D01*
X70975221Y-63275300D01*
X70975229Y-63275300D01*
X71110330Y-63260078D01*
X71281618Y-63200142D01*
X71435274Y-63103593D01*
X71563593Y-62975274D01*
X71572712Y-62960760D01*
X71660141Y-62821620D01*
X71690136Y-62735901D01*
X71695904Y-62719414D01*
X71733569Y-62669948D01*
X71793116Y-62652066D01*
X71829354Y-62659698D01*
X71853993Y-62669904D01*
X71853996Y-62669905D01*
X71999997Y-62689126D01*
X72000000Y-62689126D01*
X72000003Y-62689126D01*
X72146003Y-62669905D01*
X72146005Y-62669904D01*
X72146007Y-62669904D01*
X72282063Y-62613547D01*
X72398897Y-62523897D01*
X72488547Y-62407063D01*
X72544904Y-62271007D01*
X72564126Y-62125000D01*
X72564126Y-62124996D01*
X72544905Y-61978996D01*
X72544904Y-61978993D01*
X72488549Y-61842941D01*
X72488545Y-61842934D01*
X72398899Y-61726105D01*
X72398894Y-61726100D01*
X72282065Y-61636454D01*
X72282058Y-61636450D01*
X72146006Y-61580095D01*
X72146002Y-61580094D01*
X72005523Y-61561600D01*
X71949405Y-61534834D01*
X71947519Y-61532996D01*
X71864764Y-61450240D01*
X71836537Y-61394842D01*
X71835299Y-61379105D01*
X71835299Y-61004428D01*
X71835298Y-61004413D01*
X71835173Y-61003342D01*
X71832338Y-60978891D01*
X71786234Y-60874475D01*
X71762665Y-60850906D01*
X71744547Y-60815347D01*
X71728728Y-60799528D01*
X71709290Y-60795428D01*
X71601110Y-60747662D01*
X71575582Y-60744700D01*
X71575579Y-60744700D01*
X70433462Y-60744700D01*
X70374331Y-60725487D01*
X70353651Y-60705341D01*
X70293308Y-60626700D01*
X70293302Y-60626694D01*
X70172252Y-60533809D01*
X70172245Y-60533805D01*
X70031279Y-60475415D01*
X69917982Y-60460500D01*
X69917980Y-60460500D01*
X69842020Y-60460500D01*
X69842018Y-60460500D01*
X69728720Y-60475415D01*
X69587754Y-60533805D01*
X69587752Y-60533806D01*
X69466696Y-60626696D01*
X69373806Y-60747752D01*
X69373805Y-60747754D01*
X69315415Y-60888719D01*
X69295500Y-61039996D01*
X69295500Y-61040003D01*
X69315415Y-61191280D01*
X69373805Y-61332245D01*
X69373806Y-61332247D01*
X69373807Y-61332249D01*
X69373808Y-61332250D01*
X69466696Y-61453304D01*
X69579189Y-61539622D01*
X69614403Y-61590860D01*
X69612776Y-61653012D01*
X69574927Y-61702339D01*
X69551173Y-61714386D01*
X69478383Y-61739856D01*
X69478381Y-61739857D01*
X69324733Y-61836401D01*
X69324724Y-61836408D01*
X69196408Y-61964724D01*
X69196401Y-61964733D01*
X69099858Y-62118380D01*
X69039921Y-62289671D01*
X69039920Y-62289674D01*
X69019604Y-62469995D01*
X69019604Y-62470004D01*
X68400000Y-62470004D01*
X68400000Y-55425600D01*
X68419213Y-55366469D01*
X68469513Y-55329924D01*
X68500600Y-55325000D01*
X69215833Y-55325000D01*
X69274964Y-55344213D01*
G37*
%TD.AperFunction*%
%TD*%
%TA.AperFunction,Conductor*%
%TO.N,+3V3*%
G36*
X84883963Y-55262288D02*
G01*
X84904605Y-55290698D01*
X84905312Y-55290226D01*
X84944258Y-55348514D01*
X85043158Y-55447413D01*
X85043163Y-55447417D01*
X85093209Y-55480858D01*
X85110533Y-55484304D01*
X85164780Y-55514684D01*
X85189573Y-55563341D01*
X85195119Y-55591217D01*
X85191061Y-55592024D01*
X85194365Y-55634774D01*
X85167713Y-55682285D01*
X84721019Y-56128980D01*
X84665621Y-56157206D01*
X84604213Y-56147480D01*
X84566238Y-56113736D01*
X84541852Y-56077240D01*
X84521623Y-56046964D01*
X84521612Y-56046950D01*
X84508484Y-56027302D01*
X84508482Y-56027301D01*
X84508482Y-56027300D01*
X84495474Y-56018609D01*
X84480229Y-56006098D01*
X84328957Y-55854826D01*
X84300731Y-55799428D01*
X84310457Y-55738020D01*
X84328957Y-55712556D01*
X84410155Y-55631358D01*
X84410158Y-55631353D01*
X84443599Y-55581307D01*
X84447151Y-55563451D01*
X84477530Y-55509204D01*
X84526195Y-55484408D01*
X84544048Y-55480857D01*
X84594098Y-55447415D01*
X84692997Y-55348515D01*
X84693001Y-55348510D01*
X84731947Y-55290226D01*
X84733432Y-55291218D01*
X84766066Y-55253009D01*
X84826522Y-55238495D01*
X84883963Y-55262288D01*
G37*
%TD.AperFunction*%
%TA.AperFunction,Conductor*%
G36*
X86358531Y-52544213D02*
G01*
X86395076Y-52594513D01*
X86400000Y-52625600D01*
X86400000Y-54191691D01*
X86380787Y-54250822D01*
X86370535Y-54262826D01*
X86019931Y-54613429D01*
X85964533Y-54641655D01*
X85903124Y-54631929D01*
X85877661Y-54613429D01*
X85778503Y-54514272D01*
X85778498Y-54514268D01*
X85728452Y-54480828D01*
X85649480Y-54465119D01*
X85570507Y-54480827D01*
X85520454Y-54514272D01*
X84944259Y-55090468D01*
X84944257Y-55090471D01*
X84905311Y-55148757D01*
X84903825Y-55147764D01*
X84871188Y-55185975D01*
X84810731Y-55200487D01*
X84753291Y-55176691D01*
X84732654Y-55148285D01*
X84731947Y-55148758D01*
X84692997Y-55090466D01*
X84116801Y-54514271D01*
X84116798Y-54514269D01*
X84066751Y-54480827D01*
X83987778Y-54465119D01*
X83908806Y-54480827D01*
X83858755Y-54514270D01*
X83759856Y-54613170D01*
X83759852Y-54613175D01*
X83726411Y-54663222D01*
X83726410Y-54663223D01*
X83722858Y-54681081D01*
X83692477Y-54735327D01*
X83643819Y-54760119D01*
X83625963Y-54763670D01*
X83575912Y-54797113D01*
X83477013Y-54896013D01*
X83442575Y-54947552D01*
X83393748Y-54986043D01*
X83331621Y-54988482D01*
X83287795Y-54962795D01*
X83154465Y-54829465D01*
X83126239Y-54774067D01*
X83125000Y-54758330D01*
X83125000Y-52625600D01*
X83144213Y-52566469D01*
X83194513Y-52529924D01*
X83225600Y-52525000D01*
X86299400Y-52525000D01*
X86358531Y-52544213D01*
G37*
%TD.AperFunction*%
%TD*%
%TA.AperFunction,Conductor*%
%TO.N,GND*%
G36*
X78623231Y-71619213D02*
G01*
X78659776Y-71669513D01*
X78664700Y-71700600D01*
X78664700Y-72507900D01*
X78664700Y-73664300D01*
X78664700Y-74174400D01*
X78668521Y-74222945D01*
X78673445Y-74254032D01*
X78673448Y-74254045D01*
X78679951Y-74284875D01*
X78728885Y-74387874D01*
X78765429Y-74438174D01*
X78765431Y-74438176D01*
X78820448Y-74496332D01*
X78920580Y-74550900D01*
X78979711Y-74570113D01*
X78979716Y-74570113D01*
X78979717Y-74570114D01*
X79075593Y-74585299D01*
X79075598Y-74585300D01*
X79996200Y-74585300D01*
X80055331Y-74604513D01*
X80091876Y-74654813D01*
X80096800Y-74685900D01*
X80096800Y-75146000D01*
X82503200Y-75146000D01*
X82503200Y-74704000D01*
X83396800Y-74704000D01*
X83396800Y-74754584D01*
X83399671Y-74785205D01*
X83444793Y-74914158D01*
X83525919Y-75024079D01*
X83525920Y-75024080D01*
X83635841Y-75105206D01*
X83764794Y-75150328D01*
X83795415Y-75153200D01*
X84071000Y-75153200D01*
X84071000Y-74704000D01*
X84579000Y-74704000D01*
X84579000Y-75153200D01*
X84854585Y-75153200D01*
X84885205Y-75150328D01*
X85014158Y-75105206D01*
X85124079Y-75024080D01*
X85124080Y-75024079D01*
X85205206Y-74914158D01*
X85250328Y-74785205D01*
X85253200Y-74754584D01*
X85253200Y-74704000D01*
X84579000Y-74704000D01*
X84071000Y-74704000D01*
X83396800Y-74704000D01*
X82503200Y-74704000D01*
X82503200Y-74685900D01*
X82522413Y-74626769D01*
X82572713Y-74590224D01*
X82603800Y-74585300D01*
X82749402Y-74585300D01*
X82797938Y-74581480D01*
X82797943Y-74581479D01*
X82797945Y-74581479D01*
X82829032Y-74576555D01*
X82859875Y-74570049D01*
X82962876Y-74521114D01*
X83013176Y-74484569D01*
X83071332Y-74429552D01*
X83125900Y-74329420D01*
X83145113Y-74270289D01*
X83160300Y-74174400D01*
X83160300Y-73835900D01*
X83179513Y-73776769D01*
X83229813Y-73740224D01*
X83260900Y-73735300D01*
X83430424Y-73735300D01*
X83489555Y-73754513D01*
X83526100Y-73804813D01*
X83526100Y-73866987D01*
X83511366Y-73895638D01*
X83444794Y-73985839D01*
X83444793Y-73985840D01*
X83399671Y-74114794D01*
X83396800Y-74145415D01*
X83396800Y-74196000D01*
X85253200Y-74196000D01*
X85253200Y-74145415D01*
X85250328Y-74114794D01*
X85205206Y-73985840D01*
X85205205Y-73985839D01*
X85138634Y-73895638D01*
X85118979Y-73836653D01*
X85137749Y-73777379D01*
X85187774Y-73740459D01*
X85219576Y-73735300D01*
X86149402Y-73735300D01*
X86197938Y-73731480D01*
X86197943Y-73731479D01*
X86197945Y-73731479D01*
X86229032Y-73726555D01*
X86259875Y-73720049D01*
X86362876Y-73671114D01*
X86413176Y-73634569D01*
X86471332Y-73579552D01*
X86525900Y-73479420D01*
X86525900Y-73479417D01*
X86526967Y-73477461D01*
X86572133Y-73434733D01*
X86615302Y-73425000D01*
X86724400Y-73425000D01*
X86783531Y-73444213D01*
X86820076Y-73494513D01*
X86825000Y-73525600D01*
X86825000Y-77149400D01*
X86805787Y-77208531D01*
X86755487Y-77245076D01*
X86724400Y-77250000D01*
X85650000Y-77250000D01*
X84978115Y-77250000D01*
X84918984Y-77230787D01*
X84882439Y-77180487D01*
X84882439Y-77118313D01*
X84918984Y-77068013D01*
X84944889Y-77054445D01*
X85014158Y-77030206D01*
X85124079Y-76949080D01*
X85124080Y-76949079D01*
X85205206Y-76839158D01*
X85250328Y-76710205D01*
X85253200Y-76679584D01*
X85253200Y-76629000D01*
X83396800Y-76629000D01*
X83396800Y-76679584D01*
X83399671Y-76710205D01*
X83444793Y-76839158D01*
X83525919Y-76949079D01*
X83525920Y-76949080D01*
X83635841Y-77030206D01*
X83705111Y-77054445D01*
X83754578Y-77092110D01*
X83772460Y-77151657D01*
X83751925Y-77210342D01*
X83700818Y-77245750D01*
X83671885Y-77250000D01*
X83025600Y-77250000D01*
X82966469Y-77230787D01*
X82929924Y-77180487D01*
X82925000Y-77149400D01*
X82925000Y-76550000D01*
X82900000Y-76525000D01*
X82436156Y-76525000D01*
X82377025Y-76505787D01*
X82340480Y-76455487D01*
X82340480Y-76393313D01*
X82377025Y-76343013D01*
X82380266Y-76340754D01*
X82446498Y-76296499D01*
X82446499Y-76296498D01*
X82491410Y-76229284D01*
X82503200Y-76170013D01*
X82503200Y-76121000D01*
X83396800Y-76121000D01*
X84071000Y-76121000D01*
X84071000Y-75671800D01*
X84579000Y-75671800D01*
X84579000Y-76121000D01*
X85253200Y-76121000D01*
X85253200Y-76070415D01*
X85250328Y-76039794D01*
X85205206Y-75910841D01*
X85124080Y-75800920D01*
X85124079Y-75800919D01*
X85014158Y-75719793D01*
X84885205Y-75674671D01*
X84854585Y-75671800D01*
X84579000Y-75671800D01*
X84071000Y-75671800D01*
X83795415Y-75671800D01*
X83764794Y-75674671D01*
X83635841Y-75719793D01*
X83525920Y-75800919D01*
X83525919Y-75800920D01*
X83444793Y-75910841D01*
X83399671Y-76039794D01*
X83396800Y-76070415D01*
X83396800Y-76121000D01*
X82503200Y-76121000D01*
X82503200Y-75654000D01*
X80096800Y-75654000D01*
X80096800Y-76170013D01*
X80108589Y-76229284D01*
X80153500Y-76296498D01*
X80153501Y-76296499D01*
X80219734Y-76340754D01*
X80258226Y-76389580D01*
X80260667Y-76451706D01*
X80226125Y-76503403D01*
X80167794Y-76524922D01*
X80163844Y-76525000D01*
X79575000Y-76525000D01*
X79575000Y-78899400D01*
X79555787Y-78958531D01*
X79505487Y-78995076D01*
X79474400Y-79000000D01*
X73275600Y-79000000D01*
X73216469Y-78980787D01*
X73179924Y-78930487D01*
X73175000Y-78899400D01*
X73175000Y-75654000D01*
X73796800Y-75654000D01*
X73796800Y-77320013D01*
X73808589Y-77379284D01*
X73853500Y-77446498D01*
X73853501Y-77446499D01*
X73920715Y-77491410D01*
X73979987Y-77503200D01*
X74746000Y-77503200D01*
X74746000Y-75654000D01*
X75254000Y-75654000D01*
X75254000Y-77503200D01*
X76020013Y-77503200D01*
X76079284Y-77491410D01*
X76146498Y-77446499D01*
X76146499Y-77446498D01*
X76191410Y-77379284D01*
X76203200Y-77320013D01*
X76203200Y-75654000D01*
X75254000Y-75654000D01*
X74746000Y-75654000D01*
X73796800Y-75654000D01*
X73175000Y-75654000D01*
X73175000Y-75146000D01*
X73796800Y-75146000D01*
X74746000Y-75146000D01*
X74746000Y-73296800D01*
X75254000Y-73296800D01*
X75254000Y-75146000D01*
X76203200Y-75146000D01*
X76203200Y-73479986D01*
X76191410Y-73420715D01*
X76146499Y-73353501D01*
X76146498Y-73353500D01*
X76079284Y-73308589D01*
X76020013Y-73296800D01*
X75254000Y-73296800D01*
X74746000Y-73296800D01*
X73979987Y-73296800D01*
X73920715Y-73308589D01*
X73853501Y-73353500D01*
X73853500Y-73353501D01*
X73808589Y-73420715D01*
X73796800Y-73479986D01*
X73796800Y-75146000D01*
X73175000Y-75146000D01*
X73175000Y-71700600D01*
X73194213Y-71641469D01*
X73244513Y-71604924D01*
X73275600Y-71600000D01*
X78564100Y-71600000D01*
X78623231Y-71619213D01*
G37*
%TD.AperFunction*%
%TD*%
%TA.AperFunction,Conductor*%
%TO.N,+5V*%
G36*
X72823231Y-73069213D02*
G01*
X72859776Y-73119513D01*
X72864700Y-73150600D01*
X72864700Y-78899402D01*
X72867124Y-78930206D01*
X72868521Y-78947945D01*
X72873445Y-78979032D01*
X72873448Y-78979045D01*
X72879951Y-79009875D01*
X72928885Y-79112874D01*
X72965429Y-79163174D01*
X72965431Y-79163176D01*
X73020448Y-79221332D01*
X73120580Y-79275900D01*
X73179711Y-79295113D01*
X73179716Y-79295113D01*
X73179717Y-79295114D01*
X73275593Y-79310299D01*
X73275598Y-79310300D01*
X73275600Y-79310300D01*
X79474402Y-79310300D01*
X79522938Y-79306480D01*
X79522943Y-79306479D01*
X79522945Y-79306479D01*
X79554032Y-79301555D01*
X79584875Y-79295049D01*
X79687876Y-79246114D01*
X79738176Y-79209569D01*
X79796332Y-79154552D01*
X79850900Y-79054420D01*
X79870113Y-78995289D01*
X79885300Y-78899400D01*
X79885300Y-77954000D01*
X80096800Y-77954000D01*
X80096800Y-78470013D01*
X80108589Y-78529284D01*
X80153500Y-78596498D01*
X80153501Y-78596499D01*
X80220715Y-78641410D01*
X80279987Y-78653200D01*
X81046000Y-78653200D01*
X81046000Y-77954000D01*
X81554000Y-77954000D01*
X81554000Y-78653200D01*
X82320013Y-78653200D01*
X82379284Y-78641410D01*
X82446498Y-78596499D01*
X82446499Y-78596498D01*
X82491410Y-78529284D01*
X82491466Y-78529000D01*
X83396800Y-78529000D01*
X83396800Y-78579584D01*
X83399671Y-78610205D01*
X83444793Y-78739158D01*
X83525919Y-78849079D01*
X83525920Y-78849080D01*
X83635841Y-78930206D01*
X83764794Y-78975328D01*
X83795415Y-78978200D01*
X84071000Y-78978200D01*
X84071000Y-78529000D01*
X84579000Y-78529000D01*
X84579000Y-78978200D01*
X84854585Y-78978200D01*
X84885205Y-78975328D01*
X85014158Y-78930206D01*
X85124079Y-78849080D01*
X85124080Y-78849079D01*
X85205206Y-78739158D01*
X85250328Y-78610205D01*
X85253200Y-78579584D01*
X85253200Y-78529000D01*
X84579000Y-78529000D01*
X84071000Y-78529000D01*
X83396800Y-78529000D01*
X82491466Y-78529000D01*
X82503200Y-78470013D01*
X82503200Y-77954000D01*
X81554000Y-77954000D01*
X81046000Y-77954000D01*
X80096800Y-77954000D01*
X79885300Y-77954000D01*
X79885300Y-76935899D01*
X79904513Y-76876769D01*
X79954813Y-76840224D01*
X79985900Y-76835300D01*
X79996200Y-76835300D01*
X80055331Y-76854513D01*
X80091876Y-76904813D01*
X80096800Y-76935900D01*
X80096800Y-77446000D01*
X81046000Y-77446000D01*
X81046000Y-76746800D01*
X80619984Y-76746800D01*
X80560853Y-76727587D01*
X80524308Y-76677287D01*
X80524308Y-76615113D01*
X80529827Y-76601568D01*
X80540025Y-76580968D01*
X80583477Y-76536499D01*
X80630182Y-76525000D01*
X81972233Y-76525000D01*
X82031364Y-76544213D01*
X82063099Y-76582430D01*
X82072886Y-76603030D01*
X82080907Y-76664684D01*
X82051157Y-76719279D01*
X81994998Y-76745959D01*
X81982020Y-76746800D01*
X81554000Y-76746800D01*
X81554000Y-77446000D01*
X82503200Y-77446000D01*
X82503200Y-77430679D01*
X82522413Y-77371548D01*
X82572713Y-77335003D01*
X82634887Y-77335003D01*
X82685187Y-77371548D01*
X82715431Y-77413176D01*
X82770448Y-77471332D01*
X82870580Y-77525900D01*
X82929711Y-77545113D01*
X82929716Y-77545113D01*
X82929717Y-77545114D01*
X83025593Y-77560299D01*
X83025598Y-77560300D01*
X83430424Y-77560300D01*
X83489555Y-77579513D01*
X83526100Y-77629813D01*
X83526100Y-77691987D01*
X83511366Y-77720638D01*
X83444794Y-77810839D01*
X83444793Y-77810840D01*
X83399671Y-77939794D01*
X83396800Y-77970415D01*
X83396800Y-78021000D01*
X84071000Y-78021000D01*
X84071000Y-77571800D01*
X84069272Y-77571800D01*
X84010141Y-77552587D01*
X83973596Y-77502287D01*
X83973596Y-77440113D01*
X83984977Y-77419098D01*
X83984068Y-77418576D01*
X84016066Y-77362871D01*
X84044812Y-77312829D01*
X84044815Y-77312818D01*
X84046677Y-77308752D01*
X84088746Y-77262972D01*
X84138160Y-77250000D01*
X84514192Y-77250000D01*
X84573323Y-77269213D01*
X84605058Y-77307430D01*
X84631397Y-77362871D01*
X84631399Y-77362873D01*
X84631400Y-77362875D01*
X84631401Y-77362876D01*
X84661680Y-77404552D01*
X84667142Y-77412069D01*
X84686355Y-77471200D01*
X84667142Y-77530331D01*
X84616842Y-77566876D01*
X84585755Y-77571800D01*
X84579000Y-77571800D01*
X84579000Y-78021000D01*
X85253200Y-78021000D01*
X85253200Y-77970415D01*
X85250328Y-77939794D01*
X85205206Y-77810840D01*
X85205205Y-77810839D01*
X85138634Y-77720638D01*
X85118979Y-77661653D01*
X85137749Y-77602379D01*
X85187774Y-77565459D01*
X85219576Y-77560300D01*
X85558426Y-77560300D01*
X85617557Y-77579513D01*
X85654102Y-77629813D01*
X85659002Y-77658685D01*
X85675000Y-78384969D01*
X85675000Y-80424400D01*
X85655787Y-80483531D01*
X85605487Y-80520076D01*
X85574400Y-80525000D01*
X69550000Y-80525000D01*
X68500600Y-80525000D01*
X68441469Y-80505787D01*
X68404924Y-80455487D01*
X68400000Y-80424400D01*
X68400000Y-75195013D01*
X69921800Y-75195013D01*
X69933589Y-75254284D01*
X69978500Y-75321498D01*
X69978501Y-75321499D01*
X70045715Y-75366410D01*
X70104987Y-75378200D01*
X70721000Y-75378200D01*
X70721000Y-74909720D01*
X70740213Y-74850589D01*
X70790513Y-74814044D01*
X70835913Y-74810144D01*
X70939237Y-74825000D01*
X70939239Y-74825000D01*
X71010761Y-74825000D01*
X71010763Y-74825000D01*
X71114085Y-74810144D01*
X71175346Y-74820746D01*
X71218678Y-74865333D01*
X71229000Y-74909720D01*
X71229000Y-75378200D01*
X71845013Y-75378200D01*
X71904284Y-75366410D01*
X71971498Y-75321499D01*
X71971499Y-75321498D01*
X72016410Y-75254284D01*
X72028200Y-75195013D01*
X72028200Y-74579000D01*
X71555913Y-74579000D01*
X71496782Y-74559787D01*
X71460237Y-74509487D01*
X71459388Y-74450058D01*
X71475000Y-74396889D01*
X71475000Y-74253111D01*
X71459388Y-74199941D01*
X71461163Y-74137794D01*
X71499130Y-74088558D01*
X71555913Y-74071000D01*
X72028200Y-74071000D01*
X72028200Y-73454986D01*
X72016410Y-73395715D01*
X71971499Y-73328501D01*
X71971498Y-73328500D01*
X71904284Y-73283589D01*
X71845013Y-73271800D01*
X71229000Y-73271800D01*
X71229000Y-73740279D01*
X71209787Y-73799410D01*
X71159487Y-73835955D01*
X71114084Y-73839855D01*
X71035855Y-73828607D01*
X71010763Y-73825000D01*
X70939237Y-73825000D01*
X70914144Y-73828607D01*
X70835916Y-73839855D01*
X70774653Y-73829253D01*
X70731322Y-73784665D01*
X70721000Y-73740279D01*
X70721000Y-73271800D01*
X70104987Y-73271800D01*
X70045715Y-73283589D01*
X69978501Y-73328500D01*
X69978500Y-73328501D01*
X69933589Y-73395715D01*
X69921800Y-73454986D01*
X69921800Y-74071000D01*
X70394087Y-74071000D01*
X70453218Y-74090213D01*
X70489763Y-74140513D01*
X70490611Y-74199941D01*
X70475000Y-74253111D01*
X70475000Y-74396889D01*
X70490611Y-74450058D01*
X70488837Y-74512206D01*
X70450870Y-74561442D01*
X70394087Y-74579000D01*
X69921800Y-74579000D01*
X69921800Y-75195013D01*
X68400000Y-75195013D01*
X68400000Y-73150600D01*
X68419213Y-73091469D01*
X68469513Y-73054924D01*
X68500600Y-73050000D01*
X72764100Y-73050000D01*
X72823231Y-73069213D01*
G37*
%TD.AperFunction*%
%TD*%
%TA.AperFunction,Conductor*%
%TO.N,GND*%
G36*
X65449017Y-63727370D02*
G01*
X65473761Y-63775931D01*
X65475000Y-63791669D01*
X65475000Y-65246200D01*
X65455787Y-65305331D01*
X65405487Y-65341876D01*
X65374400Y-65346800D01*
X65329000Y-65346800D01*
X65329000Y-66803200D01*
X65374400Y-66803200D01*
X65433531Y-66822413D01*
X65470076Y-66872713D01*
X65475000Y-66903800D01*
X65475000Y-69396200D01*
X65455787Y-69455331D01*
X65405487Y-69491876D01*
X65374400Y-69496800D01*
X65329000Y-69496800D01*
X65329000Y-70953200D01*
X65374400Y-70953200D01*
X65433531Y-70972413D01*
X65470076Y-71022713D01*
X65475000Y-71053800D01*
X65475000Y-72921200D01*
X65455787Y-72980331D01*
X65405487Y-73016876D01*
X65374400Y-73021800D01*
X65329000Y-73021800D01*
X65329000Y-74478200D01*
X65374400Y-74478200D01*
X65433531Y-74497413D01*
X65470076Y-74547713D01*
X65475000Y-74578800D01*
X65475000Y-77071200D01*
X65455787Y-77130331D01*
X65405487Y-77166876D01*
X65374400Y-77171800D01*
X65329000Y-77171800D01*
X65329000Y-78628200D01*
X65374400Y-78628200D01*
X65433531Y-78647413D01*
X65470076Y-78697713D01*
X65475000Y-78728800D01*
X65475000Y-80696181D01*
X65469355Y-80729407D01*
X65451912Y-80779256D01*
X65432675Y-80949995D01*
X65432675Y-80950004D01*
X65451912Y-81120744D01*
X65469354Y-81170591D01*
X65474999Y-81203817D01*
X65474999Y-81946630D01*
X65455786Y-82005761D01*
X65405486Y-82042306D01*
X65343312Y-82042306D01*
X65342758Y-82042124D01*
X65289382Y-82024438D01*
X65289377Y-82024437D01*
X65213447Y-82016680D01*
X65187213Y-82014000D01*
X65187211Y-82014000D01*
X64612789Y-82014000D01*
X64510619Y-82024437D01*
X64510618Y-82024437D01*
X64345080Y-82079290D01*
X64196655Y-82170841D01*
X64196653Y-82170842D01*
X64073342Y-82294153D01*
X64073341Y-82294155D01*
X63981790Y-82442580D01*
X63926937Y-82608122D01*
X63916500Y-82710288D01*
X63916500Y-83309710D01*
X63926937Y-83411880D01*
X63926937Y-83411881D01*
X63981790Y-83577419D01*
X64073341Y-83725844D01*
X64073343Y-83725847D01*
X64198861Y-83851365D01*
X64227087Y-83906763D01*
X64217361Y-83968171D01*
X64198861Y-83993635D01*
X64073342Y-84119153D01*
X64073341Y-84119155D01*
X63981790Y-84267580D01*
X63926937Y-84433122D01*
X63916500Y-84535288D01*
X63916500Y-85134710D01*
X63926937Y-85236880D01*
X63926937Y-85236881D01*
X63981790Y-85402419D01*
X63986920Y-85410736D01*
X64073342Y-85550846D01*
X64196654Y-85674158D01*
X64345080Y-85765709D01*
X64510619Y-85820562D01*
X64612787Y-85831000D01*
X65187212Y-85830999D01*
X65289381Y-85820562D01*
X65454920Y-85765709D01*
X65603346Y-85674158D01*
X65636004Y-85641500D01*
X66316801Y-85641500D01*
X66316801Y-85904591D01*
X66319670Y-85935203D01*
X66364793Y-86064158D01*
X66445919Y-86174079D01*
X66445920Y-86174080D01*
X66555841Y-86255206D01*
X66684792Y-86300328D01*
X66684790Y-86300328D01*
X66715416Y-86303199D01*
X67141000Y-86303199D01*
X67141000Y-85641500D01*
X67649000Y-85641500D01*
X67649000Y-86303199D01*
X68074580Y-86303199D01*
X68074591Y-86303198D01*
X68105203Y-86300329D01*
X68234158Y-86255206D01*
X68344079Y-86174080D01*
X68344080Y-86174079D01*
X68425206Y-86064158D01*
X68470328Y-85935208D01*
X68473200Y-85904583D01*
X68473200Y-85641500D01*
X67649000Y-85641500D01*
X67141000Y-85641500D01*
X66316801Y-85641500D01*
X65636004Y-85641500D01*
X65726658Y-85550846D01*
X65818209Y-85402420D01*
X65873062Y-85236881D01*
X65883500Y-85134713D01*
X65883499Y-84916246D01*
X65902712Y-84857116D01*
X65950870Y-84821293D01*
X66107930Y-84766336D01*
X66168997Y-84727964D01*
X66229285Y-84712773D01*
X66286990Y-84735919D01*
X66320070Y-84788564D01*
X66320804Y-84834604D01*
X66319671Y-84839789D01*
X66316800Y-84870416D01*
X66316800Y-85133500D01*
X68514869Y-85133500D01*
X68514869Y-85137395D01*
X68559309Y-85143794D01*
X68586036Y-85162927D01*
X68659986Y-85236877D01*
X68707126Y-85284017D01*
X68711469Y-85288970D01*
X68732988Y-85317014D01*
X68759706Y-85337516D01*
X68759712Y-85337520D01*
X68763652Y-85340543D01*
X68855127Y-85410734D01*
X68855128Y-85410734D01*
X68855129Y-85410735D01*
X68855131Y-85410736D01*
X68988665Y-85466047D01*
X69035789Y-85506176D01*
X69063342Y-85550846D01*
X69186654Y-85674158D01*
X69335080Y-85765709D01*
X69500619Y-85820562D01*
X69602787Y-85831000D01*
X70177212Y-85830999D01*
X70279381Y-85820562D01*
X70444920Y-85765709D01*
X70593346Y-85674158D01*
X70626004Y-85641500D01*
X71306801Y-85641500D01*
X71306801Y-85904591D01*
X71309670Y-85935203D01*
X71354793Y-86064158D01*
X71435919Y-86174079D01*
X71435920Y-86174080D01*
X71545841Y-86255206D01*
X71674792Y-86300328D01*
X71674790Y-86300328D01*
X71705416Y-86303199D01*
X72130999Y-86303199D01*
X72131000Y-86303198D01*
X72131000Y-85641500D01*
X72639000Y-85641500D01*
X72639000Y-86303199D01*
X73064580Y-86303199D01*
X73064591Y-86303198D01*
X73095203Y-86300329D01*
X73224158Y-86255206D01*
X73334079Y-86174080D01*
X73334080Y-86174079D01*
X73415206Y-86064158D01*
X73460328Y-85935208D01*
X73463200Y-85904583D01*
X73463200Y-85641500D01*
X72639000Y-85641500D01*
X72131000Y-85641500D01*
X71306801Y-85641500D01*
X70626004Y-85641500D01*
X70716658Y-85550846D01*
X70808209Y-85402420D01*
X70863062Y-85236881D01*
X70873500Y-85134713D01*
X70873499Y-84535288D01*
X70863338Y-84435822D01*
X70876442Y-84375046D01*
X70922768Y-84333578D01*
X70963417Y-84325000D01*
X71510438Y-84325000D01*
X71569569Y-84344213D01*
X71606114Y-84394513D01*
X71606114Y-84456687D01*
X71569569Y-84506987D01*
X71552365Y-84515997D01*
X71552509Y-84516269D01*
X71545842Y-84519792D01*
X71435920Y-84600919D01*
X71435919Y-84600920D01*
X71354793Y-84710841D01*
X71309671Y-84839791D01*
X71306800Y-84870416D01*
X71306800Y-85133500D01*
X73463199Y-85133500D01*
X73463199Y-84870419D01*
X73463198Y-84870408D01*
X73460329Y-84839796D01*
X73415206Y-84710841D01*
X73334080Y-84600920D01*
X73334079Y-84600919D01*
X73224157Y-84519792D01*
X73217491Y-84516269D01*
X73218413Y-84514523D01*
X73176867Y-84482888D01*
X73158987Y-84423341D01*
X73179523Y-84364656D01*
X73230632Y-84329250D01*
X73259562Y-84325000D01*
X73501440Y-84325000D01*
X73560571Y-84344213D01*
X73572575Y-84354465D01*
X73867035Y-84648925D01*
X73895261Y-84704323D01*
X73896500Y-84720060D01*
X73896500Y-85134710D01*
X73906937Y-85236880D01*
X73906937Y-85236881D01*
X73961790Y-85402419D01*
X73966920Y-85410736D01*
X74053342Y-85550846D01*
X74176654Y-85674158D01*
X74325080Y-85765709D01*
X74490619Y-85820562D01*
X74592787Y-85831000D01*
X75167212Y-85830999D01*
X75269381Y-85820562D01*
X75434920Y-85765709D01*
X75583346Y-85674158D01*
X75616004Y-85641500D01*
X76296801Y-85641500D01*
X76296801Y-85904591D01*
X76299670Y-85935203D01*
X76344793Y-86064158D01*
X76425919Y-86174079D01*
X76425920Y-86174080D01*
X76535841Y-86255206D01*
X76664792Y-86300328D01*
X76664790Y-86300328D01*
X76695416Y-86303199D01*
X77121000Y-86303199D01*
X77121000Y-85641500D01*
X77629000Y-85641500D01*
X77629000Y-86303199D01*
X78054580Y-86303199D01*
X78054591Y-86303198D01*
X78085203Y-86300329D01*
X78214158Y-86255206D01*
X78324079Y-86174080D01*
X78324080Y-86174079D01*
X78405206Y-86064158D01*
X78450328Y-85935208D01*
X78453200Y-85904583D01*
X78453200Y-85641500D01*
X77629000Y-85641500D01*
X77121000Y-85641500D01*
X76296801Y-85641500D01*
X75616004Y-85641500D01*
X75706658Y-85550846D01*
X75798209Y-85402420D01*
X75853062Y-85236881D01*
X75863500Y-85134713D01*
X75863499Y-84535288D01*
X75853338Y-84435822D01*
X75866442Y-84375046D01*
X75912768Y-84333578D01*
X75953417Y-84325000D01*
X76500438Y-84325000D01*
X76559569Y-84344213D01*
X76596114Y-84394513D01*
X76596114Y-84456687D01*
X76559569Y-84506987D01*
X76542365Y-84515997D01*
X76542509Y-84516269D01*
X76535842Y-84519792D01*
X76425920Y-84600919D01*
X76425919Y-84600920D01*
X76344793Y-84710841D01*
X76299671Y-84839791D01*
X76296800Y-84870416D01*
X76296800Y-85133500D01*
X78453199Y-85133500D01*
X78453199Y-84870419D01*
X78453198Y-84870408D01*
X78450329Y-84839796D01*
X78405206Y-84710841D01*
X78324080Y-84600920D01*
X78324079Y-84600919D01*
X78214157Y-84519792D01*
X78207491Y-84516269D01*
X78208413Y-84514523D01*
X78166867Y-84482888D01*
X78148987Y-84423341D01*
X78169523Y-84364656D01*
X78220632Y-84329250D01*
X78249562Y-84325000D01*
X79175000Y-84325000D01*
X79200000Y-84300000D01*
X79200000Y-83341670D01*
X79219213Y-83282539D01*
X79229465Y-83270535D01*
X79270535Y-83229465D01*
X79325933Y-83201239D01*
X79341670Y-83200000D01*
X79625000Y-83200000D01*
X79625000Y-86550000D01*
X84375000Y-86550000D01*
X84375000Y-86708330D01*
X84355787Y-86767461D01*
X84345535Y-86779465D01*
X84304465Y-86820535D01*
X84249067Y-86848761D01*
X84233330Y-86850000D01*
X63675600Y-86850000D01*
X63616469Y-86830787D01*
X63579924Y-86780487D01*
X63575000Y-86749400D01*
X63575000Y-78445013D01*
X64546799Y-78445013D01*
X64558589Y-78504284D01*
X64603500Y-78571498D01*
X64603501Y-78571499D01*
X64670715Y-78616410D01*
X64729987Y-78628200D01*
X64821000Y-78628200D01*
X64821000Y-78154000D01*
X64546800Y-78154000D01*
X64546799Y-78445013D01*
X63575000Y-78445013D01*
X63575000Y-77354986D01*
X64546799Y-77354986D01*
X64546800Y-77646000D01*
X64821000Y-77646000D01*
X64821000Y-77171800D01*
X64729987Y-77171800D01*
X64670715Y-77183589D01*
X64603501Y-77228500D01*
X64603500Y-77228501D01*
X64558589Y-77295715D01*
X64546799Y-77354986D01*
X63575000Y-77354986D01*
X63575000Y-77071200D01*
X63575000Y-74295013D01*
X64546799Y-74295013D01*
X64558589Y-74354284D01*
X64603500Y-74421498D01*
X64603501Y-74421499D01*
X64670715Y-74466410D01*
X64729987Y-74478200D01*
X64821000Y-74478200D01*
X64821000Y-74004000D01*
X64546800Y-74004000D01*
X64546799Y-74295013D01*
X63575000Y-74295013D01*
X63575000Y-73204986D01*
X64546799Y-73204986D01*
X64546800Y-73496000D01*
X64821000Y-73496000D01*
X64821000Y-73021800D01*
X64729987Y-73021800D01*
X64670715Y-73033589D01*
X64603501Y-73078500D01*
X64603500Y-73078501D01*
X64558589Y-73145715D01*
X64546799Y-73204986D01*
X63575000Y-73204986D01*
X63575000Y-70770013D01*
X64546799Y-70770013D01*
X64558589Y-70829284D01*
X64603500Y-70896498D01*
X64603501Y-70896499D01*
X64670715Y-70941410D01*
X64729987Y-70953200D01*
X64821000Y-70953200D01*
X64821000Y-70479000D01*
X64546800Y-70479000D01*
X64546799Y-70770013D01*
X63575000Y-70770013D01*
X63575000Y-69679986D01*
X64546799Y-69679986D01*
X64546800Y-69971000D01*
X64821000Y-69971000D01*
X64821000Y-69496800D01*
X64729987Y-69496800D01*
X64670715Y-69508589D01*
X64603501Y-69553500D01*
X64603500Y-69553501D01*
X64558589Y-69620715D01*
X64546799Y-69679986D01*
X63575000Y-69679986D01*
X63575000Y-66620013D01*
X64546799Y-66620013D01*
X64558589Y-66679284D01*
X64603500Y-66746498D01*
X64603501Y-66746499D01*
X64670715Y-66791410D01*
X64729987Y-66803200D01*
X64821000Y-66803200D01*
X64821000Y-66329000D01*
X64546800Y-66329000D01*
X64546799Y-66620013D01*
X63575000Y-66620013D01*
X63575000Y-65529986D01*
X64546799Y-65529986D01*
X64546800Y-65821000D01*
X64821000Y-65821000D01*
X64821000Y-65346800D01*
X64729987Y-65346800D01*
X64670715Y-65358589D01*
X64603501Y-65403500D01*
X64603500Y-65403501D01*
X64558589Y-65470715D01*
X64546799Y-65529986D01*
X63575000Y-65529986D01*
X63575000Y-63725000D01*
X65450000Y-63725000D01*
X65449017Y-63727370D01*
G37*
%TD.AperFunction*%
%TD*%
%TA.AperFunction,Conductor*%
%TO.N,GND*%
G36*
X90668133Y-66844748D02*
G01*
X90678174Y-66853174D01*
X93423783Y-69598783D01*
X93426104Y-69601328D01*
X93528675Y-69724743D01*
X93546041Y-69773163D01*
X93528220Y-69821417D01*
X93524016Y-69825983D01*
X92050666Y-71299334D01*
X92049303Y-71300630D01*
X91012907Y-72238178D01*
X90965258Y-72257559D01*
X90916299Y-72241777D01*
X90909977Y-72236269D01*
X88075312Y-69474026D01*
X88052971Y-69427691D01*
X88065641Y-69377836D01*
X88070491Y-69371471D01*
X88150454Y-69277378D01*
X88152291Y-69275370D01*
X88325000Y-69100000D01*
X90571825Y-66853174D01*
X90618446Y-66831434D01*
X90668133Y-66844748D01*
G37*
%TD.AperFunction*%
%TD*%
%TA.AperFunction,Conductor*%
%TO.N,GND*%
G36*
X84284421Y-82845002D02*
G01*
X84330914Y-82898658D01*
X84342300Y-82951000D01*
X84342300Y-83270747D01*
X84341904Y-83277807D01*
X84337453Y-83317308D01*
X84348688Y-83376686D01*
X84357695Y-83436439D01*
X84360245Y-83444705D01*
X84363104Y-83452875D01*
X84363105Y-83452876D01*
X84391339Y-83506299D01*
X84417558Y-83560743D01*
X84422430Y-83567889D01*
X84427579Y-83574866D01*
X84470308Y-83617594D01*
X84511405Y-83661886D01*
X84511407Y-83661887D01*
X84518787Y-83667773D01*
X84518257Y-83668437D01*
X84530696Y-83677982D01*
X84938095Y-84085381D01*
X84972121Y-84147693D01*
X84975000Y-84174476D01*
X84975000Y-86424000D01*
X84954998Y-86492121D01*
X84901342Y-86538614D01*
X84849000Y-86550000D01*
X79625000Y-86550000D01*
X79625000Y-85179000D01*
X80096800Y-85179000D01*
X80096800Y-85870014D01*
X80108590Y-85929286D01*
X80153500Y-85996499D01*
X80220713Y-86041409D01*
X80279985Y-86053199D01*
X80279991Y-86053200D01*
X81771000Y-86053200D01*
X81771000Y-85179000D01*
X82279000Y-85179000D01*
X82279000Y-86053200D01*
X83770009Y-86053200D01*
X83770014Y-86053199D01*
X83829286Y-86041409D01*
X83896499Y-85996499D01*
X83941409Y-85929286D01*
X83953199Y-85870014D01*
X83953200Y-85870009D01*
X83953200Y-85179000D01*
X82279000Y-85179000D01*
X81771000Y-85179000D01*
X80096800Y-85179000D01*
X79625000Y-85179000D01*
X79625000Y-84671000D01*
X80096800Y-84671000D01*
X81771000Y-84671000D01*
X81771000Y-83796800D01*
X82279000Y-83796800D01*
X82279000Y-84671000D01*
X83953200Y-84671000D01*
X83953200Y-83979990D01*
X83953199Y-83979985D01*
X83941409Y-83920713D01*
X83896499Y-83853500D01*
X83829286Y-83808590D01*
X83770014Y-83796800D01*
X82279000Y-83796800D01*
X81771000Y-83796800D01*
X80279985Y-83796800D01*
X80220713Y-83808590D01*
X80153500Y-83853500D01*
X80108590Y-83920713D01*
X80096800Y-83979985D01*
X80096800Y-84671000D01*
X79625000Y-84671000D01*
X79625000Y-82951000D01*
X79645002Y-82882879D01*
X79698658Y-82836386D01*
X79751000Y-82825000D01*
X84216300Y-82825000D01*
X84284421Y-82845002D01*
G37*
%TD.AperFunction*%
%TD*%
%TA.AperFunction,Conductor*%
%TO.N,GND*%
G36*
X65549665Y-46310403D02*
G01*
X65617708Y-46330657D01*
X65664002Y-46384485D01*
X65675194Y-46435893D01*
X65676288Y-46706799D01*
X65676289Y-46706800D01*
X65676290Y-46706800D01*
X65692194Y-50643199D01*
X65692195Y-50643199D01*
X65699999Y-52574999D01*
X65700000Y-52575000D01*
X73374000Y-52575000D01*
X73442121Y-52595002D01*
X73488614Y-52648658D01*
X73500000Y-52701000D01*
X73500000Y-53093700D01*
X73479998Y-53161821D01*
X73426342Y-53208314D01*
X73374000Y-53219700D01*
X72654425Y-53219700D01*
X72654421Y-53219701D01*
X72628891Y-53222662D01*
X72628887Y-53222663D01*
X72524474Y-53268765D01*
X72443767Y-53349472D01*
X72443766Y-53349474D01*
X72397661Y-53453892D01*
X72394700Y-53479416D01*
X72394700Y-53970574D01*
X72394701Y-53970578D01*
X72397662Y-53996108D01*
X72397663Y-53996112D01*
X72443765Y-54100524D01*
X72443766Y-54100525D01*
X72459895Y-54116654D01*
X72485689Y-54163890D01*
X72500280Y-54178481D01*
X72534671Y-54185736D01*
X72628891Y-54227338D01*
X72654421Y-54230300D01*
X73099001Y-54230299D01*
X73167121Y-54250301D01*
X73213614Y-54303956D01*
X73225000Y-54356299D01*
X73225000Y-54393700D01*
X73204998Y-54461821D01*
X73151342Y-54508314D01*
X73099000Y-54519700D01*
X73075556Y-54519700D01*
X73068497Y-54519304D01*
X73054989Y-54517782D01*
X73007693Y-54512453D01*
X73007692Y-54512453D01*
X72980994Y-54517504D01*
X72957572Y-54519700D01*
X72654425Y-54519700D01*
X72654421Y-54519701D01*
X72628891Y-54522662D01*
X72628887Y-54522663D01*
X72534671Y-54564264D01*
X72500280Y-54571518D01*
X72484017Y-54587781D01*
X72476798Y-54612370D01*
X72459897Y-54633343D01*
X72443766Y-54649474D01*
X72397661Y-54753892D01*
X72394700Y-54779416D01*
X72394700Y-54888700D01*
X72374698Y-54956821D01*
X72321042Y-55003314D01*
X72268700Y-55014700D01*
X72247022Y-55014700D01*
X72242395Y-55014759D01*
X72242391Y-55014759D01*
X72142810Y-55032533D01*
X72084201Y-55053288D01*
X71998889Y-55099608D01*
X71998888Y-55099610D01*
X71988723Y-55107409D01*
X71960247Y-55123848D01*
X71930330Y-55136241D01*
X71898553Y-55144756D01*
X71856308Y-55150317D01*
X71832458Y-55151177D01*
X71820074Y-55150448D01*
X71820069Y-55150448D01*
X71791207Y-55150826D01*
X71763784Y-55152400D01*
X71716912Y-55166206D01*
X71645915Y-55166265D01*
X71630421Y-55160604D01*
X71601107Y-55147661D01*
X71601108Y-55147661D01*
X71575583Y-55144700D01*
X71575579Y-55144700D01*
X70543677Y-55144700D01*
X70475556Y-55124698D01*
X70429063Y-55071042D01*
X70427287Y-55066963D01*
X70386192Y-54967750D01*
X70333210Y-54898703D01*
X70307611Y-54832483D01*
X70321876Y-54762935D01*
X70371477Y-54712139D01*
X70433174Y-54696000D01*
X70701000Y-54696000D01*
X70701000Y-54532800D01*
X70721002Y-54464679D01*
X70774658Y-54418186D01*
X70827000Y-54406800D01*
X71083000Y-54406800D01*
X71151121Y-54426802D01*
X71197614Y-54480458D01*
X71209000Y-54532800D01*
X71209000Y-54696000D01*
X71733200Y-54696000D01*
X71733200Y-54629990D01*
X71733199Y-54629985D01*
X71721409Y-54570713D01*
X71676499Y-54503500D01*
X71609286Y-54458590D01*
X71572330Y-54451239D01*
X71509420Y-54418331D01*
X71474288Y-54356636D01*
X71478088Y-54285742D01*
X71502600Y-54244105D01*
X71512971Y-54232398D01*
X71512973Y-54232396D01*
X71590858Y-54084000D01*
X71336489Y-54084000D01*
X71268368Y-54063998D01*
X71221875Y-54010342D01*
X71211771Y-53940068D01*
X71215299Y-53923519D01*
X71221384Y-53902131D01*
X71233895Y-53858160D01*
X71223546Y-53746479D01*
X71220701Y-53736478D01*
X71221299Y-53665484D01*
X71260185Y-53606084D01*
X71325012Y-53577136D01*
X71341892Y-53576000D01*
X71590858Y-53576000D01*
X71512973Y-53427603D01*
X71512968Y-53427597D01*
X71399734Y-53299782D01*
X71399732Y-53299780D01*
X71259200Y-53202777D01*
X71259197Y-53202776D01*
X71099520Y-53142217D01*
X70972543Y-53126800D01*
X70634000Y-53126800D01*
X70634000Y-53404000D01*
X70613998Y-53472121D01*
X70560342Y-53518614D01*
X70508000Y-53530000D01*
X70252000Y-53530000D01*
X70183879Y-53509998D01*
X70137386Y-53456342D01*
X70126000Y-53404000D01*
X70126000Y-53126800D01*
X69787456Y-53126800D01*
X69660479Y-53142217D01*
X69500802Y-53202776D01*
X69500799Y-53202777D01*
X69360267Y-53299780D01*
X69360265Y-53299782D01*
X69247031Y-53427597D01*
X69247026Y-53427603D01*
X69169141Y-53576000D01*
X69423511Y-53576000D01*
X69491632Y-53596002D01*
X69538125Y-53649658D01*
X69548229Y-53719932D01*
X69544701Y-53736481D01*
X69526105Y-53801840D01*
X69526104Y-53801841D01*
X69536453Y-53913520D01*
X69539299Y-53923522D01*
X69538701Y-53994516D01*
X69499815Y-54053916D01*
X69434988Y-54082864D01*
X69418108Y-54084000D01*
X69169142Y-54084000D01*
X69247026Y-54232396D01*
X69247031Y-54232402D01*
X69360265Y-54360217D01*
X69360267Y-54360219D01*
X69500799Y-54457222D01*
X69500804Y-54457225D01*
X69622940Y-54503545D01*
X69679541Y-54546403D01*
X69703986Y-54613059D01*
X69688514Y-54682349D01*
X69638037Y-54732275D01*
X69626480Y-54737765D01*
X69587753Y-54753806D01*
X69587748Y-54753809D01*
X69466693Y-54846698D01*
X69370200Y-54972450D01*
X69312862Y-55014317D01*
X69250529Y-55020195D01*
X69231663Y-55017207D01*
X69215833Y-55014700D01*
X68500600Y-55014700D01*
X68500597Y-55014700D01*
X68481693Y-55016188D01*
X68452055Y-55018521D01*
X68452050Y-55018521D01*
X68452047Y-55018522D01*
X68452048Y-55018522D01*
X68420973Y-55023444D01*
X68390123Y-55029951D01*
X68287122Y-55078887D01*
X68236822Y-55115432D01*
X68178668Y-55170447D01*
X68178666Y-55170449D01*
X68124100Y-55270580D01*
X68124097Y-55270587D01*
X68104888Y-55329705D01*
X68089700Y-55425603D01*
X68089700Y-63599000D01*
X68069698Y-63667121D01*
X68016042Y-63713614D01*
X67963700Y-63725000D01*
X63575000Y-63725000D01*
X63574998Y-63724998D01*
X63565409Y-63701843D01*
X63567510Y-63700972D01*
X63553378Y-63675091D01*
X63550500Y-63648317D01*
X63550500Y-62216000D01*
X65139141Y-62216000D01*
X65393511Y-62216000D01*
X65461632Y-62236002D01*
X65508125Y-62289658D01*
X65518229Y-62359932D01*
X65514701Y-62376481D01*
X65496105Y-62441840D01*
X65496104Y-62441841D01*
X65506453Y-62553520D01*
X65509299Y-62563522D01*
X65508701Y-62634516D01*
X65469815Y-62693916D01*
X65404988Y-62722864D01*
X65388108Y-62724000D01*
X65139142Y-62724000D01*
X65217026Y-62872396D01*
X65217031Y-62872402D01*
X65330265Y-63000217D01*
X65330267Y-63000219D01*
X65470799Y-63097222D01*
X65470802Y-63097223D01*
X65630479Y-63157782D01*
X65757456Y-63173199D01*
X65757467Y-63173200D01*
X65946000Y-63173200D01*
X65946000Y-62896000D01*
X65966002Y-62827879D01*
X66019658Y-62781386D01*
X66072000Y-62770000D01*
X66328000Y-62770000D01*
X66396121Y-62790002D01*
X66442614Y-62843658D01*
X66454000Y-62896000D01*
X66454000Y-63173200D01*
X66642533Y-63173200D01*
X66642543Y-63173199D01*
X66769520Y-63157782D01*
X66929197Y-63097223D01*
X66929200Y-63097222D01*
X67069732Y-63000219D01*
X67069734Y-63000217D01*
X67182968Y-62872402D01*
X67182973Y-62872396D01*
X67260858Y-62724000D01*
X67006489Y-62724000D01*
X66938368Y-62703998D01*
X66891875Y-62650342D01*
X66881771Y-62580068D01*
X66885299Y-62563519D01*
X66894428Y-62531433D01*
X66903895Y-62498160D01*
X66903138Y-62489995D01*
X66893546Y-62386479D01*
X66890701Y-62376478D01*
X66891299Y-62305484D01*
X66930185Y-62246084D01*
X66995012Y-62217136D01*
X67011892Y-62216000D01*
X67260858Y-62216000D01*
X67182973Y-62067603D01*
X67182968Y-62067597D01*
X67069734Y-61939782D01*
X67069732Y-61939780D01*
X66929200Y-61842777D01*
X66929197Y-61842776D01*
X66769520Y-61782217D01*
X66642543Y-61766800D01*
X66454000Y-61766800D01*
X66454000Y-62044000D01*
X66433998Y-62112121D01*
X66380342Y-62158614D01*
X66328000Y-62170000D01*
X66072000Y-62170000D01*
X66003879Y-62149998D01*
X65957386Y-62096342D01*
X65946000Y-62044000D01*
X65946000Y-61766800D01*
X65757456Y-61766800D01*
X65630479Y-61782217D01*
X65470802Y-61842776D01*
X65470799Y-61842777D01*
X65330267Y-61939780D01*
X65330265Y-61939782D01*
X65217031Y-62067597D01*
X65217026Y-62067603D01*
X65139141Y-62216000D01*
X63550500Y-62216000D01*
X63550500Y-53576000D01*
X65139141Y-53576000D01*
X65393511Y-53576000D01*
X65461632Y-53596002D01*
X65508125Y-53649658D01*
X65518229Y-53719932D01*
X65514701Y-53736481D01*
X65496105Y-53801840D01*
X65496104Y-53801841D01*
X65506453Y-53913520D01*
X65509299Y-53923522D01*
X65508701Y-53994516D01*
X65469815Y-54053916D01*
X65404988Y-54082864D01*
X65388108Y-54084000D01*
X65139142Y-54084000D01*
X65217026Y-54232396D01*
X65217031Y-54232402D01*
X65330265Y-54360217D01*
X65330267Y-54360219D01*
X65470799Y-54457222D01*
X65470802Y-54457223D01*
X65630479Y-54517782D01*
X65757456Y-54533199D01*
X65757467Y-54533200D01*
X65946000Y-54533200D01*
X65946000Y-54256000D01*
X65966002Y-54187879D01*
X66019658Y-54141386D01*
X66072000Y-54130000D01*
X66328000Y-54130000D01*
X66396121Y-54150002D01*
X66442614Y-54203658D01*
X66454000Y-54256000D01*
X66454000Y-54533200D01*
X66642533Y-54533200D01*
X66642543Y-54533199D01*
X66769520Y-54517782D01*
X66929197Y-54457223D01*
X66929200Y-54457222D01*
X67069732Y-54360219D01*
X67069734Y-54360217D01*
X67182968Y-54232402D01*
X67182973Y-54232396D01*
X67260858Y-54084000D01*
X67006489Y-54084000D01*
X66938368Y-54063998D01*
X66891875Y-54010342D01*
X66881771Y-53940068D01*
X66885299Y-53923519D01*
X66891384Y-53902131D01*
X66903895Y-53858160D01*
X66893546Y-53746479D01*
X66890701Y-53736478D01*
X66891299Y-53665484D01*
X66930185Y-53606084D01*
X66995012Y-53577136D01*
X67011892Y-53576000D01*
X67260858Y-53576000D01*
X67182973Y-53427603D01*
X67182968Y-53427597D01*
X67069734Y-53299782D01*
X67069732Y-53299780D01*
X66929200Y-53202777D01*
X66929197Y-53202776D01*
X66769520Y-53142217D01*
X66642543Y-53126800D01*
X66454000Y-53126800D01*
X66454000Y-53404000D01*
X66433998Y-53472121D01*
X66380342Y-53518614D01*
X66328000Y-53530000D01*
X66072000Y-53530000D01*
X66003879Y-53509998D01*
X65957386Y-53456342D01*
X65946000Y-53404000D01*
X65946000Y-53126800D01*
X65757456Y-53126800D01*
X65630479Y-53142217D01*
X65470802Y-53202776D01*
X65470799Y-53202777D01*
X65330267Y-53299780D01*
X65330265Y-53299782D01*
X65217031Y-53427597D01*
X65217026Y-53427603D01*
X65139141Y-53576000D01*
X63550500Y-53576000D01*
X63550500Y-48929000D01*
X64421800Y-48929000D01*
X64421800Y-50420014D01*
X64433590Y-50479286D01*
X64478500Y-50546499D01*
X64545713Y-50591409D01*
X64604985Y-50603199D01*
X64604991Y-50603200D01*
X65296000Y-50603200D01*
X65296000Y-48929000D01*
X64421800Y-48929000D01*
X63550500Y-48929000D01*
X63550500Y-48421000D01*
X64421800Y-48421000D01*
X65296000Y-48421000D01*
X65296000Y-46746800D01*
X64604985Y-46746800D01*
X64545713Y-46758590D01*
X64478500Y-46803500D01*
X64433590Y-46870713D01*
X64421800Y-46929985D01*
X64421800Y-48421000D01*
X63550500Y-48421000D01*
X63550500Y-46429465D01*
X63570502Y-46361345D01*
X63624158Y-46314852D01*
X63676961Y-46303468D01*
X65549665Y-46310403D01*
G37*
%TD.AperFunction*%
%TA.AperFunction,Conductor*%
G36*
X71798864Y-61803324D02*
G01*
X71804702Y-61807158D01*
X71815813Y-61814903D01*
X71815824Y-61814910D01*
X71871934Y-61841672D01*
X71871933Y-61841672D01*
X71871937Y-61841673D01*
X71871939Y-61841674D01*
X71895862Y-61848760D01*
X71965021Y-61869245D01*
X71983845Y-61871723D01*
X72048549Y-61880240D01*
X72080317Y-61888752D01*
X72110245Y-61901148D01*
X72138727Y-61917593D01*
X72164424Y-61937310D01*
X72187683Y-61960567D01*
X72201891Y-61979083D01*
X72207401Y-61986263D01*
X72223844Y-62014744D01*
X72236243Y-62044675D01*
X72244756Y-62076446D01*
X72248982Y-62108549D01*
X72248982Y-62141439D01*
X72244754Y-62173557D01*
X72236240Y-62205331D01*
X72223848Y-62235247D01*
X72207402Y-62263733D01*
X72187685Y-62289428D01*
X72164428Y-62312685D01*
X72138734Y-62332401D01*
X72110249Y-62348847D01*
X72080326Y-62361242D01*
X72048553Y-62369756D01*
X72016448Y-62373983D01*
X71983557Y-62373983D01*
X71937878Y-62367969D01*
X71917075Y-62363416D01*
X71893303Y-62356059D01*
X71857065Y-62348427D01*
X71849035Y-62347273D01*
X71817251Y-62342705D01*
X71737325Y-62351285D01*
X71667458Y-62338668D01*
X71615504Y-62290281D01*
X71601538Y-62256158D01*
X71592333Y-62218811D01*
X71592330Y-62218804D01*
X71512975Y-62067606D01*
X71512968Y-62067597D01*
X71502598Y-62055891D01*
X71472398Y-61991638D01*
X71481730Y-61921258D01*
X71527631Y-61867095D01*
X71572332Y-61848760D01*
X71609284Y-61841410D01*
X71662644Y-61805756D01*
X71730397Y-61784541D01*
X71798864Y-61803324D01*
G37*
%TD.AperFunction*%
%TA.AperFunction,Conductor*%
G36*
X71151121Y-61175301D02*
G01*
X71197614Y-61228957D01*
X71209000Y-61281299D01*
X71209000Y-61478000D01*
X71188998Y-61546121D01*
X71135342Y-61592614D01*
X71083000Y-61604000D01*
X70433174Y-61604000D01*
X70365053Y-61583998D01*
X70318560Y-61530342D01*
X70308456Y-61460068D01*
X70333211Y-61401296D01*
X70345564Y-61385197D01*
X70386192Y-61332250D01*
X70427269Y-61233080D01*
X70471818Y-61177800D01*
X70539181Y-61155379D01*
X70543678Y-61155299D01*
X71083000Y-61155299D01*
X71151121Y-61175301D01*
G37*
%TD.AperFunction*%
%TD*%
%TA.AperFunction,Conductor*%
%TO.N,GND*%
G36*
X128617121Y-80595002D02*
G01*
X128663614Y-80648658D01*
X128675000Y-80701000D01*
X128675000Y-84174000D01*
X128654998Y-84242121D01*
X128601342Y-84288614D01*
X128549000Y-84300000D01*
X123451000Y-84300000D01*
X123382879Y-84279998D01*
X123336386Y-84226342D01*
X123325000Y-84174000D01*
X123325000Y-82654000D01*
X124096800Y-82654000D01*
X124096800Y-83345014D01*
X124108590Y-83404286D01*
X124153500Y-83471499D01*
X124220713Y-83516409D01*
X124279985Y-83528199D01*
X124279991Y-83528200D01*
X125771000Y-83528200D01*
X125771000Y-82654000D01*
X126279000Y-82654000D01*
X126279000Y-83528200D01*
X127770009Y-83528200D01*
X127770014Y-83528199D01*
X127829286Y-83516409D01*
X127896499Y-83471499D01*
X127941409Y-83404286D01*
X127953199Y-83345014D01*
X127953200Y-83345009D01*
X127953200Y-82654000D01*
X126279000Y-82654000D01*
X125771000Y-82654000D01*
X124096800Y-82654000D01*
X123325000Y-82654000D01*
X123325000Y-82146000D01*
X124096800Y-82146000D01*
X125771000Y-82146000D01*
X125771000Y-81271800D01*
X126279000Y-81271800D01*
X126279000Y-82146000D01*
X127953200Y-82146000D01*
X127953200Y-81454990D01*
X127953199Y-81454985D01*
X127941409Y-81395713D01*
X127896499Y-81328500D01*
X127829286Y-81283590D01*
X127770014Y-81271800D01*
X126279000Y-81271800D01*
X125771000Y-81271800D01*
X124279985Y-81271800D01*
X124220713Y-81283590D01*
X124153500Y-81328500D01*
X124108590Y-81395713D01*
X124096800Y-81454985D01*
X124096800Y-82146000D01*
X123325000Y-82146000D01*
X123325000Y-80701000D01*
X123345002Y-80632879D01*
X123398658Y-80586386D01*
X123451000Y-80575000D01*
X128549000Y-80575000D01*
X128617121Y-80595002D01*
G37*
%TD.AperFunction*%
%TD*%
%TA.AperFunction,Conductor*%
%TO.N,GND*%
G36*
X127767121Y-35095002D02*
G01*
X127813614Y-35148658D01*
X127825000Y-35201000D01*
X127825000Y-38674000D01*
X127804998Y-38742121D01*
X127751342Y-38788614D01*
X127699000Y-38800000D01*
X122601000Y-38800000D01*
X122532879Y-38779998D01*
X122486386Y-38726342D01*
X122475000Y-38674000D01*
X122475000Y-37354000D01*
X123171800Y-37354000D01*
X123171800Y-38045014D01*
X123183590Y-38104286D01*
X123228500Y-38171499D01*
X123295713Y-38216409D01*
X123354985Y-38228199D01*
X123354991Y-38228200D01*
X124846000Y-38228200D01*
X124846000Y-37354000D01*
X125354000Y-37354000D01*
X125354000Y-38228200D01*
X126845009Y-38228200D01*
X126845014Y-38228199D01*
X126904286Y-38216409D01*
X126971499Y-38171499D01*
X127016409Y-38104286D01*
X127028199Y-38045014D01*
X127028200Y-38045009D01*
X127028200Y-37354000D01*
X125354000Y-37354000D01*
X124846000Y-37354000D01*
X123171800Y-37354000D01*
X122475000Y-37354000D01*
X122475000Y-36846000D01*
X123171800Y-36846000D01*
X124846000Y-36846000D01*
X124846000Y-35971800D01*
X125354000Y-35971800D01*
X125354000Y-36846000D01*
X127028200Y-36846000D01*
X127028200Y-36154990D01*
X127028199Y-36154985D01*
X127016409Y-36095713D01*
X126971499Y-36028500D01*
X126904286Y-35983590D01*
X126845014Y-35971800D01*
X125354000Y-35971800D01*
X124846000Y-35971800D01*
X123354985Y-35971800D01*
X123295713Y-35983590D01*
X123228500Y-36028500D01*
X123183590Y-36095713D01*
X123171800Y-36154985D01*
X123171800Y-36846000D01*
X122475000Y-36846000D01*
X122475000Y-35201000D01*
X122495002Y-35132879D01*
X122548658Y-35086386D01*
X122601000Y-35075000D01*
X127699000Y-35075000D01*
X127767121Y-35095002D01*
G37*
%TD.AperFunction*%
%TD*%
%TA.AperFunction,Conductor*%
%TO.N,+3V3*%
G36*
X66893039Y-39194685D02*
G01*
X66938794Y-39247489D01*
X66950000Y-39299000D01*
X66950000Y-39839566D01*
X66930315Y-39906605D01*
X66877511Y-39952360D01*
X66808353Y-39962304D01*
X66751691Y-39938834D01*
X66742092Y-39931649D01*
X66742086Y-39931645D01*
X66607379Y-39881403D01*
X66607372Y-39881401D01*
X66547844Y-39875000D01*
X65825000Y-39875000D01*
X65825000Y-44325000D01*
X66547828Y-44325000D01*
X66547844Y-44324999D01*
X66607372Y-44318598D01*
X66607379Y-44318596D01*
X66742086Y-44268354D01*
X66742089Y-44268352D01*
X66751688Y-44261167D01*
X66817151Y-44236749D01*
X66885425Y-44251600D01*
X66934831Y-44301004D01*
X66950000Y-44360433D01*
X66949999Y-45066186D01*
X66948753Y-45083721D01*
X66940209Y-45143535D01*
X66911242Y-45207117D01*
X66852499Y-45244945D01*
X66817455Y-45250000D01*
X64249000Y-45250000D01*
X64181961Y-45230315D01*
X64136206Y-45177511D01*
X64125000Y-45126000D01*
X64125000Y-44304287D01*
X64144685Y-44237248D01*
X64197489Y-44191493D01*
X64266647Y-44181549D01*
X64323312Y-44205021D01*
X64407910Y-44268352D01*
X64407913Y-44268354D01*
X64542620Y-44318596D01*
X64542627Y-44318598D01*
X64602155Y-44324999D01*
X64602172Y-44325000D01*
X65325000Y-44325000D01*
X65325000Y-39875000D01*
X64602155Y-39875000D01*
X64542627Y-39881401D01*
X64542620Y-39881403D01*
X64407913Y-39931645D01*
X64407906Y-39931649D01*
X64323311Y-39994978D01*
X64257847Y-40019396D01*
X64189574Y-40004545D01*
X64140168Y-39955140D01*
X64125000Y-39895712D01*
X64125000Y-39299000D01*
X64144685Y-39231961D01*
X64197489Y-39186206D01*
X64249000Y-39175000D01*
X66826000Y-39175000D01*
X66893039Y-39194685D01*
G37*
%TD.AperFunction*%
%TD*%
M02*
