M48
; DRILL file {KiCad 7.0.7} date Sun Oct 22 12:38:50 2023
; FORMAT={-:-/ absolute / inch / decimal}
; #@! TF.CreationDate,2023-10-22T12:38:50-05:00
; #@! TF.GenerationSoftware,Kicad,Pcbnew,7.0.7
; #@! TF.FileFunction,Plated,1,4,PTH
FMAT,2
INCH
; #@! TA.AperFunction,Plated,PTH,ViaDrill
T1C0.0098
; #@! TA.AperFunction,Plated,PTH,ComponentDrill
T2C0.0236
; #@! TA.AperFunction,Plated,PTH,ComponentDrill
T3C0.0394
%
G90
G05
T1
X2.5472Y-1.565
X2.5472Y-1.7598
X2.5492Y-3.1467
X2.561Y-2.6831
X2.563Y-2.9862
X2.5896Y-3.31
X2.6063Y-3.187
X2.6122Y-1.564
X2.6122Y-1.7598
X2.6457Y-2.562
X2.6506Y-2.8563
X2.6535Y-3.311
X2.6703Y-1.4488
X2.7234Y-3.2146
X2.7402Y-2.3346
X2.7569Y-2.2411
X2.7628Y-1.4232
X2.8287Y-2.1614
X2.8346Y-2.4459
X2.8514Y-3.311
X2.8878Y-2.6024
X2.8888Y-1.4498
X2.9114Y-2.8691
X2.9114Y-3.0679
X2.9478Y-2.8681
X2.9478Y-3.0679
X2.9744Y-2.6033
X2.9843Y-2.8681
X2.9843Y-3.0679
X3.002Y-2.7264
X3.0167Y-2.8957
X3.0167Y-2.9321
X3.0167Y-2.9685
X3.0167Y-3.0049
X3.0167Y-3.0413
X3.0364Y-2.3711
X3.0472Y-3.311
X3.085Y-2.4872
X3.0856Y-2.3415
X3.0915Y-2.5472
X3.1033Y-1.4469
X3.1093Y-2.7923
X3.1161Y-2.4252
X3.1191Y-2.313
X3.1329Y-2.8356
X3.1329Y-2.872
X3.1414Y-2.2902
X3.1427Y-2.3898
X3.1472Y-2.6158
X3.1949Y-2.5217
X3.2037Y-2.0984
X3.2096Y-2.3415
X3.2146Y-2.2087
X3.2411Y-2.685
X3.252Y-2.3789
X3.2628Y-2.6427
X3.2657Y-2.8366
X3.2657Y-2.873
X3.2759Y-2.2464
X3.2825Y-2.8051
X3.2844Y-2.3327
X3.2894Y-2.4134
X3.2913Y-2.6201
X3.31Y-1.3022
X3.3189Y-2.8051
X3.3199Y-2.6427
X3.3396Y-2.0974
X3.3396Y-2.2776
X3.3396Y-2.3878
X3.3484Y-2.6201
X3.3563Y-2.8051
X3.376Y-2.6447
X3.376Y-2.873
X3.377Y-2.8356
X3.3809Y-2.9764
X3.3819Y-2.9331
X3.3888Y-2.251
X3.3927Y-2.4085
X3.3957Y-2.3327
X3.4006Y-2.5837
X3.4035Y-2.6211
X3.4188Y-2.3677
X3.439Y-2.5148
X3.4449Y-2.5886
X3.4478Y-3.2106
X3.4626Y-2.5541
X3.5069Y-2.2274
X3.5276Y-1.9793
X3.5531Y-2.5413
X3.5531Y-2.7579
X3.5778Y-2.0069
X3.6033Y-2.7835
X3.6281Y-2.0305
X3.6585Y-2.3494
X3.6594Y-2.2943
X3.6594Y-2.248
X3.686Y-1.9459
X3.6909Y-2.2717
X3.6909Y-2.3238
X3.6909Y-2.372
X3.7281Y-2.0522
X3.7579Y-2.7579
X3.7608Y-1.6516
X3.7667Y-1.9557
X3.7717Y-2.5945
X3.8022Y-2.8819
X3.8228Y-2.0787
X3.872Y-2.4272
X3.9055Y-2.7293
X3.9281Y-2.1024
X3.9724Y-2.4272
X3.9843Y-1.7392
X4.0281Y-2.124
X4.0581Y-1.7402
X4.0768Y-2.4685
X4.0846Y-1.8839
X4.0856Y-2.06
X4.0876Y-2.6703
X4.1122Y-1.6073
X4.1281Y-2.209
X4.1555Y-2.8563
X4.1732Y-2.6368
X4.1919Y-1.877
X4.2025Y-1.7097
X4.2281Y-2.2402
X4.2539Y-2.6358
X4.3281Y-2.2392
X4.3839Y-2.122
X4.3848Y-2.0709
X4.4291Y-1.5748
X4.4528Y-2.5354
X4.4705Y-2.4734
X4.4862Y-3.3474
X4.498Y-1.6339
X4.5128Y-3.375
X4.5413Y-1.6447
X4.5413Y-1.749
X4.5413Y-1.8543
X4.5413Y-1.9587
X4.5413Y-2.064
X4.5413Y-2.1683
X4.5413Y-2.5118
X4.5413Y-2.6161
X4.5413Y-2.7205
X4.5413Y-2.8258
X4.5413Y-2.9321
X4.5413Y-3.0354
X4.7165Y-3.2441
X4.7175Y-3.1417
X4.7215Y-1.436
X4.7215Y-1.5413
X4.812Y-2.0217
X4.812Y-3.1024
X4.8346Y-1.4596
X4.8691Y-3.2441
X4.8799Y-1.937
X4.9222Y-3.0581
X4.9252Y-1.3937
X4.9252Y-1.5157
X4.9616Y-3.186
X4.9616Y-3.3051
X5.0138Y-1.4606
X5.0354Y-1.6506
X5.0364Y-2.7392
X5.0522Y-3.2431
X5.4291Y-3.0738
X5.4291Y-3.1939
T3
X2.7943Y-2.7262
X2.7943Y-2.8262
X2.7943Y-2.9262
X3.5272Y-3.2175
X3.5272Y-3.3175
X3.5281Y-1.2878
X3.5281Y-1.3878
X3.6272Y-3.2175
X3.6272Y-3.3175
X3.6281Y-1.2878
X3.6281Y-1.3878
X3.7272Y-3.2175
X3.7272Y-3.3175
X3.7281Y-1.2878
X3.7281Y-1.3878
X3.8272Y-3.2175
X3.8272Y-3.3175
X3.8281Y-1.2878
X3.8281Y-1.3878
X3.9272Y-3.2175
X3.9272Y-3.3175
X3.9281Y-1.2878
X3.9281Y-1.3878
X4.0272Y-3.2175
X4.0272Y-3.3175
X4.0281Y-1.2878
X4.0281Y-1.3878
X4.1272Y-3.2175
X4.1272Y-3.3175
X4.1281Y-1.2878
X4.1281Y-1.3878
X4.2272Y-3.2175
X4.2272Y-3.3175
X4.2281Y-1.2878
X4.2281Y-1.3878
X4.3272Y-3.2175
X4.3272Y-3.3175
X4.3281Y-1.2878
X4.3281Y-1.3878
X4.4272Y-3.2175
X4.4272Y-3.3175
X4.4281Y-1.2878
X4.4281Y-1.3878
X5.5335Y-1.7106
X5.5335Y-1.8106
X5.5335Y-1.9106
X5.5335Y-2.0106
X5.5335Y-2.1106
X5.5335Y-2.2106
X5.5335Y-2.3106
X5.5335Y-2.4106
X5.5335Y-2.5106
X5.5335Y-2.6106
X5.5335Y-2.7106
X5.5335Y-2.8106
X5.6299Y-3.0323
X5.6299Y-3.1323
X5.6299Y-3.2323
X5.6335Y-1.7106
X5.6335Y-1.8106
X5.6335Y-1.9106
X5.6335Y-2.0106
X5.6335Y-2.1106
X5.6335Y-2.2106
X5.6335Y-2.3106
X5.6335Y-2.4106
X5.6335Y-2.5106
X5.6335Y-2.6106
X5.6335Y-2.7106
X5.6335Y-2.8106
T2
G00X2.622Y-2.1193
M15
G01X2.5906Y-2.1193
M16
G05
G00X2.622Y-2.4594
M15
G01X2.5906Y-2.4594
M16
G05
G00X2.7925Y-2.1193
M15
G01X2.7492Y-2.1193
M16
G05
G00X2.7925Y-2.4594
M15
G01X2.7492Y-2.4594
M16
G05
T0
M30
