%TF.GenerationSoftware,KiCad,Pcbnew,7.0.7*%
%TF.CreationDate,2023-10-22T12:37:57-05:00*%
%TF.ProjectId,state mode logic analyzer,73746174-6520-46d6-9f64-65206c6f6769,1*%
%TF.SameCoordinates,Original*%
%TF.FileFunction,Soldermask,Bot*%
%TF.FilePolarity,Negative*%
%FSLAX46Y46*%
G04 Gerber Fmt 4.6, Leading zero omitted, Abs format (unit mm)*
G04 Created by KiCad (PCBNEW 7.0.7) date 2023-10-22 12:37:57*
%MOMM*%
%LPD*%
G01*
G04 APERTURE LIST*
G04 Aperture macros list*
%AMRoundRect*
0 Rectangle with rounded corners*
0 $1 Rounding radius*
0 $2 $3 $4 $5 $6 $7 $8 $9 X,Y pos of 4 corners*
0 Add a 4 corners polygon primitive as box body*
4,1,4,$2,$3,$4,$5,$6,$7,$8,$9,$2,$3,0*
0 Add four circle primitives for the rounded corners*
1,1,$1+$1,$2,$3*
1,1,$1+$1,$4,$5*
1,1,$1+$1,$6,$7*
1,1,$1+$1,$8,$9*
0 Add four rect primitives between the rounded corners*
20,1,$1+$1,$2,$3,$4,$5,0*
20,1,$1+$1,$4,$5,$6,$7,0*
20,1,$1+$1,$6,$7,$8,$9,0*
20,1,$1+$1,$8,$9,$2,$3,0*%
G04 Aperture macros list end*
%ADD10C,2.700000*%
%ADD11R,1.700000X1.700000*%
%ADD12O,1.700000X1.700000*%
%ADD13C,0.650000*%
%ADD14O,2.100000X1.000000*%
%ADD15O,1.800000X1.000000*%
%ADD16RoundRect,0.237500X0.300000X0.237500X-0.300000X0.237500X-0.300000X-0.237500X0.300000X-0.237500X0*%
%ADD17RoundRect,0.237500X0.250000X0.237500X-0.250000X0.237500X-0.250000X-0.237500X0.250000X-0.237500X0*%
%ADD18RoundRect,0.237500X0.237500X-0.300000X0.237500X0.300000X-0.237500X0.300000X-0.237500X-0.300000X0*%
%ADD19RoundRect,0.237500X0.044194X0.380070X-0.380070X-0.044194X-0.044194X-0.380070X0.380070X0.044194X0*%
%ADD20RoundRect,0.250000X0.475000X-0.250000X0.475000X0.250000X-0.475000X0.250000X-0.475000X-0.250000X0*%
%ADD21RoundRect,0.250000X-0.475000X0.250000X-0.475000X-0.250000X0.475000X-0.250000X0.475000X0.250000X0*%
G04 APERTURE END LIST*
D10*
%TO.C,H1*%
X138750000Y-33975000D03*
%TD*%
%TO.C,H2*%
X71500000Y-42975000D03*
%TD*%
D11*
%TO.C,J6*%
X143000000Y-82100000D03*
D12*
X143000000Y-79560000D03*
X143000000Y-77020000D03*
%TD*%
D13*
%TO.C,J1*%
X69880000Y-55260000D03*
X69880000Y-61040000D03*
D14*
X70380000Y-53830000D03*
D15*
X66200000Y-53830000D03*
D14*
X70380000Y-62470000D03*
D15*
X66200000Y-62470000D03*
%TD*%
D10*
%TO.C,H3*%
X124975000Y-66250000D03*
%TD*%
D11*
%TO.C,J5*%
X140550000Y-43450000D03*
D12*
X143090000Y-43450000D03*
X140550000Y-45990000D03*
X143090000Y-45990000D03*
X140550000Y-48530000D03*
X143090000Y-48530000D03*
X140550000Y-51070000D03*
X143090000Y-51070000D03*
X140550000Y-53610000D03*
X143090000Y-53610000D03*
X140550000Y-56150000D03*
X143090000Y-56150000D03*
X140550000Y-58690000D03*
X143090000Y-58690000D03*
X140550000Y-61230000D03*
X143090000Y-61230000D03*
X140550000Y-63770000D03*
X143090000Y-63770000D03*
X140550000Y-66310000D03*
X143090000Y-66310000D03*
X140550000Y-68850000D03*
X143090000Y-68850000D03*
X140550000Y-71390000D03*
X143090000Y-71390000D03*
%TD*%
D11*
%TO.C,J3*%
X112450000Y-81725000D03*
D12*
X112450000Y-84265000D03*
X109910000Y-81725000D03*
X109910000Y-84265000D03*
X107370000Y-81725000D03*
X107370000Y-84265000D03*
X104830000Y-81725000D03*
X104830000Y-84265000D03*
X102290000Y-81725000D03*
X102290000Y-84265000D03*
X99750000Y-81725000D03*
X99750000Y-84265000D03*
X97210000Y-81725000D03*
X97210000Y-84265000D03*
X94670000Y-81725000D03*
X94670000Y-84265000D03*
X92130000Y-81725000D03*
X92130000Y-84265000D03*
X89590000Y-81725000D03*
X89590000Y-84265000D03*
%TD*%
D11*
%TO.C,J2*%
X70975000Y-74325000D03*
D12*
X70975000Y-71785000D03*
X70975000Y-69245000D03*
%TD*%
D11*
%TO.C,J4*%
X112475000Y-35250000D03*
D12*
X112475000Y-32710000D03*
X109935000Y-35250000D03*
X109935000Y-32710000D03*
X107395000Y-35250000D03*
X107395000Y-32710000D03*
X104855000Y-35250000D03*
X104855000Y-32710000D03*
X102315000Y-35250000D03*
X102315000Y-32710000D03*
X99775000Y-35250000D03*
X99775000Y-32710000D03*
X97235000Y-35250000D03*
X97235000Y-32710000D03*
X94695000Y-35250000D03*
X94695000Y-32710000D03*
X92155000Y-35250000D03*
X92155000Y-32710000D03*
X89615000Y-35250000D03*
X89615000Y-32710000D03*
%TD*%
D16*
%TO.C,C11*%
X81950000Y-55550000D03*
X80225000Y-55550000D03*
%TD*%
D17*
%TO.C,R23*%
X69187500Y-56950000D03*
X67362500Y-56950000D03*
%TD*%
D18*
%TO.C,C7*%
X88550000Y-55362500D03*
X88550000Y-53637500D03*
%TD*%
D16*
%TO.C,C8*%
X86287500Y-62050000D03*
X84562500Y-62050000D03*
%TD*%
D19*
%TO.C,C9*%
X79734880Y-59365120D03*
X78515120Y-60584880D03*
%TD*%
D20*
%TO.C,C12*%
X87750000Y-59525000D03*
X87750000Y-57625000D03*
%TD*%
D21*
%TO.C,C10*%
X84800000Y-54150000D03*
X84800000Y-56050000D03*
%TD*%
D17*
%TO.C,R24*%
X69187500Y-59900000D03*
X67362500Y-59900000D03*
%TD*%
M02*
