%TF.GenerationSoftware,KiCad,Pcbnew,8.0.5*%
%TF.CreationDate,2024-11-11T11:07:53-06:00*%
%TF.ProjectId,buffer_breakout_board,62756666-6572-45f6-9272-65616b6f7574,rev?*%
%TF.SameCoordinates,Original*%
%TF.FileFunction,Legend,Bot*%
%TF.FilePolarity,Positive*%
%FSLAX46Y46*%
G04 Gerber Fmt 4.6, Leading zero omitted, Abs format (unit mm)*
G04 Created by KiCad (PCBNEW 8.0.5) date 2024-11-11 11:07:53*
%MOMM*%
%LPD*%
G01*
G04 APERTURE LIST*
%ADD10C,0.000000*%
G04 APERTURE END LIST*
D10*
%TO.C,kibuzzard-67318B48*%
G36*
X154951436Y-91423375D02*
G01*
X154599255Y-91423375D01*
X154678415Y-91363601D01*
X154766460Y-91303019D01*
X154859352Y-91245669D01*
X154951436Y-91197204D01*
X154951436Y-91423375D01*
G37*
G36*
X150859352Y-88290903D02*
G01*
X150800386Y-88282826D01*
X150749498Y-88256977D01*
X150713149Y-88211743D01*
X150699417Y-88143892D01*
X150712341Y-88076848D01*
X150747882Y-88029998D01*
X150799578Y-88000919D01*
X150859352Y-87987187D01*
X150859352Y-88290903D01*
G37*
G36*
X150859352Y-92329675D02*
G01*
X150800386Y-92321598D01*
X150749498Y-92295750D01*
X150713149Y-92250515D01*
X150699417Y-92182664D01*
X150712341Y-92115620D01*
X150747882Y-92068771D01*
X150799578Y-92039691D01*
X150859352Y-92025960D01*
X150859352Y-92329675D01*
G37*
G36*
X152878738Y-89098658D02*
G01*
X152819772Y-89090580D01*
X152768884Y-89064732D01*
X152732535Y-89019498D01*
X152718803Y-88951646D01*
X152731727Y-88884603D01*
X152767268Y-88837753D01*
X152818964Y-88808674D01*
X152878738Y-88794942D01*
X152878738Y-89098658D01*
G37*
G36*
X152878738Y-93137430D02*
G01*
X152819772Y-93129352D01*
X152768884Y-93103504D01*
X152732535Y-93058270D01*
X152718803Y-92990418D01*
X152731727Y-92923375D01*
X152767268Y-92876525D01*
X152818964Y-92847446D01*
X152878738Y-92833714D01*
X152878738Y-93137430D01*
G37*
G36*
X152878738Y-93945184D02*
G01*
X152819772Y-93937107D01*
X152768884Y-93911258D01*
X152732535Y-93866024D01*
X152718803Y-93798173D01*
X152731727Y-93731129D01*
X152767268Y-93684279D01*
X152818964Y-93655200D01*
X152878738Y-93641468D01*
X152878738Y-93945184D01*
G37*
G36*
X154898124Y-85867640D02*
G01*
X154839158Y-85859562D01*
X154788270Y-85833714D01*
X154751921Y-85788480D01*
X154738189Y-85720628D01*
X154751113Y-85653585D01*
X154786654Y-85606735D01*
X154838351Y-85577656D01*
X154898124Y-85563924D01*
X154898124Y-85867640D01*
G37*
G36*
X151147721Y-92883795D02*
G01*
X151169530Y-92983956D01*
X151168722Y-93046961D01*
X151164683Y-93100273D01*
X150990208Y-93100273D01*
X150984554Y-93053423D01*
X150982131Y-93003342D01*
X150986170Y-92943569D01*
X150999901Y-92892680D01*
X151027365Y-92857947D01*
X151074215Y-92845023D01*
X151147721Y-92883795D01*
G37*
G36*
X153009796Y-90418932D02*
G01*
X153070176Y-90444376D01*
X153119449Y-90551000D01*
X153111372Y-90611582D01*
X153090370Y-90662470D01*
X152725265Y-90662470D01*
X152718803Y-90622082D01*
X152717187Y-90584926D01*
X152740523Y-90487995D01*
X152810528Y-90429837D01*
X152927204Y-90410451D01*
X153009796Y-90418932D01*
G37*
G36*
X153167107Y-86421759D02*
G01*
X153188916Y-86521921D01*
X153188108Y-86584926D01*
X153184069Y-86638237D01*
X153009595Y-86638237D01*
X153003940Y-86591388D01*
X153001517Y-86541307D01*
X153005556Y-86481533D01*
X153019288Y-86430645D01*
X153046751Y-86395911D01*
X153093601Y-86382987D01*
X153167107Y-86421759D01*
G37*
G36*
X152995055Y-84942761D02*
G01*
X153053213Y-84958108D01*
X153096024Y-84989611D01*
X153112987Y-85042115D01*
X153108141Y-85087349D01*
X152785039Y-85087349D01*
X152780192Y-85063116D01*
X152778577Y-85040499D01*
X152792309Y-84990418D01*
X152827850Y-84959724D01*
X152877123Y-84943569D01*
X152932050Y-84938722D01*
X152995055Y-84942761D01*
G37*
G36*
X151156606Y-84847446D02*
G01*
X151158221Y-84890257D01*
X151145095Y-84959724D01*
X151105717Y-85013036D01*
X151034837Y-85046961D01*
X150927204Y-85058270D01*
X150833100Y-85049586D01*
X150764037Y-85023536D01*
X150721630Y-84979716D01*
X150707494Y-84917721D01*
X150716380Y-84853908D01*
X150738189Y-84799788D01*
X151150144Y-84799788D01*
X151156606Y-84847446D01*
G37*
G36*
X151156606Y-90501727D02*
G01*
X151158221Y-90544538D01*
X151145095Y-90614005D01*
X151105717Y-90667317D01*
X151034837Y-90701242D01*
X150927204Y-90712551D01*
X150833100Y-90703868D01*
X150764037Y-90677817D01*
X150721630Y-90633997D01*
X150707494Y-90572002D01*
X150716380Y-90508189D01*
X150738189Y-90454069D01*
X151150144Y-90454069D01*
X151156606Y-90501727D01*
G37*
G36*
X153175992Y-85655200D02*
G01*
X153177607Y-85698011D01*
X153164481Y-85767478D01*
X153125103Y-85820790D01*
X153054223Y-85854716D01*
X152946590Y-85866024D01*
X152852486Y-85857341D01*
X152783423Y-85831291D01*
X152741016Y-85787470D01*
X152726880Y-85725475D01*
X152735766Y-85661662D01*
X152757575Y-85607543D01*
X153169530Y-85607543D01*
X153175992Y-85655200D01*
G37*
G36*
X153039078Y-87988601D02*
G01*
X153112987Y-88017074D01*
X153161452Y-88066549D01*
X153177607Y-88139045D01*
X153175992Y-88184279D01*
X153171145Y-88227898D01*
X152757575Y-88227898D01*
X152735766Y-88176202D01*
X152726880Y-88114813D01*
X152741016Y-88053423D01*
X152783423Y-88011420D01*
X152852486Y-87987187D01*
X152946590Y-87979110D01*
X153039078Y-87988601D01*
G37*
G36*
X151024134Y-94451848D02*
G01*
X151096832Y-94479110D01*
X151144086Y-94526565D01*
X151159837Y-94596234D01*
X151144086Y-94664288D01*
X151096832Y-94713359D01*
X151024134Y-94743044D01*
X150932050Y-94752939D01*
X150840168Y-94743851D01*
X150768076Y-94716590D01*
X150721428Y-94669134D01*
X150705879Y-94599465D01*
X150721428Y-94531412D01*
X150768076Y-94482341D01*
X150840168Y-94452656D01*
X150932050Y-94442761D01*
X151024134Y-94451848D01*
G37*
G36*
X155177809Y-89823819D02*
G01*
X155110564Y-89876525D01*
X155041546Y-89900309D01*
X154954039Y-89914579D01*
X154848044Y-89919336D01*
X154742946Y-89914579D01*
X154655978Y-89900309D01*
X154587139Y-89876525D01*
X154519893Y-89823819D01*
X154497978Y-89752939D01*
X154723649Y-89752939D01*
X154755960Y-89816751D01*
X154831889Y-89841792D01*
X154907010Y-89816751D01*
X154938512Y-89752939D01*
X154907010Y-89686703D01*
X154831889Y-89662470D01*
X154755960Y-89686703D01*
X154723649Y-89752939D01*
X154497978Y-89752939D01*
X154497478Y-89751323D01*
X154519893Y-89679837D01*
X154587139Y-89626929D01*
X154655978Y-89602696D01*
X154742946Y-89588157D01*
X154848044Y-89583310D01*
X154954039Y-89588157D01*
X155041546Y-89602696D01*
X155110564Y-89626929D01*
X155177809Y-89679837D01*
X155200225Y-89751323D01*
X155199725Y-89752939D01*
X155177809Y-89823819D01*
G37*
G36*
X155177809Y-96285855D02*
G01*
X155110564Y-96338561D01*
X155041546Y-96362344D01*
X154954039Y-96376615D01*
X154848044Y-96381372D01*
X154742946Y-96376615D01*
X154655978Y-96362344D01*
X154587139Y-96338561D01*
X154519893Y-96285855D01*
X154497977Y-96214974D01*
X154723649Y-96214974D01*
X154755960Y-96278787D01*
X154831889Y-96303827D01*
X154907010Y-96278787D01*
X154938512Y-96214974D01*
X154907010Y-96148738D01*
X154831889Y-96124506D01*
X154755960Y-96148738D01*
X154723649Y-96214974D01*
X154497977Y-96214974D01*
X154497478Y-96213359D01*
X154519893Y-96141872D01*
X154587139Y-96088964D01*
X154655978Y-96064732D01*
X154742946Y-96050192D01*
X154848044Y-96045346D01*
X154954039Y-96050192D01*
X155041546Y-96064732D01*
X155110564Y-96088964D01*
X155177809Y-96141872D01*
X155200225Y-96213359D01*
X155199725Y-96214974D01*
X155177809Y-96285855D01*
G37*
G36*
X155506094Y-85775556D02*
G01*
X155506094Y-86429837D01*
X155506094Y-87665701D01*
X155506094Y-88137430D01*
X155506094Y-89286057D01*
X155506094Y-89751323D01*
X155506094Y-90901565D01*
X155506094Y-91622082D01*
X155506094Y-92395911D01*
X155506094Y-92483149D01*
X155506094Y-93319982D01*
X155506094Y-94127737D01*
X155506094Y-94172971D01*
X155506094Y-94819174D01*
X155506094Y-95743246D01*
X155506094Y-96213359D01*
X155506094Y-96572002D01*
X155506094Y-96706627D01*
X150055906Y-96706627D01*
X150055906Y-96572002D01*
X150055906Y-96239207D01*
X150329465Y-96239207D01*
X150552405Y-96239207D01*
X150552405Y-96557462D01*
X150717187Y-96557462D01*
X150717187Y-96239207D01*
X151024134Y-96239207D01*
X151091985Y-96247284D01*
X151132373Y-96269901D01*
X151151759Y-96305443D01*
X151156606Y-96352292D01*
X151154990Y-96403181D01*
X151149336Y-96448415D01*
X151137220Y-96493649D01*
X151116218Y-96544538D01*
X151287462Y-96572002D01*
X151319772Y-96453262D01*
X151329465Y-96329675D01*
X151318752Y-96213359D01*
X154327850Y-96213359D01*
X154342120Y-96317469D01*
X154348185Y-96329675D01*
X154384931Y-96403630D01*
X154456283Y-96471840D01*
X154528930Y-96510713D01*
X154618439Y-96538480D01*
X154724811Y-96555140D01*
X154848044Y-96560693D01*
X154972034Y-96555140D01*
X155079061Y-96538480D01*
X155169126Y-96510713D01*
X155242228Y-96471840D01*
X155314028Y-96403630D01*
X155357108Y-96317469D01*
X155371468Y-96213359D01*
X155357108Y-96109248D01*
X155314028Y-96023088D01*
X155242228Y-95954877D01*
X155169126Y-95916004D01*
X155079061Y-95888237D01*
X154972034Y-95871578D01*
X154848044Y-95866024D01*
X154725467Y-95871679D01*
X154619449Y-95888641D01*
X154529990Y-95916913D01*
X154457090Y-95956493D01*
X154385290Y-96025242D01*
X154342210Y-96110864D01*
X154327850Y-96213359D01*
X151318752Y-96213359D01*
X151318157Y-96206897D01*
X151274538Y-96116428D01*
X151183262Y-96059885D01*
X151115208Y-96045346D01*
X151028981Y-96040499D01*
X150717187Y-96040499D01*
X150717187Y-95867640D01*
X150552405Y-95867640D01*
X150552405Y-96040499D01*
X150361775Y-96040499D01*
X150329465Y-96239207D01*
X150055906Y-96239207D01*
X150055906Y-95097042D01*
X150552405Y-95097042D01*
X150552405Y-95295750D01*
X150949821Y-95295750D01*
X151041299Y-95302010D01*
X151105717Y-95320790D01*
X151156606Y-95418528D01*
X151148528Y-95508997D01*
X150552405Y-95508997D01*
X150552405Y-95709320D01*
X151285847Y-95709320D01*
X151300386Y-95648536D01*
X151314926Y-95576040D01*
X151325830Y-95494255D01*
X151329333Y-95408835D01*
X154350467Y-95408835D01*
X154350467Y-95544538D01*
X155185685Y-95544538D01*
X155185685Y-95743246D01*
X155350467Y-95743246D01*
X155350467Y-95135814D01*
X155185685Y-95135814D01*
X155185685Y-95345830D01*
X154626719Y-95345830D01*
X154684069Y-95242438D01*
X154723649Y-95143892D01*
X154558868Y-95079271D01*
X154521711Y-95163278D01*
X154471630Y-95253746D01*
X154413472Y-95339368D01*
X154353397Y-95405604D01*
X154350467Y-95408835D01*
X151329333Y-95408835D01*
X151329465Y-95405604D01*
X151323003Y-95320386D01*
X151303617Y-95252131D01*
X151230111Y-95157624D01*
X151117834Y-95109966D01*
X151049982Y-95100273D01*
X150975669Y-95097042D01*
X150552405Y-95097042D01*
X150055906Y-95097042D01*
X150055906Y-94599465D01*
X150533019Y-94599465D01*
X150540087Y-94675192D01*
X150561291Y-94744053D01*
X150595620Y-94805039D01*
X150642066Y-94857139D01*
X150699821Y-94899344D01*
X150768076Y-94930645D01*
X150845418Y-94950031D01*
X150930435Y-94956493D01*
X151016662Y-94950031D01*
X151094409Y-94930645D01*
X151162866Y-94899546D01*
X151221226Y-94857947D01*
X151268480Y-94806452D01*
X151303617Y-94745669D01*
X151319640Y-94694780D01*
X152557252Y-94694780D01*
X152558868Y-94740822D01*
X152564522Y-94804635D01*
X152574215Y-94873294D01*
X152589562Y-94935491D01*
X152773730Y-94899950D01*
X152764037Y-94853908D01*
X152758335Y-94819174D01*
X154838351Y-94819174D01*
X155033827Y-94819174D01*
X155033827Y-94376525D01*
X154838351Y-94376525D01*
X154838351Y-94538076D01*
X154838351Y-94819174D01*
X152758335Y-94819174D01*
X152755152Y-94799788D01*
X152749498Y-94746477D01*
X152747882Y-94702858D01*
X152751921Y-94620467D01*
X152767268Y-94538076D01*
X153331081Y-94538076D01*
X153331081Y-94337753D01*
X152621872Y-94337753D01*
X152595620Y-94417922D01*
X152575023Y-94500111D01*
X152561695Y-94590378D01*
X152561308Y-94599465D01*
X152557252Y-94694780D01*
X151319640Y-94694780D01*
X151325426Y-94676404D01*
X151332696Y-94599465D01*
X151325426Y-94522527D01*
X151303617Y-94453262D01*
X151268480Y-94392276D01*
X151221226Y-94340176D01*
X151162866Y-94297971D01*
X151094409Y-94266670D01*
X151016662Y-94247284D01*
X150930435Y-94240822D01*
X150845418Y-94247486D01*
X150768076Y-94267478D01*
X150699821Y-94299384D01*
X150642066Y-94341792D01*
X150595620Y-94394094D01*
X150561291Y-94455685D01*
X150540087Y-94524748D01*
X150533019Y-94599465D01*
X150055906Y-94599465D01*
X150055906Y-93688318D01*
X150190532Y-93688318D01*
X150852890Y-93688318D01*
X150781000Y-93747284D01*
X150702648Y-93805443D01*
X150624296Y-93859562D01*
X150552405Y-93904796D01*
X150552405Y-94143892D01*
X150633181Y-94077656D01*
X150722034Y-94000919D01*
X150809271Y-93921759D01*
X150886816Y-93849869D01*
X150979708Y-93937107D01*
X151034837Y-93983553D01*
X151091985Y-94029191D01*
X151150144Y-94072607D01*
X151208302Y-94112389D01*
X151311695Y-94172971D01*
X151311695Y-93945184D01*
X151220418Y-93894296D01*
X151120257Y-93827252D01*
X151078145Y-93794942D01*
X152552405Y-93794942D01*
X152563445Y-93897975D01*
X152596563Y-93983059D01*
X152651759Y-94050192D01*
X152728137Y-94098658D01*
X152824798Y-94127737D01*
X152941743Y-94137430D01*
X152982131Y-94136622D01*
X153016057Y-94134199D01*
X153016057Y-93641468D01*
X153082494Y-93656816D01*
X153133181Y-93702858D01*
X153165289Y-93773132D01*
X153175992Y-93861178D01*
X153163068Y-93975071D01*
X153137220Y-94066347D01*
X153306848Y-94093811D01*
X153336735Y-93983956D01*
X153341821Y-93929029D01*
X154350467Y-93929029D01*
X155185685Y-93929029D01*
X155185685Y-94127737D01*
X155350467Y-94127737D01*
X155350467Y-93520305D01*
X155185685Y-93520305D01*
X155185685Y-93730321D01*
X154626719Y-93730321D01*
X154684069Y-93626929D01*
X154723649Y-93528383D01*
X154558868Y-93463763D01*
X154521711Y-93547769D01*
X154471630Y-93638237D01*
X154413472Y-93723859D01*
X154350467Y-93793326D01*
X154350467Y-93853100D01*
X154350467Y-93929029D01*
X153341821Y-93929029D01*
X153348851Y-93853100D01*
X153342591Y-93761218D01*
X153323811Y-93679433D01*
X153292712Y-93608351D01*
X153249498Y-93548577D01*
X153194368Y-93500717D01*
X153127527Y-93465378D01*
X153048771Y-93443569D01*
X152957898Y-93436299D01*
X152863795Y-93443973D01*
X152781808Y-93466994D01*
X152712139Y-93502535D01*
X152654990Y-93547769D01*
X152610362Y-93601485D01*
X152578254Y-93662470D01*
X152558868Y-93727898D01*
X152552405Y-93794942D01*
X151078145Y-93794942D01*
X151026557Y-93755362D01*
X150953052Y-93688318D01*
X151311695Y-93688318D01*
X151311695Y-93487995D01*
X150224457Y-93487995D01*
X150190532Y-93688318D01*
X150055906Y-93688318D01*
X150055906Y-92966186D01*
X150533019Y-92966186D01*
X150538472Y-93052010D01*
X150554829Y-93122082D01*
X150616218Y-93221436D01*
X150713149Y-93274748D01*
X150841582Y-93290903D01*
X151293924Y-93290903D01*
X151316541Y-93161662D01*
X151326234Y-93070790D01*
X151328899Y-92987187D01*
X152552405Y-92987187D01*
X152563445Y-93090221D01*
X152596563Y-93175304D01*
X152651759Y-93242438D01*
X152728137Y-93290903D01*
X152824798Y-93319982D01*
X152941743Y-93329675D01*
X152982131Y-93328868D01*
X153016057Y-93326444D01*
X153016057Y-92833714D01*
X153082494Y-92849061D01*
X153133181Y-92895103D01*
X153165289Y-92965378D01*
X153175992Y-93053423D01*
X153163068Y-93167317D01*
X153137220Y-93258593D01*
X153306848Y-93286057D01*
X153336735Y-93176202D01*
X153341821Y-93121275D01*
X154350467Y-93121275D01*
X155185685Y-93121275D01*
X155185685Y-93319982D01*
X155350467Y-93319982D01*
X155350467Y-92712551D01*
X155185685Y-92712551D01*
X155185685Y-92922567D01*
X154626719Y-92922567D01*
X154684069Y-92819174D01*
X154723649Y-92720628D01*
X154558868Y-92656008D01*
X154521711Y-92740015D01*
X154471630Y-92830483D01*
X154413472Y-92916105D01*
X154350467Y-92985572D01*
X154350467Y-93045346D01*
X154350467Y-93121275D01*
X153341821Y-93121275D01*
X153348851Y-93045346D01*
X153342591Y-92953464D01*
X153323811Y-92871679D01*
X153292712Y-92800596D01*
X153249498Y-92740822D01*
X153194368Y-92692963D01*
X153127527Y-92657624D01*
X153048771Y-92635814D01*
X152957898Y-92628544D01*
X152863795Y-92636218D01*
X152781808Y-92659239D01*
X152712139Y-92694780D01*
X152654990Y-92740015D01*
X152610362Y-92793730D01*
X152578254Y-92854716D01*
X152558868Y-92920144D01*
X152554118Y-92969417D01*
X152552405Y-92987187D01*
X151328899Y-92987187D01*
X151329465Y-92969417D01*
X151316541Y-92837753D01*
X151273730Y-92736784D01*
X151196186Y-92672163D01*
X151079061Y-92649546D01*
X150967591Y-92675394D01*
X150894893Y-92744861D01*
X150855313Y-92845023D01*
X150843197Y-92962955D01*
X150846428Y-93036057D01*
X150856121Y-93100273D01*
X150831889Y-93100273D01*
X150737381Y-93064732D01*
X150708908Y-93016267D01*
X150699417Y-92941953D01*
X150707494Y-92832906D01*
X150726880Y-92748092D01*
X150566945Y-92720628D01*
X150543520Y-92825637D01*
X150535645Y-92894700D01*
X150533019Y-92966186D01*
X150055906Y-92966186D01*
X150055906Y-92179433D01*
X150533019Y-92179433D01*
X150544059Y-92282467D01*
X150577177Y-92367550D01*
X150632373Y-92434683D01*
X150708751Y-92483149D01*
X150805412Y-92512228D01*
X150922357Y-92521921D01*
X150962745Y-92521113D01*
X150996670Y-92518690D01*
X150996670Y-92025960D01*
X151063108Y-92041307D01*
X151113795Y-92087349D01*
X151145903Y-92157624D01*
X151156606Y-92245669D01*
X151143682Y-92359562D01*
X151117834Y-92450838D01*
X151287462Y-92478302D01*
X151317349Y-92368447D01*
X151329465Y-92237591D01*
X151325172Y-92174586D01*
X152555637Y-92174586D01*
X152560400Y-92237591D01*
X152561897Y-92257381D01*
X152580677Y-92324829D01*
X152651759Y-92419336D01*
X152761614Y-92468609D01*
X152828859Y-92479514D01*
X152902971Y-92483149D01*
X153331081Y-92483149D01*
X153331081Y-92284441D01*
X152928819Y-92284441D01*
X152837139Y-92278383D01*
X152775346Y-92260208D01*
X152728496Y-92161662D01*
X152730111Y-92117236D01*
X152734958Y-92071194D01*
X153331081Y-92071194D01*
X153331081Y-91953262D01*
X154838351Y-91953262D01*
X154838351Y-92395911D01*
X155033827Y-92395911D01*
X155033827Y-91953262D01*
X154838351Y-91953262D01*
X153331081Y-91953262D01*
X153331081Y-91872486D01*
X152596024Y-91872486D01*
X152581889Y-91932058D01*
X152568561Y-92004150D01*
X152558868Y-92085935D01*
X152555637Y-92174586D01*
X151325172Y-92174586D01*
X151323205Y-92145709D01*
X151304425Y-92063924D01*
X151273326Y-91992842D01*
X151230111Y-91933068D01*
X151174982Y-91885208D01*
X151108141Y-91849869D01*
X151029384Y-91828060D01*
X150938512Y-91820790D01*
X150844409Y-91828464D01*
X150762422Y-91851485D01*
X150692753Y-91887026D01*
X150635604Y-91932260D01*
X150590976Y-91985976D01*
X150558868Y-92046961D01*
X150539481Y-92112389D01*
X150533019Y-92179433D01*
X150055906Y-92179433D01*
X150055906Y-91463763D01*
X150537866Y-91463763D01*
X150539481Y-91509805D01*
X150545136Y-91573617D01*
X150554829Y-91642276D01*
X150570176Y-91704473D01*
X150754344Y-91668932D01*
X150744651Y-91622890D01*
X150735766Y-91568771D01*
X150730111Y-91515459D01*
X150728496Y-91471840D01*
X150730555Y-91429837D01*
X152571792Y-91429837D01*
X153041905Y-91429837D01*
X153142874Y-91454877D01*
X153175992Y-91538076D01*
X153168722Y-91604312D01*
X153138835Y-91691549D01*
X153298771Y-91717397D01*
X153331432Y-91622082D01*
X154350467Y-91622082D01*
X154951436Y-91622082D01*
X154951436Y-91730321D01*
X155114603Y-91730321D01*
X155114603Y-91622082D01*
X155350467Y-91622082D01*
X155350467Y-91423375D01*
X155114603Y-91423375D01*
X155114603Y-91006574D01*
X154969207Y-91006574D01*
X154901961Y-91041711D01*
X154826234Y-91085733D01*
X154745257Y-91136622D01*
X154662260Y-91192357D01*
X154578859Y-91252131D01*
X154496670Y-91315136D01*
X154419328Y-91379756D01*
X154350467Y-91444376D01*
X154350467Y-91502535D01*
X154350467Y-91622082D01*
X153331432Y-91622082D01*
X153338351Y-91601889D01*
X153348851Y-91502535D01*
X153343197Y-91431250D01*
X153326234Y-91372486D01*
X153260806Y-91288480D01*
X153156606Y-91244053D01*
X153090774Y-91234360D01*
X153016057Y-91231129D01*
X152736574Y-91231129D01*
X152736574Y-91021113D01*
X152571792Y-91021113D01*
X152571792Y-91295750D01*
X152571792Y-91429837D01*
X150730555Y-91429837D01*
X150732535Y-91389449D01*
X150747882Y-91307058D01*
X151311695Y-91307058D01*
X151311695Y-91295750D01*
X152226073Y-91295750D01*
X152230391Y-91307058D01*
X152259998Y-91384603D01*
X152353698Y-91421759D01*
X152445782Y-91384603D01*
X152479708Y-91295750D01*
X152445782Y-91207704D01*
X152353698Y-91171355D01*
X152259998Y-91207704D01*
X152226073Y-91295750D01*
X151311695Y-91295750D01*
X151311695Y-91106735D01*
X150602486Y-91106735D01*
X150576234Y-91186905D01*
X150555637Y-91269094D01*
X150542309Y-91359360D01*
X150537866Y-91463763D01*
X150055906Y-91463763D01*
X150055906Y-90454069D01*
X150190532Y-90454069D01*
X150570176Y-90454069D01*
X150543520Y-90534845D01*
X150536250Y-90612389D01*
X150543318Y-90682260D01*
X150564522Y-90743246D01*
X150645297Y-90837753D01*
X150702850Y-90871073D01*
X150770499Y-90895103D01*
X150847236Y-90909643D01*
X150932050Y-90914489D01*
X151018278Y-90908431D01*
X151096024Y-90890257D01*
X151164078Y-90860370D01*
X151221226Y-90819174D01*
X151267066Y-90767074D01*
X151301194Y-90704473D01*
X151322397Y-90631775D01*
X151325723Y-90593003D01*
X152555637Y-90593003D01*
X152560124Y-90678266D01*
X152573587Y-90768196D01*
X152596024Y-90862793D01*
X153238997Y-90862793D01*
X153352082Y-90852831D01*
X153443628Y-90822944D01*
X153513633Y-90773132D01*
X153562996Y-90701242D01*
X153592614Y-90605120D01*
X153597716Y-90542922D01*
X154327850Y-90542922D01*
X154345620Y-90660855D01*
X154398932Y-90761016D01*
X154488593Y-90830483D01*
X154613795Y-90856331D01*
X154713149Y-90836945D01*
X154806040Y-90785249D01*
X154893278Y-90712551D01*
X154974053Y-90630160D01*
X155020095Y-90581695D01*
X155075023Y-90529998D01*
X155132373Y-90488803D01*
X155185685Y-90471840D01*
X155185685Y-90901565D01*
X155350467Y-90901565D01*
X155350467Y-90248900D01*
X155310079Y-90244861D01*
X155276153Y-90245669D01*
X155198609Y-90253141D01*
X155127527Y-90275556D01*
X155062300Y-90309481D01*
X155002325Y-90351485D01*
X154946994Y-90399142D01*
X154895701Y-90450031D01*
X154847438Y-90500919D01*
X154801194Y-90548577D01*
X154713956Y-90624506D01*
X154628334Y-90654393D01*
X154533827Y-90617236D01*
X154500709Y-90523536D01*
X154523326Y-90424990D01*
X154599255Y-90323213D01*
X154460321Y-90224667D01*
X154401355Y-90294336D01*
X154360160Y-90374102D01*
X154335927Y-90458714D01*
X154333428Y-90484764D01*
X154327850Y-90542922D01*
X153597716Y-90542922D01*
X153602486Y-90484764D01*
X153598851Y-90415095D01*
X153587947Y-90348254D01*
X153554021Y-90223052D01*
X153386008Y-90260208D01*
X153419126Y-90358754D01*
X153434473Y-90487995D01*
X153422357Y-90573617D01*
X153389239Y-90626929D01*
X153339966Y-90654393D01*
X153279384Y-90662470D01*
X153248690Y-90662470D01*
X153272922Y-90585733D01*
X153281000Y-90510612D01*
X153270589Y-90419516D01*
X153239356Y-90344394D01*
X153187300Y-90285249D01*
X153116757Y-90242617D01*
X153030058Y-90217038D01*
X152927204Y-90208512D01*
X152812861Y-90220000D01*
X152719700Y-90254464D01*
X152647721Y-90311905D01*
X152596563Y-90389090D01*
X152565868Y-90482790D01*
X152559686Y-90549384D01*
X152555637Y-90593003D01*
X151325723Y-90593003D01*
X151329465Y-90549384D01*
X151326638Y-90471032D01*
X151318157Y-90391065D01*
X151305233Y-90316751D01*
X151289078Y-90255362D01*
X150224457Y-90255362D01*
X150190532Y-90454069D01*
X150055906Y-90454069D01*
X150055906Y-89751323D01*
X152555637Y-89751323D01*
X152561897Y-89834118D01*
X152580677Y-89901565D01*
X152651759Y-89996073D01*
X152761614Y-90045346D01*
X152828859Y-90056250D01*
X152902971Y-90059885D01*
X153331081Y-90059885D01*
X153331081Y-89861178D01*
X152928819Y-89861178D01*
X152837139Y-89855120D01*
X152775346Y-89836945D01*
X152734640Y-89751323D01*
X154327850Y-89751323D01*
X154342120Y-89855434D01*
X154384931Y-89941594D01*
X154456283Y-90009805D01*
X154528930Y-90048678D01*
X154565059Y-90059885D01*
X154618439Y-90076444D01*
X154724811Y-90093104D01*
X154848044Y-90098658D01*
X154972034Y-90093104D01*
X155079061Y-90076444D01*
X155169126Y-90048678D01*
X155242228Y-90009805D01*
X155314028Y-89941594D01*
X155357108Y-89855434D01*
X155371468Y-89751323D01*
X155357108Y-89647213D01*
X155314028Y-89561052D01*
X155242228Y-89492842D01*
X155169126Y-89453968D01*
X155079061Y-89426202D01*
X154972034Y-89409542D01*
X154848044Y-89403989D01*
X154725467Y-89409643D01*
X154619449Y-89426606D01*
X154529990Y-89454877D01*
X154457090Y-89494457D01*
X154385290Y-89563206D01*
X154342210Y-89648828D01*
X154327850Y-89751323D01*
X152734640Y-89751323D01*
X152728496Y-89738399D01*
X152730111Y-89693973D01*
X152734958Y-89647931D01*
X153331081Y-89647931D01*
X153331081Y-89449223D01*
X152596024Y-89449223D01*
X152581889Y-89508795D01*
X152568561Y-89580887D01*
X152558868Y-89662672D01*
X152555637Y-89751323D01*
X150055906Y-89751323D01*
X150055906Y-89040499D01*
X150537866Y-89040499D01*
X150539481Y-89086541D01*
X150545136Y-89150354D01*
X150554829Y-89219013D01*
X150570176Y-89281210D01*
X150754344Y-89245669D01*
X150744651Y-89199627D01*
X150735766Y-89145507D01*
X150730111Y-89092195D01*
X150728496Y-89048577D01*
X150732535Y-88966186D01*
X150735845Y-88948415D01*
X152552405Y-88948415D01*
X152563445Y-89051449D01*
X152596563Y-89136532D01*
X152651759Y-89203666D01*
X152728137Y-89252131D01*
X152824798Y-89281210D01*
X152941743Y-89290903D01*
X152982131Y-89290095D01*
X153016057Y-89287672D01*
X153016057Y-88794942D01*
X153082494Y-88810289D01*
X153133181Y-88856331D01*
X153165289Y-88926606D01*
X153175992Y-89014651D01*
X153163068Y-89128544D01*
X153137220Y-89219821D01*
X153306848Y-89247284D01*
X153336735Y-89137430D01*
X153348851Y-89006574D01*
X153343458Y-88927414D01*
X154327850Y-88927414D01*
X154339778Y-89006574D01*
X154345620Y-89045346D01*
X154398932Y-89145507D01*
X154488593Y-89214974D01*
X154613795Y-89240822D01*
X154713149Y-89221436D01*
X154806040Y-89169740D01*
X154893278Y-89097042D01*
X154974053Y-89014651D01*
X155020095Y-88966186D01*
X155075023Y-88914489D01*
X155132373Y-88873294D01*
X155185685Y-88856331D01*
X155185685Y-89286057D01*
X155350467Y-89286057D01*
X155350467Y-88633391D01*
X155310079Y-88629352D01*
X155276153Y-88630160D01*
X155198609Y-88637632D01*
X155127527Y-88660047D01*
X155062300Y-88693973D01*
X155002325Y-88735976D01*
X154946994Y-88783633D01*
X154895701Y-88834522D01*
X154847438Y-88885410D01*
X154801194Y-88933068D01*
X154713956Y-89008997D01*
X154628334Y-89038884D01*
X154533827Y-89001727D01*
X154500709Y-88908027D01*
X154523326Y-88809481D01*
X154599255Y-88707704D01*
X154460321Y-88609158D01*
X154401355Y-88678827D01*
X154360160Y-88758593D01*
X154335927Y-88843205D01*
X154327850Y-88927414D01*
X153343458Y-88927414D01*
X153342591Y-88914691D01*
X153323811Y-88832906D01*
X153292712Y-88761824D01*
X153249498Y-88702050D01*
X153194368Y-88654191D01*
X153127527Y-88618851D01*
X153048771Y-88597042D01*
X152957898Y-88589772D01*
X152863795Y-88597446D01*
X152781808Y-88620467D01*
X152712139Y-88656008D01*
X152654990Y-88701242D01*
X152610362Y-88754958D01*
X152578254Y-88815943D01*
X152558868Y-88881372D01*
X152558634Y-88883795D01*
X152552405Y-88948415D01*
X150735845Y-88948415D01*
X150747882Y-88883795D01*
X151311695Y-88883795D01*
X151311695Y-88683472D01*
X150602486Y-88683472D01*
X150576234Y-88763641D01*
X150555637Y-88845830D01*
X150542309Y-88936097D01*
X150537866Y-89040499D01*
X150055906Y-89040499D01*
X150055906Y-88140661D01*
X150533019Y-88140661D01*
X150544059Y-88243694D01*
X150577177Y-88328778D01*
X150632373Y-88395911D01*
X150708751Y-88444376D01*
X150805412Y-88473456D01*
X150922357Y-88483149D01*
X150962745Y-88482341D01*
X150996670Y-88479918D01*
X150996670Y-87987187D01*
X151063108Y-88002535D01*
X151113795Y-88048577D01*
X151145903Y-88118851D01*
X151156606Y-88206897D01*
X151143682Y-88320790D01*
X151117834Y-88412066D01*
X151287462Y-88439530D01*
X151290978Y-88426606D01*
X152209918Y-88426606D01*
X153308464Y-88426606D01*
X153324619Y-88365620D01*
X153337543Y-88292519D01*
X153346024Y-88214166D01*
X153348851Y-88137430D01*
X153337184Y-88028562D01*
X153302181Y-87938902D01*
X153243843Y-87868447D01*
X153165222Y-87817738D01*
X153069368Y-87787313D01*
X152956283Y-87777171D01*
X152841133Y-87785698D01*
X152743395Y-87811276D01*
X152663068Y-87853908D01*
X152603384Y-87913233D01*
X152567573Y-87988893D01*
X152555637Y-88080887D01*
X152564522Y-88160047D01*
X152578831Y-88198819D01*
X152589562Y-88227898D01*
X152243843Y-88227898D01*
X152209918Y-88426606D01*
X151290978Y-88426606D01*
X151317349Y-88329675D01*
X151329465Y-88198819D01*
X151323205Y-88106937D01*
X151304425Y-88025152D01*
X151273326Y-87954069D01*
X151230111Y-87894296D01*
X151174982Y-87846436D01*
X151108141Y-87811097D01*
X151029384Y-87789288D01*
X150938512Y-87782018D01*
X150844409Y-87789691D01*
X150762422Y-87812712D01*
X150692753Y-87848254D01*
X150635604Y-87893488D01*
X150590976Y-87947204D01*
X150558868Y-88008189D01*
X150539481Y-88073617D01*
X150533019Y-88140661D01*
X150055906Y-88140661D01*
X150055906Y-87470225D01*
X150192147Y-87470225D01*
X150203456Y-87599465D01*
X150240612Y-87719013D01*
X150402163Y-87685087D01*
X150375507Y-87592195D01*
X150361775Y-87486380D01*
X150366622Y-87433876D01*
X150387624Y-87390257D01*
X150433666Y-87360370D01*
X150512018Y-87349061D01*
X150552405Y-87349061D01*
X150552405Y-87660855D01*
X150717187Y-87660855D01*
X150717187Y-87391065D01*
X152219611Y-87391065D01*
X153043520Y-87391065D01*
X153148528Y-87421759D01*
X153175992Y-87499304D01*
X153159837Y-87599465D01*
X153138835Y-87652777D01*
X153298771Y-87678625D01*
X153310079Y-87656816D01*
X153327042Y-87612389D01*
X153342389Y-87545346D01*
X153348036Y-87466994D01*
X154350467Y-87466994D01*
X155185685Y-87466994D01*
X155185685Y-87665701D01*
X155350467Y-87665701D01*
X155350467Y-87058270D01*
X155185685Y-87058270D01*
X155185685Y-87268286D01*
X154626719Y-87268286D01*
X154684069Y-87164893D01*
X154723649Y-87066347D01*
X154558868Y-87001727D01*
X154521711Y-87085733D01*
X154471630Y-87176202D01*
X154413472Y-87261824D01*
X154350467Y-87331291D01*
X154350467Y-87455685D01*
X154350467Y-87466994D01*
X153348036Y-87466994D01*
X153348851Y-87455685D01*
X153328456Y-87336945D01*
X153267268Y-87255362D01*
X153166905Y-87208108D01*
X153028981Y-87192357D01*
X152384393Y-87192357D01*
X152384393Y-86982341D01*
X152219611Y-86982341D01*
X152219611Y-87148738D01*
X152219611Y-87391065D01*
X150717187Y-87391065D01*
X150717187Y-87349061D01*
X151311695Y-87349061D01*
X151311695Y-87148738D01*
X150717187Y-87148738D01*
X150717187Y-86982341D01*
X150552405Y-86982341D01*
X150552405Y-87148738D01*
X150508787Y-87148738D01*
X150424578Y-87155402D01*
X150356121Y-87175394D01*
X150259191Y-87247284D01*
X150207494Y-87350677D01*
X150192147Y-87470225D01*
X150055906Y-87470225D01*
X150055906Y-86662470D01*
X150192147Y-86662470D01*
X150203456Y-86791711D01*
X150240612Y-86911258D01*
X150402163Y-86877333D01*
X150375507Y-86784441D01*
X150361775Y-86678625D01*
X150366622Y-86626121D01*
X150387624Y-86582502D01*
X150433666Y-86552616D01*
X150512018Y-86541307D01*
X150552405Y-86541307D01*
X150552405Y-86853100D01*
X150717187Y-86853100D01*
X150717187Y-86541307D01*
X151311695Y-86541307D01*
X151311695Y-86504150D01*
X152552405Y-86504150D01*
X152557858Y-86589974D01*
X152574215Y-86660047D01*
X152635604Y-86759401D01*
X152732535Y-86812712D01*
X152860968Y-86828868D01*
X153313310Y-86828868D01*
X153335927Y-86699627D01*
X154591178Y-86699627D01*
X154591178Y-86901565D01*
X154703607Y-86866731D01*
X154811493Y-86830079D01*
X154914835Y-86791610D01*
X155013633Y-86751323D01*
X155136861Y-86697473D01*
X155249139Y-86645777D01*
X155350467Y-86596234D01*
X155350467Y-86429837D01*
X155249139Y-86381102D01*
X155136861Y-86331829D01*
X155013633Y-86282018D01*
X154914835Y-86244912D01*
X154811493Y-86208714D01*
X154703607Y-86173425D01*
X154591178Y-86139045D01*
X154591178Y-86347446D01*
X154654586Y-86363399D01*
X154722034Y-86382179D01*
X154791703Y-86402979D01*
X154861775Y-86424990D01*
X154931040Y-86447809D01*
X154998286Y-86471032D01*
X155097419Y-86507381D01*
X155119449Y-86515459D01*
X154998286Y-86562309D01*
X154931040Y-86587955D01*
X154861775Y-86613197D01*
X154791703Y-86637834D01*
X154722034Y-86661662D01*
X154654586Y-86682866D01*
X154591178Y-86699627D01*
X153335927Y-86699627D01*
X153345620Y-86608754D01*
X153348851Y-86507381D01*
X153335927Y-86375717D01*
X153293116Y-86274748D01*
X153215572Y-86210128D01*
X153098447Y-86187511D01*
X152986977Y-86213359D01*
X152914279Y-86282826D01*
X152874700Y-86382987D01*
X152862583Y-86500919D01*
X152865814Y-86574021D01*
X152875507Y-86638237D01*
X152851275Y-86638237D01*
X152756767Y-86602696D01*
X152728294Y-86554231D01*
X152718803Y-86479918D01*
X152726880Y-86370871D01*
X152746267Y-86286057D01*
X152586331Y-86258593D01*
X152567952Y-86340984D01*
X152562906Y-86363601D01*
X152555031Y-86432664D01*
X152552405Y-86504150D01*
X151311695Y-86504150D01*
X151311695Y-86340984D01*
X150717187Y-86340984D01*
X150717187Y-86174586D01*
X150552405Y-86174586D01*
X150552405Y-86340984D01*
X150508787Y-86340984D01*
X150424578Y-86347648D01*
X150356121Y-86367640D01*
X150259191Y-86439530D01*
X150207494Y-86542922D01*
X150192147Y-86662470D01*
X150055906Y-86662470D01*
X150055906Y-85403989D01*
X150552405Y-85403989D01*
X150552405Y-85602696D01*
X150949821Y-85602696D01*
X151041299Y-85608956D01*
X151105717Y-85627737D01*
X151156606Y-85725475D01*
X151148528Y-85815943D01*
X150552405Y-85815943D01*
X150552405Y-86016267D01*
X151285847Y-86016267D01*
X151300386Y-85955483D01*
X151314926Y-85882987D01*
X151325830Y-85801202D01*
X151329465Y-85712551D01*
X151323003Y-85627333D01*
X151317382Y-85607543D01*
X152209918Y-85607543D01*
X152589562Y-85607543D01*
X152562906Y-85688318D01*
X152560634Y-85712551D01*
X152555637Y-85765863D01*
X152562704Y-85835733D01*
X152583908Y-85896719D01*
X152664683Y-85991226D01*
X152722236Y-86024546D01*
X152789885Y-86048577D01*
X152866622Y-86063116D01*
X152951436Y-86067963D01*
X153037664Y-86061905D01*
X153115410Y-86043730D01*
X153183464Y-86013843D01*
X153240612Y-85972648D01*
X153286452Y-85920548D01*
X153320580Y-85857947D01*
X153341784Y-85785249D01*
X153347604Y-85717397D01*
X154571792Y-85717397D01*
X154582831Y-85820431D01*
X154615949Y-85905514D01*
X154671145Y-85972648D01*
X154747523Y-86021113D01*
X154844184Y-86050192D01*
X154961129Y-86059885D01*
X155001517Y-86059078D01*
X155035443Y-86056654D01*
X155035443Y-85563924D01*
X155101880Y-85579271D01*
X155152567Y-85625313D01*
X155184675Y-85695588D01*
X155195378Y-85783633D01*
X155182454Y-85897527D01*
X155156606Y-85988803D01*
X155326234Y-86016267D01*
X155356121Y-85906412D01*
X155368237Y-85775556D01*
X155361977Y-85683674D01*
X155343197Y-85601889D01*
X155312099Y-85530806D01*
X155268884Y-85471032D01*
X155213754Y-85423173D01*
X155146913Y-85387834D01*
X155068157Y-85366024D01*
X154977284Y-85358754D01*
X154883181Y-85366428D01*
X154801194Y-85389449D01*
X154731525Y-85424990D01*
X154674376Y-85470225D01*
X154629748Y-85523940D01*
X154597640Y-85584926D01*
X154578254Y-85650354D01*
X154573193Y-85702858D01*
X154571792Y-85717397D01*
X153347604Y-85717397D01*
X153348851Y-85702858D01*
X153346024Y-85624506D01*
X153337543Y-85544538D01*
X153324619Y-85470225D01*
X153308464Y-85408835D01*
X152243843Y-85408835D01*
X152209918Y-85607543D01*
X151317382Y-85607543D01*
X151303617Y-85559078D01*
X151230111Y-85464570D01*
X151117834Y-85416913D01*
X151049982Y-85407220D01*
X150975669Y-85403989D01*
X150552405Y-85403989D01*
X150055906Y-85403989D01*
X150055906Y-84799788D01*
X150190532Y-84799788D01*
X150570176Y-84799788D01*
X150543520Y-84880564D01*
X150536250Y-84958108D01*
X150543318Y-85027979D01*
X150564522Y-85088964D01*
X150645297Y-85183472D01*
X150702850Y-85216792D01*
X150770499Y-85240822D01*
X150847236Y-85255362D01*
X150932050Y-85260208D01*
X151018278Y-85254150D01*
X151096024Y-85235976D01*
X151164078Y-85206089D01*
X151221226Y-85164893D01*
X151267066Y-85112793D01*
X151301194Y-85050192D01*
X151322397Y-84977494D01*
X151326000Y-84935491D01*
X152308464Y-84935491D01*
X152328658Y-85059885D01*
X152392470Y-85161662D01*
X152442753Y-85200838D01*
X152506363Y-85231129D01*
X152584110Y-85250515D01*
X152676800Y-85256977D01*
X153242228Y-85256977D01*
X153268884Y-85156008D01*
X153277769Y-85056654D01*
X153259191Y-84942761D01*
X153201032Y-84851485D01*
X153097640Y-84790903D01*
X153026759Y-84774546D01*
X152941743Y-84769094D01*
X152814118Y-84781210D01*
X152709918Y-84822405D01*
X152639643Y-84897527D01*
X152613795Y-85011420D01*
X152621872Y-85087349D01*
X152596024Y-85087349D01*
X152491824Y-85048577D01*
X152449013Y-84935491D01*
X152471630Y-84834522D01*
X152550790Y-84752131D01*
X152616824Y-84721032D01*
X152701840Y-84697204D01*
X152808666Y-84682058D01*
X152940128Y-84677010D01*
X153046751Y-84681250D01*
X153140451Y-84693973D01*
X153220620Y-84716994D01*
X153286654Y-84752131D01*
X153338553Y-84800192D01*
X153376315Y-84861985D01*
X153399336Y-84938924D01*
X153407010Y-85032422D01*
X153398932Y-85151969D01*
X153386008Y-85208512D01*
X153526557Y-85226283D01*
X153537058Y-85176202D01*
X153543520Y-85130968D01*
X153547559Y-85084926D01*
X153549174Y-85032422D01*
X153547008Y-85001727D01*
X154576638Y-85001727D01*
X154577715Y-85032422D01*
X154578254Y-85047769D01*
X154583908Y-85111582D01*
X154593601Y-85180241D01*
X154608948Y-85242438D01*
X154793116Y-85206897D01*
X154783423Y-85160855D01*
X154774538Y-85106735D01*
X154768884Y-85053423D01*
X154767268Y-85009805D01*
X154771307Y-84927414D01*
X154786654Y-84845023D01*
X155350467Y-84845023D01*
X155350467Y-84644700D01*
X154641258Y-84644700D01*
X154615006Y-84724869D01*
X154594409Y-84807058D01*
X154581081Y-84897325D01*
X154576638Y-85001727D01*
X153547008Y-85001727D01*
X153541905Y-84929433D01*
X153520095Y-84833714D01*
X153480313Y-84747890D01*
X153419126Y-84674586D01*
X153335523Y-84614611D01*
X153228496Y-84568771D01*
X153142605Y-84547230D01*
X153043251Y-84534306D01*
X152930435Y-84529998D01*
X152820311Y-84533678D01*
X152722572Y-84544717D01*
X152637220Y-84563116D01*
X152529788Y-84602090D01*
X152444974Y-84652777D01*
X152381969Y-84713359D01*
X152339966Y-84782018D01*
X152316339Y-84856735D01*
X152312502Y-84895103D01*
X152308464Y-84935491D01*
X151326000Y-84935491D01*
X151329465Y-84895103D01*
X151326638Y-84816751D01*
X151318157Y-84736784D01*
X151305233Y-84662470D01*
X151289078Y-84601081D01*
X150224457Y-84601081D01*
X150190532Y-84799788D01*
X150055906Y-84799788D01*
X150055906Y-84529998D01*
X150055906Y-84395373D01*
X155506094Y-84395373D01*
X155506094Y-84529998D01*
X155506094Y-84845023D01*
X155506094Y-85775556D01*
G37*
%TD*%
M02*
