%TF.GenerationSoftware,KiCad,Pcbnew,8.0.5*%
%TF.CreationDate,2024-11-11T11:07:53-06:00*%
%TF.ProjectId,buffer_breakout_board,62756666-6572-45f6-9272-65616b6f7574,rev?*%
%TF.SameCoordinates,Original*%
%TF.FileFunction,Copper,L2,Bot*%
%TF.FilePolarity,Positive*%
%FSLAX46Y46*%
G04 Gerber Fmt 4.6, Leading zero omitted, Abs format (unit mm)*
G04 Created by KiCad (PCBNEW 8.0.5) date 2024-11-11 11:07:53*
%MOMM*%
%LPD*%
G01*
G04 APERTURE LIST*
%TA.AperFunction,ComponentPad*%
%ADD10R,1.700000X1.700000*%
%TD*%
%TA.AperFunction,ComponentPad*%
%ADD11O,1.700000X1.700000*%
%TD*%
%TA.AperFunction,ViaPad*%
%ADD12C,0.800000*%
%TD*%
G04 APERTURE END LIST*
D10*
%TO.P,J10,1,Pin_1*%
%TO.N,GND*%
X142535600Y-85417500D03*
D11*
%TO.P,J10,2,Pin_2*%
%TO.N,/IN00*%
X142535600Y-87957500D03*
%TO.P,J10,3,Pin_3*%
%TO.N,/IN01*%
X142535600Y-90497500D03*
%TO.P,J10,4,Pin_4*%
%TO.N,/IN02*%
X142535600Y-93037500D03*
%TO.P,J10,5,Pin_5*%
%TO.N,/IN03*%
X142535600Y-95577500D03*
%TO.P,J10,6,Pin_6*%
%TO.N,GND*%
X142535600Y-98117500D03*
%TO.P,J10,7,Pin_7*%
%TO.N,/IN04*%
X142535600Y-100657500D03*
%TO.P,J10,8,Pin_8*%
%TO.N,/IN05*%
X142535600Y-103197500D03*
%TO.P,J10,9,Pin_9*%
%TO.N,/IN06*%
X142535600Y-105737500D03*
%TO.P,J10,10,Pin_10*%
%TO.N,/IN07*%
X142535600Y-108277500D03*
%TO.P,J10,11,Pin_11*%
%TO.N,GND*%
X142535600Y-110817500D03*
%TO.P,J10,12,Pin_12*%
%TO.N,/OE*%
X142535600Y-113357500D03*
%TO.P,J10,13,Pin_13*%
%TO.N,GND*%
X142535600Y-115897500D03*
%TO.P,J10,14,Pin_14*%
%TO.N,/Vb_In*%
X142535600Y-118437500D03*
%TD*%
D10*
%TO.P,J3,1,Pin_1*%
%TO.N,GND*%
X162855600Y-85417500D03*
D11*
%TO.P,J3,2,Pin_2*%
%TO.N,/BUF00*%
X162855600Y-87957500D03*
%TO.P,J3,3,Pin_3*%
%TO.N,/BUF01*%
X162855600Y-90497500D03*
%TO.P,J3,4,Pin_4*%
%TO.N,/BUF02*%
X162855600Y-93037500D03*
%TO.P,J3,5,Pin_5*%
%TO.N,/BUF03*%
X162855600Y-95577500D03*
%TO.P,J3,6,Pin_6*%
%TO.N,GND*%
X162855600Y-98117500D03*
%TO.P,J3,7,Pin_7*%
%TO.N,/BUF04*%
X162855600Y-100657500D03*
%TO.P,J3,8,Pin_8*%
%TO.N,/BUF05*%
X162855600Y-103197500D03*
%TO.P,J3,9,Pin_9*%
%TO.N,/BUF06*%
X162855600Y-105737500D03*
%TO.P,J3,10,Pin_10*%
%TO.N,/BUF07*%
X162855600Y-108277500D03*
%TO.P,J3,11,Pin_11*%
%TO.N,GND*%
X162855600Y-110817500D03*
%TO.P,J3,12,Pin_12*%
%TO.N,/DIR*%
X162855600Y-113357500D03*
%TO.P,J3,13,Pin_13*%
%TO.N,GND*%
X162855600Y-115897500D03*
%TO.P,J3,14,Pin_14*%
%TO.N,/Va_In*%
X162855600Y-118437500D03*
%TD*%
D10*
%TO.P,J7,1,Pin_1*%
%TO.N,Vccb*%
X150155600Y-114373500D03*
D11*
%TO.P,J7,2,Pin_2*%
%TO.N,/Vb_In*%
X147615600Y-114373500D03*
%TD*%
D10*
%TO.P,J2,1,Pin_1*%
%TO.N,/Va_In*%
X157526600Y-114373500D03*
D11*
%TO.P,J2,2,Pin_2*%
%TO.N,Vcca*%
X154986600Y-114373500D03*
%TD*%
D12*
%TO.N,GND*%
X159766000Y-108966000D03*
X156083000Y-107569000D03*
X152908000Y-105226552D03*
X152908000Y-97663000D03*
X149225000Y-107569000D03*
X152908000Y-99553888D03*
X152908000Y-104281108D03*
X156591000Y-85725000D03*
X148336000Y-120523000D03*
X152908000Y-103335664D03*
X152908000Y-100499332D03*
X152908000Y-102390220D03*
X148717000Y-85725000D03*
X154559000Y-120523000D03*
X152908000Y-93091000D03*
X152908000Y-106172000D03*
X146685000Y-109982000D03*
X152908000Y-98608444D03*
X152908000Y-101444776D03*
X156972000Y-120523000D03*
X150749000Y-120523000D03*
%TD*%
%TA.AperFunction,Conductor*%
%TO.N,GND*%
G36*
X164576139Y-83710485D02*
G01*
X164621894Y-83763289D01*
X164633100Y-83814800D01*
X164633100Y-121411800D01*
X164613415Y-121478839D01*
X164560611Y-121524594D01*
X164509100Y-121535800D01*
X140932900Y-121535800D01*
X140865861Y-121516115D01*
X140820106Y-121463311D01*
X140808900Y-121411800D01*
X140808900Y-110567499D01*
X141204964Y-110567499D01*
X141204964Y-110567500D01*
X142102588Y-110567500D01*
X142069675Y-110624507D01*
X142035600Y-110751674D01*
X142035600Y-110883326D01*
X142069675Y-111010493D01*
X142102588Y-111067500D01*
X141204964Y-111067500D01*
X141262167Y-111280986D01*
X141262170Y-111280992D01*
X141361999Y-111495078D01*
X141497494Y-111688582D01*
X141664517Y-111855605D01*
X141858021Y-111991100D01*
X142072107Y-112090929D01*
X142072116Y-112090933D01*
X142194249Y-112123658D01*
X142253910Y-112160023D01*
X142284439Y-112222869D01*
X142276145Y-112292245D01*
X142231659Y-112346123D01*
X142198152Y-112362093D01*
X142131646Y-112382267D01*
X142000958Y-112452122D01*
X141949150Y-112479815D01*
X141949148Y-112479816D01*
X141949147Y-112479817D01*
X141789189Y-112611089D01*
X141657917Y-112771047D01*
X141560369Y-112953543D01*
X141500299Y-113151567D01*
X141480017Y-113357500D01*
X141500299Y-113563432D01*
X141530334Y-113662444D01*
X141560368Y-113761454D01*
X141657915Y-113943950D01*
X141657917Y-113943952D01*
X141789189Y-114103910D01*
X141866757Y-114167567D01*
X141949150Y-114235185D01*
X142131646Y-114332732D01*
X142198151Y-114352905D01*
X142256589Y-114391202D01*
X142285046Y-114455014D01*
X142274487Y-114524081D01*
X142228263Y-114576475D01*
X142194250Y-114591341D01*
X142072114Y-114624067D01*
X142072107Y-114624070D01*
X141858022Y-114723899D01*
X141858020Y-114723900D01*
X141664526Y-114859386D01*
X141664520Y-114859391D01*
X141497491Y-115026420D01*
X141497486Y-115026426D01*
X141362000Y-115219920D01*
X141361999Y-115219922D01*
X141262170Y-115434007D01*
X141262167Y-115434013D01*
X141204964Y-115647499D01*
X141204964Y-115647500D01*
X142102588Y-115647500D01*
X142069675Y-115704507D01*
X142035600Y-115831674D01*
X142035600Y-115963326D01*
X142069675Y-116090493D01*
X142102588Y-116147500D01*
X141204964Y-116147500D01*
X141262167Y-116360986D01*
X141262170Y-116360992D01*
X141361999Y-116575078D01*
X141497494Y-116768582D01*
X141664517Y-116935605D01*
X141858021Y-117071100D01*
X142072107Y-117170929D01*
X142072116Y-117170933D01*
X142194249Y-117203658D01*
X142253910Y-117240023D01*
X142284439Y-117302869D01*
X142276145Y-117372245D01*
X142231659Y-117426123D01*
X142198152Y-117442093D01*
X142131646Y-117462267D01*
X142000958Y-117532122D01*
X141949150Y-117559815D01*
X141949148Y-117559816D01*
X141949147Y-117559817D01*
X141789189Y-117691089D01*
X141657917Y-117851047D01*
X141560369Y-118033543D01*
X141500299Y-118231567D01*
X141480017Y-118437500D01*
X141500299Y-118643432D01*
X141500300Y-118643434D01*
X141560368Y-118841454D01*
X141657915Y-119023950D01*
X141657917Y-119023952D01*
X141789189Y-119183910D01*
X141885809Y-119263202D01*
X141949150Y-119315185D01*
X142131646Y-119412732D01*
X142329666Y-119472800D01*
X142329665Y-119472800D01*
X142348129Y-119474618D01*
X142535600Y-119493083D01*
X142741534Y-119472800D01*
X142939554Y-119412732D01*
X143122050Y-119315185D01*
X143282010Y-119183910D01*
X143413285Y-119023950D01*
X143510832Y-118841454D01*
X143570900Y-118643434D01*
X143591183Y-118437500D01*
X143570900Y-118231566D01*
X143510832Y-118033546D01*
X143413285Y-117851050D01*
X143361302Y-117787709D01*
X143282010Y-117691089D01*
X143122052Y-117559817D01*
X143122053Y-117559817D01*
X143122050Y-117559815D01*
X142939554Y-117462268D01*
X142873047Y-117442093D01*
X142814609Y-117403796D01*
X142786153Y-117339984D01*
X142796713Y-117270917D01*
X142842937Y-117218523D01*
X142876950Y-117203658D01*
X142999083Y-117170933D01*
X142999092Y-117170929D01*
X143213178Y-117071100D01*
X143406682Y-116935605D01*
X143573705Y-116768582D01*
X143709200Y-116575078D01*
X143809029Y-116360992D01*
X143809032Y-116360986D01*
X143866236Y-116147500D01*
X142968612Y-116147500D01*
X143001525Y-116090493D01*
X143035600Y-115963326D01*
X143035600Y-115831674D01*
X143001525Y-115704507D01*
X142968612Y-115647500D01*
X143866236Y-115647500D01*
X143866235Y-115647499D01*
X143809032Y-115434013D01*
X143809029Y-115434007D01*
X143709200Y-115219922D01*
X143709199Y-115219920D01*
X143573713Y-115026426D01*
X143573708Y-115026420D01*
X143406682Y-114859394D01*
X143213178Y-114723899D01*
X142999092Y-114624070D01*
X142999086Y-114624067D01*
X142876949Y-114591341D01*
X142817289Y-114554976D01*
X142786760Y-114492129D01*
X142795055Y-114422753D01*
X142835721Y-114373500D01*
X146560017Y-114373500D01*
X146580299Y-114579432D01*
X146580300Y-114579434D01*
X146640368Y-114777454D01*
X146737915Y-114959950D01*
X146737917Y-114959952D01*
X146869189Y-115119910D01*
X146965809Y-115199202D01*
X147029150Y-115251185D01*
X147211646Y-115348732D01*
X147409666Y-115408800D01*
X147409665Y-115408800D01*
X147428129Y-115410618D01*
X147615600Y-115429083D01*
X147821534Y-115408800D01*
X148019554Y-115348732D01*
X148202050Y-115251185D01*
X148362010Y-115119910D01*
X148493285Y-114959950D01*
X148590832Y-114777454D01*
X148650900Y-114579434D01*
X148671183Y-114373500D01*
X148650900Y-114167566D01*
X148590832Y-113969546D01*
X148493285Y-113787050D01*
X148441302Y-113723709D01*
X148362010Y-113627089D01*
X148211721Y-113503752D01*
X148211715Y-113503747D01*
X149105100Y-113503747D01*
X149105100Y-115243252D01*
X149116731Y-115301729D01*
X149116732Y-115301730D01*
X149161047Y-115368052D01*
X149227369Y-115412367D01*
X149227370Y-115412368D01*
X149285847Y-115423999D01*
X149285850Y-115424000D01*
X149285852Y-115424000D01*
X151025350Y-115424000D01*
X151025351Y-115423999D01*
X151040168Y-115421052D01*
X151083829Y-115412368D01*
X151083829Y-115412367D01*
X151083831Y-115412367D01*
X151150152Y-115368052D01*
X151194467Y-115301731D01*
X151194467Y-115301729D01*
X151194468Y-115301729D01*
X151206099Y-115243252D01*
X151206100Y-115243250D01*
X151206100Y-114373500D01*
X153931017Y-114373500D01*
X153951299Y-114579432D01*
X153951300Y-114579434D01*
X154011368Y-114777454D01*
X154108915Y-114959950D01*
X154108917Y-114959952D01*
X154240189Y-115119910D01*
X154336809Y-115199202D01*
X154400150Y-115251185D01*
X154582646Y-115348732D01*
X154780666Y-115408800D01*
X154780665Y-115408800D01*
X154799129Y-115410618D01*
X154986600Y-115429083D01*
X155192534Y-115408800D01*
X155390554Y-115348732D01*
X155573050Y-115251185D01*
X155733010Y-115119910D01*
X155864285Y-114959950D01*
X155961832Y-114777454D01*
X156021900Y-114579434D01*
X156042183Y-114373500D01*
X156021900Y-114167566D01*
X155961832Y-113969546D01*
X155864285Y-113787050D01*
X155812302Y-113723709D01*
X155733010Y-113627089D01*
X155582721Y-113503752D01*
X155582715Y-113503747D01*
X156476100Y-113503747D01*
X156476100Y-115243252D01*
X156487731Y-115301729D01*
X156487732Y-115301730D01*
X156532047Y-115368052D01*
X156598369Y-115412367D01*
X156598370Y-115412368D01*
X156656847Y-115423999D01*
X156656850Y-115424000D01*
X156656852Y-115424000D01*
X158396350Y-115424000D01*
X158396351Y-115423999D01*
X158411168Y-115421052D01*
X158454829Y-115412368D01*
X158454829Y-115412367D01*
X158454831Y-115412367D01*
X158521152Y-115368052D01*
X158565467Y-115301731D01*
X158565467Y-115301729D01*
X158565468Y-115301729D01*
X158577099Y-115243252D01*
X158577100Y-115243250D01*
X158577100Y-113503749D01*
X158577099Y-113503747D01*
X158565468Y-113445270D01*
X158565467Y-113445269D01*
X158521152Y-113378947D01*
X158454830Y-113334632D01*
X158454829Y-113334631D01*
X158396352Y-113323000D01*
X158396348Y-113323000D01*
X156656852Y-113323000D01*
X156656847Y-113323000D01*
X156598370Y-113334631D01*
X156598369Y-113334632D01*
X156532047Y-113378947D01*
X156487732Y-113445269D01*
X156487731Y-113445270D01*
X156476100Y-113503747D01*
X155582715Y-113503747D01*
X155573050Y-113495815D01*
X155390554Y-113398268D01*
X155192534Y-113338200D01*
X155192532Y-113338199D01*
X155192534Y-113338199D01*
X154986600Y-113317917D01*
X154780667Y-113338199D01*
X154582643Y-113398269D01*
X154494714Y-113445269D01*
X154400150Y-113495815D01*
X154400148Y-113495816D01*
X154400147Y-113495817D01*
X154240189Y-113627089D01*
X154108917Y-113787047D01*
X154011369Y-113969543D01*
X153951299Y-114167567D01*
X153931017Y-114373500D01*
X151206100Y-114373500D01*
X151206100Y-113503749D01*
X151206099Y-113503747D01*
X151194468Y-113445270D01*
X151194467Y-113445269D01*
X151150152Y-113378947D01*
X151083830Y-113334632D01*
X151083829Y-113334631D01*
X151025352Y-113323000D01*
X151025348Y-113323000D01*
X149285852Y-113323000D01*
X149285847Y-113323000D01*
X149227370Y-113334631D01*
X149227369Y-113334632D01*
X149161047Y-113378947D01*
X149116732Y-113445269D01*
X149116731Y-113445270D01*
X149105100Y-113503747D01*
X148211715Y-113503747D01*
X148202050Y-113495815D01*
X148019554Y-113398268D01*
X147821534Y-113338200D01*
X147821532Y-113338199D01*
X147821534Y-113338199D01*
X147615600Y-113317917D01*
X147409667Y-113338199D01*
X147211643Y-113398269D01*
X147123714Y-113445269D01*
X147029150Y-113495815D01*
X147029148Y-113495816D01*
X147029147Y-113495817D01*
X146869189Y-113627089D01*
X146737917Y-113787047D01*
X146640369Y-113969543D01*
X146580299Y-114167567D01*
X146560017Y-114373500D01*
X142835721Y-114373500D01*
X142839540Y-114368875D01*
X142873044Y-114352907D01*
X142939554Y-114332732D01*
X143122050Y-114235185D01*
X143282010Y-114103910D01*
X143413285Y-113943950D01*
X143510832Y-113761454D01*
X143570900Y-113563434D01*
X143591183Y-113357500D01*
X143570900Y-113151566D01*
X143510832Y-112953546D01*
X143413285Y-112771050D01*
X143361302Y-112707709D01*
X143282010Y-112611089D01*
X143122052Y-112479817D01*
X143122053Y-112479817D01*
X143122050Y-112479815D01*
X142939554Y-112382268D01*
X142873047Y-112362093D01*
X142814609Y-112323796D01*
X142786153Y-112259984D01*
X142796713Y-112190917D01*
X142842937Y-112138523D01*
X142876950Y-112123658D01*
X142999083Y-112090933D01*
X142999092Y-112090929D01*
X143213178Y-111991100D01*
X143406682Y-111855605D01*
X143573705Y-111688582D01*
X143709200Y-111495078D01*
X143809029Y-111280992D01*
X143809032Y-111280986D01*
X143866236Y-111067500D01*
X142968612Y-111067500D01*
X143001525Y-111010493D01*
X143035600Y-110883326D01*
X143035600Y-110751674D01*
X143001525Y-110624507D01*
X142968612Y-110567500D01*
X143866236Y-110567500D01*
X143866235Y-110567499D01*
X161524964Y-110567499D01*
X161524964Y-110567500D01*
X162422588Y-110567500D01*
X162389675Y-110624507D01*
X162355600Y-110751674D01*
X162355600Y-110883326D01*
X162389675Y-111010493D01*
X162422588Y-111067500D01*
X161524964Y-111067500D01*
X161582167Y-111280986D01*
X161582170Y-111280992D01*
X161681999Y-111495078D01*
X161817494Y-111688582D01*
X161984517Y-111855605D01*
X162178021Y-111991100D01*
X162392107Y-112090929D01*
X162392116Y-112090933D01*
X162514249Y-112123658D01*
X162573910Y-112160023D01*
X162604439Y-112222869D01*
X162596145Y-112292245D01*
X162551659Y-112346123D01*
X162518152Y-112362093D01*
X162451646Y-112382267D01*
X162320958Y-112452122D01*
X162269150Y-112479815D01*
X162269148Y-112479816D01*
X162269147Y-112479817D01*
X162109189Y-112611089D01*
X161977917Y-112771047D01*
X161880369Y-112953543D01*
X161820299Y-113151567D01*
X161800017Y-113357500D01*
X161820299Y-113563432D01*
X161850334Y-113662444D01*
X161880368Y-113761454D01*
X161977915Y-113943950D01*
X161977917Y-113943952D01*
X162109189Y-114103910D01*
X162186757Y-114167567D01*
X162269150Y-114235185D01*
X162451646Y-114332732D01*
X162518151Y-114352905D01*
X162576589Y-114391202D01*
X162605046Y-114455014D01*
X162594487Y-114524081D01*
X162548263Y-114576475D01*
X162514250Y-114591341D01*
X162392114Y-114624067D01*
X162392107Y-114624070D01*
X162178022Y-114723899D01*
X162178020Y-114723900D01*
X161984526Y-114859386D01*
X161984520Y-114859391D01*
X161817491Y-115026420D01*
X161817486Y-115026426D01*
X161682000Y-115219920D01*
X161681999Y-115219922D01*
X161582170Y-115434007D01*
X161582167Y-115434013D01*
X161524964Y-115647499D01*
X161524964Y-115647500D01*
X162422588Y-115647500D01*
X162389675Y-115704507D01*
X162355600Y-115831674D01*
X162355600Y-115963326D01*
X162389675Y-116090493D01*
X162422588Y-116147500D01*
X161524964Y-116147500D01*
X161582167Y-116360986D01*
X161582170Y-116360992D01*
X161681999Y-116575078D01*
X161817494Y-116768582D01*
X161984517Y-116935605D01*
X162178021Y-117071100D01*
X162392107Y-117170929D01*
X162392116Y-117170933D01*
X162514249Y-117203658D01*
X162573910Y-117240023D01*
X162604439Y-117302869D01*
X162596145Y-117372245D01*
X162551659Y-117426123D01*
X162518152Y-117442093D01*
X162451646Y-117462267D01*
X162320958Y-117532122D01*
X162269150Y-117559815D01*
X162269148Y-117559816D01*
X162269147Y-117559817D01*
X162109189Y-117691089D01*
X161977917Y-117851047D01*
X161880369Y-118033543D01*
X161820299Y-118231567D01*
X161800017Y-118437500D01*
X161820299Y-118643432D01*
X161820300Y-118643434D01*
X161880368Y-118841454D01*
X161977915Y-119023950D01*
X161977917Y-119023952D01*
X162109189Y-119183910D01*
X162205809Y-119263202D01*
X162269150Y-119315185D01*
X162451646Y-119412732D01*
X162649666Y-119472800D01*
X162649665Y-119472800D01*
X162668129Y-119474618D01*
X162855600Y-119493083D01*
X163061534Y-119472800D01*
X163259554Y-119412732D01*
X163442050Y-119315185D01*
X163602010Y-119183910D01*
X163733285Y-119023950D01*
X163830832Y-118841454D01*
X163890900Y-118643434D01*
X163911183Y-118437500D01*
X163890900Y-118231566D01*
X163830832Y-118033546D01*
X163733285Y-117851050D01*
X163681302Y-117787709D01*
X163602010Y-117691089D01*
X163442052Y-117559817D01*
X163442053Y-117559817D01*
X163442050Y-117559815D01*
X163259554Y-117462268D01*
X163193047Y-117442093D01*
X163134609Y-117403796D01*
X163106153Y-117339984D01*
X163116713Y-117270917D01*
X163162937Y-117218523D01*
X163196950Y-117203658D01*
X163319083Y-117170933D01*
X163319092Y-117170929D01*
X163533178Y-117071100D01*
X163726682Y-116935605D01*
X163893705Y-116768582D01*
X164029200Y-116575078D01*
X164129029Y-116360992D01*
X164129032Y-116360986D01*
X164186236Y-116147500D01*
X163288612Y-116147500D01*
X163321525Y-116090493D01*
X163355600Y-115963326D01*
X163355600Y-115831674D01*
X163321525Y-115704507D01*
X163288612Y-115647500D01*
X164186236Y-115647500D01*
X164186235Y-115647499D01*
X164129032Y-115434013D01*
X164129029Y-115434007D01*
X164029200Y-115219922D01*
X164029199Y-115219920D01*
X163893713Y-115026426D01*
X163893708Y-115026420D01*
X163726682Y-114859394D01*
X163533178Y-114723899D01*
X163319092Y-114624070D01*
X163319086Y-114624067D01*
X163196949Y-114591341D01*
X163137289Y-114554976D01*
X163106760Y-114492129D01*
X163115055Y-114422753D01*
X163159540Y-114368875D01*
X163193044Y-114352907D01*
X163259554Y-114332732D01*
X163442050Y-114235185D01*
X163602010Y-114103910D01*
X163733285Y-113943950D01*
X163830832Y-113761454D01*
X163890900Y-113563434D01*
X163911183Y-113357500D01*
X163890900Y-113151566D01*
X163830832Y-112953546D01*
X163733285Y-112771050D01*
X163681302Y-112707709D01*
X163602010Y-112611089D01*
X163442052Y-112479817D01*
X163442053Y-112479817D01*
X163442050Y-112479815D01*
X163259554Y-112382268D01*
X163193047Y-112362093D01*
X163134609Y-112323796D01*
X163106153Y-112259984D01*
X163116713Y-112190917D01*
X163162937Y-112138523D01*
X163196950Y-112123658D01*
X163319083Y-112090933D01*
X163319092Y-112090929D01*
X163533178Y-111991100D01*
X163726682Y-111855605D01*
X163893705Y-111688582D01*
X164029200Y-111495078D01*
X164129029Y-111280992D01*
X164129032Y-111280986D01*
X164186236Y-111067500D01*
X163288612Y-111067500D01*
X163321525Y-111010493D01*
X163355600Y-110883326D01*
X163355600Y-110751674D01*
X163321525Y-110624507D01*
X163288612Y-110567500D01*
X164186236Y-110567500D01*
X164186235Y-110567499D01*
X164129032Y-110354013D01*
X164129029Y-110354007D01*
X164029200Y-110139922D01*
X164029199Y-110139920D01*
X163893713Y-109946426D01*
X163893708Y-109946420D01*
X163726682Y-109779394D01*
X163533178Y-109643899D01*
X163319092Y-109544070D01*
X163319086Y-109544067D01*
X163196949Y-109511341D01*
X163137289Y-109474976D01*
X163106760Y-109412129D01*
X163115055Y-109342753D01*
X163159540Y-109288875D01*
X163193044Y-109272907D01*
X163259554Y-109252732D01*
X163442050Y-109155185D01*
X163602010Y-109023910D01*
X163733285Y-108863950D01*
X163830832Y-108681454D01*
X163890900Y-108483434D01*
X163911183Y-108277500D01*
X163890900Y-108071566D01*
X163830832Y-107873546D01*
X163733285Y-107691050D01*
X163681302Y-107627709D01*
X163602010Y-107531089D01*
X163442052Y-107399817D01*
X163442053Y-107399817D01*
X163442050Y-107399815D01*
X163259554Y-107302268D01*
X163061534Y-107242200D01*
X163061532Y-107242199D01*
X163061534Y-107242199D01*
X162855600Y-107221917D01*
X162649667Y-107242199D01*
X162451643Y-107302269D01*
X162341498Y-107361143D01*
X162269150Y-107399815D01*
X162269148Y-107399816D01*
X162269147Y-107399817D01*
X162109189Y-107531089D01*
X161977917Y-107691047D01*
X161880369Y-107873543D01*
X161820299Y-108071567D01*
X161800017Y-108277500D01*
X161820299Y-108483432D01*
X161820300Y-108483434D01*
X161880368Y-108681454D01*
X161977915Y-108863950D01*
X161977917Y-108863952D01*
X162109189Y-109023910D01*
X162205809Y-109103202D01*
X162269150Y-109155185D01*
X162451646Y-109252732D01*
X162518151Y-109272905D01*
X162576589Y-109311202D01*
X162605046Y-109375014D01*
X162594487Y-109444081D01*
X162548263Y-109496475D01*
X162514250Y-109511341D01*
X162392114Y-109544067D01*
X162392107Y-109544070D01*
X162178022Y-109643899D01*
X162178020Y-109643900D01*
X161984526Y-109779386D01*
X161984520Y-109779391D01*
X161817491Y-109946420D01*
X161817486Y-109946426D01*
X161682000Y-110139920D01*
X161681999Y-110139922D01*
X161582170Y-110354007D01*
X161582167Y-110354013D01*
X161524964Y-110567499D01*
X143866235Y-110567499D01*
X143809032Y-110354013D01*
X143809029Y-110354007D01*
X143709200Y-110139922D01*
X143709199Y-110139920D01*
X143573713Y-109946426D01*
X143573708Y-109946420D01*
X143406682Y-109779394D01*
X143213178Y-109643899D01*
X142999092Y-109544070D01*
X142999086Y-109544067D01*
X142876949Y-109511341D01*
X142817289Y-109474976D01*
X142786760Y-109412129D01*
X142795055Y-109342753D01*
X142839540Y-109288875D01*
X142873044Y-109272907D01*
X142939554Y-109252732D01*
X143122050Y-109155185D01*
X143282010Y-109023910D01*
X143413285Y-108863950D01*
X143510832Y-108681454D01*
X143570900Y-108483434D01*
X143591183Y-108277500D01*
X143570900Y-108071566D01*
X143510832Y-107873546D01*
X143413285Y-107691050D01*
X143361302Y-107627709D01*
X143282010Y-107531089D01*
X143122052Y-107399817D01*
X143122053Y-107399817D01*
X143122050Y-107399815D01*
X142939554Y-107302268D01*
X142741534Y-107242200D01*
X142741532Y-107242199D01*
X142741534Y-107242199D01*
X142535600Y-107221917D01*
X142329667Y-107242199D01*
X142131643Y-107302269D01*
X142021498Y-107361143D01*
X141949150Y-107399815D01*
X141949148Y-107399816D01*
X141949147Y-107399817D01*
X141789189Y-107531089D01*
X141657917Y-107691047D01*
X141560369Y-107873543D01*
X141500299Y-108071567D01*
X141480017Y-108277500D01*
X141500299Y-108483432D01*
X141500300Y-108483434D01*
X141560368Y-108681454D01*
X141657915Y-108863950D01*
X141657917Y-108863952D01*
X141789189Y-109023910D01*
X141885809Y-109103202D01*
X141949150Y-109155185D01*
X142131646Y-109252732D01*
X142198151Y-109272905D01*
X142256589Y-109311202D01*
X142285046Y-109375014D01*
X142274487Y-109444081D01*
X142228263Y-109496475D01*
X142194250Y-109511341D01*
X142072114Y-109544067D01*
X142072107Y-109544070D01*
X141858022Y-109643899D01*
X141858020Y-109643900D01*
X141664526Y-109779386D01*
X141664520Y-109779391D01*
X141497491Y-109946420D01*
X141497486Y-109946426D01*
X141362000Y-110139920D01*
X141361999Y-110139922D01*
X141262170Y-110354007D01*
X141262167Y-110354013D01*
X141204964Y-110567499D01*
X140808900Y-110567499D01*
X140808900Y-105737500D01*
X141480017Y-105737500D01*
X141500299Y-105943432D01*
X141500300Y-105943434D01*
X141560368Y-106141454D01*
X141657915Y-106323950D01*
X141657917Y-106323952D01*
X141789189Y-106483910D01*
X141885809Y-106563202D01*
X141949150Y-106615185D01*
X142131646Y-106712732D01*
X142329666Y-106772800D01*
X142329665Y-106772800D01*
X142348129Y-106774618D01*
X142535600Y-106793083D01*
X142741534Y-106772800D01*
X142939554Y-106712732D01*
X143122050Y-106615185D01*
X143282010Y-106483910D01*
X143413285Y-106323950D01*
X143510832Y-106141454D01*
X143570900Y-105943434D01*
X143591183Y-105737500D01*
X161800017Y-105737500D01*
X161820299Y-105943432D01*
X161820300Y-105943434D01*
X161880368Y-106141454D01*
X161977915Y-106323950D01*
X161977917Y-106323952D01*
X162109189Y-106483910D01*
X162205809Y-106563202D01*
X162269150Y-106615185D01*
X162451646Y-106712732D01*
X162649666Y-106772800D01*
X162649665Y-106772800D01*
X162668129Y-106774618D01*
X162855600Y-106793083D01*
X163061534Y-106772800D01*
X163259554Y-106712732D01*
X163442050Y-106615185D01*
X163602010Y-106483910D01*
X163733285Y-106323950D01*
X163830832Y-106141454D01*
X163890900Y-105943434D01*
X163911183Y-105737500D01*
X163890900Y-105531566D01*
X163830832Y-105333546D01*
X163733285Y-105151050D01*
X163681302Y-105087709D01*
X163602010Y-104991089D01*
X163442052Y-104859817D01*
X163442053Y-104859817D01*
X163442050Y-104859815D01*
X163259554Y-104762268D01*
X163061534Y-104702200D01*
X163061532Y-104702199D01*
X163061534Y-104702199D01*
X162855600Y-104681917D01*
X162649667Y-104702199D01*
X162451643Y-104762269D01*
X162341498Y-104821143D01*
X162269150Y-104859815D01*
X162269148Y-104859816D01*
X162269147Y-104859817D01*
X162109189Y-104991089D01*
X161977917Y-105151047D01*
X161880369Y-105333543D01*
X161820299Y-105531567D01*
X161800017Y-105737500D01*
X143591183Y-105737500D01*
X143570900Y-105531566D01*
X143510832Y-105333546D01*
X143413285Y-105151050D01*
X143361302Y-105087709D01*
X143282010Y-104991089D01*
X143122052Y-104859817D01*
X143122053Y-104859817D01*
X143122050Y-104859815D01*
X142939554Y-104762268D01*
X142741534Y-104702200D01*
X142741532Y-104702199D01*
X142741534Y-104702199D01*
X142535600Y-104681917D01*
X142329667Y-104702199D01*
X142131643Y-104762269D01*
X142021498Y-104821143D01*
X141949150Y-104859815D01*
X141949148Y-104859816D01*
X141949147Y-104859817D01*
X141789189Y-104991089D01*
X141657917Y-105151047D01*
X141560369Y-105333543D01*
X141500299Y-105531567D01*
X141480017Y-105737500D01*
X140808900Y-105737500D01*
X140808900Y-103197500D01*
X141480017Y-103197500D01*
X141500299Y-103403432D01*
X141500300Y-103403434D01*
X141560368Y-103601454D01*
X141657915Y-103783950D01*
X141657917Y-103783952D01*
X141789189Y-103943910D01*
X141885809Y-104023202D01*
X141949150Y-104075185D01*
X142131646Y-104172732D01*
X142329666Y-104232800D01*
X142329665Y-104232800D01*
X142348129Y-104234618D01*
X142535600Y-104253083D01*
X142741534Y-104232800D01*
X142939554Y-104172732D01*
X143122050Y-104075185D01*
X143282010Y-103943910D01*
X143413285Y-103783950D01*
X143510832Y-103601454D01*
X143570900Y-103403434D01*
X143591183Y-103197500D01*
X161800017Y-103197500D01*
X161820299Y-103403432D01*
X161820300Y-103403434D01*
X161880368Y-103601454D01*
X161977915Y-103783950D01*
X161977917Y-103783952D01*
X162109189Y-103943910D01*
X162205809Y-104023202D01*
X162269150Y-104075185D01*
X162451646Y-104172732D01*
X162649666Y-104232800D01*
X162649665Y-104232800D01*
X162668129Y-104234618D01*
X162855600Y-104253083D01*
X163061534Y-104232800D01*
X163259554Y-104172732D01*
X163442050Y-104075185D01*
X163602010Y-103943910D01*
X163733285Y-103783950D01*
X163830832Y-103601454D01*
X163890900Y-103403434D01*
X163911183Y-103197500D01*
X163890900Y-102991566D01*
X163830832Y-102793546D01*
X163733285Y-102611050D01*
X163681302Y-102547709D01*
X163602010Y-102451089D01*
X163442052Y-102319817D01*
X163442053Y-102319817D01*
X163442050Y-102319815D01*
X163259554Y-102222268D01*
X163061534Y-102162200D01*
X163061532Y-102162199D01*
X163061534Y-102162199D01*
X162855600Y-102141917D01*
X162649667Y-102162199D01*
X162451643Y-102222269D01*
X162341498Y-102281143D01*
X162269150Y-102319815D01*
X162269148Y-102319816D01*
X162269147Y-102319817D01*
X162109189Y-102451089D01*
X161977917Y-102611047D01*
X161880369Y-102793543D01*
X161820299Y-102991567D01*
X161800017Y-103197500D01*
X143591183Y-103197500D01*
X143570900Y-102991566D01*
X143510832Y-102793546D01*
X143413285Y-102611050D01*
X143361302Y-102547709D01*
X143282010Y-102451089D01*
X143122052Y-102319817D01*
X143122053Y-102319817D01*
X143122050Y-102319815D01*
X142939554Y-102222268D01*
X142741534Y-102162200D01*
X142741532Y-102162199D01*
X142741534Y-102162199D01*
X142535600Y-102141917D01*
X142329667Y-102162199D01*
X142131643Y-102222269D01*
X142021498Y-102281143D01*
X141949150Y-102319815D01*
X141949148Y-102319816D01*
X141949147Y-102319817D01*
X141789189Y-102451089D01*
X141657917Y-102611047D01*
X141560369Y-102793543D01*
X141500299Y-102991567D01*
X141480017Y-103197500D01*
X140808900Y-103197500D01*
X140808900Y-97867499D01*
X141204964Y-97867499D01*
X141204964Y-97867500D01*
X142102588Y-97867500D01*
X142069675Y-97924507D01*
X142035600Y-98051674D01*
X142035600Y-98183326D01*
X142069675Y-98310493D01*
X142102588Y-98367500D01*
X141204964Y-98367500D01*
X141262167Y-98580986D01*
X141262170Y-98580992D01*
X141361999Y-98795078D01*
X141497494Y-98988582D01*
X141664517Y-99155605D01*
X141858021Y-99291100D01*
X142072107Y-99390929D01*
X142072116Y-99390933D01*
X142194249Y-99423658D01*
X142253910Y-99460023D01*
X142284439Y-99522869D01*
X142276145Y-99592245D01*
X142231659Y-99646123D01*
X142198152Y-99662093D01*
X142131646Y-99682267D01*
X142000958Y-99752122D01*
X141949150Y-99779815D01*
X141949148Y-99779816D01*
X141949147Y-99779817D01*
X141789189Y-99911089D01*
X141657917Y-100071047D01*
X141560369Y-100253543D01*
X141500299Y-100451567D01*
X141480017Y-100657500D01*
X141500299Y-100863432D01*
X141500300Y-100863434D01*
X141560368Y-101061454D01*
X141657915Y-101243950D01*
X141657917Y-101243952D01*
X141789189Y-101403910D01*
X141885809Y-101483202D01*
X141949150Y-101535185D01*
X142131646Y-101632732D01*
X142329666Y-101692800D01*
X142329665Y-101692800D01*
X142348129Y-101694618D01*
X142535600Y-101713083D01*
X142741534Y-101692800D01*
X142939554Y-101632732D01*
X143122050Y-101535185D01*
X143282010Y-101403910D01*
X143413285Y-101243950D01*
X143510832Y-101061454D01*
X143570900Y-100863434D01*
X143591183Y-100657500D01*
X143570900Y-100451566D01*
X143510832Y-100253546D01*
X143413285Y-100071050D01*
X143361302Y-100007709D01*
X143282010Y-99911089D01*
X143122052Y-99779817D01*
X143122053Y-99779817D01*
X143122050Y-99779815D01*
X142939554Y-99682268D01*
X142873047Y-99662093D01*
X142814609Y-99623796D01*
X142786153Y-99559984D01*
X142796713Y-99490917D01*
X142842937Y-99438523D01*
X142876950Y-99423658D01*
X142999083Y-99390933D01*
X142999092Y-99390929D01*
X143213178Y-99291100D01*
X143406682Y-99155605D01*
X143573705Y-98988582D01*
X143709200Y-98795078D01*
X143809029Y-98580992D01*
X143809032Y-98580986D01*
X143866236Y-98367500D01*
X142968612Y-98367500D01*
X143001525Y-98310493D01*
X143035600Y-98183326D01*
X143035600Y-98051674D01*
X143001525Y-97924507D01*
X142968612Y-97867500D01*
X143866236Y-97867500D01*
X143866235Y-97867499D01*
X161524964Y-97867499D01*
X161524964Y-97867500D01*
X162422588Y-97867500D01*
X162389675Y-97924507D01*
X162355600Y-98051674D01*
X162355600Y-98183326D01*
X162389675Y-98310493D01*
X162422588Y-98367500D01*
X161524964Y-98367500D01*
X161582167Y-98580986D01*
X161582170Y-98580992D01*
X161681999Y-98795078D01*
X161817494Y-98988582D01*
X161984517Y-99155605D01*
X162178021Y-99291100D01*
X162392107Y-99390929D01*
X162392116Y-99390933D01*
X162514249Y-99423658D01*
X162573910Y-99460023D01*
X162604439Y-99522869D01*
X162596145Y-99592245D01*
X162551659Y-99646123D01*
X162518152Y-99662093D01*
X162451646Y-99682267D01*
X162320958Y-99752122D01*
X162269150Y-99779815D01*
X162269148Y-99779816D01*
X162269147Y-99779817D01*
X162109189Y-99911089D01*
X161977917Y-100071047D01*
X161880369Y-100253543D01*
X161820299Y-100451567D01*
X161800017Y-100657500D01*
X161820299Y-100863432D01*
X161820300Y-100863434D01*
X161880368Y-101061454D01*
X161977915Y-101243950D01*
X161977917Y-101243952D01*
X162109189Y-101403910D01*
X162205809Y-101483202D01*
X162269150Y-101535185D01*
X162451646Y-101632732D01*
X162649666Y-101692800D01*
X162649665Y-101692800D01*
X162668129Y-101694618D01*
X162855600Y-101713083D01*
X163061534Y-101692800D01*
X163259554Y-101632732D01*
X163442050Y-101535185D01*
X163602010Y-101403910D01*
X163733285Y-101243950D01*
X163830832Y-101061454D01*
X163890900Y-100863434D01*
X163911183Y-100657500D01*
X163890900Y-100451566D01*
X163830832Y-100253546D01*
X163733285Y-100071050D01*
X163681302Y-100007709D01*
X163602010Y-99911089D01*
X163442052Y-99779817D01*
X163442053Y-99779817D01*
X163442050Y-99779815D01*
X163259554Y-99682268D01*
X163193047Y-99662093D01*
X163134609Y-99623796D01*
X163106153Y-99559984D01*
X163116713Y-99490917D01*
X163162937Y-99438523D01*
X163196950Y-99423658D01*
X163319083Y-99390933D01*
X163319092Y-99390929D01*
X163533178Y-99291100D01*
X163726682Y-99155605D01*
X163893705Y-98988582D01*
X164029200Y-98795078D01*
X164129029Y-98580992D01*
X164129032Y-98580986D01*
X164186236Y-98367500D01*
X163288612Y-98367500D01*
X163321525Y-98310493D01*
X163355600Y-98183326D01*
X163355600Y-98051674D01*
X163321525Y-97924507D01*
X163288612Y-97867500D01*
X164186236Y-97867500D01*
X164186235Y-97867499D01*
X164129032Y-97654013D01*
X164129029Y-97654007D01*
X164029200Y-97439922D01*
X164029199Y-97439920D01*
X163893713Y-97246426D01*
X163893708Y-97246420D01*
X163726682Y-97079394D01*
X163533178Y-96943899D01*
X163319092Y-96844070D01*
X163319086Y-96844067D01*
X163196949Y-96811341D01*
X163137289Y-96774976D01*
X163106760Y-96712129D01*
X163115055Y-96642753D01*
X163159540Y-96588875D01*
X163193044Y-96572907D01*
X163259554Y-96552732D01*
X163442050Y-96455185D01*
X163602010Y-96323910D01*
X163733285Y-96163950D01*
X163830832Y-95981454D01*
X163890900Y-95783434D01*
X163911183Y-95577500D01*
X163890900Y-95371566D01*
X163830832Y-95173546D01*
X163733285Y-94991050D01*
X163681302Y-94927709D01*
X163602010Y-94831089D01*
X163442052Y-94699817D01*
X163442053Y-94699817D01*
X163442050Y-94699815D01*
X163259554Y-94602268D01*
X163061534Y-94542200D01*
X163061532Y-94542199D01*
X163061534Y-94542199D01*
X162855600Y-94521917D01*
X162649667Y-94542199D01*
X162451643Y-94602269D01*
X162341498Y-94661143D01*
X162269150Y-94699815D01*
X162269148Y-94699816D01*
X162269147Y-94699817D01*
X162109189Y-94831089D01*
X161977917Y-94991047D01*
X161880369Y-95173543D01*
X161820299Y-95371567D01*
X161800017Y-95577500D01*
X161820299Y-95783432D01*
X161820300Y-95783434D01*
X161880368Y-95981454D01*
X161977915Y-96163950D01*
X161977917Y-96163952D01*
X162109189Y-96323910D01*
X162205809Y-96403202D01*
X162269150Y-96455185D01*
X162451646Y-96552732D01*
X162518151Y-96572905D01*
X162576589Y-96611202D01*
X162605046Y-96675014D01*
X162594487Y-96744081D01*
X162548263Y-96796475D01*
X162514250Y-96811341D01*
X162392114Y-96844067D01*
X162392107Y-96844070D01*
X162178022Y-96943899D01*
X162178020Y-96943900D01*
X161984526Y-97079386D01*
X161984520Y-97079391D01*
X161817491Y-97246420D01*
X161817486Y-97246426D01*
X161682000Y-97439920D01*
X161681999Y-97439922D01*
X161582170Y-97654007D01*
X161582167Y-97654013D01*
X161524964Y-97867499D01*
X143866235Y-97867499D01*
X143809032Y-97654013D01*
X143809029Y-97654007D01*
X143709200Y-97439922D01*
X143709199Y-97439920D01*
X143573713Y-97246426D01*
X143573708Y-97246420D01*
X143406682Y-97079394D01*
X143213178Y-96943899D01*
X142999092Y-96844070D01*
X142999086Y-96844067D01*
X142876949Y-96811341D01*
X142817289Y-96774976D01*
X142786760Y-96712129D01*
X142795055Y-96642753D01*
X142839540Y-96588875D01*
X142873044Y-96572907D01*
X142939554Y-96552732D01*
X143122050Y-96455185D01*
X143282010Y-96323910D01*
X143413285Y-96163950D01*
X143510832Y-95981454D01*
X143570900Y-95783434D01*
X143591183Y-95577500D01*
X143570900Y-95371566D01*
X143510832Y-95173546D01*
X143413285Y-94991050D01*
X143361302Y-94927709D01*
X143282010Y-94831089D01*
X143122052Y-94699817D01*
X143122053Y-94699817D01*
X143122050Y-94699815D01*
X142939554Y-94602268D01*
X142741534Y-94542200D01*
X142741532Y-94542199D01*
X142741534Y-94542199D01*
X142535600Y-94521917D01*
X142329667Y-94542199D01*
X142131643Y-94602269D01*
X142021498Y-94661143D01*
X141949150Y-94699815D01*
X141949148Y-94699816D01*
X141949147Y-94699817D01*
X141789189Y-94831089D01*
X141657917Y-94991047D01*
X141560369Y-95173543D01*
X141500299Y-95371567D01*
X141480017Y-95577500D01*
X141500299Y-95783432D01*
X141500300Y-95783434D01*
X141560368Y-95981454D01*
X141657915Y-96163950D01*
X141657917Y-96163952D01*
X141789189Y-96323910D01*
X141885809Y-96403202D01*
X141949150Y-96455185D01*
X142131646Y-96552732D01*
X142198151Y-96572905D01*
X142256589Y-96611202D01*
X142285046Y-96675014D01*
X142274487Y-96744081D01*
X142228263Y-96796475D01*
X142194250Y-96811341D01*
X142072114Y-96844067D01*
X142072107Y-96844070D01*
X141858022Y-96943899D01*
X141858020Y-96943900D01*
X141664526Y-97079386D01*
X141664520Y-97079391D01*
X141497491Y-97246420D01*
X141497486Y-97246426D01*
X141362000Y-97439920D01*
X141361999Y-97439922D01*
X141262170Y-97654007D01*
X141262167Y-97654013D01*
X141204964Y-97867499D01*
X140808900Y-97867499D01*
X140808900Y-93037500D01*
X141480017Y-93037500D01*
X141500299Y-93243432D01*
X141500300Y-93243434D01*
X141560368Y-93441454D01*
X141657915Y-93623950D01*
X141657917Y-93623952D01*
X141789189Y-93783910D01*
X141885809Y-93863202D01*
X141949150Y-93915185D01*
X142131646Y-94012732D01*
X142329666Y-94072800D01*
X142329665Y-94072800D01*
X142348129Y-94074618D01*
X142535600Y-94093083D01*
X142741534Y-94072800D01*
X142939554Y-94012732D01*
X143122050Y-93915185D01*
X143282010Y-93783910D01*
X143413285Y-93623950D01*
X143510832Y-93441454D01*
X143570900Y-93243434D01*
X143591183Y-93037500D01*
X161800017Y-93037500D01*
X161820299Y-93243432D01*
X161820300Y-93243434D01*
X161880368Y-93441454D01*
X161977915Y-93623950D01*
X161977917Y-93623952D01*
X162109189Y-93783910D01*
X162205809Y-93863202D01*
X162269150Y-93915185D01*
X162451646Y-94012732D01*
X162649666Y-94072800D01*
X162649665Y-94072800D01*
X162668129Y-94074618D01*
X162855600Y-94093083D01*
X163061534Y-94072800D01*
X163259554Y-94012732D01*
X163442050Y-93915185D01*
X163602010Y-93783910D01*
X163733285Y-93623950D01*
X163830832Y-93441454D01*
X163890900Y-93243434D01*
X163911183Y-93037500D01*
X163890900Y-92831566D01*
X163830832Y-92633546D01*
X163733285Y-92451050D01*
X163681302Y-92387709D01*
X163602010Y-92291089D01*
X163442052Y-92159817D01*
X163442053Y-92159817D01*
X163442050Y-92159815D01*
X163259554Y-92062268D01*
X163061534Y-92002200D01*
X163061532Y-92002199D01*
X163061534Y-92002199D01*
X162855600Y-91981917D01*
X162649667Y-92002199D01*
X162451643Y-92062269D01*
X162341498Y-92121143D01*
X162269150Y-92159815D01*
X162269148Y-92159816D01*
X162269147Y-92159817D01*
X162109189Y-92291089D01*
X161977917Y-92451047D01*
X161880369Y-92633543D01*
X161820299Y-92831567D01*
X161800017Y-93037500D01*
X143591183Y-93037500D01*
X143570900Y-92831566D01*
X143510832Y-92633546D01*
X143413285Y-92451050D01*
X143361302Y-92387709D01*
X143282010Y-92291089D01*
X143122052Y-92159817D01*
X143122053Y-92159817D01*
X143122050Y-92159815D01*
X142939554Y-92062268D01*
X142741534Y-92002200D01*
X142741532Y-92002199D01*
X142741534Y-92002199D01*
X142535600Y-91981917D01*
X142329667Y-92002199D01*
X142131643Y-92062269D01*
X142021498Y-92121143D01*
X141949150Y-92159815D01*
X141949148Y-92159816D01*
X141949147Y-92159817D01*
X141789189Y-92291089D01*
X141657917Y-92451047D01*
X141560369Y-92633543D01*
X141500299Y-92831567D01*
X141480017Y-93037500D01*
X140808900Y-93037500D01*
X140808900Y-90497500D01*
X141480017Y-90497500D01*
X141500299Y-90703432D01*
X141500300Y-90703434D01*
X141560368Y-90901454D01*
X141657915Y-91083950D01*
X141657917Y-91083952D01*
X141789189Y-91243910D01*
X141885809Y-91323202D01*
X141949150Y-91375185D01*
X142131646Y-91472732D01*
X142329666Y-91532800D01*
X142329665Y-91532800D01*
X142348129Y-91534618D01*
X142535600Y-91553083D01*
X142741534Y-91532800D01*
X142939554Y-91472732D01*
X143122050Y-91375185D01*
X143282010Y-91243910D01*
X143413285Y-91083950D01*
X143510832Y-90901454D01*
X143570900Y-90703434D01*
X143591183Y-90497500D01*
X161800017Y-90497500D01*
X161820299Y-90703432D01*
X161820300Y-90703434D01*
X161880368Y-90901454D01*
X161977915Y-91083950D01*
X161977917Y-91083952D01*
X162109189Y-91243910D01*
X162205809Y-91323202D01*
X162269150Y-91375185D01*
X162451646Y-91472732D01*
X162649666Y-91532800D01*
X162649665Y-91532800D01*
X162668129Y-91534618D01*
X162855600Y-91553083D01*
X163061534Y-91532800D01*
X163259554Y-91472732D01*
X163442050Y-91375185D01*
X163602010Y-91243910D01*
X163733285Y-91083950D01*
X163830832Y-90901454D01*
X163890900Y-90703434D01*
X163911183Y-90497500D01*
X163890900Y-90291566D01*
X163830832Y-90093546D01*
X163733285Y-89911050D01*
X163681302Y-89847709D01*
X163602010Y-89751089D01*
X163442052Y-89619817D01*
X163442053Y-89619817D01*
X163442050Y-89619815D01*
X163259554Y-89522268D01*
X163061534Y-89462200D01*
X163061532Y-89462199D01*
X163061534Y-89462199D01*
X162855600Y-89441917D01*
X162649667Y-89462199D01*
X162451643Y-89522269D01*
X162341498Y-89581143D01*
X162269150Y-89619815D01*
X162269148Y-89619816D01*
X162269147Y-89619817D01*
X162109189Y-89751089D01*
X161977917Y-89911047D01*
X161880369Y-90093543D01*
X161820299Y-90291567D01*
X161800017Y-90497500D01*
X143591183Y-90497500D01*
X143570900Y-90291566D01*
X143510832Y-90093546D01*
X143413285Y-89911050D01*
X143361302Y-89847709D01*
X143282010Y-89751089D01*
X143122052Y-89619817D01*
X143122053Y-89619817D01*
X143122050Y-89619815D01*
X142939554Y-89522268D01*
X142741534Y-89462200D01*
X142741532Y-89462199D01*
X142741534Y-89462199D01*
X142535600Y-89441917D01*
X142329667Y-89462199D01*
X142131643Y-89522269D01*
X142021498Y-89581143D01*
X141949150Y-89619815D01*
X141949148Y-89619816D01*
X141949147Y-89619817D01*
X141789189Y-89751089D01*
X141657917Y-89911047D01*
X141560369Y-90093543D01*
X141500299Y-90291567D01*
X141480017Y-90497500D01*
X140808900Y-90497500D01*
X140808900Y-84519655D01*
X141185600Y-84519655D01*
X141185600Y-85167500D01*
X142102588Y-85167500D01*
X142069675Y-85224507D01*
X142035600Y-85351674D01*
X142035600Y-85483326D01*
X142069675Y-85610493D01*
X142102588Y-85667500D01*
X141185600Y-85667500D01*
X141185600Y-86315344D01*
X141192001Y-86374872D01*
X141192003Y-86374879D01*
X141242245Y-86509586D01*
X141242249Y-86509593D01*
X141328409Y-86624687D01*
X141328412Y-86624690D01*
X141443506Y-86710850D01*
X141443513Y-86710854D01*
X141578220Y-86761096D01*
X141578227Y-86761098D01*
X141637755Y-86767499D01*
X141637772Y-86767500D01*
X142038413Y-86767500D01*
X142105452Y-86787185D01*
X142151207Y-86839989D01*
X142161151Y-86909147D01*
X142132126Y-86972703D01*
X142096867Y-87000857D01*
X141949150Y-87079815D01*
X141949148Y-87079816D01*
X141949147Y-87079817D01*
X141789189Y-87211089D01*
X141657917Y-87371047D01*
X141560369Y-87553543D01*
X141500299Y-87751567D01*
X141480017Y-87957500D01*
X141500299Y-88163432D01*
X141500300Y-88163434D01*
X141560368Y-88361454D01*
X141657915Y-88543950D01*
X141657917Y-88543952D01*
X141789189Y-88703910D01*
X141885809Y-88783202D01*
X141949150Y-88835185D01*
X142131646Y-88932732D01*
X142329666Y-88992800D01*
X142329665Y-88992800D01*
X142348129Y-88994618D01*
X142535600Y-89013083D01*
X142741534Y-88992800D01*
X142939554Y-88932732D01*
X143122050Y-88835185D01*
X143282010Y-88703910D01*
X143413285Y-88543950D01*
X143510832Y-88361454D01*
X143570900Y-88163434D01*
X143591183Y-87957500D01*
X143570900Y-87751566D01*
X143510832Y-87553546D01*
X143413285Y-87371050D01*
X143361302Y-87307709D01*
X143282010Y-87211089D01*
X143122052Y-87079817D01*
X143122053Y-87079817D01*
X143122050Y-87079815D01*
X142974332Y-87000857D01*
X142924489Y-86951895D01*
X142909029Y-86883757D01*
X142932861Y-86818078D01*
X142988419Y-86775709D01*
X143032787Y-86767500D01*
X143433428Y-86767500D01*
X143433444Y-86767499D01*
X143492972Y-86761098D01*
X143492979Y-86761096D01*
X143627686Y-86710854D01*
X143627693Y-86710850D01*
X143742787Y-86624690D01*
X143742790Y-86624687D01*
X143828950Y-86509593D01*
X143828954Y-86509586D01*
X143879196Y-86374879D01*
X143879198Y-86374872D01*
X143885599Y-86315344D01*
X143885600Y-86315327D01*
X143885600Y-85667500D01*
X142968612Y-85667500D01*
X143001525Y-85610493D01*
X143035600Y-85483326D01*
X143035600Y-85351674D01*
X143001525Y-85224507D01*
X142968612Y-85167500D01*
X143885600Y-85167500D01*
X143885600Y-84519672D01*
X143885599Y-84519655D01*
X161505600Y-84519655D01*
X161505600Y-85167500D01*
X162422588Y-85167500D01*
X162389675Y-85224507D01*
X162355600Y-85351674D01*
X162355600Y-85483326D01*
X162389675Y-85610493D01*
X162422588Y-85667500D01*
X161505600Y-85667500D01*
X161505600Y-86315344D01*
X161512001Y-86374872D01*
X161512003Y-86374879D01*
X161562245Y-86509586D01*
X161562249Y-86509593D01*
X161648409Y-86624687D01*
X161648412Y-86624690D01*
X161763506Y-86710850D01*
X161763513Y-86710854D01*
X161898220Y-86761096D01*
X161898227Y-86761098D01*
X161957755Y-86767499D01*
X161957772Y-86767500D01*
X162358413Y-86767500D01*
X162425452Y-86787185D01*
X162471207Y-86839989D01*
X162481151Y-86909147D01*
X162452126Y-86972703D01*
X162416867Y-87000857D01*
X162269150Y-87079815D01*
X162269148Y-87079816D01*
X162269147Y-87079817D01*
X162109189Y-87211089D01*
X161977917Y-87371047D01*
X161880369Y-87553543D01*
X161820299Y-87751567D01*
X161800017Y-87957500D01*
X161820299Y-88163432D01*
X161820300Y-88163434D01*
X161880368Y-88361454D01*
X161977915Y-88543950D01*
X161977917Y-88543952D01*
X162109189Y-88703910D01*
X162205809Y-88783202D01*
X162269150Y-88835185D01*
X162451646Y-88932732D01*
X162649666Y-88992800D01*
X162649665Y-88992800D01*
X162668129Y-88994618D01*
X162855600Y-89013083D01*
X163061534Y-88992800D01*
X163259554Y-88932732D01*
X163442050Y-88835185D01*
X163602010Y-88703910D01*
X163733285Y-88543950D01*
X163830832Y-88361454D01*
X163890900Y-88163434D01*
X163911183Y-87957500D01*
X163890900Y-87751566D01*
X163830832Y-87553546D01*
X163733285Y-87371050D01*
X163681302Y-87307709D01*
X163602010Y-87211089D01*
X163442052Y-87079817D01*
X163442053Y-87079817D01*
X163442050Y-87079815D01*
X163294332Y-87000857D01*
X163244489Y-86951895D01*
X163229029Y-86883757D01*
X163252861Y-86818078D01*
X163308419Y-86775709D01*
X163352787Y-86767500D01*
X163753428Y-86767500D01*
X163753444Y-86767499D01*
X163812972Y-86761098D01*
X163812979Y-86761096D01*
X163947686Y-86710854D01*
X163947693Y-86710850D01*
X164062787Y-86624690D01*
X164062790Y-86624687D01*
X164148950Y-86509593D01*
X164148954Y-86509586D01*
X164199196Y-86374879D01*
X164199198Y-86374872D01*
X164205599Y-86315344D01*
X164205600Y-86315327D01*
X164205600Y-85667500D01*
X163288612Y-85667500D01*
X163321525Y-85610493D01*
X163355600Y-85483326D01*
X163355600Y-85351674D01*
X163321525Y-85224507D01*
X163288612Y-85167500D01*
X164205600Y-85167500D01*
X164205600Y-84519672D01*
X164205599Y-84519655D01*
X164199198Y-84460127D01*
X164199196Y-84460120D01*
X164148954Y-84325413D01*
X164148950Y-84325406D01*
X164062790Y-84210312D01*
X164062787Y-84210309D01*
X163947693Y-84124149D01*
X163947686Y-84124145D01*
X163812979Y-84073903D01*
X163812972Y-84073901D01*
X163753444Y-84067500D01*
X163105600Y-84067500D01*
X163105600Y-84984488D01*
X163048593Y-84951575D01*
X162921426Y-84917500D01*
X162789774Y-84917500D01*
X162662607Y-84951575D01*
X162605600Y-84984488D01*
X162605600Y-84067500D01*
X161957755Y-84067500D01*
X161898227Y-84073901D01*
X161898220Y-84073903D01*
X161763513Y-84124145D01*
X161763506Y-84124149D01*
X161648412Y-84210309D01*
X161648409Y-84210312D01*
X161562249Y-84325406D01*
X161562245Y-84325413D01*
X161512003Y-84460120D01*
X161512001Y-84460127D01*
X161505600Y-84519655D01*
X143885599Y-84519655D01*
X143879198Y-84460127D01*
X143879196Y-84460120D01*
X143828954Y-84325413D01*
X143828950Y-84325406D01*
X143742790Y-84210312D01*
X143742787Y-84210309D01*
X143627693Y-84124149D01*
X143627686Y-84124145D01*
X143492979Y-84073903D01*
X143492972Y-84073901D01*
X143433444Y-84067500D01*
X142785600Y-84067500D01*
X142785600Y-84984488D01*
X142728593Y-84951575D01*
X142601426Y-84917500D01*
X142469774Y-84917500D01*
X142342607Y-84951575D01*
X142285600Y-84984488D01*
X142285600Y-84067500D01*
X141637755Y-84067500D01*
X141578227Y-84073901D01*
X141578220Y-84073903D01*
X141443513Y-84124145D01*
X141443506Y-84124149D01*
X141328412Y-84210309D01*
X141328409Y-84210312D01*
X141242249Y-84325406D01*
X141242245Y-84325413D01*
X141192003Y-84460120D01*
X141192001Y-84460127D01*
X141185600Y-84519655D01*
X140808900Y-84519655D01*
X140808900Y-83814800D01*
X140828585Y-83747761D01*
X140881389Y-83702006D01*
X140932900Y-83690800D01*
X164509100Y-83690800D01*
X164576139Y-83710485D01*
G37*
%TD.AperFunction*%
%TD*%
M02*
