%TF.GenerationSoftware,KiCad,Pcbnew,8.0.5*%
%TF.CreationDate,2024-11-11T11:07:53-06:00*%
%TF.ProjectId,buffer_breakout_board,62756666-6572-45f6-9272-65616b6f7574,rev?*%
%TF.SameCoordinates,Original*%
%TF.FileFunction,Legend,Top*%
%TF.FilePolarity,Positive*%
%FSLAX46Y46*%
G04 Gerber Fmt 4.6, Leading zero omitted, Abs format (unit mm)*
G04 Created by KiCad (PCBNEW 8.0.5) date 2024-11-11 11:07:53*
%MOMM*%
%LPD*%
G01*
G04 APERTURE LIST*
%ADD10C,0.150000*%
%ADD11C,0.120000*%
G04 APERTURE END LIST*
D10*
X150114000Y-84328000D02*
X155575000Y-84328000D01*
X155575000Y-92456000D01*
X150114000Y-92456000D01*
X150114000Y-84328000D01*
G36*
X150114000Y-84328000D02*
G01*
X155575000Y-84328000D01*
X155575000Y-92456000D01*
X150114000Y-92456000D01*
X150114000Y-84328000D01*
G37*
X154727695Y-95987519D02*
X154727695Y-96797042D01*
X154727695Y-96797042D02*
X154775314Y-96892280D01*
X154775314Y-96892280D02*
X154822933Y-96939900D01*
X154822933Y-96939900D02*
X154918171Y-96987519D01*
X154918171Y-96987519D02*
X155108647Y-96987519D01*
X155108647Y-96987519D02*
X155203885Y-96939900D01*
X155203885Y-96939900D02*
X155251504Y-96892280D01*
X155251504Y-96892280D02*
X155299123Y-96797042D01*
X155299123Y-96797042D02*
X155299123Y-95987519D01*
X155727695Y-96082757D02*
X155775314Y-96035138D01*
X155775314Y-96035138D02*
X155870552Y-95987519D01*
X155870552Y-95987519D02*
X156108647Y-95987519D01*
X156108647Y-95987519D02*
X156203885Y-96035138D01*
X156203885Y-96035138D02*
X156251504Y-96082757D01*
X156251504Y-96082757D02*
X156299123Y-96177995D01*
X156299123Y-96177995D02*
X156299123Y-96273233D01*
X156299123Y-96273233D02*
X156251504Y-96416090D01*
X156251504Y-96416090D02*
X155680076Y-96987519D01*
X155680076Y-96987519D02*
X156299123Y-96987519D01*
D11*
%TO.C,R14*%
X147616324Y-117407000D02*
X147106876Y-117407000D01*
X147616324Y-118452000D02*
X147106876Y-118452000D01*
%TO.C,JP2*%
X153073600Y-118229500D02*
X153073600Y-117629500D01*
X153773600Y-116929500D02*
X155173600Y-116929500D01*
X155173600Y-118929500D02*
X153773600Y-118929500D01*
X155873600Y-117629500D02*
X155873600Y-118229500D01*
X153073600Y-117629500D02*
G75*
G02*
X153773600Y-116929500I700000J0D01*
G01*
X153773600Y-118929500D02*
G75*
G02*
X153073600Y-118229500I0J700000D01*
G01*
X155173600Y-116929500D02*
G75*
G02*
X155873600Y-117629500I1J-699999D01*
G01*
X155873600Y-118229500D02*
G75*
G02*
X155173600Y-118929500I-699999J-1D01*
G01*
%TO.C,C3*%
X150286767Y-108075000D02*
X149994233Y-108075000D01*
X150286767Y-109095000D02*
X149994233Y-109095000D01*
%TO.C,R10*%
X146328858Y-89975000D02*
X145854342Y-89975000D01*
X146328858Y-91020000D02*
X145854342Y-91020000D01*
%TO.C,R5*%
X146328858Y-105215000D02*
X145854342Y-105215000D01*
X146328858Y-106260000D02*
X145854342Y-106260000D01*
%TO.C,JP1*%
X149517600Y-118229500D02*
X149517600Y-117629500D01*
X150217600Y-116929500D02*
X151617600Y-116929500D01*
X151617600Y-118929500D02*
X150217600Y-118929500D01*
X152317600Y-117629500D02*
X152317600Y-118229500D01*
X149517600Y-117629500D02*
G75*
G02*
X150217600Y-116929500I699999J1D01*
G01*
X150217600Y-118929500D02*
G75*
G02*
X149517600Y-118229500I-1J699999D01*
G01*
X151617600Y-116929500D02*
G75*
G02*
X152317600Y-117629500I0J-700000D01*
G01*
X152317600Y-118229500D02*
G75*
G02*
X151617600Y-118929500I-700000J0D01*
G01*
%TO.C,R4*%
X146328858Y-107755000D02*
X145854342Y-107755000D01*
X146328858Y-108800000D02*
X145854342Y-108800000D01*
%TO.C,J10*%
X141205600Y-84087500D02*
X142535600Y-84087500D01*
X141205600Y-85417500D02*
X141205600Y-84087500D01*
X141205600Y-86687500D02*
X141205600Y-119767500D01*
X141205600Y-86687500D02*
X143865600Y-86687500D01*
X141205600Y-119767500D02*
X143865600Y-119767500D01*
X143865600Y-86687500D02*
X143865600Y-119767500D01*
%TO.C,R6*%
X146328858Y-102675000D02*
X145854342Y-102675000D01*
X146328858Y-103720000D02*
X145854342Y-103720000D01*
%TO.C,R8*%
X146328858Y-95055000D02*
X145854342Y-95055000D01*
X146328858Y-96100000D02*
X145854342Y-96100000D01*
%TO.C,R7*%
X146328858Y-100135000D02*
X145854342Y-100135000D01*
X146328858Y-101180000D02*
X145854342Y-101180000D01*
%TO.C,J3*%
X161525600Y-84087500D02*
X162855600Y-84087500D01*
X161525600Y-85417500D02*
X161525600Y-84087500D01*
X161525600Y-86687500D02*
X161525600Y-119767500D01*
X161525600Y-86687500D02*
X164185600Y-86687500D01*
X161525600Y-119767500D02*
X164185600Y-119767500D01*
X164185600Y-86687500D02*
X164185600Y-119767500D01*
%TO.C,R11*%
X146328858Y-87435000D02*
X145854342Y-87435000D01*
X146328858Y-88480000D02*
X145854342Y-88480000D01*
%TO.C,D1*%
X146523600Y-121604500D02*
X150583600Y-121604500D01*
X150583600Y-119334500D02*
X146523600Y-119334500D01*
X150583600Y-121604500D02*
X150583600Y-119334500D01*
%TO.C,R2*%
X145061100Y-111054758D02*
X145061100Y-110580242D01*
X146106100Y-111054758D02*
X146106100Y-110580242D01*
%TO.C,D2*%
X154807600Y-119334500D02*
X154807600Y-121604500D01*
X154807600Y-121604500D02*
X158867600Y-121604500D01*
X158867600Y-119334500D02*
X154807600Y-119334500D01*
%TO.C,J7*%
X146285600Y-115703500D02*
X146285600Y-113043500D01*
X148885600Y-113103500D02*
X148885600Y-115703500D01*
X148885600Y-115703500D02*
X146285600Y-115703500D01*
X151485600Y-113043500D02*
X146285600Y-113043500D01*
X151485600Y-113103500D02*
X148885600Y-113103500D01*
X151485600Y-113103500D02*
X151485600Y-113043500D01*
X151485600Y-114373500D02*
X151485600Y-115703500D01*
X151485600Y-115703500D02*
X150155600Y-115703500D01*
D10*
%TO.C,U2*%
X150773000Y-97442500D02*
X150773000Y-98000000D01*
X150773000Y-106392500D02*
X150773000Y-105835000D01*
X154923000Y-97442500D02*
X150773000Y-97442500D01*
X154923000Y-97442500D02*
X154923000Y-98000000D01*
X154923000Y-106392500D02*
X150773000Y-106392500D01*
X154923000Y-106392500D02*
X154923000Y-105835000D01*
D11*
X155725500Y-106247500D02*
X155245500Y-106247500D01*
X155485500Y-105917500D01*
X155725500Y-106247500D01*
G36*
X155725500Y-106247500D02*
G01*
X155245500Y-106247500D01*
X155485500Y-105917500D01*
X155725500Y-106247500D01*
G37*
%TO.C,R1*%
X159285100Y-111054758D02*
X159285100Y-110580242D01*
X160330100Y-111054758D02*
X160330100Y-110580242D01*
%TO.C,R9*%
X146328858Y-92515000D02*
X145854342Y-92515000D01*
X146328858Y-93560000D02*
X145854342Y-93560000D01*
%TO.C,R15*%
X157774876Y-117407000D02*
X158284324Y-117407000D01*
X157774876Y-118452000D02*
X158284324Y-118452000D01*
%TO.C,J2*%
X153656600Y-115703500D02*
X153656600Y-113043500D01*
X156256600Y-113103500D02*
X156256600Y-115703500D01*
X156256600Y-115703500D02*
X153656600Y-115703500D01*
X158856600Y-113043500D02*
X153656600Y-113043500D01*
X158856600Y-113103500D02*
X156256600Y-113103500D01*
X158856600Y-113103500D02*
X158856600Y-113043500D01*
X158856600Y-114373500D02*
X158856600Y-115703500D01*
X158856600Y-115703500D02*
X157526600Y-115703500D01*
%TO.C,C4*%
X155074233Y-108075000D02*
X155366767Y-108075000D01*
X155074233Y-109095000D02*
X155366767Y-109095000D01*
%TD*%
M02*
