M48
; DRILL file {KiCad 8.0.5} date 2024-11-11T11:07:55-0600
; FORMAT={-:-/ absolute / inch / decimal}
; #@! TF.CreationDate,2024-11-11T11:07:55-06:00
; #@! TF.GenerationSoftware,Kicad,Pcbnew,8.0.5
; #@! TF.FileFunction,Plated,1,2,PTH
FMAT,2
INCH
; #@! TA.AperFunction,Plated,PTH,ViaDrill
T1C0.0157
; #@! TA.AperFunction,Plated,PTH,ComponentDrill
T2C0.0394
%
G90
G05
T1
X5.775Y-4.33
X5.84Y-4.745
X5.855Y-3.375
X5.875Y-4.235
X5.935Y-4.745
X6.02Y-3.665
X6.02Y-3.845
X6.02Y-3.8822
X6.02Y-3.9194
X6.02Y-3.9567
X6.02Y-3.9939
X6.02Y-4.0311
X6.02Y-4.0683
X6.02Y-4.1056
X6.02Y-4.1428
X6.02Y-4.18
X6.085Y-4.745
X6.145Y-4.235
X6.165Y-3.375
X6.18Y-4.745
X6.29Y-4.29
T2
X5.6116Y-3.3629
X5.6116Y-3.4629
X5.6116Y-3.5629
X5.6116Y-3.6629
X5.6116Y-3.7629
X5.6116Y-3.8629
X5.6116Y-3.9629
X5.6116Y-4.0629
X5.6116Y-4.1629
X5.6116Y-4.2629
X5.6116Y-4.3629
X5.6116Y-4.4629
X5.6116Y-4.5629
X5.6116Y-4.6629
X5.8116Y-4.5029
X5.9116Y-4.5029
X6.1018Y-4.5029
X6.2018Y-4.5029
X6.4116Y-3.3629
X6.4116Y-3.4629
X6.4116Y-3.5629
X6.4116Y-3.6629
X6.4116Y-3.7629
X6.4116Y-3.8629
X6.4116Y-3.9629
X6.4116Y-4.0629
X6.4116Y-4.1629
X6.4116Y-4.2629
X6.4116Y-4.3629
X6.4116Y-4.4629
X6.4116Y-4.5629
X6.4116Y-4.6629
M30
