%TF.GenerationSoftware,KiCad,Pcbnew,8.0.5*%
%TF.CreationDate,2024-11-11T11:07:53-06:00*%
%TF.ProjectId,buffer_breakout_board,62756666-6572-45f6-9272-65616b6f7574,rev?*%
%TF.SameCoordinates,Original*%
%TF.FileFunction,Paste,Top*%
%TF.FilePolarity,Positive*%
%FSLAX46Y46*%
G04 Gerber Fmt 4.6, Leading zero omitted, Abs format (unit mm)*
G04 Created by KiCad (PCBNEW 8.0.5) date 2024-11-11 11:07:53*
%MOMM*%
%LPD*%
G01*
G04 APERTURE LIST*
G04 Aperture macros list*
%AMRoundRect*
0 Rectangle with rounded corners*
0 $1 Rounding radius*
0 $2 $3 $4 $5 $6 $7 $8 $9 X,Y pos of 4 corners*
0 Add a 4 corners polygon primitive as box body*
4,1,4,$2,$3,$4,$5,$6,$7,$8,$9,$2,$3,0*
0 Add four circle primitives for the rounded corners*
1,1,$1+$1,$2,$3*
1,1,$1+$1,$4,$5*
1,1,$1+$1,$6,$7*
1,1,$1+$1,$8,$9*
0 Add four rect primitives between the rounded corners*
20,1,$1+$1,$2,$3,$4,$5,0*
20,1,$1+$1,$4,$5,$6,$7,0*
20,1,$1+$1,$6,$7,$8,$9,0*
20,1,$1+$1,$8,$9,$2,$3,0*%
G04 Aperture macros list end*
%ADD10RoundRect,0.237500X0.250000X0.237500X-0.250000X0.237500X-0.250000X-0.237500X0.250000X-0.237500X0*%
%ADD11RoundRect,0.237500X0.300000X0.237500X-0.300000X0.237500X-0.300000X-0.237500X0.300000X-0.237500X0*%
%ADD12R,3.450000X1.850000*%
%ADD13RoundRect,0.200000X0.200000X0.275000X-0.200000X0.275000X-0.200000X-0.275000X0.200000X-0.275000X0*%
%ADD14RoundRect,0.250001X0.462499X0.624999X-0.462499X0.624999X-0.462499X-0.624999X0.462499X-0.624999X0*%
%ADD15RoundRect,0.200000X0.275000X-0.200000X0.275000X0.200000X-0.275000X0.200000X-0.275000X-0.200000X0*%
%ADD16RoundRect,0.250001X-0.462499X-0.624999X0.462499X-0.624999X0.462499X0.624999X-0.462499X0.624999X0*%
%ADD17R,1.200000X0.400000*%
%ADD18RoundRect,0.237500X-0.250000X-0.237500X0.250000X-0.237500X0.250000X0.237500X-0.250000X0.237500X0*%
%ADD19RoundRect,0.237500X-0.300000X-0.237500X0.300000X-0.237500X0.300000X0.237500X-0.300000X0.237500X0*%
G04 APERTURE END LIST*
D10*
%TO.C,R14*%
X148274100Y-117929500D03*
X146449100Y-117929500D03*
%TD*%
D11*
%TO.C,C3*%
X151003000Y-108585000D03*
X149278000Y-108585000D03*
%TD*%
D12*
%TO.C,TP9*%
X155220500Y-110617000D03*
%TD*%
D13*
%TO.C,R10*%
X146916600Y-90497500D03*
X145266600Y-90497500D03*
%TD*%
%TO.C,R5*%
X146916600Y-105737500D03*
X145266600Y-105737500D03*
%TD*%
D12*
%TO.C,TP10*%
X150140500Y-110617000D03*
%TD*%
D13*
%TO.C,R4*%
X146916600Y-108277500D03*
X145266600Y-108277500D03*
%TD*%
%TO.C,R6*%
X146916600Y-103197500D03*
X145266600Y-103197500D03*
%TD*%
%TO.C,R8*%
X146916600Y-95577500D03*
X145266600Y-95577500D03*
%TD*%
%TO.C,R7*%
X146916600Y-100657500D03*
X145266600Y-100657500D03*
%TD*%
%TO.C,R11*%
X146916600Y-87957500D03*
X145266600Y-87957500D03*
%TD*%
D14*
%TO.C,D1*%
X149611100Y-120469500D03*
X146636100Y-120469500D03*
%TD*%
D15*
%TO.C,R2*%
X145583600Y-111642500D03*
X145583600Y-109992500D03*
%TD*%
D16*
%TO.C,D2*%
X155780100Y-120469500D03*
X158755100Y-120469500D03*
%TD*%
D12*
%TO.C,TP1*%
X152908000Y-94488000D03*
%TD*%
%TO.C,TP2*%
X152695600Y-120469500D03*
%TD*%
%TO.C,TP4*%
X159045600Y-85671500D03*
%TD*%
D17*
%TO.C,U2*%
X155448000Y-105410000D03*
X155448000Y-104775000D03*
X155448000Y-104140000D03*
X155448000Y-103505000D03*
X155448000Y-102870000D03*
X155448000Y-102235000D03*
X155448000Y-101600000D03*
X155448000Y-100965000D03*
X155448000Y-100330000D03*
X155448000Y-99695000D03*
X155448000Y-99060000D03*
X155448000Y-98425000D03*
X150248000Y-98425000D03*
X150248000Y-99060000D03*
X150248000Y-99695000D03*
X150248000Y-100330000D03*
X150248000Y-100965000D03*
X150248000Y-101600000D03*
X150248000Y-102235000D03*
X150248000Y-102870000D03*
X150248000Y-103505000D03*
X150248000Y-104140000D03*
X150248000Y-104775000D03*
X150248000Y-105410000D03*
%TD*%
D15*
%TO.C,R1*%
X159807600Y-111642500D03*
X159807600Y-109992500D03*
%TD*%
D13*
%TO.C,R9*%
X146916600Y-93037500D03*
X145266600Y-93037500D03*
%TD*%
D18*
%TO.C,R15*%
X157117100Y-117929500D03*
X158942100Y-117929500D03*
%TD*%
D19*
%TO.C,C4*%
X154358000Y-108585000D03*
X156083000Y-108585000D03*
%TD*%
D12*
%TO.C,TP3*%
X146345600Y-85671500D03*
%TD*%
M02*
