%TF.GenerationSoftware,KiCad,Pcbnew,8.0.5*%
%TF.CreationDate,2024-11-11T11:07:53-06:00*%
%TF.ProjectId,buffer_breakout_board,62756666-6572-45f6-9272-65616b6f7574,rev?*%
%TF.SameCoordinates,Original*%
%TF.FileFunction,Copper,L1,Top*%
%TF.FilePolarity,Positive*%
%FSLAX46Y46*%
G04 Gerber Fmt 4.6, Leading zero omitted, Abs format (unit mm)*
G04 Created by KiCad (PCBNEW 8.0.5) date 2024-11-11 11:07:53*
%MOMM*%
%LPD*%
G01*
G04 APERTURE LIST*
G04 Aperture macros list*
%AMRoundRect*
0 Rectangle with rounded corners*
0 $1 Rounding radius*
0 $2 $3 $4 $5 $6 $7 $8 $9 X,Y pos of 4 corners*
0 Add a 4 corners polygon primitive as box body*
4,1,4,$2,$3,$4,$5,$6,$7,$8,$9,$2,$3,0*
0 Add four circle primitives for the rounded corners*
1,1,$1+$1,$2,$3*
1,1,$1+$1,$4,$5*
1,1,$1+$1,$6,$7*
1,1,$1+$1,$8,$9*
0 Add four rect primitives between the rounded corners*
20,1,$1+$1,$2,$3,$4,$5,0*
20,1,$1+$1,$4,$5,$6,$7,0*
20,1,$1+$1,$6,$7,$8,$9,0*
20,1,$1+$1,$8,$9,$2,$3,0*%
%AMFreePoly0*
4,1,19,0.500000,-0.750000,0.000000,-0.750000,0.000000,-0.744911,-0.071157,-0.744911,-0.207708,-0.704816,-0.327430,-0.627875,-0.420627,-0.520320,-0.479746,-0.390866,-0.500000,-0.250000,-0.500000,0.250000,-0.479746,0.390866,-0.420627,0.520320,-0.327430,0.627875,-0.207708,0.704816,-0.071157,0.744911,0.000000,0.744911,0.000000,0.750000,0.500000,0.750000,0.500000,-0.750000,0.500000,-0.750000,
$1*%
%AMFreePoly1*
4,1,19,0.000000,0.744911,0.071157,0.744911,0.207708,0.704816,0.327430,0.627875,0.420627,0.520320,0.479746,0.390866,0.500000,0.250000,0.500000,-0.250000,0.479746,-0.390866,0.420627,-0.520320,0.327430,-0.627875,0.207708,-0.704816,0.071157,-0.744911,0.000000,-0.744911,0.000000,-0.750000,-0.500000,-0.750000,-0.500000,0.750000,0.000000,0.750000,0.000000,0.744911,0.000000,0.744911,
$1*%
G04 Aperture macros list end*
%TA.AperFunction,EtchedComponent*%
%ADD10C,0.000000*%
%TD*%
%TA.AperFunction,SMDPad,CuDef*%
%ADD11RoundRect,0.237500X0.250000X0.237500X-0.250000X0.237500X-0.250000X-0.237500X0.250000X-0.237500X0*%
%TD*%
%TA.AperFunction,SMDPad,CuDef*%
%ADD12FreePoly0,180.000000*%
%TD*%
%TA.AperFunction,SMDPad,CuDef*%
%ADD13FreePoly1,180.000000*%
%TD*%
%TA.AperFunction,SMDPad,CuDef*%
%ADD14RoundRect,0.237500X0.300000X0.237500X-0.300000X0.237500X-0.300000X-0.237500X0.300000X-0.237500X0*%
%TD*%
%TA.AperFunction,SMDPad,CuDef*%
%ADD15R,3.450000X1.850000*%
%TD*%
%TA.AperFunction,SMDPad,CuDef*%
%ADD16RoundRect,0.200000X0.200000X0.275000X-0.200000X0.275000X-0.200000X-0.275000X0.200000X-0.275000X0*%
%TD*%
%TA.AperFunction,SMDPad,CuDef*%
%ADD17FreePoly0,0.000000*%
%TD*%
%TA.AperFunction,SMDPad,CuDef*%
%ADD18FreePoly1,0.000000*%
%TD*%
%TA.AperFunction,ComponentPad*%
%ADD19R,1.700000X1.700000*%
%TD*%
%TA.AperFunction,ComponentPad*%
%ADD20O,1.700000X1.700000*%
%TD*%
%TA.AperFunction,SMDPad,CuDef*%
%ADD21RoundRect,0.250001X0.462499X0.624999X-0.462499X0.624999X-0.462499X-0.624999X0.462499X-0.624999X0*%
%TD*%
%TA.AperFunction,SMDPad,CuDef*%
%ADD22RoundRect,0.200000X0.275000X-0.200000X0.275000X0.200000X-0.275000X0.200000X-0.275000X-0.200000X0*%
%TD*%
%TA.AperFunction,SMDPad,CuDef*%
%ADD23RoundRect,0.250001X-0.462499X-0.624999X0.462499X-0.624999X0.462499X0.624999X-0.462499X0.624999X0*%
%TD*%
%TA.AperFunction,SMDPad,CuDef*%
%ADD24R,1.200000X0.400000*%
%TD*%
%TA.AperFunction,SMDPad,CuDef*%
%ADD25RoundRect,0.237500X-0.250000X-0.237500X0.250000X-0.237500X0.250000X0.237500X-0.250000X0.237500X0*%
%TD*%
%TA.AperFunction,SMDPad,CuDef*%
%ADD26RoundRect,0.237500X-0.300000X-0.237500X0.300000X-0.237500X0.300000X0.237500X-0.300000X0.237500X0*%
%TD*%
%TA.AperFunction,ViaPad*%
%ADD27C,0.800000*%
%TD*%
%TA.AperFunction,Conductor*%
%ADD28C,0.250000*%
%TD*%
G04 APERTURE END LIST*
D10*
%TA.AperFunction,EtchedComponent*%
%TO.C,JP2*%
G36*
X154723600Y-118229500D02*
G01*
X154223600Y-118229500D01*
X154223600Y-117629500D01*
X154723600Y-117629500D01*
X154723600Y-118229500D01*
G37*
%TD.AperFunction*%
%TA.AperFunction,EtchedComponent*%
%TO.C,JP1*%
G36*
X151167600Y-118229500D02*
G01*
X150667600Y-118229500D01*
X150667600Y-117629500D01*
X151167600Y-117629500D01*
X151167600Y-118229500D01*
G37*
%TD.AperFunction*%
%TD*%
D11*
%TO.P,R14,1*%
%TO.N,Net-(JP1-A)*%
X148274100Y-117929500D03*
%TO.P,R14,2*%
%TO.N,Net-(D1-A)*%
X146449100Y-117929500D03*
%TD*%
D12*
%TO.P,JP2,1,A*%
%TO.N,Net-(JP2-A)*%
X155123600Y-117929500D03*
D13*
%TO.P,JP2,2,B*%
%TO.N,Vcca*%
X153823600Y-117929500D03*
%TD*%
D14*
%TO.P,C3,1*%
%TO.N,Vccb*%
X151003000Y-108585000D03*
%TO.P,C3,2*%
%TO.N,GND*%
X149278000Y-108585000D03*
%TD*%
D15*
%TO.P,TP9,1,1*%
%TO.N,Vcca*%
X155220500Y-110617000D03*
%TD*%
D16*
%TO.P,R10,1*%
%TO.N,/B1*%
X146916600Y-90497500D03*
%TO.P,R10,2*%
%TO.N,/IN01*%
X145266600Y-90497500D03*
%TD*%
%TO.P,R5,1*%
%TO.N,/B6*%
X146916600Y-105737500D03*
%TO.P,R5,2*%
%TO.N,/IN06*%
X145266600Y-105737500D03*
%TD*%
D17*
%TO.P,JP1,1,A*%
%TO.N,Net-(JP1-A)*%
X150267600Y-117929500D03*
D18*
%TO.P,JP1,2,B*%
%TO.N,Vccb*%
X151567600Y-117929500D03*
%TD*%
D15*
%TO.P,TP10,1,1*%
%TO.N,Vccb*%
X150140500Y-110617000D03*
%TD*%
D16*
%TO.P,R4,1*%
%TO.N,/B7*%
X146916600Y-108277500D03*
%TO.P,R4,2*%
%TO.N,/IN07*%
X145266600Y-108277500D03*
%TD*%
D19*
%TO.P,J10,1,Pin_1*%
%TO.N,GND*%
X142535600Y-85417500D03*
D20*
%TO.P,J10,2,Pin_2*%
%TO.N,/IN00*%
X142535600Y-87957500D03*
%TO.P,J10,3,Pin_3*%
%TO.N,/IN01*%
X142535600Y-90497500D03*
%TO.P,J10,4,Pin_4*%
%TO.N,/IN02*%
X142535600Y-93037500D03*
%TO.P,J10,5,Pin_5*%
%TO.N,/IN03*%
X142535600Y-95577500D03*
%TO.P,J10,6,Pin_6*%
%TO.N,GND*%
X142535600Y-98117500D03*
%TO.P,J10,7,Pin_7*%
%TO.N,/IN04*%
X142535600Y-100657500D03*
%TO.P,J10,8,Pin_8*%
%TO.N,/IN05*%
X142535600Y-103197500D03*
%TO.P,J10,9,Pin_9*%
%TO.N,/IN06*%
X142535600Y-105737500D03*
%TO.P,J10,10,Pin_10*%
%TO.N,/IN07*%
X142535600Y-108277500D03*
%TO.P,J10,11,Pin_11*%
%TO.N,GND*%
X142535600Y-110817500D03*
%TO.P,J10,12,Pin_12*%
%TO.N,/OE*%
X142535600Y-113357500D03*
%TO.P,J10,13,Pin_13*%
%TO.N,GND*%
X142535600Y-115897500D03*
%TO.P,J10,14,Pin_14*%
%TO.N,/Vb_In*%
X142535600Y-118437500D03*
%TD*%
D16*
%TO.P,R6,1*%
%TO.N,/B5*%
X146916600Y-103197500D03*
%TO.P,R6,2*%
%TO.N,/IN05*%
X145266600Y-103197500D03*
%TD*%
%TO.P,R8,1*%
%TO.N,/B3*%
X146916600Y-95577500D03*
%TO.P,R8,2*%
%TO.N,/IN03*%
X145266600Y-95577500D03*
%TD*%
%TO.P,R7,1*%
%TO.N,/B4*%
X146916600Y-100657500D03*
%TO.P,R7,2*%
%TO.N,/IN04*%
X145266600Y-100657500D03*
%TD*%
D19*
%TO.P,J3,1,Pin_1*%
%TO.N,GND*%
X162855600Y-85417500D03*
D20*
%TO.P,J3,2,Pin_2*%
%TO.N,/BUF00*%
X162855600Y-87957500D03*
%TO.P,J3,3,Pin_3*%
%TO.N,/BUF01*%
X162855600Y-90497500D03*
%TO.P,J3,4,Pin_4*%
%TO.N,/BUF02*%
X162855600Y-93037500D03*
%TO.P,J3,5,Pin_5*%
%TO.N,/BUF03*%
X162855600Y-95577500D03*
%TO.P,J3,6,Pin_6*%
%TO.N,GND*%
X162855600Y-98117500D03*
%TO.P,J3,7,Pin_7*%
%TO.N,/BUF04*%
X162855600Y-100657500D03*
%TO.P,J3,8,Pin_8*%
%TO.N,/BUF05*%
X162855600Y-103197500D03*
%TO.P,J3,9,Pin_9*%
%TO.N,/BUF06*%
X162855600Y-105737500D03*
%TO.P,J3,10,Pin_10*%
%TO.N,/BUF07*%
X162855600Y-108277500D03*
%TO.P,J3,11,Pin_11*%
%TO.N,GND*%
X162855600Y-110817500D03*
%TO.P,J3,12,Pin_12*%
%TO.N,/DIR*%
X162855600Y-113357500D03*
%TO.P,J3,13,Pin_13*%
%TO.N,GND*%
X162855600Y-115897500D03*
%TO.P,J3,14,Pin_14*%
%TO.N,/Va_In*%
X162855600Y-118437500D03*
%TD*%
D16*
%TO.P,R11,1*%
%TO.N,/B0*%
X146916600Y-87957500D03*
%TO.P,R11,2*%
%TO.N,/IN00*%
X145266600Y-87957500D03*
%TD*%
D21*
%TO.P,D1,1,K*%
%TO.N,GND*%
X149611100Y-120469500D03*
%TO.P,D1,2,A*%
%TO.N,Net-(D1-A)*%
X146636100Y-120469500D03*
%TD*%
D22*
%TO.P,R2,1*%
%TO.N,/OE*%
X145583600Y-111642500D03*
%TO.P,R2,2*%
%TO.N,GND*%
X145583600Y-109992500D03*
%TD*%
D23*
%TO.P,D2,1,K*%
%TO.N,GND*%
X155780100Y-120469500D03*
%TO.P,D2,2,A*%
%TO.N,Net-(D2-A)*%
X158755100Y-120469500D03*
%TD*%
D15*
%TO.P,TP1,1,1*%
%TO.N,GND*%
X152908000Y-94488000D03*
%TD*%
D19*
%TO.P,J7,1,Pin_1*%
%TO.N,Vccb*%
X150155600Y-114373500D03*
D20*
%TO.P,J7,2,Pin_2*%
%TO.N,/Vb_In*%
X147615600Y-114373500D03*
%TD*%
D15*
%TO.P,TP2,1,1*%
%TO.N,GND*%
X152695600Y-120469500D03*
%TD*%
%TO.P,TP4,1,1*%
%TO.N,GND*%
X159045600Y-85671500D03*
%TD*%
D24*
%TO.P,U2,1,V_{CCA}*%
%TO.N,Vcca*%
X155448000Y-105410000D03*
%TO.P,U2,2,DIR*%
%TO.N,/DIR*%
X155448000Y-104775000D03*
%TO.P,U2,3,A1*%
%TO.N,/BUF07*%
X155448000Y-104140000D03*
%TO.P,U2,4,A2*%
%TO.N,/BUF06*%
X155448000Y-103505000D03*
%TO.P,U2,5,A3*%
%TO.N,/BUF05*%
X155448000Y-102870000D03*
%TO.P,U2,6,A4*%
%TO.N,/BUF04*%
X155448000Y-102235000D03*
%TO.P,U2,7,A5*%
%TO.N,/BUF03*%
X155448000Y-101600000D03*
%TO.P,U2,8,A6*%
%TO.N,/BUF02*%
X155448000Y-100965000D03*
%TO.P,U2,9,A7*%
%TO.N,/BUF01*%
X155448000Y-100330000D03*
%TO.P,U2,10,A8*%
%TO.N,/BUF00*%
X155448000Y-99695000D03*
%TO.P,U2,11,GND*%
%TO.N,GND*%
X155448000Y-99060000D03*
%TO.P,U2,12,GND*%
X155448000Y-98425000D03*
%TO.P,U2,13,GND*%
X150248000Y-98425000D03*
%TO.P,U2,14,B8*%
%TO.N,/B0*%
X150248000Y-99060000D03*
%TO.P,U2,15,B7*%
%TO.N,/B1*%
X150248000Y-99695000D03*
%TO.P,U2,16,B6*%
%TO.N,/B2*%
X150248000Y-100330000D03*
%TO.P,U2,17,B5*%
%TO.N,/B3*%
X150248000Y-100965000D03*
%TO.P,U2,18,B4*%
%TO.N,/B4*%
X150248000Y-101600000D03*
%TO.P,U2,19,B3*%
%TO.N,/B5*%
X150248000Y-102235000D03*
%TO.P,U2,20,B2*%
%TO.N,/B6*%
X150248000Y-102870000D03*
%TO.P,U2,21,B1*%
%TO.N,/B7*%
X150248000Y-103505000D03*
%TO.P,U2,22,~{OE}*%
%TO.N,/OE*%
X150248000Y-104140000D03*
%TO.P,U2,23,V_{CCB}*%
%TO.N,Vccb*%
X150248000Y-104775000D03*
%TO.P,U2,24,V_{CCB}*%
X150248000Y-105410000D03*
%TD*%
D22*
%TO.P,R1,1*%
%TO.N,/DIR*%
X159807600Y-111642500D03*
%TO.P,R1,2*%
%TO.N,GND*%
X159807600Y-109992500D03*
%TD*%
D16*
%TO.P,R9,1*%
%TO.N,/B2*%
X146916600Y-93037500D03*
%TO.P,R9,2*%
%TO.N,/IN02*%
X145266600Y-93037500D03*
%TD*%
D25*
%TO.P,R15,1*%
%TO.N,Net-(JP2-A)*%
X157117100Y-117929500D03*
%TO.P,R15,2*%
%TO.N,Net-(D2-A)*%
X158942100Y-117929500D03*
%TD*%
D19*
%TO.P,J2,1,Pin_1*%
%TO.N,/Va_In*%
X157526600Y-114373500D03*
D20*
%TO.P,J2,2,Pin_2*%
%TO.N,Vcca*%
X154986600Y-114373500D03*
%TD*%
D26*
%TO.P,C4,1*%
%TO.N,Vcca*%
X154358000Y-108585000D03*
%TO.P,C4,2*%
%TO.N,GND*%
X156083000Y-108585000D03*
%TD*%
D15*
%TO.P,TP3,1,1*%
%TO.N,GND*%
X146345600Y-85671500D03*
%TD*%
D27*
%TO.N,GND*%
X159766000Y-108966000D03*
X156083000Y-107569000D03*
X152908000Y-105226552D03*
X152908000Y-97663000D03*
X149225000Y-107569000D03*
X152908000Y-99553888D03*
X152908000Y-104281108D03*
X156591000Y-85725000D03*
X148336000Y-120523000D03*
X152908000Y-103335664D03*
X152908000Y-100499332D03*
X152908000Y-102390220D03*
X148717000Y-85725000D03*
X154559000Y-120523000D03*
X152908000Y-93091000D03*
X152908000Y-106172000D03*
X146685000Y-109982000D03*
X152908000Y-98608444D03*
X152908000Y-101444776D03*
X156972000Y-120523000D03*
X150749000Y-120523000D03*
%TD*%
D28*
%TO.N,GND*%
X159807600Y-109007600D02*
X159766000Y-108966000D01*
X146345600Y-85671500D02*
X148663500Y-85671500D01*
X149278000Y-108585000D02*
X149278000Y-107622000D01*
X156083000Y-108585000D02*
X156083000Y-107569000D01*
X148663500Y-85671500D02*
X148717000Y-85725000D01*
X159045600Y-85671500D02*
X156644500Y-85671500D01*
X159807600Y-109992500D02*
X159807600Y-109007600D01*
X156644500Y-85671500D02*
X156591000Y-85725000D01*
X146674500Y-109992500D02*
X146685000Y-109982000D01*
X145583600Y-109992500D02*
X146674500Y-109992500D01*
X149278000Y-107622000D02*
X149225000Y-107569000D01*
%TO.N,/DIR*%
X158115000Y-105918000D02*
X158115000Y-110871000D01*
X158115000Y-110871000D02*
X158886500Y-111642500D01*
X156972000Y-104775000D02*
X158115000Y-105918000D01*
X158886500Y-111642500D02*
X159807600Y-111642500D01*
X162855600Y-113357500D02*
X161522600Y-113357500D01*
X155448000Y-104775000D02*
X156972000Y-104775000D01*
X161522600Y-113357500D02*
X159807600Y-111642500D01*
%TO.N,Net-(D1-A)*%
X146449100Y-120282500D02*
X146636100Y-120469500D01*
X146449100Y-117929500D02*
X146449100Y-120282500D01*
%TO.N,Net-(D2-A)*%
X158942100Y-117929500D02*
X158942100Y-120282500D01*
X158942100Y-120282500D02*
X158755100Y-120469500D01*
%TO.N,/IN04*%
X145266600Y-100657500D02*
X142535600Y-100657500D01*
%TO.N,/IN07*%
X145266600Y-108277500D02*
X142535600Y-108277500D01*
%TO.N,/IN06*%
X145266600Y-105737500D02*
X142535600Y-105737500D01*
%TO.N,/IN05*%
X145266600Y-103197500D02*
X142535600Y-103197500D01*
%TO.N,/IN01*%
X145266600Y-90497500D02*
X142535600Y-90497500D01*
%TO.N,/IN03*%
X145266600Y-95577500D02*
X142535600Y-95577500D01*
%TO.N,/IN02*%
X145266600Y-93037500D02*
X142535600Y-93037500D01*
%TO.N,/IN00*%
X145266600Y-87957500D02*
X142535600Y-87957500D01*
%TO.N,/BUF04*%
X155448000Y-102235000D02*
X157722100Y-102235000D01*
X157722100Y-102235000D02*
X159299600Y-100657500D01*
X159299600Y-100657500D02*
X162855600Y-100657500D01*
%TO.N,/BUF07*%
X161839600Y-108277500D02*
X162855600Y-108277500D01*
X155448000Y-104140000D02*
X157702100Y-104140000D01*
X157702100Y-104140000D02*
X161839600Y-108277500D01*
%TO.N,/BUF05*%
X162528100Y-102870000D02*
X162855600Y-103197500D01*
X155448000Y-102870000D02*
X162528100Y-102870000D01*
%TO.N,/BUF06*%
X161331600Y-105737500D02*
X162855600Y-105737500D01*
X155448000Y-103505000D02*
X159099100Y-103505000D01*
X159099100Y-103505000D02*
X161331600Y-105737500D01*
%TO.N,/BUF01*%
X155448000Y-100330000D02*
X156579100Y-100330000D01*
X157267600Y-99641500D02*
X157267600Y-91513500D01*
X156579100Y-100330000D02*
X157267600Y-99641500D01*
X158283600Y-90497500D02*
X162855600Y-90497500D01*
X157267600Y-91513500D02*
X158283600Y-90497500D01*
%TO.N,/BUF02*%
X158283600Y-93037500D02*
X162855600Y-93037500D01*
X155448000Y-100965000D02*
X156960100Y-100965000D01*
X156960100Y-100965000D02*
X157775600Y-100149500D01*
X157775600Y-93545500D02*
X158283600Y-93037500D01*
X157775600Y-100149500D02*
X157775600Y-93545500D01*
%TO.N,/BUF03*%
X158283600Y-96085500D02*
X158791600Y-95577500D01*
X158283600Y-100657500D02*
X158283600Y-96085500D01*
X157341100Y-101600000D02*
X158283600Y-100657500D01*
X158791600Y-95577500D02*
X162855600Y-95577500D01*
X155448000Y-101600000D02*
X157341100Y-101600000D01*
%TO.N,/BUF00*%
X156759600Y-99133500D02*
X156759600Y-88465500D01*
X156759600Y-88465500D02*
X157267600Y-87957500D01*
X157267600Y-87957500D02*
X162855600Y-87957500D01*
X155448000Y-99695000D02*
X156198100Y-99695000D01*
X156198100Y-99695000D02*
X156759600Y-99133500D01*
%TO.N,/OE*%
X142535600Y-113357500D02*
X143868600Y-113357500D01*
X143868600Y-113357500D02*
X145583600Y-111642500D01*
X148844000Y-106553000D02*
X148844000Y-104694000D01*
X147701000Y-110490000D02*
X147701000Y-107696000D01*
X146548500Y-111642500D02*
X147701000Y-110490000D01*
X147701000Y-107696000D02*
X148844000Y-106553000D01*
X145583600Y-111642500D02*
X146548500Y-111642500D01*
X149398000Y-104140000D02*
X150248000Y-104140000D01*
X148844000Y-104694000D02*
X149398000Y-104140000D01*
%TO.N,/B7*%
X146916600Y-107802500D02*
X148123600Y-106595500D01*
X149340100Y-103505000D02*
X150248000Y-103505000D01*
X148123600Y-104721500D02*
X149340100Y-103505000D01*
X146916600Y-108277500D02*
X146916600Y-107802500D01*
X148123600Y-106595500D02*
X148123600Y-104721500D01*
%TO.N,/B6*%
X148959100Y-102870000D02*
X150248000Y-102870000D01*
X146916600Y-104912500D02*
X148959100Y-102870000D01*
X146916600Y-105737500D02*
X146916600Y-104912500D01*
%TO.N,/B5*%
X147615600Y-102181500D02*
X148123600Y-102181500D01*
X146916600Y-102880500D02*
X147615600Y-102181500D01*
X148123600Y-102181500D02*
X148177100Y-102235000D01*
X148177100Y-102235000D02*
X150248000Y-102235000D01*
X146916600Y-103197500D02*
X146916600Y-102880500D01*
%TO.N,/B4*%
X149139600Y-101600000D02*
X150248000Y-101600000D01*
X146916600Y-100657500D02*
X148197100Y-100657500D01*
X148197100Y-100657500D02*
X149139600Y-101600000D01*
%TO.N,/B3*%
X149395208Y-100965000D02*
X150248000Y-100965000D01*
X147107600Y-95577500D02*
X147615600Y-96085500D01*
X147615600Y-99185392D02*
X149395208Y-100965000D01*
X146916600Y-95577500D02*
X147107600Y-95577500D01*
X147615600Y-96085500D02*
X147615600Y-99185392D01*
%TO.N,/B2*%
X148123600Y-94719500D02*
X148123600Y-99056996D01*
X146916600Y-93037500D02*
X146916600Y-93512500D01*
X146916600Y-93512500D02*
X148123600Y-94719500D01*
X148123600Y-99056996D02*
X149396604Y-100330000D01*
X149396604Y-100330000D02*
X150248000Y-100330000D01*
%TO.N,/B1*%
X148631600Y-98928600D02*
X149398000Y-99695000D01*
X148631600Y-91005500D02*
X148631600Y-98928600D01*
X149398000Y-99695000D02*
X150248000Y-99695000D01*
X148123600Y-90497500D02*
X148631600Y-91005500D01*
X146916600Y-90497500D02*
X148123600Y-90497500D01*
%TO.N,/B0*%
X150248000Y-99060000D02*
X149399396Y-99060000D01*
X149399396Y-99060000D02*
X149139600Y-98800204D01*
X149139600Y-98800204D02*
X149139600Y-90655500D01*
X149139600Y-90655500D02*
X146916600Y-88432500D01*
X146916600Y-88432500D02*
X146916600Y-87957500D01*
%TD*%
%TA.AperFunction,Conductor*%
%TO.N,/Va_In*%
G36*
X160242450Y-112541685D02*
G01*
X160263092Y-112558319D01*
X161322738Y-113617965D01*
X161396961Y-113660818D01*
X161396960Y-113660818D01*
X161411547Y-113664726D01*
X161452093Y-113675590D01*
X161511752Y-113711952D01*
X161542283Y-113774799D01*
X161544000Y-113795364D01*
X161544000Y-117094000D01*
X164214000Y-117094000D01*
X164281039Y-117113685D01*
X164326794Y-117166489D01*
X164338000Y-117218000D01*
X164338000Y-119764000D01*
X164318315Y-119831039D01*
X164265511Y-119876794D01*
X164214000Y-119888000D01*
X159890000Y-119888000D01*
X159822961Y-119868315D01*
X159777206Y-119815511D01*
X159766000Y-119764000D01*
X159766000Y-118937500D01*
X161986246Y-118937500D01*
X162018104Y-118997101D01*
X162143366Y-119149733D01*
X162295999Y-119274996D01*
X162355600Y-119306852D01*
X163355600Y-119306852D01*
X163415200Y-119274996D01*
X163567833Y-119149733D01*
X163693095Y-118997101D01*
X163724954Y-118937500D01*
X163355600Y-118937500D01*
X163355600Y-119306852D01*
X162355600Y-119306852D01*
X162355600Y-118937500D01*
X161986246Y-118937500D01*
X159766000Y-118937500D01*
X159766000Y-118371674D01*
X162355600Y-118371674D01*
X162355600Y-118503326D01*
X162389675Y-118630493D01*
X162455501Y-118744507D01*
X162548593Y-118837599D01*
X162662607Y-118903425D01*
X162789774Y-118937500D01*
X162921426Y-118937500D01*
X163048593Y-118903425D01*
X163162607Y-118837599D01*
X163255699Y-118744507D01*
X163321525Y-118630493D01*
X163355600Y-118503326D01*
X163355600Y-118371674D01*
X163321525Y-118244507D01*
X163255699Y-118130493D01*
X163162607Y-118037401D01*
X163048593Y-117971575D01*
X162921426Y-117937500D01*
X163355600Y-117937500D01*
X163724954Y-117937500D01*
X163693095Y-117877898D01*
X163567833Y-117725266D01*
X163415201Y-117600004D01*
X163355600Y-117568146D01*
X163355600Y-117937500D01*
X162921426Y-117937500D01*
X162789774Y-117937500D01*
X162662607Y-117971575D01*
X162548593Y-118037401D01*
X162455501Y-118130493D01*
X162389675Y-118244507D01*
X162355600Y-118371674D01*
X159766000Y-118371674D01*
X159766000Y-117937500D01*
X161986245Y-117937500D01*
X162355600Y-117937500D01*
X162355600Y-117568146D01*
X162295998Y-117600004D01*
X162143366Y-117725266D01*
X162018104Y-117877898D01*
X161986245Y-117937500D01*
X159766000Y-117937500D01*
X159766000Y-116713000D01*
X156334000Y-116713000D01*
X156266961Y-116693315D01*
X156221206Y-116640511D01*
X156210000Y-116589000D01*
X156210000Y-115238516D01*
X156524200Y-115238516D01*
X156533040Y-115282961D01*
X156566726Y-115333373D01*
X156617138Y-115367059D01*
X156617137Y-115367059D01*
X156661583Y-115375899D01*
X156661587Y-115375900D01*
X157026600Y-115375900D01*
X158026600Y-115375900D01*
X158391613Y-115375900D01*
X158391616Y-115375899D01*
X158436061Y-115367059D01*
X158486473Y-115333373D01*
X158520159Y-115282961D01*
X158528999Y-115238516D01*
X158529000Y-115238513D01*
X158529000Y-114873500D01*
X158026600Y-114873500D01*
X158026600Y-115375900D01*
X157026600Y-115375900D01*
X157026600Y-114873500D01*
X156524200Y-114873500D01*
X156524200Y-115238516D01*
X156210000Y-115238516D01*
X156210000Y-114307674D01*
X157026600Y-114307674D01*
X157026600Y-114439326D01*
X157060675Y-114566493D01*
X157126501Y-114680507D01*
X157219593Y-114773599D01*
X157333607Y-114839425D01*
X157460774Y-114873500D01*
X157592426Y-114873500D01*
X157719593Y-114839425D01*
X157833607Y-114773599D01*
X157926699Y-114680507D01*
X157992525Y-114566493D01*
X158026600Y-114439326D01*
X158026600Y-114307674D01*
X157992525Y-114180507D01*
X157926699Y-114066493D01*
X157833607Y-113973401D01*
X157719593Y-113907575D01*
X157592426Y-113873500D01*
X158026600Y-113873500D01*
X158529000Y-113873500D01*
X158529000Y-113508487D01*
X158528999Y-113508483D01*
X158520159Y-113464038D01*
X158486473Y-113413626D01*
X158436061Y-113379940D01*
X158436062Y-113379940D01*
X158391616Y-113371100D01*
X158026600Y-113371100D01*
X158026600Y-113873500D01*
X157592426Y-113873500D01*
X157460774Y-113873500D01*
X157333607Y-113907575D01*
X157219593Y-113973401D01*
X157126501Y-114066493D01*
X157060675Y-114180507D01*
X157026600Y-114307674D01*
X156210000Y-114307674D01*
X156210000Y-113508483D01*
X156524200Y-113508483D01*
X156524200Y-113873500D01*
X157026600Y-113873500D01*
X157026600Y-113371100D01*
X156661583Y-113371100D01*
X156617138Y-113379940D01*
X156566726Y-113413626D01*
X156533040Y-113464038D01*
X156524200Y-113508483D01*
X156210000Y-113508483D01*
X156210000Y-112646000D01*
X156229685Y-112578961D01*
X156282489Y-112533206D01*
X156334000Y-112522000D01*
X160175411Y-112522000D01*
X160242450Y-112541685D01*
G37*
%TD.AperFunction*%
%TD*%
%TA.AperFunction,Conductor*%
%TO.N,Vcca*%
G36*
X154657277Y-105175685D02*
G01*
X154677919Y-105192319D01*
X154695600Y-105210000D01*
X155524000Y-105210000D01*
X155591039Y-105229685D01*
X155636794Y-105282489D01*
X155648000Y-105334000D01*
X155648000Y-105762400D01*
X156063013Y-105762400D01*
X156063016Y-105762399D01*
X156107462Y-105753559D01*
X156144106Y-105729073D01*
X156210783Y-105708193D01*
X156278164Y-105726676D01*
X156324855Y-105778653D01*
X156337000Y-105832173D01*
X156337000Y-106556000D01*
X156317315Y-106623039D01*
X156264511Y-106668794D01*
X156213000Y-106680000D01*
X155194000Y-106680000D01*
X155194000Y-108032735D01*
X155174315Y-108099774D01*
X155121511Y-108145529D01*
X155052353Y-108155473D01*
X154988797Y-108126448D01*
X154982319Y-108120416D01*
X154890035Y-108028132D01*
X154833000Y-107999070D01*
X154833000Y-109170928D01*
X154890032Y-109141869D01*
X154982319Y-109049583D01*
X155043642Y-109016098D01*
X155113334Y-109021082D01*
X155169267Y-109062954D01*
X155193684Y-109128418D01*
X155194000Y-109137264D01*
X155194000Y-109415600D01*
X155174315Y-109482639D01*
X155121511Y-109528394D01*
X155070000Y-109539600D01*
X153480483Y-109539600D01*
X153436038Y-109548440D01*
X153385626Y-109582126D01*
X153351940Y-109632538D01*
X153343100Y-109676983D01*
X153343100Y-110117000D01*
X157097900Y-110117000D01*
X157097900Y-109676987D01*
X157097899Y-109676983D01*
X157087001Y-109622191D01*
X157093228Y-109552599D01*
X157136092Y-109497422D01*
X157201982Y-109474178D01*
X157208618Y-109474000D01*
X157229000Y-109474000D01*
X157296039Y-109493685D01*
X157341794Y-109546489D01*
X157353000Y-109598000D01*
X157353000Y-112192500D01*
X157333315Y-112259539D01*
X157280511Y-112305294D01*
X157229000Y-112316500D01*
X156333992Y-112316500D01*
X156290313Y-112321197D01*
X156238825Y-112332397D01*
X156228627Y-112334890D01*
X156228624Y-112334891D01*
X156147916Y-112377899D01*
X156147913Y-112377901D01*
X156095104Y-112423660D01*
X156077160Y-112441242D01*
X156077154Y-112441249D01*
X156032511Y-112521059D01*
X156032509Y-112521064D01*
X156012826Y-112588096D01*
X156004500Y-112646003D01*
X156004500Y-113687165D01*
X155984815Y-113754204D01*
X155932011Y-113799959D01*
X155862853Y-113809903D01*
X155799297Y-113780878D01*
X155784647Y-113765830D01*
X155698833Y-113661266D01*
X155546201Y-113536004D01*
X155486600Y-113504146D01*
X155486600Y-114307674D01*
X155452525Y-114180507D01*
X155386699Y-114066493D01*
X155293607Y-113973401D01*
X155179593Y-113907575D01*
X155052426Y-113873500D01*
X154920774Y-113873500D01*
X154793607Y-113907575D01*
X154679593Y-113973401D01*
X154586501Y-114066493D01*
X154520675Y-114180507D01*
X154486600Y-114307674D01*
X154486600Y-114439326D01*
X154520675Y-114566493D01*
X154586501Y-114680507D01*
X154679593Y-114773599D01*
X154793607Y-114839425D01*
X154920774Y-114873500D01*
X155052426Y-114873500D01*
X155179593Y-114839425D01*
X155293607Y-114773599D01*
X155386699Y-114680507D01*
X155452525Y-114566493D01*
X155486600Y-114439326D01*
X155486600Y-115242852D01*
X155546200Y-115210996D01*
X155698833Y-115085733D01*
X155784647Y-114981169D01*
X155842392Y-114941835D01*
X155912237Y-114939964D01*
X155972005Y-114976151D01*
X156002721Y-115038907D01*
X156004500Y-115059834D01*
X156004500Y-116335000D01*
X155984815Y-116402039D01*
X155932011Y-116447794D01*
X155880500Y-116459000D01*
X154178000Y-116459000D01*
X154178000Y-119129000D01*
X154158315Y-119196039D01*
X154105511Y-119241794D01*
X154054000Y-119253000D01*
X152905000Y-119253000D01*
X152837961Y-119233315D01*
X152792206Y-119180511D01*
X152781000Y-119129000D01*
X152781000Y-114873500D01*
X154117246Y-114873500D01*
X154149104Y-114933101D01*
X154274366Y-115085733D01*
X154426999Y-115210996D01*
X154486600Y-115242852D01*
X154486600Y-114873500D01*
X154117246Y-114873500D01*
X152781000Y-114873500D01*
X152781000Y-113873500D01*
X154117245Y-113873500D01*
X154486600Y-113873500D01*
X154486600Y-113504146D01*
X154426998Y-113536004D01*
X154274366Y-113661266D01*
X154149104Y-113813898D01*
X154117245Y-113873500D01*
X152781000Y-113873500D01*
X152781000Y-111557016D01*
X153343100Y-111557016D01*
X153351940Y-111601461D01*
X153385626Y-111651873D01*
X153436038Y-111685559D01*
X153436037Y-111685559D01*
X153480483Y-111694399D01*
X153480487Y-111694400D01*
X154720500Y-111694400D01*
X155720500Y-111694400D01*
X156960513Y-111694400D01*
X156960516Y-111694399D01*
X157004961Y-111685559D01*
X157055373Y-111651873D01*
X157089059Y-111601461D01*
X157097899Y-111557016D01*
X157097900Y-111557013D01*
X157097900Y-111117000D01*
X155720500Y-111117000D01*
X155720500Y-111694400D01*
X154720500Y-111694400D01*
X154720500Y-111117000D01*
X153343100Y-111117000D01*
X153343100Y-111557016D01*
X152781000Y-111557016D01*
X152781000Y-109060000D01*
X153744098Y-109060000D01*
X153825969Y-109141870D01*
X153882999Y-109170928D01*
X153883000Y-109170928D01*
X153883000Y-109060000D01*
X153744098Y-109060000D01*
X152781000Y-109060000D01*
X152781000Y-108109999D01*
X153744097Y-108109999D01*
X153744098Y-108110000D01*
X153883000Y-108110000D01*
X153883000Y-107999071D01*
X153882999Y-107999070D01*
X153825964Y-108028132D01*
X153744097Y-108109999D01*
X152781000Y-108109999D01*
X152781000Y-107058000D01*
X152800685Y-106990961D01*
X152853489Y-106945206D01*
X152905000Y-106934000D01*
X153416000Y-106934000D01*
X153416000Y-106536708D01*
X153430452Y-106482776D01*
X153429426Y-106482351D01*
X153461054Y-106405992D01*
X153493044Y-106328762D01*
X153513682Y-106172000D01*
X153493044Y-106015238D01*
X153432536Y-105869159D01*
X153432535Y-105869158D01*
X153429426Y-105861651D01*
X153430451Y-105861226D01*
X153416000Y-105807292D01*
X153416000Y-105625016D01*
X154695600Y-105625016D01*
X154704440Y-105669461D01*
X154738126Y-105719873D01*
X154788538Y-105753559D01*
X154788537Y-105753559D01*
X154832983Y-105762399D01*
X154832987Y-105762400D01*
X155248000Y-105762400D01*
X155248000Y-105610000D01*
X154695600Y-105610000D01*
X154695600Y-105625016D01*
X153416000Y-105625016D01*
X153416000Y-105591260D01*
X153430452Y-105537328D01*
X153429426Y-105536903D01*
X153461054Y-105460544D01*
X153493044Y-105383314D01*
X153508776Y-105263814D01*
X153537042Y-105199918D01*
X153595367Y-105161447D01*
X153631715Y-105156000D01*
X154590238Y-105156000D01*
X154657277Y-105175685D01*
G37*
%TD.AperFunction*%
%TD*%
%TA.AperFunction,Conductor*%
%TO.N,GND*%
G36*
X152718008Y-119395779D02*
G01*
X152751669Y-119414607D01*
X152780063Y-119430490D01*
X152847102Y-119450175D01*
X152905000Y-119458500D01*
X152905004Y-119458500D01*
X154053991Y-119458500D01*
X154054000Y-119458500D01*
X154097684Y-119453803D01*
X154126875Y-119447452D01*
X154149174Y-119442602D01*
X154149190Y-119442598D01*
X154149195Y-119442597D01*
X154159373Y-119440110D01*
X154240085Y-119397100D01*
X154240085Y-119397099D01*
X154244836Y-119394568D01*
X154303151Y-119380000D01*
X156848000Y-119380000D01*
X156915039Y-119399685D01*
X156960794Y-119452489D01*
X156972000Y-119504000D01*
X156972000Y-121411800D01*
X156952315Y-121478839D01*
X156899511Y-121524594D01*
X156848000Y-121535800D01*
X148460000Y-121535800D01*
X148392961Y-121516115D01*
X148347206Y-121463311D01*
X148336000Y-121411800D01*
X148336000Y-119504000D01*
X148355685Y-119436961D01*
X148408489Y-119391206D01*
X148460000Y-119380000D01*
X152657475Y-119380000D01*
X152718008Y-119395779D01*
G37*
%TD.AperFunction*%
%TD*%
%TA.AperFunction,Conductor*%
%TO.N,/Vb_In*%
G36*
X148660039Y-112541685D02*
G01*
X148705794Y-112594489D01*
X148717000Y-112646000D01*
X148717000Y-113812591D01*
X148697315Y-113879630D01*
X148644511Y-113925385D01*
X148575353Y-113935329D01*
X148511797Y-113906304D01*
X148483642Y-113871044D01*
X148453102Y-113813907D01*
X148453097Y-113813900D01*
X148327833Y-113661266D01*
X148175201Y-113536004D01*
X148115600Y-113504146D01*
X148115600Y-114307674D01*
X148081525Y-114180507D01*
X148015699Y-114066493D01*
X147922607Y-113973401D01*
X147808593Y-113907575D01*
X147681426Y-113873500D01*
X147549774Y-113873500D01*
X147422607Y-113907575D01*
X147308593Y-113973401D01*
X147215501Y-114066493D01*
X147149675Y-114180507D01*
X147115600Y-114307674D01*
X147115600Y-114439326D01*
X147149675Y-114566493D01*
X147215501Y-114680507D01*
X147308593Y-114773599D01*
X147422607Y-114839425D01*
X147549774Y-114873500D01*
X147681426Y-114873500D01*
X147808593Y-114839425D01*
X147922607Y-114773599D01*
X148015699Y-114680507D01*
X148081525Y-114566493D01*
X148115600Y-114439326D01*
X148115600Y-115242852D01*
X148175200Y-115210996D01*
X148327833Y-115085733D01*
X148453096Y-114933099D01*
X148483641Y-114875955D01*
X148532604Y-114826111D01*
X148600741Y-114810650D01*
X148666421Y-114834481D01*
X148708790Y-114890039D01*
X148717000Y-114934408D01*
X148717000Y-116589000D01*
X148697315Y-116656039D01*
X148644511Y-116701794D01*
X148593000Y-116713000D01*
X145542000Y-116713000D01*
X145542000Y-119764000D01*
X145522315Y-119831039D01*
X145469511Y-119876794D01*
X145418000Y-119888000D01*
X141221000Y-119888000D01*
X141153961Y-119868315D01*
X141108206Y-119815511D01*
X141097000Y-119764000D01*
X141097000Y-118937500D01*
X141666246Y-118937500D01*
X141698104Y-118997101D01*
X141823366Y-119149733D01*
X141975999Y-119274996D01*
X142035600Y-119306852D01*
X143035600Y-119306852D01*
X143095200Y-119274996D01*
X143247833Y-119149733D01*
X143373095Y-118997101D01*
X143404954Y-118937500D01*
X143035600Y-118937500D01*
X143035600Y-119306852D01*
X142035600Y-119306852D01*
X142035600Y-118937500D01*
X141666246Y-118937500D01*
X141097000Y-118937500D01*
X141097000Y-118371674D01*
X142035600Y-118371674D01*
X142035600Y-118503326D01*
X142069675Y-118630493D01*
X142135501Y-118744507D01*
X142228593Y-118837599D01*
X142342607Y-118903425D01*
X142469774Y-118937500D01*
X142601426Y-118937500D01*
X142728593Y-118903425D01*
X142842607Y-118837599D01*
X142935699Y-118744507D01*
X143001525Y-118630493D01*
X143035600Y-118503326D01*
X143035600Y-118371674D01*
X143001525Y-118244507D01*
X142935699Y-118130493D01*
X142842607Y-118037401D01*
X142728593Y-117971575D01*
X142601426Y-117937500D01*
X143035600Y-117937500D01*
X143404954Y-117937500D01*
X143373095Y-117877898D01*
X143247833Y-117725266D01*
X143095201Y-117600004D01*
X143035600Y-117568146D01*
X143035600Y-117937500D01*
X142601426Y-117937500D01*
X142469774Y-117937500D01*
X142342607Y-117971575D01*
X142228593Y-118037401D01*
X142135501Y-118130493D01*
X142069675Y-118244507D01*
X142035600Y-118371674D01*
X141097000Y-118371674D01*
X141097000Y-117937500D01*
X141666245Y-117937500D01*
X142035600Y-117937500D01*
X142035600Y-117568146D01*
X141975998Y-117600004D01*
X141823366Y-117725266D01*
X141698104Y-117877898D01*
X141666245Y-117937500D01*
X141097000Y-117937500D01*
X141097000Y-117218000D01*
X141116685Y-117150961D01*
X141169489Y-117105206D01*
X141221000Y-117094000D01*
X143764000Y-117094000D01*
X143764000Y-114873500D01*
X146746246Y-114873500D01*
X146778104Y-114933101D01*
X146903366Y-115085733D01*
X147055999Y-115210996D01*
X147115600Y-115242852D01*
X147115600Y-114873500D01*
X146746246Y-114873500D01*
X143764000Y-114873500D01*
X143764000Y-113873500D01*
X146746245Y-113873500D01*
X147115600Y-113873500D01*
X147115600Y-113504146D01*
X147055998Y-113536004D01*
X146903366Y-113661266D01*
X146778104Y-113813898D01*
X146746245Y-113873500D01*
X143764000Y-113873500D01*
X143764000Y-113807000D01*
X143783685Y-113739961D01*
X143836489Y-113694206D01*
X143888000Y-113683000D01*
X143911451Y-113683000D01*
X143911453Y-113683000D01*
X143994239Y-113660818D01*
X144068462Y-113617965D01*
X145128108Y-112558319D01*
X145189431Y-112524834D01*
X145215789Y-112522000D01*
X148593000Y-112522000D01*
X148660039Y-112541685D01*
G37*
%TD.AperFunction*%
%TD*%
%TA.AperFunction,Conductor*%
%TO.N,GND*%
G36*
X164535039Y-83712685D02*
G01*
X164580794Y-83765489D01*
X164592000Y-83817000D01*
X164592000Y-86744000D01*
X164572315Y-86811039D01*
X164519511Y-86856794D01*
X164468000Y-86868000D01*
X155575000Y-86868000D01*
X155575000Y-97409000D01*
X150114000Y-97409000D01*
X150114000Y-86868000D01*
X140967000Y-86868000D01*
X140899961Y-86848315D01*
X140854206Y-86795511D01*
X140843000Y-86744000D01*
X140843000Y-83817000D01*
X140862685Y-83749961D01*
X140915489Y-83704206D01*
X140967000Y-83693000D01*
X164468000Y-83693000D01*
X164535039Y-83712685D01*
G37*
%TD.AperFunction*%
%TD*%
%TA.AperFunction,Conductor*%
%TO.N,GND*%
G36*
X156280039Y-97174685D02*
G01*
X156325794Y-97227489D01*
X156337000Y-97279000D01*
X156337000Y-97620549D01*
X156317315Y-97687588D01*
X156264511Y-97733343D01*
X156195353Y-97743287D01*
X156169672Y-97736733D01*
X156155381Y-97731403D01*
X156155372Y-97731401D01*
X156095844Y-97725000D01*
X155648000Y-97725000D01*
X155648000Y-99136000D01*
X155628315Y-99203039D01*
X155575511Y-99248794D01*
X155524000Y-99260000D01*
X154348000Y-99260000D01*
X154348000Y-99307844D01*
X154354401Y-99367372D01*
X154354403Y-99367379D01*
X154404645Y-99502086D01*
X154404649Y-99502093D01*
X154490809Y-99617187D01*
X154490812Y-99617190D01*
X154597811Y-99697290D01*
X154639682Y-99753223D01*
X154647500Y-99796556D01*
X154647500Y-99914752D01*
X154661515Y-99985210D01*
X154657988Y-99985911D01*
X154663207Y-100034538D01*
X154661200Y-100041373D01*
X154647500Y-100110247D01*
X154647500Y-100549752D01*
X154661515Y-100620210D01*
X154657988Y-100620911D01*
X154663207Y-100669538D01*
X154661200Y-100676373D01*
X154647500Y-100745247D01*
X154647500Y-101184752D01*
X154661515Y-101255210D01*
X154657988Y-101255911D01*
X154663207Y-101304538D01*
X154661200Y-101311373D01*
X154647500Y-101380247D01*
X154647500Y-101819752D01*
X154661515Y-101890210D01*
X154657988Y-101890911D01*
X154663207Y-101939538D01*
X154661200Y-101946373D01*
X154647500Y-102015247D01*
X154647500Y-102454752D01*
X154661515Y-102525210D01*
X154657988Y-102525911D01*
X154663207Y-102574538D01*
X154661200Y-102581373D01*
X154647500Y-102650247D01*
X154647500Y-103089752D01*
X154661515Y-103160210D01*
X154657988Y-103160911D01*
X154663207Y-103209538D01*
X154661200Y-103216373D01*
X154647500Y-103285247D01*
X154647500Y-103724752D01*
X154661515Y-103795210D01*
X154657988Y-103795911D01*
X154663207Y-103844538D01*
X154661200Y-103851373D01*
X154647500Y-103920247D01*
X154647500Y-104359752D01*
X154661515Y-104430210D01*
X154657988Y-104430911D01*
X154663207Y-104479538D01*
X154661200Y-104486373D01*
X154647500Y-104555247D01*
X154647500Y-104826500D01*
X154627815Y-104893539D01*
X154575011Y-104939294D01*
X154523500Y-104950500D01*
X153631697Y-104950500D01*
X153601277Y-104952767D01*
X153601259Y-104952769D01*
X153564908Y-104958216D01*
X153482220Y-104989901D01*
X153482218Y-104989902D01*
X153423897Y-105028370D01*
X153423884Y-105028380D01*
X153403791Y-105043473D01*
X153403791Y-105043474D01*
X153349110Y-105116779D01*
X153320847Y-105180669D01*
X153320843Y-105180681D01*
X153305034Y-105236988D01*
X153294963Y-105313483D01*
X153286586Y-105344748D01*
X153271196Y-105381904D01*
X153271196Y-105381905D01*
X153243949Y-105447687D01*
X153240616Y-105451821D01*
X153230131Y-105490941D01*
X153229515Y-105493157D01*
X153225075Y-105508571D01*
X153224277Y-105512783D01*
X153217503Y-105538065D01*
X153217503Y-105538067D01*
X153210500Y-105591252D01*
X153210500Y-105807299D01*
X153217501Y-105860475D01*
X153217505Y-105860491D01*
X153234437Y-105923686D01*
X153234588Y-105928300D01*
X153238792Y-105940684D01*
X153239622Y-105941554D01*
X153243988Y-105950965D01*
X153244727Y-105952751D01*
X153244743Y-105952785D01*
X153286585Y-106053801D01*
X153294963Y-106085068D01*
X153304277Y-106155813D01*
X153304277Y-106188184D01*
X153294963Y-106258930D01*
X153286586Y-106290196D01*
X153271196Y-106327352D01*
X153271196Y-106327353D01*
X153243949Y-106393135D01*
X153240616Y-106397269D01*
X153230131Y-106436389D01*
X153229515Y-106438605D01*
X153225075Y-106454019D01*
X153224277Y-106458231D01*
X153217503Y-106483513D01*
X153217503Y-106483515D01*
X153210500Y-106536700D01*
X153210500Y-106556000D01*
X153190815Y-106623039D01*
X153138011Y-106668794D01*
X153086500Y-106680000D01*
X152221500Y-106680000D01*
X152154461Y-106660315D01*
X152108706Y-106607511D01*
X152097500Y-106556000D01*
X152097500Y-104518008D01*
X152097499Y-104517992D01*
X152093364Y-104479538D01*
X152092803Y-104474316D01*
X152086060Y-104443318D01*
X152081602Y-104422825D01*
X152080479Y-104418231D01*
X152079110Y-104412627D01*
X152036100Y-104331915D01*
X151990345Y-104279111D01*
X151990339Y-104279104D01*
X151972757Y-104261160D01*
X151972756Y-104261159D01*
X151972754Y-104261157D01*
X151972752Y-104261156D01*
X151972750Y-104261154D01*
X151892940Y-104216511D01*
X151892935Y-104216509D01*
X151825903Y-104196826D01*
X151825899Y-104196825D01*
X151825898Y-104196825D01*
X151768000Y-104188500D01*
X151172500Y-104188500D01*
X151105461Y-104168815D01*
X151059706Y-104116011D01*
X151048500Y-104064500D01*
X151048500Y-103920249D01*
X151048499Y-103920247D01*
X151034485Y-103849790D01*
X151038015Y-103849087D01*
X151032786Y-103800495D01*
X151034793Y-103793657D01*
X151048499Y-103724752D01*
X151048500Y-103724750D01*
X151048500Y-103285249D01*
X151048499Y-103285247D01*
X151034485Y-103214790D01*
X151038015Y-103214087D01*
X151032786Y-103165495D01*
X151034793Y-103158657D01*
X151048499Y-103089752D01*
X151048500Y-103089750D01*
X151048500Y-102650249D01*
X151048499Y-102650247D01*
X151034485Y-102579790D01*
X151038015Y-102579087D01*
X151032786Y-102530495D01*
X151034793Y-102523657D01*
X151048499Y-102454752D01*
X151048500Y-102454750D01*
X151048500Y-102015249D01*
X151048499Y-102015247D01*
X151034485Y-101944790D01*
X151038015Y-101944087D01*
X151032786Y-101895495D01*
X151034793Y-101888657D01*
X151048499Y-101819752D01*
X151048500Y-101819750D01*
X151048500Y-101380249D01*
X151048499Y-101380247D01*
X151034485Y-101309790D01*
X151038015Y-101309087D01*
X151032786Y-101260495D01*
X151034793Y-101253657D01*
X151048499Y-101184752D01*
X151048500Y-101184750D01*
X151048500Y-100745249D01*
X151048499Y-100745247D01*
X151034485Y-100674790D01*
X151038015Y-100674087D01*
X151032786Y-100625495D01*
X151034793Y-100618657D01*
X151048499Y-100549752D01*
X151048500Y-100549750D01*
X151048500Y-100110249D01*
X151048499Y-100110247D01*
X151034485Y-100039790D01*
X151038015Y-100039087D01*
X151032786Y-99990495D01*
X151034793Y-99983657D01*
X151048499Y-99914752D01*
X151048500Y-99914750D01*
X151048500Y-99475249D01*
X151048499Y-99475247D01*
X151034485Y-99404790D01*
X151038015Y-99404087D01*
X151032786Y-99355495D01*
X151034793Y-99348657D01*
X151036877Y-99338182D01*
X151048500Y-99279748D01*
X151048500Y-99161556D01*
X151068185Y-99094517D01*
X151098189Y-99062290D01*
X151205187Y-98982190D01*
X151205190Y-98982187D01*
X151291350Y-98867093D01*
X151291354Y-98867086D01*
X151341596Y-98732379D01*
X151341598Y-98732372D01*
X151347999Y-98672844D01*
X154348000Y-98672844D01*
X154354065Y-98729244D01*
X154354065Y-98755756D01*
X154348000Y-98812155D01*
X154348000Y-98860000D01*
X155248000Y-98860000D01*
X155248000Y-98625000D01*
X154348000Y-98625000D01*
X154348000Y-98672844D01*
X151347999Y-98672844D01*
X151348000Y-98672827D01*
X151348000Y-98625000D01*
X150172000Y-98625000D01*
X150104961Y-98605315D01*
X150059206Y-98552511D01*
X150048000Y-98501000D01*
X150048000Y-98225000D01*
X150448000Y-98225000D01*
X151348000Y-98225000D01*
X151348000Y-98177172D01*
X151347999Y-98177155D01*
X154348000Y-98177155D01*
X154348000Y-98225000D01*
X155248000Y-98225000D01*
X155248000Y-97725000D01*
X154800155Y-97725000D01*
X154740627Y-97731401D01*
X154740620Y-97731403D01*
X154605913Y-97781645D01*
X154605906Y-97781649D01*
X154490812Y-97867809D01*
X154490809Y-97867812D01*
X154404649Y-97982906D01*
X154404645Y-97982913D01*
X154354403Y-98117620D01*
X154354401Y-98117627D01*
X154348000Y-98177155D01*
X151347999Y-98177155D01*
X151341598Y-98117627D01*
X151341596Y-98117620D01*
X151291354Y-97982913D01*
X151291350Y-97982906D01*
X151205190Y-97867812D01*
X151205187Y-97867809D01*
X151090093Y-97781649D01*
X151090086Y-97781645D01*
X150955379Y-97731403D01*
X150955372Y-97731401D01*
X150895844Y-97725000D01*
X150448000Y-97725000D01*
X150448000Y-98225000D01*
X150048000Y-98225000D01*
X150048000Y-97725000D01*
X149600172Y-97725000D01*
X149596847Y-97725178D01*
X149596771Y-97723765D01*
X149533566Y-97712344D01*
X149482441Y-97664720D01*
X149465100Y-97601475D01*
X149465100Y-97279000D01*
X149484785Y-97211961D01*
X149537589Y-97166206D01*
X149589100Y-97155000D01*
X150114000Y-97155000D01*
X155575000Y-97155000D01*
X156213000Y-97155000D01*
X156280039Y-97174685D01*
G37*
%TD.AperFunction*%
%TD*%
%TA.AperFunction,Conductor*%
%TO.N,Net-(JP2-A)*%
G36*
X155998355Y-116681885D02*
G01*
X156040748Y-116727885D01*
X156065899Y-116775083D01*
X156065901Y-116775086D01*
X156111660Y-116827895D01*
X156129242Y-116845839D01*
X156129246Y-116845843D01*
X156129247Y-116845844D01*
X156129249Y-116845845D01*
X156205505Y-116888500D01*
X156209063Y-116890490D01*
X156276102Y-116910175D01*
X156334000Y-116918500D01*
X157864000Y-116918500D01*
X157931039Y-116938185D01*
X157976794Y-116990989D01*
X157988000Y-117042500D01*
X157988000Y-117544221D01*
X157968315Y-117611260D01*
X157915511Y-117657015D01*
X157846353Y-117666959D01*
X157782797Y-117637934D01*
X157745023Y-117579156D01*
X157743925Y-117574278D01*
X157742539Y-117570013D01*
X157686466Y-117459965D01*
X157686463Y-117459960D01*
X157599139Y-117372636D01*
X157599135Y-117372633D01*
X157592100Y-117369048D01*
X157592100Y-118489950D01*
X157599132Y-118486368D01*
X157686466Y-118399035D01*
X157742541Y-118288981D01*
X157745557Y-118279702D01*
X157748505Y-118280660D01*
X157771453Y-118232250D01*
X157830763Y-118195316D01*
X157900626Y-118196312D01*
X157958860Y-118234919D01*
X157986977Y-118298882D01*
X157988000Y-118314779D01*
X157988000Y-119052800D01*
X157968315Y-119119839D01*
X157915511Y-119165594D01*
X157864000Y-119176800D01*
X154808754Y-119176800D01*
X154741715Y-119157115D01*
X154695960Y-119104311D01*
X154684760Y-119054052D01*
X154678199Y-118404500D01*
X156553198Y-118404500D01*
X156635067Y-118486368D01*
X156642100Y-118489950D01*
X156642100Y-118404500D01*
X156553198Y-118404500D01*
X154678199Y-118404500D01*
X154670749Y-117666959D01*
X154668603Y-117454499D01*
X156553197Y-117454499D01*
X156553198Y-117454500D01*
X156642100Y-117454500D01*
X156642100Y-117369048D01*
X156635064Y-117372633D01*
X156635060Y-117372636D01*
X156553197Y-117454499D01*
X154668603Y-117454499D01*
X154661865Y-116787451D01*
X154680872Y-116720218D01*
X154733211Y-116673932D01*
X154785859Y-116662200D01*
X155931316Y-116662200D01*
X155998355Y-116681885D01*
G37*
%TD.AperFunction*%
%TD*%
%TA.AperFunction,Conductor*%
%TO.N,Net-(JP1-A)*%
G36*
X150692039Y-116681885D02*
G01*
X150737794Y-116734689D01*
X150749000Y-116786200D01*
X150749000Y-119052800D01*
X150729315Y-119119839D01*
X150676511Y-119165594D01*
X150625000Y-119176800D01*
X147469400Y-119176800D01*
X147402361Y-119157115D01*
X147356606Y-119104311D01*
X147345400Y-119052800D01*
X147345400Y-118404500D01*
X147710198Y-118404500D01*
X147792067Y-118486368D01*
X147799100Y-118489950D01*
X148749100Y-118489950D01*
X148756132Y-118486368D01*
X148838002Y-118404500D01*
X148749100Y-118404500D01*
X148749100Y-118489950D01*
X147799100Y-118489950D01*
X147799100Y-118404500D01*
X147710198Y-118404500D01*
X147345400Y-118404500D01*
X147345400Y-117454499D01*
X147710197Y-117454499D01*
X147710198Y-117454500D01*
X147799100Y-117454500D01*
X148749100Y-117454500D01*
X148838002Y-117454500D01*
X148838002Y-117454499D01*
X148756139Y-117372636D01*
X148756135Y-117372633D01*
X148749100Y-117369048D01*
X148749100Y-117454500D01*
X147799100Y-117454500D01*
X147799100Y-117369048D01*
X147792064Y-117372633D01*
X147792060Y-117372636D01*
X147710197Y-117454499D01*
X147345400Y-117454499D01*
X147345400Y-117042500D01*
X147365085Y-116975461D01*
X147417889Y-116929706D01*
X147469400Y-116918500D01*
X148592991Y-116918500D01*
X148593000Y-116918500D01*
X148636684Y-116913803D01*
X148668461Y-116906890D01*
X148688174Y-116902602D01*
X148688190Y-116902598D01*
X148688195Y-116902597D01*
X148698373Y-116900110D01*
X148779085Y-116857100D01*
X148831889Y-116811345D01*
X148849843Y-116793754D01*
X148887929Y-116725665D01*
X148937836Y-116676767D01*
X148996149Y-116662200D01*
X150625000Y-116662200D01*
X150692039Y-116681885D01*
G37*
%TD.AperFunction*%
%TD*%
%TA.AperFunction,Conductor*%
%TO.N,Vccb*%
G36*
X151835039Y-104413685D02*
G01*
X151880794Y-104466489D01*
X151892000Y-104518000D01*
X151892000Y-106934000D01*
X152451500Y-106934000D01*
X152518539Y-106953685D01*
X152564294Y-107006489D01*
X152575500Y-107058000D01*
X152575500Y-119002000D01*
X152555815Y-119069039D01*
X152503011Y-119114794D01*
X152451500Y-119126000D01*
X151254000Y-119126000D01*
X151186961Y-119106315D01*
X151141206Y-119053511D01*
X151130000Y-119002000D01*
X151130000Y-116459000D01*
X150649866Y-116459000D01*
X150632220Y-116457738D01*
X150625001Y-116456700D01*
X150625000Y-116456700D01*
X149046500Y-116456700D01*
X148979461Y-116437015D01*
X148933706Y-116384211D01*
X148922500Y-116332700D01*
X148922500Y-115328049D01*
X148942185Y-115261010D01*
X148994989Y-115215255D01*
X149064147Y-115205311D01*
X149127703Y-115234336D01*
X149161061Y-115280595D01*
X149162042Y-115282963D01*
X149195726Y-115333373D01*
X149246138Y-115367059D01*
X149246137Y-115367059D01*
X149290583Y-115375899D01*
X149290587Y-115375900D01*
X149655600Y-115375900D01*
X150655600Y-115375900D01*
X151020613Y-115375900D01*
X151020616Y-115375899D01*
X151065061Y-115367059D01*
X151115473Y-115333373D01*
X151149159Y-115282961D01*
X151157999Y-115238516D01*
X151158000Y-115238513D01*
X151158000Y-114873500D01*
X150655600Y-114873500D01*
X150655600Y-115375900D01*
X149655600Y-115375900D01*
X149655600Y-114873500D01*
X149153200Y-114873500D01*
X149118591Y-114908109D01*
X149057267Y-114941593D01*
X148987576Y-114936608D01*
X148931642Y-114894737D01*
X148914025Y-114855037D01*
X148912301Y-114855590D01*
X148910083Y-114848667D01*
X148888097Y-114800361D01*
X148872196Y-114765424D01*
X148869396Y-114761752D01*
X148844399Y-114696506D01*
X148844000Y-114686564D01*
X148844000Y-114307674D01*
X149655600Y-114307674D01*
X149655600Y-114439326D01*
X149689675Y-114566493D01*
X149755501Y-114680507D01*
X149848593Y-114773599D01*
X149962607Y-114839425D01*
X150089774Y-114873500D01*
X150221426Y-114873500D01*
X150348593Y-114839425D01*
X150462607Y-114773599D01*
X150555699Y-114680507D01*
X150621525Y-114566493D01*
X150655600Y-114439326D01*
X150655600Y-114307674D01*
X150621525Y-114180507D01*
X150555699Y-114066493D01*
X150462607Y-113973401D01*
X150348593Y-113907575D01*
X150221426Y-113873500D01*
X150655600Y-113873500D01*
X151158000Y-113873500D01*
X151158000Y-113508487D01*
X151157999Y-113508483D01*
X151149159Y-113464038D01*
X151115473Y-113413626D01*
X151065061Y-113379940D01*
X151065062Y-113379940D01*
X151020616Y-113371100D01*
X150655600Y-113371100D01*
X150655600Y-113873500D01*
X150221426Y-113873500D01*
X150089774Y-113873500D01*
X149962607Y-113907575D01*
X149848593Y-113973401D01*
X149755501Y-114066493D01*
X149689675Y-114180507D01*
X149655600Y-114307674D01*
X148844000Y-114307674D01*
X148844000Y-114060114D01*
X148859779Y-113999581D01*
X148894490Y-113937528D01*
X148910223Y-113883948D01*
X148947998Y-113825170D01*
X149011554Y-113796146D01*
X149080713Y-113806090D01*
X149116747Y-113837314D01*
X149116881Y-113837181D01*
X149118754Y-113839054D01*
X149133516Y-113851846D01*
X149134334Y-113854634D01*
X149153200Y-113873500D01*
X149655600Y-113873500D01*
X149655600Y-113371100D01*
X149290583Y-113371100D01*
X149246138Y-113379940D01*
X149195726Y-113413626D01*
X149162039Y-113464040D01*
X149161059Y-113466407D01*
X149157541Y-113470771D01*
X149155256Y-113474192D01*
X149154949Y-113473987D01*
X149117216Y-113520809D01*
X149050921Y-113542871D01*
X148983223Y-113525590D01*
X148935614Y-113474451D01*
X148922500Y-113418950D01*
X148922500Y-112646008D01*
X148922499Y-112645992D01*
X148920983Y-112631891D01*
X148917803Y-112602316D01*
X148910563Y-112569035D01*
X148906602Y-112550825D01*
X148906001Y-112548367D01*
X148904110Y-112540627D01*
X148861100Y-112459915D01*
X148815345Y-112407111D01*
X148815339Y-112407104D01*
X148797757Y-112389160D01*
X148797756Y-112389159D01*
X148797754Y-112389157D01*
X148797752Y-112389156D01*
X148797750Y-112389154D01*
X148717940Y-112344511D01*
X148717935Y-112344509D01*
X148650903Y-112324826D01*
X148650899Y-112324825D01*
X148650898Y-112324825D01*
X148593000Y-112316500D01*
X148206000Y-112316500D01*
X148138961Y-112296815D01*
X148093206Y-112244011D01*
X148082000Y-112192500D01*
X148082000Y-111725966D01*
X148101685Y-111658927D01*
X148154489Y-111613172D01*
X148223647Y-111603228D01*
X148287203Y-111632253D01*
X148296940Y-111643289D01*
X148296991Y-111643239D01*
X148305623Y-111651871D01*
X148356038Y-111685559D01*
X148356037Y-111685559D01*
X148400483Y-111694399D01*
X148400487Y-111694400D01*
X149640500Y-111694400D01*
X150640500Y-111694400D01*
X151880513Y-111694400D01*
X151880516Y-111694399D01*
X151924961Y-111685559D01*
X151975373Y-111651873D01*
X152009059Y-111601461D01*
X152017899Y-111557016D01*
X152017900Y-111557013D01*
X152017900Y-111117000D01*
X150640500Y-111117000D01*
X150640500Y-111694400D01*
X149640500Y-111694400D01*
X149640500Y-110241000D01*
X149660185Y-110173961D01*
X149712989Y-110128206D01*
X149764500Y-110117000D01*
X152017900Y-110117000D01*
X152017900Y-109676987D01*
X152017899Y-109676983D01*
X152009059Y-109632538D01*
X151975373Y-109582126D01*
X151924961Y-109548440D01*
X151924962Y-109548440D01*
X151880516Y-109539600D01*
X150238000Y-109539600D01*
X150170961Y-109519915D01*
X150125206Y-109467111D01*
X150114000Y-109415600D01*
X150114000Y-109041848D01*
X150133685Y-108974809D01*
X150186489Y-108929054D01*
X150255647Y-108919110D01*
X150319203Y-108948135D01*
X150348485Y-108985553D01*
X150383633Y-109054534D01*
X150383633Y-109054535D01*
X150470969Y-109141870D01*
X150527999Y-109170928D01*
X150528000Y-109170928D01*
X151478000Y-109170928D01*
X151535030Y-109141870D01*
X151616902Y-109060000D01*
X151478000Y-109060000D01*
X151478000Y-109170928D01*
X150528000Y-109170928D01*
X150528000Y-108110000D01*
X151478000Y-108110000D01*
X151616902Y-108110000D01*
X151616902Y-108109999D01*
X151535035Y-108028132D01*
X151478000Y-107999070D01*
X151478000Y-108110000D01*
X150528000Y-108110000D01*
X150528000Y-107999071D01*
X150527999Y-107999070D01*
X150470964Y-108028132D01*
X150383636Y-108115460D01*
X150383633Y-108115465D01*
X150348485Y-108184447D01*
X150300510Y-108235243D01*
X150232689Y-108252038D01*
X150166554Y-108229501D01*
X150123103Y-108174785D01*
X150114000Y-108128152D01*
X150114000Y-106680000D01*
X149476000Y-106680000D01*
X149408961Y-106660315D01*
X149363206Y-106607511D01*
X149352000Y-106556000D01*
X149352000Y-105827496D01*
X149371685Y-105760457D01*
X149424489Y-105714702D01*
X149493647Y-105704758D01*
X149544893Y-105724395D01*
X149588538Y-105753559D01*
X149588537Y-105753559D01*
X149632983Y-105762399D01*
X149632987Y-105762400D01*
X150048000Y-105762400D01*
X150448000Y-105762400D01*
X150863013Y-105762400D01*
X150863016Y-105762399D01*
X150907461Y-105753559D01*
X150957873Y-105719873D01*
X150991559Y-105669461D01*
X151000399Y-105625016D01*
X151000400Y-105625013D01*
X151000400Y-105610000D01*
X150448000Y-105610000D01*
X150448000Y-105762400D01*
X150048000Y-105762400D01*
X150048000Y-105210000D01*
X150448000Y-105210000D01*
X151000400Y-105210000D01*
X151000400Y-105194987D01*
X151000399Y-105194983D01*
X150991559Y-105150540D01*
X150987175Y-105139956D01*
X150979705Y-105070487D01*
X150987175Y-105045044D01*
X150991559Y-105034459D01*
X151000399Y-104990016D01*
X151000400Y-104990013D01*
X151000400Y-104975000D01*
X150448000Y-104975000D01*
X150448000Y-105210000D01*
X150048000Y-105210000D01*
X150048000Y-104699000D01*
X150067685Y-104631961D01*
X150120489Y-104586206D01*
X150172000Y-104575000D01*
X151000400Y-104575000D01*
X151000400Y-104559989D01*
X150997057Y-104543185D01*
X151003283Y-104473593D01*
X151015609Y-104450043D01*
X151016275Y-104449049D01*
X151069913Y-104404275D01*
X151119337Y-104394000D01*
X151768000Y-104394000D01*
X151835039Y-104413685D01*
G37*
%TD.AperFunction*%
%TD*%
M02*
